<svg xmlns="http://www.w3.org/2000/svg" viewBox="0 0 228 72"><defs><style>.cls-1{fill:none;}.cls-2{fill:#334354;}</style></defs><title>ann-arundel</title><g id="Layer_2" data-name="Layer 2"><g id="Layer_1-2" data-name="Layer 1"><g id="Group_10966" data-name="Group 10966"><g id="Group_10963" data-name="Group 10963"><rect id="Rectangle_1551" data-name="Rectangle 1551" class="cls-1" width="228" height="72"/><g id="Group_11446" data-name="Group 11446"><g id="Group_11414" data-name="Group 11414"><g id="Group_11409" data-name="Group 11409"><path id="Path_13225" data-name="Path 13225" class="cls-2" d="M95.27,21.64Zm8.83,0c-1.4,0-2.79,0-4.18,0-.49,0-1,0-1.47,0-.19,0-.25.08-.24.25a1.05,1.05,0,0,0,.08.35,1.5,1.5,0,0,1,.15.42,6.74,6.74,0,0,0,.28,1.07,10.73,10.73,0,0,1,.41,2.33A8.48,8.48,0,0,1,99,28.82a9.83,9.83,0,0,0-.3,1.88c0,.86-.22,1.71-.22,2.57,0,.44,0,.88,0,1.31a21.55,21.55,0,0,0,.18,2.79c.07.68.29,1.31.38,2a3.61,3.61,0,0,1,.15.86c0,.1,0,.22-.15.19s-.32,0-.29-.19c.09-.54-.25-1-.37-1.45S98.11,38,98,37.68s-.22-.67-.31-1-.3-.94-.44-1.42-.22-1-.34-1.49a18.46,18.46,0,0,1-.36-2.46,11,11,0,0,1,0-1.52,1.27,1.27,0,0,1,0-.28,4.25,4.25,0,0,0,.16-1.42c0-.31-.16-.61-.18-.92,0-.71-.34-1.37-.34-2.08a.19.19,0,0,0,0-.08,5.42,5.42,0,0,1-.39-1.26c-.15-.46-.26-.93-.42-1.39a1.87,1.87,0,0,1-.13-.71c-.16,0-.29.09-.45.09h-26c-.1,0-.22,0-.28.08s-.3.39-.27.66a.36.36,0,0,1-.06.25c-.18.3-.31.64-.47.95a5.75,5.75,0,0,1-.34.65c-.21.31-.41.64-.6,1s-.47.79-.65,1.22a5.21,5.21,0,0,0-.35.71c0,.12,0,.21-.21.2a.26.26,0,0,1-.23-.24,3.65,3.65,0,0,0-.13-.55,5.08,5.08,0,0,1,0-1.74c0-.38.16-.76.18-1.15a.75.75,0,0,1,0-.26c.19-.46.18-1,.37-1.43.1-.24,0-.33-.26-.33H61.67c-.37,0-.44.07-.43.42,0,2.75,0,5.49,0,8.24.07,5.32,0,10.65,0,16,0,0,0,0,0,0h0l0,0a.5.5,0,0,0,.05.13.77.77,0,0,0,.34.35h0a4.13,4.13,0,0,1,1,.52,7.83,7.83,0,0,1,1.15.67c.25.2.55.33.8.54a13.52,13.52,0,0,1,1.6,1.43c.27.32.52.66.77,1a6.6,6.6,0,0,1,.6,1,8.7,8.7,0,0,0,.53.89,10.89,10.89,0,0,0,1.14,1.4,11.74,11.74,0,0,0,2.08,1.77c.36.24.72.49,1.09.7a11.8,11.8,0,0,0,1.23.62c.5.22,1,.42,1.52.59s1,.23,1.42.38a9.24,9.24,0,0,0,1.89.25,5.23,5.23,0,0,0,1.85,0,1.7,1.7,0,0,1,.39,0,1.7,1.7,0,0,0,.86-.2,5.86,5.86,0,0,1,1-.31c.39-.15.8-.25,1.2-.38l.77-.29c.06,0,.11,0,.13,0a.42.42,0,0,1,0,.3,2,2,0,0,1-.46.71c-.2.2-.37.43-.56.64a2,2,0,0,1-.61.33c-.58.28-1.16.57-1.76.81a8.76,8.76,0,0,1-1.21.35,11.4,11.4,0,0,1-2.09.43,22.68,22.68,0,0,1-2.33.08,4.23,4.23,0,0,1-1.7-.46,6.54,6.54,0,0,1-1.28-.61c-.33-.28-.77-.41-1-.75s-.53-.25-.75-.46l-.27-.25c-.87-.74-1.68-1.54-2.5-2.33-.35-.34-.73-.67-1-1s-.88-1-1.34-1.4a7.27,7.27,0,0,0-1-.93,4.89,4.89,0,0,1-.52-.5,8.19,8.19,0,0,0-1.25-1,7.88,7.88,0,0,0-.85-.57.87.87,0,0,1-.32-.28.43.43,0,0,0-.4-.21c-.09,0-.12.14-.22.09s0,.18,0,.27v14a.25.25,0,0,0,.22.28h0a2.43,2.43,0,0,0,.27,0H104c.56,0,.56,0,.56-.56V22.09C104.52,21.79,104.47,21.65,104.1,21.65Zm-5,26.47a2,2,0,0,1-.23.73c-.16.3-.22.64-.4.94a6.16,6.16,0,0,0-.56,1.5,1.49,1.49,0,0,1-.23.43c-.22.28-.39.6-.64.87s-.59.65-.87,1a3.15,3.15,0,0,1-.75.66,7.09,7.09,0,0,0-.66.57c-.14.12-.32.15-.47.26a6.48,6.48,0,0,1-.71.56,17.93,17.93,0,0,1-2,.95c-.39.15-.82.23-1.2.38s-1.07.19-1.59.34a4.82,4.82,0,0,1-1.2,0v0H87a4.24,4.24,0,0,1-1.71-.43c-.21-.09-.41-.21-.62-.29s-.14-.12-.05-.21a.51.51,0,0,1,.42-.22,4.55,4.55,0,0,0,1.22-.11c.44-.1.87-.24,1.31-.36a11.58,11.58,0,0,0,2.2-.87A6,6,0,0,0,91.11,54a1.37,1.37,0,0,1,.44-.28,2.79,2.79,0,0,0,1-.78,10,10,0,0,0,1.32-1.79,1.79,1.79,0,0,1,.93-.85c.66-.33,1.35-.62,2-1A2.41,2.41,0,0,0,98,47.81a10.06,10.06,0,0,1,.71-1.92c.1-.18.16-.06.19,0a3.19,3.19,0,0,1,.27.75,9,9,0,0,1,0,1.47Z"/></g><g id="Group_11410" data-name="Group 11410"><path id="Path_13226" data-name="Path 13226" class="cls-2" d="M64.74,19.39c-.07.14-.12.3-.32.33-.47.06-.94.15-1.4.23a7.47,7.47,0,0,0-1.09.39c-.54.17-1,.5-1.55.67-.23.07-.47.27-.7.35a5.34,5.34,0,0,0-.82.43c-.57.36-1.13.73-1.68,1.14A14.53,14.53,0,0,0,55,24.86a11.86,11.86,0,0,0-1.48,2c-.32.57-.58,1.17-.85,1.76,0,0-.06.07-.05.09.1.38-.16.68-.18,1s-.2.67-.21,1,0,1,0,1.47a7.79,7.79,0,0,0,.2,1.86.31.31,0,0,1,0,.1,9.07,9.07,0,0,0,.4,1.86,8.62,8.62,0,0,1,.39,1.43,1.54,1.54,0,0,0,.19.44,24.33,24.33,0,0,0,1.18,2.47c.3.52.64,1,.93,1.54a8.26,8.26,0,0,0,.65,1,7.07,7.07,0,0,0,.95,1.16c.19.16.32.41.51.58s.57.41.78.64a3.44,3.44,0,0,0,1.22.7l1.1.44a.78.78,0,0,0,.54-.07h0l0,0h0l.06.17a.72.72,0,0,0,.34.35c-.41,0-.41,0-.41.39,0,.84,0,1.68,0,2.52,0,.2,0,.39.21.48-.08,0-.11.14-.22.1s-.14-.37-.39-.36c-.26-.47-.79-.49-1.2-.69s-.6-.23-.89-.39a6.32,6.32,0,0,1-1.14-.86,8.24,8.24,0,0,1-1-.93c-.48-.57-1-1.11-1.44-1.7s-.89-1.37-1.34-2c-.22-.34-.44-.67-.64-1s-.42-.78-.62-1.18-.42-.82-.61-1.24-.39-.94-.62-1.39-.22-.64-.36-.95a6,6,0,0,1-.38-1.15,26.14,26.14,0,0,1-.45-2.79A12.5,12.5,0,0,1,50,31a14,14,0,0,1,.35-2.49c.1-.35.12-.72.23-1.08s.28-.77.42-1.16a8.47,8.47,0,0,1,.71-1.45,8.45,8.45,0,0,1,1-1.55c.25-.28.49-.58.75-.85a3.56,3.56,0,0,1,.84-.71,8.1,8.1,0,0,1,1-.55,10,10,0,0,0,1.26-.54c.52-.25,1-.5,1.6-.7.35-.13.72-.19,1.06-.35a4,4,0,0,1,.89-.23,15.73,15.73,0,0,1,2-.32c.65-.06,1.3,0,2,0a.63.63,0,0,1,.46.2C64.66,19.23,64.81,19.25,64.74,19.39Z"/></g><g id="Group_11411" data-name="Group 11411"><path id="Path_13227" data-name="Path 13227" class="cls-2" d="M89.2,13.83a1.25,1.25,0,0,1-1.14-.25,6.69,6.69,0,0,1-1.07-1,11.6,11.6,0,0,0-1.38-1.14c-.17-.13-.3-.28-.47-.4a1.83,1.83,0,0,0-1-.29,9.78,9.78,0,0,1-1.71-.14,5.21,5.21,0,0,0-1-.1,1.92,1.92,0,0,0-.68.14c-.54.18-1.08.38-1.6.61A6,6,0,0,0,78,11.9c-.12.09-.26.09-.38.16-.8.48-1.6,1-2.36,1.54s-1.55,1.21-2.31,1.84a3.88,3.88,0,0,1-.86.7.2.2,0,0,0-.09.09c-.12.35-.48.45-.7.69s-.53.48-.8.73-.55.44-.83.67c-.07.06-.11.07-.15,0a.53.53,0,0,1-.08-.32,3.25,3.25,0,0,1,.6-1.29,21.17,21.17,0,0,1,2.38-2.88c.57-.64,1.11-1.3,1.7-1.91a19.72,19.72,0,0,1,2-1.82,8.19,8.19,0,0,1,1.81-1.27,14.11,14.11,0,0,1,1.54-.55A6.77,6.77,0,0,1,81.51,8a8.33,8.33,0,0,1,1.86.25A8.17,8.17,0,0,0,85,8.6a1.23,1.23,0,0,1,.64.27,4,4,0,0,1,1.38,1.72c.2.43.42.87.62,1.3a5.62,5.62,0,0,0,1.18,1.67A2.24,2.24,0,0,0,89.2,13.83Z"/></g><g id="Group_11412" data-name="Group 11412"><path id="Path_13228" data-name="Path 13228" class="cls-2" d="M67.24,21.76h-1c-.32,0-.33-.07-.27-.38a3.91,3.91,0,0,0,.14-.68,8.72,8.72,0,0,0,.1-1.69,5.69,5.69,0,0,0-.28-1.41,4.54,4.54,0,0,0-.26-.7,5.27,5.27,0,0,0-1.29-1.57c-.47-.35-1-.52-1.5-.87-.08-.06-.24,0-.22-.19a.38.38,0,0,1,.27-.29,4,4,0,0,0,1.94-1.46,10.15,10.15,0,0,0,1-1.7c0-.07,0-.14.14-.13s.12.1.11.17A4.33,4.33,0,0,0,66.2,12c.14.63.08,1.29.27,1.93.15.48.2,1,.35,1.5.1.33.27.63.39,1a10.66,10.66,0,0,0,.85,1.77,5.66,5.66,0,0,1,.55,1.59,3.38,3.38,0,0,1-.1,1.7,0,0,0,0,1,0,0c.1.38-.18.27-.36.28h-.9Z"/></g><g id="Group_11413" data-name="Group 11413"><path id="Path_13229" data-name="Path 13229" class="cls-2" d="M95.27,21.75c-.36-.75-.61-1.55-.91-2.32s-.54-1.26-.83-1.88A8.37,8.37,0,0,0,92.71,16a3.06,3.06,0,0,1-.22-.49c-.27-.49-.54-1-.84-1.45a5.35,5.35,0,0,0-.62-.8c-.46-.5-.91-1-1.36-1.53-.1-.12,0-.25.14-.28a.92.92,0,0,1,.64.16c.31.17.53.46.83.65a6.09,6.09,0,0,1,.82.62c.41.37.77.79,1.17,1.16s.87,1,1.32,1.54a23.35,23.35,0,0,1,1.61,2.23,19.58,19.58,0,0,1,1.08,2,7.25,7.25,0,0,1,.45,1.08c.06.18.19.35.25.53s0,.34-.22.34l-2.49,0Z"/></g></g><g id="Group_11415" data-name="Group 11415"><path id="Path_13230" data-name="Path 13230" class="cls-2" d="M112,30a.18.18,0,0,0-.16.13L110.85,33a3,3,0,0,0-.22,1.06.5.5,0,0,0,.56.45h.14c.16,0,.2,0,.2.09s-.14.13-.28.13c-.38,0-1,0-1.18,0s-1,0-1.78,0c-.2,0-.3,0-.3-.13s.08-.09.22-.09a2.34,2.34,0,0,0,.38,0c.72-.09,1-.69,1.32-1.48l3.57-9.76c.19-.52.25-.61.34-.61s.16.08.35.57,2.7,7.08,3.66,9.47c.57,1.4,1,1.65,1.35,1.75a2.16,2.16,0,0,0,.62.09c.09,0,.17,0,.17.1s-.14.12-.31.12-1.39,0-2.47,0c-.3,0-.47,0-.47-.11s0-.09.11-.11.19-.17.09-.42l-1.46-3.87a.13.13,0,0,0-.14-.09Zm3.17-.56c.08,0,.08-.05.06-.11l-1.49-4.24q-.12-.36-.24,0l-1.38,4.24c0,.08,0,.11.05.11Z"/><path id="Path_13231" data-name="Path 13231" class="cls-2" d="M121.66,30c0-5.67,0-3.63,0-6.67,0-.62,0-.79.18-.79s.39.35.55.5,2.58,2.8,5,5.39c1.55,1.67,3.27,3.58,3.77,4.1l-.17-8c0-1-.13-1.37-.62-1.5a3.83,3.83,0,0,0-.67-.08c-.18,0-.22,0-.22-.11s.12-.11.31-.11c.71,0,1.46.05,1.64.05s.69-.05,1.33-.05c.17,0,.28,0,.28.11s-.06.1-.17.11l-.41.07c-.44.09-.55.33-.55,1.41l0,9.18c0,1,0,1.12-.14,1.12s-.31-.18-1.15-1c-.17-.16-2.43-2.47-4.1-4.26-1.82-2-3.6-3.94-4.1-4.51l.2,7.53c0,1.29.19,1.7.62,1.82a4.06,4.06,0,0,0,.78.1c.08,0,.13,0,.13.09s-.1.13-.29.13c-.9,0-1.52,0-1.66,0s-.8,0-1.51,0c-.16,0-.25,0-.25-.13s0-.09.12-.09a2.84,2.84,0,0,0,.65-.1c.39-.11.47-.56.47-2Z"/><path id="Path_13232" data-name="Path 13232" class="cls-2" d="M136.65,30c0-5.67,0-3.63,0-6.67,0-.62.05-.79.18-.79s.39.35.55.5,2.57,2.8,5,5.39c1.55,1.67,3.27,3.58,3.77,4.1l-.18-8c0-1-.12-1.37-.61-1.5a3.83,3.83,0,0,0-.67-.08c-.18,0-.22,0-.22-.11s.12-.11.31-.11c.71,0,1.46.05,1.63.05s.7-.05,1.34-.05c.17,0,.28,0,.28.11s-.06.1-.17.11l-.41.07c-.44.09-.55.33-.55,1.41l0,9.18c0,1,0,1.12-.14,1.12s-.31-.18-1.15-1c-.17-.16-2.43-2.47-4.1-4.26-1.82-2-3.6-3.94-4.1-4.51l.2,7.53c0,1.29.19,1.7.62,1.82a4.06,4.06,0,0,0,.78.1c.08,0,.13,0,.13.09s-.09.13-.28.13c-.9,0-1.53,0-1.67,0s-.8,0-1.51,0c-.16,0-.25,0-.25-.13s.05-.09.13-.09a2.84,2.84,0,0,0,.64-.1c.39-.11.47-.56.47-2Z"/><path id="Path_13233" data-name="Path 13233" class="cls-2" d="M152.16,27.36c0-2.46,0-2.9,0-3.4s-.15-.78-.67-.9a3.57,3.57,0,0,0-.46,0c-.11,0-.2,0-.2-.1s.08-.12.25-.12c.36,0,.79,0,1.78,0h3.6a2.5,2.5,0,0,0,.72-.1.49.49,0,0,1,.17-.06c.05,0,.07.06.07.14a6.37,6.37,0,0,0-.13.74c0,.24,0,.53-.06.94,0,.16-.06.27-.13.27s-.12-.08-.12-.2a1.82,1.82,0,0,0-.08-.52c-.11-.36-.44-.52-1.13-.58-.27,0-2-.05-2.16-.05s-.09.05-.09.16v4.34c0,.11,0,.15.09.15s2.14,0,2.5,0,.63-.07.79-.26.13-.16.19-.16.08,0,.08.12-.08.37-.13.88,0,.85-.06,1.07,0,.24-.11.24-.11-.13-.11-.25a1.61,1.61,0,0,0-.06-.44c-.07-.24-.26-.46-.82-.52s-2-.08-2.25-.08a.1.1,0,0,0-.11.09v1.4c0,.53,0,2.36,0,2.69,0,.64.13,1,.52,1.14a3.8,3.8,0,0,0,1.3.14,5.23,5.23,0,0,0,1.42-.14c.5-.15.67-.48.8-1.16,0-.17.06-.24.14-.24s.09.13.09.24a14.93,14.93,0,0,1-.2,1.52c-.11.41-.23.41-.85.41-1.16,0-1.68,0-2.29,0s-1.35,0-2,0c-.37,0-.75.06-1.16,0-.17,0-.25,0-.25-.12s.08-.08.17-.09l.36-.05c.33-.08.54-.3.57-1.48,0-.61,0-1.41,0-2.81Z"/><path id="Path_13234" data-name="Path 13234" class="cls-2" d="M112,45.84a.16.16,0,0,0-.16.13l-.94,2.78a3,3,0,0,0-.22,1,.5.5,0,0,0,.56.46h.14c.16,0,.2,0,.2.09s-.14.13-.28.13c-.38,0-1,0-1.18,0s-1,0-1.78,0c-.2,0-.3,0-.3-.13s.08-.09.22-.09l.38,0c.72-.1,1-.69,1.32-1.48L113.48,39c.19-.52.25-.61.34-.61s.16.08.35.56,2.7,7.09,3.66,9.48c.57,1.4,1,1.65,1.35,1.75a2.16,2.16,0,0,0,.62.09c.09,0,.17,0,.17.09s-.14.13-.31.13-1.39,0-2.47,0c-.3,0-.47,0-.47-.11s0-.1.11-.11.19-.18.09-.43l-1.46-3.86a.15.15,0,0,0-.14-.1Zm3.17-.56c.08,0,.08-.05.06-.11l-1.49-4.25q-.12-.35-.24,0l-1.38,4.25c0,.07,0,.11.05.11Z"/><path id="Path_13235" data-name="Path 13235" class="cls-2" d="M122.33,43.15c0-2.45,0-2.89,0-3.39s-.16-.79-.67-.9a3.29,3.29,0,0,0-.54,0c-.06,0-.12,0-.12-.09s.07-.13.25-.13c.7,0,1.7,0,1.77,0s1.37,0,1.86,0a4.9,4.9,0,0,1,2.87.69,2.77,2.77,0,0,1,1.09,2.14,4.86,4.86,0,0,1-1.9,3.63c1.29,1.65,2.35,3.05,3.27,4a3.24,3.24,0,0,0,1.91,1.14,4.3,4.3,0,0,0,.62,0c.07,0,.14,0,.14.1s-.1.12-.38.12h-1.12a3.17,3.17,0,0,1-1.68-.3,8.06,8.06,0,0,1-2.12-2.31c-.66-.86-1.4-1.91-1.71-2.32a.26.26,0,0,0-.2-.1l-1.94,0c-.07,0-.11.05-.11.13v.37c0,1.51,0,2.75.08,3.41,0,.46.14.8.62.87.23,0,.47.05.7.06s.13,0,.13.1-.08.12-.25.12c-.87,0-1.86,0-1.93,0s-1,0-1.48,0c-.18,0-.25,0-.25-.12s0-.1.12-.1a2.42,2.42,0,0,0,.47-.06c.32-.06.4-.41.46-.87.08-.66.08-1.9.08-3.41Zm1.26,1.37a.21.21,0,0,0,.11.19,4.42,4.42,0,0,0,1.65.25,2,2,0,0,0,1.18-.3,2.89,2.89,0,0,0,1-2.42c0-2-1-3.14-2.72-3.14a4.61,4.61,0,0,0-1,.09.21.21,0,0,0-.13.19Z"/><path id="Path_13236" data-name="Path 13236" class="cls-2" d="M134.75,45.35c0,2.27.5,3.24,1.18,3.89a3.06,3.06,0,0,0,2.37.86A3.32,3.32,0,0,0,140.77,49a6.14,6.14,0,0,0,.91-3.85v-2c0-2.45,0-2.89,0-3.39s-.16-.79-.68-.9a3.07,3.07,0,0,0-.53,0c-.07,0-.13,0-.13-.09s.08-.13.25-.13c.71,0,1.58,0,1.67,0s.85,0,1.32,0c.17,0,.25,0,.25.13s-.06.09-.13.09a2.6,2.6,0,0,0-.39,0c-.42.09-.55.35-.58.9s0,.94,0,3.39v1.69c0,1.7-.19,3.58-1.45,4.7A4.63,4.63,0,0,1,138,50.7a4.85,4.85,0,0,1-3.24-1.12c-.77-.74-1.37-1.84-1.37-4.13v-2.3c0-2.45,0-2.89,0-3.39s-.16-.79-.68-.9a3.07,3.07,0,0,0-.53,0c-.06,0-.13,0-.13-.09s.08-.13.25-.13c.71,0,1.67,0,1.81,0s1.09,0,1.56,0c.17,0,.25,0,.25.13s-.06.09-.13.09a2.6,2.6,0,0,0-.39,0c-.42.06-.55.35-.58.9s0,.94,0,3.39Z"/><path id="Path_13237" data-name="Path 13237" class="cls-2" d="M146.93,45.84c0-5.67,0-3.63,0-6.68,0-.61,0-.78.17-.78s.39.34.55.5,2.58,2.8,5,5.39c1.55,1.66,3.27,3.58,3.77,4.1l-.17-8c0-1-.13-1.36-.62-1.49a3,3,0,0,0-.67-.08c-.17,0-.22-.05-.22-.11s.12-.11.31-.11c.71,0,1.46,0,1.64,0s.69,0,1.33,0c.18,0,.29,0,.29.11s-.07.09-.18.11l-.41.06c-.44.1-.55.33-.55,1.42l0,9.18c0,1,0,1.11-.14,1.11s-.31-.17-1.15-1c-.17-.16-2.43-2.47-4.1-4.26-1.82-2-3.6-4-4.1-4.51l.2,7.53c0,1.28.19,1.7.62,1.82a3.39,3.39,0,0,0,.78.09c.08,0,.13,0,.13.1s-.1.12-.28.12c-.9,0-1.53,0-1.67,0s-.8,0-1.51,0c-.16,0-.25,0-.25-.12s.05-.1.13-.1a2.35,2.35,0,0,0,.64-.09c.39-.11.47-.57.47-2Z"/><path id="Path_13238" data-name="Path 13238" class="cls-2" d="M162.44,43.15c0-2.45,0-2.89,0-3.39s-.11-.79-.63-.9a3.17,3.17,0,0,0-.53,0c-.11,0-.18,0-.18-.09s.08-.13.25-.13c.71,0,1.7,0,1.78,0s1.18,0,2.12,0c1.56,0,4.43-.14,6.3,1.79a5.61,5.61,0,0,1,1.53,4,6.43,6.43,0,0,1-1.7,4.43,6.22,6.22,0,0,1-4.76,1.8c-.68,0-1.51,0-2.19-.09l-1.3-.09h-.63c-.31,0-.67,0-.91,0s-.25,0-.25-.12,0-.1.16-.1l.44-.06c.31-.06.39-.41.45-.86.08-.66.08-1.9.08-3.41Zm1.32,1.7c0,1.67,0,3.12,0,3.41a3.75,3.75,0,0,0,.17,1.2c.2.3.82.63,2.68.63a5.28,5.28,0,0,0,3.74-1.47,5.45,5.45,0,0,0,1.25-3.75,5.54,5.54,0,0,0-1.51-4c-1.47-1.56-3.26-1.78-5.13-1.78a4.45,4.45,0,0,0-1,.11.3.3,0,0,0-.19.32c0,.53,0,2.13,0,3.34Z"/><path id="Path_13239" data-name="Path 13239" class="cls-2" d="M176.73,43.15c0-2.45,0-2.89,0-3.39s-.16-.79-.68-.9a3.41,3.41,0,0,0-.46,0c-.11,0-.2,0-.2-.09s.08-.13.25-.13c.37,0,.79,0,1.78,0,.11,0,3.24,0,3.6,0a2.84,2.84,0,0,0,.72-.09.32.32,0,0,1,.18-.06s.06.06.06.14a6,6,0,0,0-.13.74c0,.23,0,.53-.06.94,0,.16-.06.27-.12.27s-.13-.08-.13-.2a1.49,1.49,0,0,0-.08-.52c-.11-.36-.44-.52-1.13-.58-.27,0-2,0-2.15,0s-.1,0-.1.16V43.7c0,.11,0,.16.1.16s2.14,0,2.5,0,.63-.08.78-.27.13-.16.19-.16.08,0,.08.13-.08.36-.12.88-.05.85-.07,1.07,0,.23-.11.23-.11-.12-.11-.25a1.34,1.34,0,0,0-.06-.44c-.06-.23-.25-.45-.82-.52-.42,0-2-.07-2.24-.07a.09.09,0,0,0-.11.08v1.41c0,.53,0,2.35,0,2.68,0,.65.12,1,.52,1.15a3.8,3.8,0,0,0,1.3.14,5.16,5.16,0,0,0,1.41-.14c.5-.16.68-.49.8-1.16,0-.18.06-.24.14-.24s.1.13.1.24-.13,1.19-.2,1.52-.24.41-.85.41c-1.17,0-1.68,0-2.3-.05s-1.35,0-2,0c-.38,0-.76.07-1.16,0-.18,0-.26,0-.26-.12s.08-.08.18-.1a2.2,2.2,0,0,0,.36,0c.33-.08.53-.3.56-1.48,0-.61,0-1.42,0-2.81Z"/><path id="Path_13240" data-name="Path 13240" class="cls-2" d="M187.4,46c0,2.31.06,3.32.34,3.6s.66.36,1.89.36c.83,0,1.52,0,1.9-.47a2.2,2.2,0,0,0,.41-.94c0-.13.05-.2.14-.2s.09.06.09.23a9.41,9.41,0,0,1-.23,1.58c-.11.36-.16.42-1,.42-1.35,0-2.69-.09-4.21-.09-.49,0-1,0-1.54,0-.18,0-.26,0-.26-.12s0-.1.13-.1a1.84,1.84,0,0,0,.47-.06c.32-.06.39-.41.46-.87.08-.66.08-1.9.08-3.41V43.15c0-2.45,0-2.89,0-3.39s-.15-.79-.67-.9a3.29,3.29,0,0,0-.54,0c-.06,0-.12,0-.12-.09s.08-.13.25-.13c.71,0,1.7,0,1.78,0s1.22,0,1.7,0c.17,0,.25,0,.25.13s-.06.09-.13.09a4.8,4.8,0,0,0-.52,0c-.45.08-.58.35-.61.9s0,.94,0,3.39Z"/></g><g id="Group_11416" data-name="Group 11416"><path id="Path_13241" data-name="Path 13241" class="cls-2" d="M108.81,61.43a2.58,2.58,0,0,1-.81-2,2.67,2.67,0,0,1,.75-1.82,2.71,2.71,0,0,1,2-.72,6.35,6.35,0,0,1,1,.08c.25,0,.46.07.7.1a.06.06,0,0,1,.06.07h0s0,.13,0,.37,0,.59,0,.69,0,.14-.06.14-.05-.05-.05-.14a.94.94,0,0,0-.28-.68,2.21,2.21,0,0,0-1.34-.38,2,2,0,0,0-1.53.48,2.24,2.24,0,0,0-.6,1.74A2.42,2.42,0,0,0,111,61.84h0a1.55,1.55,0,0,0,1.16-.33,1.35,1.35,0,0,0,.25-.56c0-.08,0-.1.06-.1s0,0,0,.1a8.36,8.36,0,0,1-.14.85c0,.13-.06.14-.18.19a3.74,3.74,0,0,1-1.2.16A3.12,3.12,0,0,1,108.81,61.43Z"/><path id="Path_13242" data-name="Path 13242" class="cls-2" d="M113.28,59.53a2.57,2.57,0,0,1,2.55-2.6h.07a2.46,2.46,0,0,1,2.62,2.5A2.62,2.62,0,0,1,116,62.15h-.15a2.5,2.5,0,0,1-2.59-2.41A1.48,1.48,0,0,1,113.28,59.53Zm4.6.08a2.18,2.18,0,0,0-2-2.46,1.91,1.91,0,0,0-2,1.87,1.13,1.13,0,0,0,0,.32,2.27,2.27,0,0,0,2,2.54H116c.6,0,1.84-.34,1.84-2.28Z"/><path id="Path_13243" data-name="Path 13243" class="cls-2" d="M120.29,59.88a2.06,2.06,0,0,0,.5,1.65,1.31,1.31,0,0,0,1,.36,1.39,1.39,0,0,0,1-.48,2.59,2.59,0,0,0,.38-1.63V59c0-1,0-1.23,0-1.44s-.07-.33-.29-.38l-.22,0s-.06,0-.06,0,0,0,.11,0l.71,0,.56,0c.07,0,.1,0,.1,0s0,0,0,0l-.17,0c-.18,0-.23.15-.24.38s0,.4,0,1.44v.71a2.57,2.57,0,0,1-.61,2,1.94,1.94,0,0,1-1.37.5,2.07,2.07,0,0,1-1.37-.48,2.17,2.17,0,0,1-.58-1.75V59c0-1,0-1.23,0-1.44s-.06-.33-.28-.38l-.23,0s0,0,0,0,0,0,.1,0l.77,0,.66,0c.07,0,.11,0,.11,0s0,0-.06,0l-.16,0c-.18,0-.24.15-.25.38s0,.4,0,1.44Z"/><path id="Path_13244" data-name="Path 13244" class="cls-2" d="M125.33,60.09c0-2.4,0-1.54,0-2.83,0-.26,0-.34.08-.34s.16.15.23.22l2.12,2.28c.66.71,1.38,1.52,1.6,1.74l-.08-3.38c0-.44-.05-.58-.26-.64a1.33,1.33,0,0,0-.28,0c-.08,0-.1,0-.1,0s.06,0,.14,0l.69,0,.57,0c.07,0,.12,0,.12,0s0,0-.08,0l-.17,0c-.19,0-.23.14-.23.6l0,3.89c0,.44,0,.47-.06.47s-.13-.07-.48-.43c-.07-.06-1-1-1.74-1.8s-1.53-1.67-1.74-1.91l.09,3.19c0,.54.08.72.26.77a1.24,1.24,0,0,0,.33,0s.05,0,.05,0,0,0-.12,0c-.38,0-.64,0-.7,0l-.64,0c-.07,0-.11,0-.11,0s0,0,.06,0a.84.84,0,0,0,.27,0c.17-.05.2-.24.2-.85Z"/><path id="Path_13245" data-name="Path 13245" class="cls-2" d="M133.18,60.12c0,.64,0,1.17,0,1.45s.06.34.26.36a1.53,1.53,0,0,0,.3,0s.06,0,.06,0,0,0-.11,0l-.82,0-.65,0c-.07,0-.11,0-.11,0s0,0,.06,0l.2,0c.13,0,.16-.17.19-.36s0-.81,0-1.45V57.3l-1,0c-.42,0-.58,0-.68.21a.72.72,0,0,0-.12.21s0,.06-.06.06,0,0,0-.06.14-.64.15-.69,0-.13.07-.13a1,1,0,0,0,.29.08l.53,0h2.5a2.56,2.56,0,0,0,.47,0l.18,0s0,0,0,.08c0,.2,0,.66,0,.73s0,.09,0,.09-.05,0-.05-.11,0,0,0-.08c0-.2-.18-.35-.82-.36l-.84,0Z"/><path id="Path_13246" data-name="Path 13246" class="cls-2" d="M137.51,60.33a1.41,1.41,0,0,0-.15-.7c-.05-.11-.94-1.57-1.17-1.92a1.79,1.79,0,0,0-.46-.49.57.57,0,0,0-.28-.11s-.07,0-.07,0,0,0,.09,0l.66,0,.56,0c.07,0,.08,0,.08,0s0,0-.1.06a.13.13,0,0,0-.08.12.5.5,0,0,0,.08.26c.11.2,1.11,1.91,1.23,2.1.13-.28,1-1.74,1.11-2a.76.76,0,0,0,.11-.34c0-.09,0-.16-.11-.18s-.1,0-.1-.07,0,0,.11,0l.44,0,.64,0c.05,0,.09,0,.09,0s0,.05-.09.05a.67.67,0,0,0-.3.1,1.29,1.29,0,0,0-.36.34,20.49,20.49,0,0,0-1.27,2.12,1.63,1.63,0,0,0-.1.66v.57c0,.11,0,.39,0,.67s.08.34.28.37l.3,0s.05,0,.05,0,0,.06-.11.06l-.82,0-.65,0c-.07,0-.11,0-.11-.06s0,0,.06,0l.2,0c.13,0,.19-.18.2-.37s0-.56,0-.67Z"/><path id="Path_13247" data-name="Path 13247" class="cls-2" d="M143.12,59c0-1,0-1.23,0-1.44s-.06-.33-.28-.38l-.23,0s-.05,0-.05,0,0,0,.11,0l.75,0,.84,0a1.61,1.61,0,0,1,1.24.38,1.21,1.21,0,0,1,.33.87,1.54,1.54,0,0,1-1.55,1.51H144s-.07,0-.07-.05,0-.06.18-.06a1.1,1.1,0,0,0,1.15-1v-.1a1.34,1.34,0,0,0-.37-1,1.15,1.15,0,0,0-.91-.33.7.7,0,0,0-.29,0s-.05.06-.05.12v2.74c0,.64,0,1.17,0,1.45s.06.34.26.36a1.53,1.53,0,0,0,.3,0s.05,0,.05,0,0,0-.11,0l-.81,0-.64,0c-.08,0-.11,0-.11,0s0,0,.05,0a.64.64,0,0,0,.2,0c.14,0,.17-.17.2-.36s0-.81,0-1.45Z"/><path id="Path_13248" data-name="Path 13248" class="cls-2" d="M147.57,59.88a2.06,2.06,0,0,0,.5,1.65,1.31,1.31,0,0,0,1,.36,1.35,1.35,0,0,0,1-.48,2.53,2.53,0,0,0,.39-1.63V59c0-1,0-1.23,0-1.44s-.07-.33-.29-.38l-.23,0s0,0,0,0,0,0,.11,0l.7,0,.56,0c.08,0,.11,0,.11,0s0,0,0,0l-.17,0c-.18,0-.23.15-.25.38s0,.4,0,1.44v.71a2.62,2.62,0,0,1-.61,2,1.94,1.94,0,0,1-1.37.5,2.11,2.11,0,0,1-1.38-.48,2.21,2.21,0,0,1-.58-1.75V59c0-1,0-1.23,0-1.44s-.07-.33-.28-.38l-.23,0s-.05,0-.05,0,0,0,.1,0l.77,0,.66,0c.07,0,.11,0,.11,0s0,0-.06,0l-.16,0c-.18,0-.24.15-.25.38s0,.4,0,1.44Z"/><path id="Path_13249" data-name="Path 13249" class="cls-2" d="M152.82,59c0-1,0-1.23,0-1.44s-.07-.33-.29-.38l-.19,0c-.06,0-.09,0-.09,0s0,0,.11,0l.75,0,.73,0c1.09,0,1.33.66,1.33,1a1.71,1.71,0,0,1-.62,1.2,1.56,1.56,0,0,1,1.15,1.4,1.52,1.52,0,0,1-1.59,1.46H154l-.48,0-.41,0-.65,0c-.07,0-.11,0-.11-.05s0,0,.1,0l.16,0c.14,0,.16-.18.19-.37s0-.81,0-1.45Zm.54.15s0,.06,0,.07a2.83,2.83,0,0,0,.41,0c.37,0,.46,0,.6-.18a1,1,0,0,0,.24-.67c0-.55-.24-1.15-.9-1.15a1.22,1.22,0,0,0-.32,0c-.06,0-.08,0-.08.07Zm0,.7v1.44c0,.33,0,.42.23.52a1.7,1.7,0,0,0,.59.1.89.89,0,0,0,.94-.84.45.45,0,0,0,0-.11,1.58,1.58,0,0,0-.64-1.33,1.1,1.1,0,0,0-.55-.19h-.52s0,0,0,0Z"/><path id="Path_13250" data-name="Path 13250" class="cls-2" d="M157.72,60.13c0,1,0,1.41.14,1.53s.28.15.8.15c.36,0,.65,0,.81-.2a.8.8,0,0,0,.17-.4c0-.05,0-.08.06-.08s0,0,0,.1a3.76,3.76,0,0,1-.1.66c0,.16-.06.18-.42.18-.57,0-1.14,0-1.78,0l-.66,0c-.07,0-.1,0-.1,0s0,0,0,0a.69.69,0,0,0,.2,0c.13,0,.17-.17.19-.36a13.58,13.58,0,0,0,0-1.45V59c0-1,0-1.23,0-1.44s-.06-.33-.28-.38l-.23,0s0,0,0,0,0,0,.1,0l.76,0,.72,0c.07,0,.1,0,.1,0s0,0,0,0l-.22,0c-.19,0-.25.15-.26.38s0,.4,0,1.44Z"/><path id="Path_13251" data-name="Path 13251" class="cls-2" d="M160.93,59c0-1,0-1.23,0-1.44s-.08-.34-.23-.37a.64.64,0,0,0-.2,0s-.06,0-.06,0,0,0,.11,0l.67,0,.66,0c.07,0,.1,0,.1,0s0,0-.05,0l-.17,0c-.18,0-.23.15-.24.38s0,.4,0,1.44v1.17a13.58,13.58,0,0,0,0,1.45c0,.19.06.34.26.36a1.68,1.68,0,0,0,.27,0c.06,0,.08,0,.08,0s0,0-.1,0l-.82,0-.66,0c-.07,0-.1,0-.1,0s0,0,.07,0l.17,0c.13,0,.17-.18.2-.37s0-.81,0-1.45Z"/><path id="Path_13252" data-name="Path 13252" class="cls-2" d="M163.72,61.43a2.57,2.57,0,0,1-.8-2,2.66,2.66,0,0,1,.74-1.82,2.73,2.73,0,0,1,2-.72,6.22,6.22,0,0,1,1,.08c.26,0,.46.07.71.1a.07.07,0,0,1,.06.07h0s0,.13,0,.37,0,.59,0,.69,0,.14-.06.14-.06-.05-.06-.14a.86.86,0,0,0-.28-.68,2.18,2.18,0,0,0-1.33-.38,2,2,0,0,0-1.53.48,2.24,2.24,0,0,0-.6,1.74,2.4,2.4,0,0,0,2.36,2.44h0a1.57,1.57,0,0,0,1.16-.33,1.33,1.33,0,0,0,.24-.56c0-.08,0-.1.07-.1s.05,0,.05.1a6.31,6.31,0,0,1-.15.85c0,.13,0,.14-.17.19a3.78,3.78,0,0,1-1.2.16A3.13,3.13,0,0,1,163.72,61.43Z"/><path id="Path_13253" data-name="Path 13253" class="cls-2" d="M170.6,62c-.09,0-.09-.08-.09-.26s0-.6,0-.7,0-.11.05-.11,0,0,0,.08a1,1,0,0,0,0,.24.9.9,0,0,0,1,.68.88.88,0,0,0,1-.82.13.13,0,0,0,0-.06c0-.46-.2-.73-.77-1.2l-.3-.25c-.71-.58-.87-1-.87-1.44a1.23,1.23,0,0,1,1.23-1.22l.15,0a2.14,2.14,0,0,1,.62.06l.24,0s.06,0,.06,0,0,.26,0,.71c0,.11,0,.15-.05.15s0,0,0-.08a1.89,1.89,0,0,0-.09-.34c0-.07-.22-.35-.83-.35a.75.75,0,0,0-.82.69v.08c0,.38.17.62.81,1.12l.19.15c.78.62,1,1,1,1.56a1.36,1.36,0,0,1-.57,1.11,1.78,1.78,0,0,1-1,.28A2.13,2.13,0,0,1,170.6,62Z"/><path id="Path_13254" data-name="Path 13254" class="cls-2" d="M174.79,61.43a2.54,2.54,0,0,1-.81-2,2.67,2.67,0,0,1,.75-1.82,2.71,2.71,0,0,1,2-.72,6.12,6.12,0,0,1,1,.08c.26,0,.46.07.71.1,0,0,.06,0,.06.07h0s0,.13,0,.37,0,.59,0,.69,0,.14-.06.14-.06-.05-.06-.14a.86.86,0,0,0-.28-.68,2.16,2.16,0,0,0-1.33-.38,2,2,0,0,0-1.53.48,2.24,2.24,0,0,0-.6,1.74A2.41,2.41,0,0,0,177,61.84h0a1.55,1.55,0,0,0,1.16-.33,1.35,1.35,0,0,0,.25-.56c0-.08,0-.1.06-.1s.05,0,.05.1a6.31,6.31,0,0,1-.15.85c0,.13,0,.14-.17.19a3.74,3.74,0,0,1-1.2.16A3.11,3.11,0,0,1,174.79,61.43Z"/><path id="Path_13255" data-name="Path 13255" class="cls-2" d="M183.31,59.13s0,0,0,0h0V59c0-1,0-1.23,0-1.44s-.06-.33-.28-.38l-.23,0s0,0,0,0,0,0,.1,0l.76,0,.65,0c.07,0,.11,0,.11,0s0,0-.06,0l-.16,0c-.18,0-.24.15-.25.38s0,.4,0,1.44v1.17c0,.64,0,1.17,0,1.45s.06.34.26.36l.3,0s.05,0,.05,0,0,0-.1,0l-.82,0-.66,0c-.07,0-.1,0-.1,0s0,0,0,0a.69.69,0,0,0,.2,0c.13,0,.17-.17.19-.36a13.58,13.58,0,0,0,0-1.45v-.7a0,0,0,0,0,0,0h-2.83s0,0,0,0h0v.7c0,.64,0,1.17,0,1.45s.07.34.26.36a1.55,1.55,0,0,0,.31,0s.05,0,.05,0,0,0-.11,0l-.82,0-.65,0c-.07,0-.11,0-.11,0s0,0,.06,0l.2,0c.13,0,.16-.17.19-.36s0-.81,0-1.45V59c0-1,0-1.23,0-1.44s-.07-.33-.29-.38l-.22,0s-.06,0-.06,0,0,0,.11,0l.75,0,.66,0c.07,0,.1,0,.1,0s0,0,0,0l-.17,0c-.18,0-.23.15-.24.38s0,.4,0,1.44v.14s0,0,0,0h2.84Z"/><path id="Path_13256" data-name="Path 13256" class="cls-2" d="M185.32,59.53a2.57,2.57,0,0,1,2.55-2.6h.07a2.46,2.46,0,0,1,2.62,2.5,2.61,2.61,0,0,1-2.5,2.72h-.16a2.49,2.49,0,0,1-2.58-2.41A.74.74,0,0,1,185.32,59.53Zm4.6.08a2.18,2.18,0,0,0-2-2.46,1.91,1.91,0,0,0-2,1.87,1.67,1.67,0,0,0,0,.32,2.27,2.27,0,0,0,2,2.54h.16c.6,0,1.84-.34,1.84-2.28Z"/><path id="Path_13257" data-name="Path 13257" class="cls-2" d="M191.38,59.53a2.57,2.57,0,0,1,2.55-2.6H194a2.46,2.46,0,0,1,2.62,2.5,2.61,2.61,0,0,1-2.5,2.72H194a2.49,2.49,0,0,1-2.58-2.41A.74.74,0,0,1,191.38,59.53Zm4.6.08a2.18,2.18,0,0,0-2-2.46A1.91,1.91,0,0,0,192,59a1.67,1.67,0,0,0,0,.32,2.27,2.27,0,0,0,2,2.54h.16c.6,0,1.84-.34,1.84-2.28Z"/><path id="Path_13258" data-name="Path 13258" class="cls-2" d="M198.6,60.13c0,1,0,1.41.15,1.53s.28.15.8.15c.35,0,.65,0,.81-.2a1,1,0,0,0,.17-.4c0-.05,0-.08.06-.08s0,0,0,.1a5,5,0,0,1-.1.66c-.05.16-.07.18-.42.18-.57,0-1.14,0-1.79,0l-.65,0c-.07,0-.1,0-.1,0s0,0,.05,0a.69.69,0,0,0,.2,0c.13,0,.17-.17.19-.36s0-.81,0-1.45V59c0-1,0-1.23,0-1.44s-.07-.33-.29-.38l-.22,0s-.06,0-.06,0,0,0,.11,0l.75,0,.72,0c.07,0,.11,0,.11,0s0,0-.05,0l-.22,0c-.2,0-.25.15-.26.38s0,.4,0,1.44Z"/><path id="Path_13259" data-name="Path 13259" class="cls-2" d="M201.48,62c-.1,0-.1-.08-.1-.26s0-.6,0-.7,0-.11.05-.11,0,0,0,.08a1,1,0,0,0,0,.24.9.9,0,0,0,1,.68.89.89,0,0,0,.95-.82V61c0-.46-.19-.73-.77-1.2l-.3-.25c-.7-.58-.86-1-.86-1.44a1.22,1.22,0,0,1,1.23-1.22l.15,0a2.21,2.21,0,0,1,.62.06l.23,0s.07,0,.07,0,0,.26,0,.71c0,.11,0,.15-.05.15s0,0,0-.08a1,1,0,0,0-.09-.34c0-.07-.22-.35-.83-.35a.75.75,0,0,0-.82.69v.08c0,.38.17.62.81,1.12l.19.15c.79.62,1,1,1,1.56a1.38,1.38,0,0,1-.56,1.11,1.82,1.82,0,0,1-1,.28A2.09,2.09,0,0,1,201.48,62Z"/></g><g id="Group_11417" data-name="Group 11417"><rect id="Rectangle_1989" data-name="Rectangle 1989" class="cls-2" x="108" y="53.6" width="95.7" height="0.58"/></g></g></g><path id="Path_12566" data-name="Path 12566" class="cls-1" d="M86.17,0H156.4"/></g></g></g></svg>