<svg xmlns="http://www.w3.org/2000/svg" viewBox="0 0 228 72"><defs><style>.cls-1{fill:none;}.cls-2{fill:#334354;}</style></defs><title>bethel</title><g id="Layer_2" data-name="Layer 2"><g id="Layer_1-2" data-name="Layer 1"><g id="Group_11418" data-name="Group 11418"><rect id="Rectangle_1558" data-name="Rectangle 1558" class="cls-1" width="228" height="72"/><path id="Path_12569" data-name="Path 12569" class="cls-1" d="M51.77,0H174.2"/><g id="Group_11419" data-name="Group 11419"><path id="Path_13260" data-name="Path 13260" class="cls-2" d="M144.66,47.83a3.24,3.24,0,0,0-3.16,3c-.18,1.87.57,2.94,2.66,3.8h1.76c.11-.19.34-.18.51-.25a3.4,3.4,0,0,0-1.77-6.51Zm.31,5.28a1.8,1.8,0,0,1-1.78-1.84V51.2a1.78,1.78,0,0,1,1.66-1.88H145A1.76,1.76,0,0,1,146.79,51v.16a1.82,1.82,0,0,1-1.71,1.93Z"/><path id="Path_13261" data-name="Path 13261" class="cls-2" d="M152.65,47.94A3.35,3.35,0,0,0,150.27,52a3.63,3.63,0,0,0,2.54,2.56h1.76a3.2,3.2,0,0,1,.39-.16,3.4,3.4,0,0,0,2.12-4.32l0-.06A3.56,3.56,0,0,0,152.65,47.94Zm1.09,5.17a1.76,1.76,0,0,1-1.81-1.74v-.14a1.78,1.78,0,0,1,3.56-.25v.2a1.8,1.8,0,0,1-1.63,1.93h-.12Z"/><path id="Path_13262" data-name="Path 13262" class="cls-2" d="M169.77,50.79a14,14,0,0,0-2-.56c-.26-.08-.55-.16-.53-.5s.37-.43.66-.45a1.75,1.75,0,0,1,1.2.23c.74.58,1.06.11,1.45-.44.21-.3.17-.44-.12-.62a4.23,4.23,0,0,0-3.31-.51,2,2,0,0,0-1.65,2c0,.89.52,1.46,1.63,1.79.51.15,1,.25,1.56.39.29.08.58.21.52.59s-.37.42-.67.45a2.13,2.13,0,0,1-1.61-.33c-.7-.59-1-.22-1.36.35-.27.4-.17.6.18.79s.9.44,1.36.66h2.05a9.44,9.44,0,0,0,.9-.45,1.92,1.92,0,0,0,.9-1.87A1.67,1.67,0,0,0,169.77,50.79Z"/><path id="Path_13263" data-name="Path 13263" class="cls-2" d="M121.67,50.6c-.51-.15-1-.26-1.56-.39-.25-.07-.47-.19-.44-.49s.28-.38.53-.43a1.78,1.78,0,0,1,1.33.24c.72.52,1,.12,1.4-.4s.16-.53-.16-.73a4.26,4.26,0,0,0-3.18-.47,2,2,0,0,0-1.69,1.92c0,.94.47,1.5,1.63,1.85.52.15,1,.26,1.56.4.27.07.53.2.5.52s-.31.47-.62.5a2.14,2.14,0,0,1-1.68-.34c-.74-.66-1-.11-1.34.38s-.19.52.15.75,1,.41,1.43.68h2a1.38,1.38,0,0,1,.24-.14,2,2,0,0,0,1.53-2.12C123.33,51.46,122.82,50.93,121.67,50.6Z"/><path id="Path_13264" data-name="Path 13264" class="cls-2" d="M131.07,52.68c-.55-.22-1-.7-1.62,0a1.52,1.52,0,0,1-2.16-.07l-.06-.07a2.06,2.06,0,0,1,0-2.72,1.56,1.56,0,0,1,2.21-.2l0,0c.53.61.92.4,1.47.15s.5-.4.2-.79a3.46,3.46,0,0,0-4.17-.92A3.35,3.35,0,0,0,125,51.9a3.59,3.59,0,0,0,2.58,2.69h1.76a3.85,3.85,0,0,0,1.84-1.36C131.33,53,131.42,52.82,131.07,52.68Z"/><path id="Path_13265" data-name="Path 13265" class="cls-2" d="M65,51.25A69.39,69.39,0,0,0,48.82,38.81a70.22,70.22,0,0,0-9.6-4.45c-.39-.14-.8-.33-1,.23H38V54.15c-.13.49.19.44.51.44H67v-.15c.43-.28.35-.58.06-.9C66.4,52.78,65.75,52,65,51.25Z"/><path id="Path_13266" data-name="Path 13266" class="cls-2" d="M39,30.89c1.17.34,2.34.65,3.51,1a78.79,78.79,0,0,1,14.42,6.33,2,2,0,0,0,2.19-.08A31.45,31.45,0,0,1,62.69,36c.6-.3.64-.61.21-1.12-.89-1.06-1.74-2.15-2.61-3.24s-1.68-2.08-2.51-3.13c-.1-.13-.35-.28-.15-.49s.31,0,.45.09l.57.34,8.2,4.94c.26.16.52.39.87.24q2.37-1,4.8-1.75a.44.44,0,0,0,.36-.4c0-.23-.16-.35-.33-.44s-.32-.13-.47-.21l-13-5.94c-.88-.4-1-.82-.25-1.45,1-.86,1.93-1.71,2.9-2.56a1.39,1.39,0,0,1,1.95-.25,1.66,1.66,0,0,1,.19.18c3.81,2.84,7.67,5.62,11.4,8.55a3.58,3.58,0,0,0,3.89.78c.23-.1.57-.06.65-.38s-.21-.51-.44-.68L66.92,19.76a6.73,6.73,0,0,0-5.12-1.7,8.9,8.9,0,0,1-1.46,0H57.19a1.89,1.89,0,0,0-.78.14,12.91,12.91,0,0,0-2.72,1.57c-1.82,1.39-3.6,2.83-5.47,4.15-3.1,2.2-5.78,5-9.44,6.42-.1,0-.24.17-.24.24C38.56,30.83,38.81,30.84,39,30.89Z"/><path id="Path_13267" data-name="Path 13267" class="cls-2" d="M94.5,38.88c0-1.42,0-1.45-1.36-.86a69.09,69.09,0,0,0-14.82,8.86,28.7,28.7,0,0,0-6.47,6.59c-.23.35-.44.67,0,1h0v.15H94.16v-.16c.4-.25.34-.66.34-1Z"/><path id="Path_13268" data-name="Path 13268" class="cls-2" d="M113.76,31.82c-.18-.07-.38-.07-.52-.28a4,4,0,0,0,2.63-2.74c.67-2.59,0-5.37-3.36-6.24-.4-.1-.8-.21-1.21-.27-3.1-.5-6.23-.19-9.35-.28-.47,0-.41.3-.41.59q0,9.7,0,19.41c0,.45.14.58.59.57,2.53,0,5.07,0,7.61,0a8.9,8.9,0,0,0,4.94-1.36,5.32,5.32,0,0,0,2.21-5.5A4.55,4.55,0,0,0,113.76,31.82Zm-8.41-4.18c0-.78,0-1.55,0-2.33,0-.3,0-.51.43-.51a21.31,21.31,0,0,1,4.51.26,2.29,2.29,0,0,1,2.11,2.48v.05a2.52,2.52,0,0,1-2.13,2.73,25.15,25.15,0,0,1-4.59.17c-.39,0-.33-.28-.33-.52V27.64Zm5.57,11.86a11.39,11.39,0,0,1-3.77.31c-1.8,0-1.8,0-1.8-1.82v-4.3c0-.29,0-.55.4-.53a22.87,22.87,0,0,1,5,.24,2.74,2.74,0,0,1,2.35,2.83,3.05,3.05,0,0,1-2.14,3.27Z"/><path id="Path_13269" data-name="Path 13269" class="cls-2" d="M161.4,42.58c.34,0,.54,0,.54-.46,0-3.5.06-7-.07-10.5-.12-3-2.1-4.75-5.15-4.83a6.41,6.41,0,0,0-5.2,2.17c.16-2.52.1-4.83.13-7.13,0-.43-.09-.62-.57-.57a21.48,21.48,0,0,1-2.4.15c-.56,0-.77.15-.75.75,0,1.36,0,2.72,0,4.08,0,5.2,0,10.41,0,15.61,0,.56.11.78.72.74a12.51,12.51,0,0,1,2.12,0c.71.06.87-.17.88-.88,0-3-.19-5.93.12-8.89a3.61,3.61,0,0,1,2.94-3.19c2.12-.41,3.36.55,3.49,2.69,0,.46,0,.92,0,1.39,0,2.74,0,5.49,0,8.24,0,.46.1.66.6.64C159.69,42.55,160.55,42.57,161.4,42.58Z"/><path id="Path_13270" data-name="Path 13270" class="cls-2" d="M125.88,26.81A6.55,6.55,0,0,0,119.82,31a10.48,10.48,0,0,0-.58,5.65,6.85,6.85,0,0,0,5.14,5.9,11,11,0,0,0,7.16-.58c1-.43,1-.44.78-1.56a8.37,8.37,0,0,1-.18-1c-.06-.48-.25-.53-.67-.31a9.16,9.16,0,0,1-4.5,1,4,4,0,0,1-4.09-3.86v0c0-.49.08-.63.57-.62,1.51,0,3,0,4.54,0h3.29c1.92,0,1.93,0,1.86-1.92C133,29.59,130.58,26.52,125.88,26.81ZM129.65,33c-.05.4-.29.32-.51.32h-5.77c-.25,0-.49,0-.44-.37.31-2.52,2-3.68,3.93-3.46A3.26,3.26,0,0,1,129.65,33Z"/><path id="Path_13271" data-name="Path 13271" class="cls-2" d="M177,29a6.38,6.38,0,0,0-5.65-2.14A6.54,6.54,0,0,0,165.32,31a10.68,10.68,0,0,0-.62,5.16,6.88,6.88,0,0,0,4.8,6.27,11,11,0,0,0,7.71-.52c.63-.27,1-.57.69-1.3a5.5,5.5,0,0,1-.27-1.28c0-.46-.22-.44-.56-.26a10.35,10.35,0,0,1-3.12,1c-3.09.49-5.06-.8-5.54-3.63-.1-.57-.06-.88.69-.85,1.46.07,2.93,0,4.39,0,1.08,0,2.15,0,3.22,0,.63,0,1.48.28,1.81-.14s.12-1.21.11-1.84A7.3,7.3,0,0,0,177,29Zm-2.39,4.33h-2.92c-.9,0-1.8,0-2.7,0-.44,0-.59-.07-.54-.56a3.49,3.49,0,0,1,3.66-3.3h.14c2,.14,2.84,1.83,2.87,3.51,0,.4-.28.33-.51.34Z"/><path id="Path_13272" data-name="Path 13272" class="cls-2" d="M143.55,42.67c1.2-.18,1.22-.2,1.15-1.41,0-.45.12-1-.19-1.32s-.77,0-1.18,0c-2,0-2.58-.44-2.73-2.39-.2-2.57,0-5.15-.08-7.73,0-.37.17-.45.49-.45.59,0,1.18,0,1.76,0,1.71,0,1.7,0,1.63-1.72,0-.43-.16-.54-.57-.53-.9,0-1.8,0-2.7,0-.51,0-.64-.17-.61-.63,0-.63,0-1.27,0-1.9,0-1.69,0-1.67-1.68-1.66a.64.64,0,0,0-.73.54s0,0,0,0c-.2.83-.46,1.64-.69,2.46-.33,1.17-.33,1.17-1.53,1.24-1.46.08-1.56.18-1.55,1.64V29c-.05.33.12.43.42.42.49,0,1,0,1.47,0s.63.11.62.6c0,1.24,0,2.48,0,3.73h0c0,1.19,0,2.38,0,3.57,0,.44.08.87.12,1.31.22,2.14,1.29,3.52,3.1,4A9.06,9.06,0,0,0,143.55,42.67Z"/><path id="Path_13273" data-name="Path 13273" class="cls-2" d="M190,40.79a5.63,5.63,0,0,1,0-.58c0-.35-.14-.42-.44-.35a6.33,6.33,0,0,1-1.68.09,1.75,1.75,0,0,1-1.89-1.56,10,10,0,0,1-.18-2.32c0-4.67,0-9.34,0-14,0-.71-.22-.88-.86-.8a11.87,11.87,0,0,1-2,.14c-.69,0-.92.17-.91.9,0,2.6,0,5.2,0,8.29.06,2.21-.1,4.91.08,7.6.16,2.42,1.28,3.94,3.25,4.38a9.49,9.49,0,0,0,2.91.15C190.09,42.59,190.08,42.58,190,40.79Z"/><path id="Path_13274" data-name="Path 13274" class="cls-2" d="M62.5,40.8A1.68,1.68,0,0,0,62,43.11a1.48,1.48,0,0,0,.3.36l.4.42a1.44,1.44,0,0,0,2.4.1,44.19,44.19,0,0,1,10.53-7.05A55.71,55.71,0,0,1,86.48,33c.38-.1.74-.21.69-.69a.55.55,0,0,0-.54-.55h-.08a48.41,48.41,0,0,0-15,3.59A36.12,36.12,0,0,0,62.5,40.8Z"/><path id="Path_13275" data-name="Path 13275" class="cls-2" d="M90.05,35.59c.22-.09.45-.18.67-.29a.53.53,0,0,0,.25-.63.5.5,0,0,0-.54-.4c-.25,0-.49,0-.73.09a35.22,35.22,0,0,0-6.36,1.89c-6.12,2.42-11.46,6.11-16.64,10.07a1.16,1.16,0,0,0-.45.73c-.13.66,1.54,2.62,2.39,2.62.23,0,.44-.25.67-.52a28,28,0,0,1,3.41-3.39A66.94,66.94,0,0,1,90.05,35.59Z"/><path id="Path_13276" data-name="Path 13276" class="cls-2" d="M138.35,47.89c-.54,0-.67.19-.64.68s0,.92,0,1.38c0,.2,0,.4-.28.4a6.14,6.14,0,0,1-2.3-.11c-.42-.19-.09-1.12-.15-1.72v-.07c0-.39-.09-.6-.52-.55a2.91,2.91,0,0,1-.59,0c-.43,0-.6.09-.59.56,0,2,0,4,0,6v.15h1.61a.2.2,0,0,0,0-.13l.06-.58c.06-.66-.31-1.57.17-1.93s1.3-.07,2-.12c.5,0,.62.16.6.62,0,.65,0,1.31,0,2l0,.18h1.76a.88.88,0,0,1,0-.17c0-1.82,0-3.64,0-5.46C139.45,47.79,139.69,47.94,138.35,47.89Z"/><path id="Path_13277" data-name="Path 13277" class="cls-2" d="M162.22,53a4.7,4.7,0,0,0-.65,0c-.51.08-.6-.16-.6-.62,0-1.29,0-2.58,0-3.86,0-.49-.15-.68-.62-.61a2.91,2.91,0,0,1-.59,0c-.43,0-.54.14-.53.54,0,2,0,4,0,6v.16h4.39l0-.18C163.66,53,163.66,53,162.22,53Z"/></g></g></g></g></svg>