<?xml version="1.0" encoding="utf-8"?>
<!-- Generator: Adobe Illustrator 23.1.1, SVG Export Plug-In . SVG Version: 6.00 Build 0)  -->
<svg version="1.1" id="Layer_1" xmlns="http://www.w3.org/2000/svg" xmlns:xlink="http://www.w3.org/1999/xlink" x="0px" y="0px"
	 viewBox="0 0 228 72" style="enable-background:new 0 0 228 72;" xml:space="preserve">
<style type="text/css">
	.st0{fill:none;}
	.st1{fill:#334354;}
</style>
<title>cjusd</title>
<g>
	<g id="Layer_1-2">
		<g id="Group_10973">
			<rect id="Rectangle_1556" class="st0" width="228" height="72"/>
			<path id="Path_12571" class="st0" d="M55.49,0H206.2"/>
			<path class="st1" d="M139.19,11.21c-6.51-6.65-15.38-10.45-24.68-10.58h-0.57C94.4,0.47,78.43,16.19,78.28,35.72
				c-0.16,19.54,15.56,35.51,35.1,35.67H114c19.55-0.05,35.35-15.94,35.29-35.49c-0.03-9.24-3.66-18.1-10.13-24.69L139.19,11.21z
				 M136.12,55.76c-0.05-0.6,0.39-1.13,0.99-1.18c0,0,0,0,0.01,0h0.14c0.72,0,1.32,0.58,1.35,1.3c0.04,0.6-0.4,1.12-1,1.17h-0.11
				c-0.73,0.03-1.35-0.53-1.38-1.26C136.12,55.78,136.12,55.77,136.12,55.76z M132.12,59.94L132.12,59.94L132.12,59.94L132.12,59.94
				c0.6,0.88,1.3,1.69,2.1,2.39l-0.79,0.66c-0.8-1.27-1.86-2.29-2.72-3.47c-0.12-0.16-0.66-0.08-0.37-0.46
				c0.18-0.37,0.61-0.54,1-0.4c1,0.34,2.06,0.6,3.09,0.88c0.17,0.06,0.37,0.06,0.54,0c-0.52-0.75-1.11-1.45-1.77-2.08
				c-0.54-0.43-0.34-0.54,0-0.79l0.33-0.25c0.65,0.98,1.37,1.91,2.16,2.78c0.18,0.21,0.36,0.42,0.52,0.65
				c0.12,0.18,0.52,0.3,0.26,0.6s-0.47,0.51-0.92,0.37c-1-0.32-2-0.59-3-0.87h-0.07h-0.13C132.28,59.92,132.2,59.92,132.12,59.94
				L132.12,59.94z M128.23,65.94c-0.05,0.05-0.11,0.1-0.17,0.13c-0.44,0.21-0.85,0.64-1-0.34c-0.24-0.79-0.57-1.54-1-2.24
				c-0.26-0.53-0.9-0.74-1.43-0.48c-0.08,0.04-0.16,0.09-0.23,0.15c-0.1,0.09-0.13,0.22-0.09,0.34c0.39,1.22,0.88,2.41,1.47,3.55
				l-1.07,0.39c-0.26-1.27-0.66-2.51-1.19-3.7c-0.1-0.29-0.92-0.06-1.19,0.34c-0.04,0.09-0.08,0.18-0.1,0.28
				c-0.61-1.12-0.6-1.13,0.47-1.53c1.05-0.33,2.07-0.73,3.06-1.21c0.27-0.14,0.47-0.34,0.53,0.26c0,0.05,0,0.09,0,0.14v0.12
				c0.02,0.09,0.04,0.18,0.07,0.26c0.02,0.07,0.05,0.14,0.08,0.21l0,0l0.07,0.15c0.03,0.06,0.06,0.12,0.1,0.18l0.11,0.16l0.07,0.09
				l0,0c0.07,0.09,0.15,0.17,0.23,0.25l0,0c0.17-0.12,0-0.27,0-0.4c-0.36-1.28,0.36-2.61,1.63-3h0.08c1.33-0.28,2.66,0.48,3.1,1.77
				c0.48,1.17-0.03,2.51-1.17,3.06l0,0c-1.08,0.59-2.43,0.27-3.14-0.73c-0.17-0.21-0.17-0.57-0.52-0.62l0,0
				c0.24,0.91,0.67,1.76,1.28,2.48L128.23,65.94z M120,68.43c0.08,0.3-0.07,0.31-0.24,0.35s-0.58,0.12-0.93,0.19
				c0.34-1.16,0.58-2.35,0.74-3.55c0.09-0.4,0.14-0.81,0.2-1.21s0.1-0.62,0.53-0.72s0.55,0.16,0.72,0.4l2.16,3
				c0.23,0.3,0.4,0.66,0.79,0.79c-0.19,0.32-0.49,0.24-0.72,0.32l0,0c-0.32,0.11-0.58,0.23-0.65-0.34c-0.01-0.36-0.3-0.65-0.66-0.65
				c-0.12,0-0.25,0.04-0.35,0.11c-0.24,0.1-0.49,0.16-0.75,0.17C120.06,67.31,119.82,67.76,120,68.43z M105.05,64
				c-0.5-0.69-1.35-0.73-2-1c-0.32-0.14-0.33,0.24-0.4,0.42s-0.31,0.47,0,0.59c0.59,0.34,1.27,0.52,1.95,0.52
				c-0.15,0.41-0.29,0.78-0.46,1.22c-0.47-0.58-1.14-0.63-1.71-0.9c-0.19-0.09-0.36-0.07-0.42,0.16s-0.38,0.58-0.2,0.91
				c0.71,0.42,1.52,0.63,2.34,0.59c0,0.3-0.14,0.53-0.21,0.78s-0.27,0.39-0.58,0.26l-2.89-1.12c0.73-1.51,1.36-3.07,1.88-4.66
				c1.81,0.75,3.67,1.37,5.56,1.86c1.2,0.31,1.67,1.42,1.4,2.78l0,0c-0.17,1.18-1.2,2.04-2.39,2c-0.28-0.02-0.56-0.06-0.83-0.13
				l-1.66-0.4c0.57-1.48,0.73-3,1.18-4.54C105.15,63.5,105.25,63.86,105.05,64z M97.77,61.69c0.55,0.29,1,0.81,1.78,0.83l-0.68,1.12
				c-0.37-0.64-1-0.81-1.53-1.19c-0.19-0.14-0.33-0.11-0.42,0.1c-0.22,0.48-0.7,0.83-0.64,1.56l-1-0.63c0.28-0.35,0.57-0.68,0.81-1
				c0.07-0.09,0.12-0.18,0.18-0.27s0.17-0.35,0.17-0.35c0.03-0.05,0.06-0.25,0.06-0.25c0.03-0.09,0.05-0.18,0.07-0.27l0,0
				c-0.2,0.19-0.4,0.38-0.61,0.55c-1.05,0.86-2.6,0.71-3.46-0.34c-0.59-0.72-0.73-1.71-0.35-2.56c0.53-1.28,1.93-1.97,3.27-1.59
				c1.28,0.45,1.83,1.63,1.46,3.19c-0.01,0.1,0.05,0.26,0.01,0.21c0,0,0.71-1.04,0.77-1.16c0.27-0.47,0.34-0.33,0.59-0.18l1.62,1
				c1,0.59,1,0.59,0.28,1.55c-0.3-0.85-1.15-1-1.8-1.42l0,0c-0.36-0.21-0.39,0.35-0.57,0.55s-0.34,0.4-0.01,0.57L97.77,61.69z
				 M87.88,56.53v-0.06c-0.48-0.55-0.91-1.15-1.29-1.63c1.37-1,2.65-2,3.95-3.1c0.43,0.55,0.91,1.11,1.32,1.72
				c0.75,0.97,0.58,2.37-0.4,3.13c0,0-0.01,0.01-0.01,0.01l-0.21,0.15l0,0c-0.96,0.87-2.45,0.8-3.32-0.15
				c-0.01-0.01-0.03-0.03-0.04-0.05L87.88,56.53z M85.79,53c0.68-0.4,0.91-1.27,0.52-1.96c-0.01-0.02-0.02-0.03-0.03-0.04l0,0
				c-0.21-0.4-0.41-0.54-0.8-0.23c-0.17,0.14-0.46,0.2-0.57,0.37c-0.24,0.41-0.38,0.3-0.54,0s-0.22-0.4-0.3-0.56
				c1.52-0.7,2.97-1.54,4.34-2.49c0.41,0.72,0.85,1.46,1.25,2.22c0.26,0.46,0.2,1.03-0.15,1.43c-0.37,0.55-1.03,0.83-1.68,0.7
				c-0.51-0.15-0.73,0-0.92,0.42c-0.28,0.43-0.49,0.9-0.62,1.39c-0.41-0.23-0.47-0.61-0.67-0.9l0,0
				C85.45,53.13,85.65,53.11,85.79,53z M83.79,48.72c0.34-0.07,0.57-0.41,0.5-0.75c-0.03-0.1-0.07-0.2-0.14-0.28
				c-0.13-0.22-0.22-0.46-0.26-0.71c-0.16-0.74-0.61-1-1.27-0.7c-0.27,0.11-0.31,0-0.38-0.17s-0.21-0.56-0.35-0.94
				c1.63,0.26,3.28,0.37,4.93,0.32c0.32,0,0.56,0,0.71,0.4s-0.06,0.57-0.27,0.78c-0.91,0.86-1.82,1.72-2.72,2.59
				c-0.33,0.26-0.58,0.6-0.71,1c-0.17-0.4-0.24-0.62-0.34-0.81l0,0c-0.16-0.38-0.16-0.57,0.34-0.74L83.79,48.72z M80.75,37.3v-1.14
				c0.33,0.03,0.67,0.03,1,0c1.24-0.01,2.49-0.13,3.71-0.36c0.32-0.1,0.25,0.16,0.26,0.3c0,0.64,0.11,1.28,0.11,1.91
				c0.1,0.72-0.41,1.38-1.12,1.47c-0.21,0.03-0.43,0-0.64-0.07c-0.24-0.11-0.53-0.06-0.73,0.11c-0.61,0.55-1.55,0.5-2.1-0.11
				c0,0,0,0-0.01-0.01c-0.21-0.24-0.34-0.54-0.37-0.85c-0.05-0.43-0.08-0.86-0.08-1.29l0,0L80.75,37.3z M96,13.13
				c1.35-0.17,2.56-0.9,3.35-2c0.12-0.1,0.16-0.26,0.11-0.41c-0.13-0.3,0-0.37,0.29-0.35l1.42,0.15c-0.97,1.37-2.25,2.49-3.74,3.26
				c-0.66,0.33-1.39,0.51-2.13,0.53c-1.12,0.15-2.15-0.65-2.3-1.77c0-0.01,0-0.02,0-0.03c-0.04-0.42,0.05-0.85,0.26-1.22l0,0
				C94,9.8,95.26,8.63,96.8,8c0.61-0.3,1.34-0.31,2-0.7c-0.12,0.46-0.24,0.93-0.37,1.38c0,0.15-0.12,0.36-0.29,0.25
				c-0.74-0.43-1.26,0.09-1.8,0.4c-0.75,0.4-1.35,1.03-1.72,1.8C94.12,12.31,94.71,13.23,96,13.13z M106,7.19
				c-0.22-0.62-0.41-1.26-0.6-1.89c-0.1-0.32-0.17-0.64-0.73-0.66c0.69-0.33,1.4-0.61,2.13-0.83c-0.32,1.09,0.27,1.91,0.52,2.79
				c0.44,1.55,0.12,2.34-1.34,3c-0.65,0.31-1.36,0.47-2.08,0.47c-0.5-0.04-1.01,0.02-1.49,0.16c0.27-0.52,0.6-1.01,1-1.44l0,0
				c0.08-0.11,0.18-0.13,0.31,0c0.71,0.69,1.33,0.12,1.94-0.2S106.18,7.74,106,7.19z M111.49,4.3c0,0.44,0,0.87,0,1.3
				c0,1.32,0.49,1.83,1.83,1.88c0.46,0.02,0.91-0.01,1.36-0.1c0.79-0.06,1.38-0.74,1.32-1.53c0-0.02,0-0.03,0-0.05l0,0
				c0-0.49,0-1,0-1.46s0.13-0.82-0.33-1.12h2c-0.23,0.23-0.33,0.56-0.27,0.88c0,0.63,0,1.27,0,1.91c0.13,0.86-0.37,1.7-1.19,2
				c-1.55,0.71-3.33,0.73-4.9,0.06c-0.76-0.26-1.25-0.99-1.21-1.79c0-0.59,0-1.17,0-1.76c0-0.39,0.1-0.82-0.37-1.1
				c0.75-0.1,1.5-0.1,2.25,0l0,0c-0.56,0.13-0.51,0.52-0.51,0.88H111.49z M123.74,8.16L123.74,8.16c-0.5-0.31-1-0.6-1.52-0.89
				c-0.6-0.28-1.16-0.64-1.67-1.06c-0.48-0.34-0.59-1-0.25-1.48c0.17-0.23,0.42-0.39,0.7-0.43c0.55-0.13,1.13-0.13,1.68,0
				c0.9,0.16,1.77,0.48,2.57,0.94c0.35,0.23,0.73,0.41,1.12,0.55l-1.23,0.74c-0.14,0.08-0.29,0.12-0.39-0.06
				c-0.53-1.14-1.65-1.08-2.63-1.27c-0.23-0.08-0.49,0.03-0.58,0.26c-0.07,0.23,0.14,0.37,0.31,0.48c0.5,0.3,1,0.6,1.52,0.88
				c0.59,0.28,1.13,0.63,1.63,1.05c0.42,0.28,0.61,0.8,0.46,1.28c-0.2,0.47-0.66,0.76-1.17,0.74c-1.52,0.09-3.03-0.32-4.29-1.17
				c-0.37-0.37-0.85-0.6-1.37-0.64c0.56-0.31,1.16-0.53,1.78-0.65c0.09-0.01,0.19,0.01,0.26,0.07c0.08,1.13,1.1,1,1.78,1.3
				c0.32,0.11,0.66,0.16,1,0.17c0.2,0.05,0.42-0.05,0.52-0.23c0.14-0.27-0.05-0.46-0.25-0.58H123.74z M138.59,20.44
				c0.6,0.48,1.45,0.48,2.05,0c0.63-0.4,0.89-1.18,0.63-1.88c-0.25-0.58-0.56-1.17-1.5-1c0.2-0.45,0.35-0.82,0.54-1.26
				c0.26,0.23,0.54,0.44,0.84,0.62c0.99,0.65,1.41,1.89,1,3c-0.5,1.15-1.69,1.86-2.94,1.75c-1.15-0.18-2.03-1.13-2.1-2.3
				c-0.07-0.89-0.07-0.89,1.13-0.75l0,0c-0.39,0.6-0.25,1.4,0.33,1.82L138.59,20.44z M142.68,21.88c0.02,0.1,0.07,0.19,0.14,0.27
				c0.11,0.17,0.2,0.36,0.26,0.55c0.26,0.72,0.61,1.25,1.48,0.73c0.22-0.13,0.25,0.07,0.31,0.2s0.25,0.55,0.43,0.92
				c-1.72,0-3.34,0-5,0c-0.33,0-0.56,0-0.74-0.35s0-0.56,0.24-0.78c0.85-1,1.71-1.9,2.57-2.84c0.28-0.27,0.48-0.62,0.55-1l0,0
				c0.2,0.38,0.29,0.56,0.37,0.74c0.17,0.34,0.47,0.65-0.22,0.86c-0.3,0.09-0.48,0.39-0.41,0.7H142.68z M145.33,27.2
				c0.27,0.05,0.66-0.07,0.78,0.34s-0.28,0.5-0.49,0.67c-0.68,0.56-1.39,1.08-2.24,1.73c1.07-0.13,2.11-0.42,3.1-0.85
				c0.15,0.32,0.25,0.65,0.29,1c-1.64,0.19-3.25,0.62-4.77,1.27c-0.4-0.38-0.42-1.01-0.05-1.41c0.01-0.02,0.03-0.03,0.05-0.05
				c0.1-0.09,0.22-0.16,0.34-0.21c0.81-0.55,1.59-1.14,2.33-1.77c-1.1-0.17-2.06-0.32-3-0.45s-0.95-0.14-1-1.2
				c1.63-0.19,3.22-0.62,4.73-1.27l0.29,1.07l0,0c-1.06,0.1-2.09,0.36-3.07,0.78c0.91,0.09,1.8,0.15,2.69,0.35L145.33,27.2z
				 M145.87,34.01c-0.04,0.7-0.61,1.24-1.31,1.24c-0.67,0.02-1.24-0.49-1.29-1.16c-0.02-0.72,0.54-1.32,1.26-1.34
				C145.25,32.73,145.85,33.29,145.87,34.01L145.87,34.01z M142.49,44.58c0.18,0.07,0.43,0.16,0.49-0.16c0.12-0.62,0.51-1.2,0.28-2
				l1.24,0.34c-0.37,0.55-0.6,1.19-0.67,1.85c-0.11,0.45,0.33,0.37,0.56,0.43s0.5,0.34,0.62-0.08c0.19-0.59,0.32-1.19,0.5-1.77
				c0.09-0.26-0.27-0.29-0.19-0.57c0.21,0.05,0.43,0.11,0.65,0.15c0.47,0.08,0.56,0.28,0.41,0.74l0,0c-0.3,0.94-0.53,1.9-0.79,2.85
				c-1.38-0.53-2.81-0.95-4.26-1.25l0,0h-0.17l0.05,0.16l0,0l0.69,0.89c-0.59,0.06-1.05,0.52-1.12,1.1c0,0.25-0.06,0.53,0.21,0.68
				s0.45,0,0.62-0.19c0.33-0.32,0.64-0.66,1-1c0.46-0.53,1.24-0.64,1.82-0.25c0.55,0.37,0.78,1.06,0.57,1.68
				c-0.24,0.8-0.77,1.49-1.49,1.92c-0.26-0.33-0.45-0.7-0.58-1.1c0.71-0.01,1.28-0.6,1.27-1.31c0,0,0,0,0,0l0,0
				c0.03-0.26-0.16-0.49-0.41-0.52c0,0,0,0-0.01,0c-0.15-0.02-0.29,0.04-0.39,0.15c-0.33,0.28-0.63,0.58-0.91,0.91
				c-0.72,0.73-1.29,0.84-2,0.39c-0.64-0.45-0.84-1.32-0.45-2c-0.01-0.02-0.01-0.05,0-0.07c1-1.11,0.89-2.57,1.33-3.86
				c0.35-1.05,0.3-1.06,1.41-0.62c-0.73,0.53-0.66,1.41-0.88,2.15c-0.09,0.34,0.37,0.27,0.58,0.36L142.49,44.58z M139.85,36.48
				c-0.27,14.29-12.07,25.66-26.37,25.39S87.83,49.79,88.1,35.5c0.27-14.09,11.76-25.38,25.86-25.39h0.49
				c14.07,0.34,25.32,11.81,25.38,25.89L139.85,36.48z M134.61,13.48c-0.57,0.76-1.55,1.08-2.46,0.8c-0.65-0.11-1.28-0.35-1.84-0.7
				c-1.28-0.83-2.54-1.69-3.93-2.64c0.83-0.23,3-3.32,3-4.25l0,0c1.78,1.41,3.84,2.28,5.12,4.15c0.62,0.76,0.66,1.84,0.09,2.64
				L134.61,13.48z M85.5,27.18c-0.16-0.05-0.38-0.12-0.43,0.14c-0.14,0.62-0.55,1.2-0.3,2L83.5,29c0.38-0.56,0.62-1.19,0.72-1.85
				c0.08-0.24-0.07-0.34-0.27-0.37s-0.56-0.32-0.87-0.1c-0.32,0.73-0.45,1.53-0.36,2.32c-0.27,0.12-0.49-0.06-0.73-0.1
				c-0.43-0.05-0.47-0.28-0.36-0.65c0.28-1,0.54-1.91,0.81-2.87c1.57,0.58,3.19,1.03,4.83,1.34c-0.27,1-0.55,2-0.84,3
				c-0.07,0.27-0.25,0.29-0.47,0.22l-0.82-0.23c0.83-0.59,0.74-1.48,1-2.22C86.17,27.24,85.72,27.26,85.5,27.18z M84.8,32.7
				c-0.04,0.66-0.59,1.18-1.26,1.18c-0.7,0.01-1.28-0.53-1.32-1.23c0.02-0.65,0.56-1.17,1.21-1.15c0.01,0,0.01,0,0.02,0l0,0
				c0.68-0.04,1.27,0.48,1.31,1.17c0,0,0,0.01,0,0.01L84.8,32.7z M87.12,26.13c-0.93,0.7-0.65-0.51-1.08-0.63
				c0.35-0.1,0.71-0.08,0.94-0.42c0.23-0.29,0.37-0.63,0.42-1c-0.04-0.76-0.55-1.42-1.28-1.64c-0.7-0.24-1.48,0.06-1.84,0.71
				c-0.27,0.51-0.57,1.06,0.14,1.65L83,25c0.04-0.33,0.06-0.67,0.06-1l0,0c-0.03-1.19,0.78-2.24,1.94-2.51
				c1.27-0.23,2.54,0.41,3.12,1.57C88.55,24.19,88.13,25.47,87.12,26.13z M90,21.22c-0.26,0.43-0.58,0.31-0.92,0.26
				c-1.56-0.2-3.09-0.54-4.68-0.63c0-0.38,0.32-0.62,0.48-0.93l0,0c0.12-0.23,0.21-0.15,0.39,0c0.52,0.37,1,0.36,1.27-0.31
				c0.08-0.19,0.19-0.36,0.32-0.52c0.52-0.61,0.47-1.13-0.25-1.51c-0.23-0.12-0.14-0.22-0.07-0.34l0.54-0.85
				c0.81,1.48,1.85,2.67,2.72,4C90,20.61,90.23,20.81,90,21.22z M81.31,42.4c0.03-1.39,1.19-2.49,2.58-2.46c0,0,0,0,0,0H84
				c1.33-0.06,2.46,0.97,2.52,2.29c0,0,0,0,0,0.01v0.12c-0.04,1.49-1.27,2.66-2.76,2.64c-1.36-0.01-2.46-1.13-2.45-2.49c0,0,0,0,0,0
				L81.31,42.4z M109.64,64.18c0-0.2,0.14-0.18,0.25-0.17h0.82c-0.28,1.11-0.38,2.25-0.29,3.39c0.17,0.64,0.82,1.02,1.45,0.85
				c0,0,0.01,0,0.01,0c0.4-0.1,0.72-0.41,0.83-0.81c0.19-0.95,0.27-1.91,0.23-2.88c0-0.13-0.22-0.33,0-0.36
				c0.3-0.03,0.61-0.01,0.9,0.08c0.27,0.08,0,0.22,0,0.34c-0.1,0.88-0.18,1.77-0.26,2.65l0,0c0,1.1-0.9,2-2,2
				c-0.26,0-0.52-0.06-0.76-0.17c-0.73-0.24-1.22-0.91-1.24-1.67C109.47,66.35,109.85,65.27,109.64,64.18z M114.34,64.99
				c0.72-0.89,1.94-1.2,3-0.75c0.94,0.37,0.94,0.37,0.12,1.44c-0.28-0.8-0.92-0.78-1.55-0.66c-0.74,0.21-1.23,0.91-1.19,1.68
				c0.01,0.77,0.54,1.43,1.28,1.61c0.69,0.17,1.4-0.17,1.69-0.82l0.85,1.13c-0.36,0.01-0.72,0.14-1,0.37l0,0
				c-1.03,0.55-2.3,0.32-3.08-0.55c-0.76-1.01-0.81-2.38-0.12-3.44V64.99z M138.26,52.15c-0.41-0.97-0.16-2.09,0.61-2.8
				c0.01-0.02,0.03-0.04,0.06-0.05c1.34-0.9,0.9-1,1.57,0.52c-0.84-0.25-1.14,0.26-1.4,0.79c-0.32,0.88,0.13,1.85,1,2.17
				c0.61,0.22,1.29,0.08,1.76-0.37c0.53-0.43,0.63-1.2,0.23-1.75c1.38-0.22,1.41-0.18,1.13,1.16l0,0c-0.23,1.03-1.05,1.82-2.09,2
				C139.92,53.89,138.79,53.23,138.26,52.15z M147.14,38.3c0,0.27-0.08,0.38-0.43,0.32l0,0c-0.58-0.1-1,0.16-1,0.83
				c0.01,0.34-0.03,0.67-0.1,1c-0.11,0.29,0.03,0.61,0.31,0.73h0.13c1,0.17,0.59,0.81,0.51,1.37c-1.31-0.94-2.74-1.61-4.09-2.42
				c-0.26-0.16-0.6-0.21-0.56-0.7s0.39-0.53,0.72-0.63c1.49-0.46,3-0.81,4.51-1.4C147.22,37.7,147.22,38,147.14,38.3z"/>
			<path class="st1" d="M139.79,10.93C133.16,4.06,124.05,0.12,114.5,0h-0.44C94.18-0.06,78.01,16,77.94,35.88
				c-0.06,19.88,16,36.05,35.88,36.12H114c19.88,0,36-16.11,36-36c0-9.36-3.64-18.36-10.16-25.07H139.79z M139,61.51
				c-6.66,6.57-15.64,10.25-25,10.24h-0.12c-19.74-0.03-35.73-16.06-35.69-35.81S94.25,0.22,113.99,0.25h0.56
				c19.75,0.34,35.48,16.62,35.14,36.37C149.53,46,145.69,54.94,139,61.51z"/>
			<path class="st1" d="M114.06,10.54c-7.36-0.17-14.4,2.99-19.17,8.6c-5.18,5.74-7.39,13.56-6,21.16c0.53,3.44,1.82,6.72,3.78,9.6
				l0.08,0.09h0.05c0.13,0.25,0.27,0.5,0.43,0.74c5.38,7.1,12.31,10.69,20.63,10.69c1.28,0,2.56-0.08,3.83-0.24
				c5.19-0.66,10.02-3,13.76-6.65l0.44-0.45c0.99-0.9,1.88-1.91,2.66-3l0.17-0.21c0.23-0.21,0.38-0.49,0.42-0.79
				c0.16-0.06,0.29-0.19,0.35-0.35c0.02-0.03,0.04-0.06,0.05-0.09c7.54-11.88,4.02-27.61-7.85-35.15
				c-4.06-2.58-8.77-3.95-13.59-3.97L114.06,10.54z M89.06,40.26c-1.38-7.55,0.84-15.31,6-21c4.6-5.42,11.36-8.53,18.47-8.52H114
				c-0.12,0.16-0.23,0.34-0.33,0.52c-5.02,9.3-10.04,18.58-15.07,27.84l-5.79,10.61c-1.93-2.83-3.2-6.06-3.72-9.45H89.06z
				 M134.5,50.73c-0.07,0.07-0.13,0.14-0.19,0.22c-0.74,1.06-1.59,2.03-2.54,2.91c0-1,0-2.08,0-3.12c0-0.11,0.18-0.25,0-0.31
				c-0.17-0.06-0.35-0.06-0.52,0c-0.19,0.06,0,0.2,0,0.31V53c-0.47-0.72-0.89-1.46-1.25-2.24c-0.13-0.26-0.28-0.43-0.59-0.37
				s-0.08,0.36-0.09,0.53c0,1,0,2.09,0,3.14c0,0.12-0.23,0.28,0,0.37c0.15,0.04,0.3,0.04,0.45,0c0.25-0.07,0-0.23,0-0.36v-2.23
				c0.63,0.87,0.88,1.81,1.48,2.55l0,0c-3.7,3.63-8.49,5.95-13.63,6.61c-10,1.22-18.1-2.26-24.22-10.35
				c-0.13-0.19-0.25-0.4-0.37-0.61h0.84l40.16,0.05c0.28,0,0.55,0,0.82,0l0,0C134.81,50.34,134.69,50.56,134.5,50.73z M135,50
				c0,0,0-0.05,0-0.08V50z M135.34,49.54c-0.01,0.03-0.01,0.07,0,0.1c-0.08,0.14-0.14,0.22-0.26,0.23c0-0.18-0.15-0.31-0.24-0.45
				l-10.2-19.09c-0.08-0.15-0.09-0.36-0.39-0.38l0.36,2.35c1,1.94,2.12,3.87,3.17,5.82l5.73,10.79l0,0c0,0.06,0,0.13,0,0.19
				c0.03,0.01,0.07,0.01,0.1,0c0,0,0,0.06-0.13,0.08c-0.27,0-0.55,0-0.83,0H95.3c-0.18-0.01-0.35-0.01-0.53,0
				c-0.4,0-0.43-0.13-0.25-0.45c0.54-1,1.07-2,1.6-3l17.54-32.35c0.13-0.24,0.27-0.48,0.47-0.81l2,3.76
				c1.78,3.31,3.54,6.63,5.31,9.94c0.1,0.19,0.27,0.36,0.27,0.59V27l0,0c0,0.14,0.07,0.16,0.16,0.19l0,0l0.42,0.39
				c-0.6,0.18-1-0.19-1.38-0.4c-1.53-0.81-3.19-1.33-4.91-1.53h-0.18H116h-0.35h-0.08c0,0-0.06,0-0.09,0h-0.26h-0.27h-1.37h-0.17
				h-0.17h-0.28l-0.35,0.05h-0.13l-0.36,0.06h-0.14l0,0h-0.16l-0.28,0.07l-0.28,0.08l-0.22,0.06l0,0h-0.15l-0.38,0.13l-0.21,0.08
				h-0.14l0,0l-0.21,0.08l-0.32,0.14l-0.2,0.09l-0.25,0.12l-0.2,0.1l-0.19,0.1l-0.27,0.16l-0.12,0.07l-0.12,0.07l-0.23,0.15
				l-0.19,0.13l0,0l-0.22,0.16l-0.15,0.11l-0.17,0.13l-0.17,0.14l-0.16,0.14l-0.21,0.18l-0.2,0.18l-0.2,0.19l-0.1,0.1l-0.09,0.1l0,0
				c-0.08,0.09-0.17,0.18-0.25,0.28l-0.37,0.42l-0.33,0.45l-0.28,0.39l-0.06,0.1l-0.1,0.15c-0.11,0.18-0.21,0.36-0.31,0.54
				s-0.15,0.27-0.22,0.41L104,32l-0.06,0.13l-0.11,0.24l-0.06,0.14l0,0l0,0c-0.08,0.18-0.15,0.36-0.21,0.54l-0.09,0.24
				c0,0.11-0.07,0.23-0.11,0.35c-0.01,0.02-0.01,0.03,0,0.05c0,0.04,0,0.08,0,0.12l-0.07,0.25c0,0.19-0.1,0.38-0.14,0.57
				s-0.08,0.39-0.11,0.59s0,0.2,0,0.3s0,0.21,0,0.3v0.25c0,0,0,0.06,0,0.1c0,0.08,0,0.17,0,0.25c0,0.06,0,0.12,0,0.18v0.21l0,0
				c0,0.07,0,0.13,0,0.2c0,0.34,0,0.69,0,1c0.15,5.96,5.1,10.68,11.07,10.53c0.06,0,0.13,0,0.19-0.01c1.37,0.05,2.75-0.03,4.11-0.22
				v-0.08c0.01-0.08,0.08-0.15,0.16-0.15h0.21c1.32-0.39,2.6-0.93,3.79-1.62c0.73-0.34,1.22-1.05,1.28-1.86
				c0.08-0.53,0.18-1.06,0.32-1.58V42.7c0-0.18,0-0.39-0.19-0.44s-0.31,0.15-0.42,0.28l-0.16,0.27c-2,3.48-5.08,4.75-8.89,4.71
				c-0.53,0-0.55-0.18-0.29-0.59c0.53-0.84,1-1.73,1.51-2.57c0.24-0.38,0.3-0.58-0.21-0.77c-1.39-0.55-1.37-0.57-1.61,0.92
				c-0.14,0.89-0.29,1.76-0.44,2.64c-0.02,0.05-0.05,0.1-0.09,0.14l0,0c-0.17,0.09-0.36-0.09-0.5-0.13c-2.8-0.81-5.03-2.91-6-5.66
				c-1.18-2.67-1.49-5.64-0.88-8.5c0.78-3.77,4.15-6.45,8-6.37c2.94-0.26,5.8,1.06,7.51,3.47c0.5,0.64,0.9,1.36,1.36,2
				c0.12,0.18,0.21,0.45,0.5,0.38s0.23-0.36,0.29-0.57c-0.15-1-0.27-2.07-0.45-3.1c-0.01-0.61-0.11-1.22-0.32-1.79l-8.73-16.31
				c13.93,0.07,25.17,11.41,25.1,25.34c-0.02,4.75-1.38,9.39-3.93,13.4L135.34,49.54z"/>
			<path class="st1" d="M96.57,61.26L96.57,61.26z"/>
			<path class="st1" d="M106.74,67.5h0.2c0.9-0.04,1.61-0.8,1.57-1.71c-0.02-0.57-0.34-1.08-0.84-1.36
				c-1.19-0.58-1.45-0.47-1.73,0.8l-0.18,0.82C105.49,67.31,105.49,67.31,106.74,67.5z"/>
			<path class="st1" d="M131.79,9.52c-0.48-0.33-1-0.9-1.46-0.86s-0.67,0.8-1,1.26c-0.9,1.29-0.89,1.3,0.42,2.2
				c0.66,0.57,1.47,0.94,2.34,1.07c1.17,0,1.75-0.79,1.41-1.76C133.16,10.62,132.56,9.95,131.79,9.52z"/>
			<path class="st1" d="M81.85,38.75c0.08,0.29,0.37,0.46,0.66,0.38c0,0,0.01,0,0.01,0c0.32-0.07,0.53-0.36,0.51-0.68
				c0.04-0.5-0.02-0.99-0.2-1.46c0,0-0.09,0-0.14,0c-0.74-0.15-1,0.07-1,0.83c0.03,0.3,0.08,0.6,0.14,0.89
				C81.84,38.72,81.84,38.74,81.85,38.75z"/>
			<path class="st1" d="M84.39,38.73c0.27,0.02,0.5-0.17,0.54-0.43c0.02-0.19,0.02-0.39,0-0.58c-0.08-0.3,0.12-0.69-0.22-0.84
				s-0.7-0.13-0.86,0.07c-0.29,0.37,0,0.86,0,1.3C83.87,38.53,84.11,38.75,84.39,38.73C84.39,38.73,84.39,38.73,84.39,38.73z"/>
			<path class="st1" d="M132.12,59.89L132.12,59.89c0,0,0-0.05,0-0.07C132.11,59.84,132.11,59.87,132.12,59.89z"/>
			<path class="st1" d="M83.82,44.06c0.94,0.02,1.72-0.71,1.78-1.64v-0.06c-0.04-0.89-0.79-1.59-1.69-1.55c0,0,0,0,0,0
				c-0.91-0.01-1.67,0.71-1.7,1.62C82.22,43.32,82.93,44.04,83.82,44.06z"/>
			<path class="st1" d="M94.57,58.13c-0.96,0.01-1.73,0.8-1.72,1.76c0,0,0,0.01,0,0.01c0.03,0.89,0.76,1.58,1.65,1.56
				c0.92-0.08,1.63-0.86,1.62-1.79v-0.06c-0.02-0.83-0.71-1.5-1.54-1.48C94.58,58.13,94.57,58.13,94.57,58.13z"/>
			<path class="st1" d="M129.56,64.2c0.88,0,1.61-0.69,1.67-1.57c-0.03-0.96-0.78-1.74-1.74-1.8c-0.86,0.02-1.55,0.71-1.57,1.57
				C127.91,63.34,128.62,64.13,129.56,64.2z"/>
			<path class="st1" d="M88.11,51.69c0.28-0.01,0.54-0.16,0.68-0.4c0.32-0.67-0.28-1.07-0.48-1.58c-0.06-0.15-0.16-0.4-0.38-0.26
				s-0.94,0.25-1,0.77S87.76,51.67,88.11,51.69z"/>
			<path class="st1" d="M90.41,53.14c-0.49-0.11-0.7,0.41-1,0.61c-0.23,0.16-0.46,0.33-0.67,0.51c-1,0.8-1,0.82-0.08,1.73
				c0.41,0.49,1.1,0.64,1.67,0.35c0.6-0.23,1.02-0.77,1.09-1.4C91.37,54.42,90.73,53.21,90.41,53.14z"/>
			<path class="st1" d="M143.79,39.36c-0.19,0-0.42,0-0.59,0.29l1.56,0.83C145.12,39,145.12,39,143.79,39.36z"/>
			<path class="st1" d="M87.08,20.25c0.62,0.2,1.26,0.31,1.91,0.34c-0.41-0.55-0.75-1-1.16-1.56L87.08,20.25z"/>
			<path class="st1" d="M121.59,66.15l-1.07-1.55c-0.06,0.25-0.11,0.5-0.14,0.76c0,0.37-0.34,0.9-0.08,1.06
				S121.15,66.4,121.59,66.15z"/>
			<path class="st1" d="M85.72,47c0.23-0.2,0.45-0.41,0.83-0.76c-0.68,0-1.14,0-1.59,0s-0.38,0.11-0.3,0.41
				C84.91,47.63,85,47.66,85.72,47z"/>
			<path class="st1" d="M140.7,23.58l0.09,0.16c0.17,0,0.34,0,0.52,0c1.44,0,1.44,0,0.67-1.29L140.7,23.58z"/>
			<path class="st1" d="M98.74,34.31c0.53,0.18,1.12-0.04,1.39-0.53c0.26-0.5,0.13-1.11-0.3-1.47c-0.17-0.2-0.5-0.25-0.54-0.58
				c0.27-0.16,0.5,0,0.74,0.06c0.57,0.09,1.14-0.14,1.49-0.6c0.26-0.39,0.32-0.87,0.16-1.31c-0.08-0.26-0.54-0.13-0.84-0.11
				c0.3,0.65,0.15,1.14-0.42,1.35c-0.8,0.16-1.61-0.25-1.94-1c-0.09-0.24-0.06-0.52,0.07-0.74c0.17-0.32,0.5-0.33,0.84-0.34
				c-0.5-0.77-1.09-0.76-1.5,0c-0.26,0.48-0.22,1.06,0.11,1.49c0.28,0.36,0.62,0.67,1,0.93c0.07,0,0.19,0.08,0.12,0.19
				c-0.02,0.04-0.07,0.07-0.12,0.05c0,0,0.07,0,0.11-0.05s0-0.15-0.12-0.19l-0.12,0.17c-0.62-0.25-1.19-0.59-1.72-1
				c-0.2,0.32-0.6,0.57,0.15,0.81c0.62,0.24,1.21,0.55,1.75,0.93c0.37,0.23,0.69,0.55,0.45,1s-0.69,0.47-1.13,0.26
				s-1.18-0.6-1.76-0.93s-0.48-0.3-0.69,0.35c0.36,0,0.61,0.21,0.91,0.35C97.42,33.79,98.07,34.09,98.74,34.31z"/>
			<path class="st1" d="M104.27,25.91c0.16-0.18,0.24-0.42,0.24-0.66c0-0.02,0-0.05,0-0.07c0-0.02,0-0.04,0-0.06l0,0l0,0v-0.07
				l-0.06-0.06l-0.16-0.13l0,0l0,0l0,0c-0.06,0.15-0.44-0.28-0.36,0.27c0,0.34-0.17,1-0.74,1.05s-0.76-0.56-0.22-1.2
				c0.24-0.3,0.24-0.37-0.08-0.5c-0.16-0.07-0.31-0.16-0.57-0.29c0.11,0.46-0.16,0.71-0.3,1s-0.28,0.25-0.48,0.1
				s-0.5-0.14-0.32-0.47s0.3-0.82,0.75-1c-0.56-0.55-0.92-0.43-1.19,0.24c-0.17,0.39-0.36,0.76-0.58,1.12l3.6,1.94
				C103.93,26.71,104.09,26.3,104.27,25.91z"/>
			<path class="st1" d="M103,20.92c0.44,0.54,1.22,0.62,1.76,0.18c0,0,0,0,0,0l0.5-0.35c0.17-0.17,0.45-0.16,0.62,0.01
				c0.02,0.02,0.03,0.04,0.05,0.06c0.18,0.24,0.05,0.47-0.08,0.7s-0.52,0.16-0.91,0.27c0.4,0.2,0.24,0.77,0.75,0.64h0.11
				c0.66-0.19,1.03-0.88,0.84-1.54c0,0,0,0,0,0v-0.07c-0.32-0.65-1.1-0.92-1.75-0.61c-0.25,0.12-0.48,0.32-0.71,0.46
				s-0.46,0.25-0.66,0V20.6c-0.11-0.22-0.03-0.48,0.19-0.6c0.72-0.38,0.36-0.66,0-1l-0.27,0.25c-0.66,0.57-0.79,1.12-0.39,1.64
				L103,20.92z"/>
			<path class="st1" d="M100.36,28.79c0.65,0.49,1.54,0.54,2.24,0.12c0.49-0.36,0.68-1,0.49-1.57c0-0.31-0.55-0.17-1-0.21
				c0.42,0.43,0.41,0.82,0,1.17c-0.42,0.37-1.04,0.39-1.49,0.05c-0.52-0.19-0.86-0.7-0.84-1.25c0-0.53,0.44-0.68,1-0.67
				c-0.27-0.27-0.32-0.78-0.67-0.67c-0.57,0.14-0.98,0.65-0.99,1.24C99.13,27.79,99.62,28.5,100.36,28.79z"/>
			<path class="st1" d="M96.79,35.64c0.27-0.14,0.51-0.33,0.77-0.5c0.17-0.17,0.45-0.17,0.62,0c0.23,0.23,0.14,0.47,0,0.7
				c-0.09,0.16-0.25,0.26-0.43,0.28c-0.32,0-0.31,0.22-0.17,0.42s0.12,0.42,0.43,0.26s0.86-0.45,1-1c0.1-0.41-0.06-0.85-0.42-1.08
				c-0.4-0.35-0.97-0.41-1.43-0.15c-0.27,0.15-0.52,0.33-0.77,0.5l0,0c-0.17,0.13-0.41,0.1-0.53-0.07c0,0,0-0.01-0.01-0.01
				c-0.13-0.16-0.13-0.4,0-0.56c0.15-0.25,0.43-0.4,0.72-0.4c-0.29-0.18-0.28-0.78-0.74-0.61c-0.62,0.27-0.92,0.97-0.68,1.6
				C95.46,35.61,96.17,35.88,96.79,35.64z"/>
			<path class="st1" d="M103.14,23.52c0.26-0.1,0.51-0.24,0.73-0.41c0.32-0.2,0.7-0.53,0.95,0c0.03,0.06,0.05,0.13,0.05,0.2
				c0.03,0.33-0.22,0.62-0.55,0.65c0,0-0.01,0-0.01,0c-0.38,0.09-0.3,0.22-0.17,0.45l0.07,0.11c0.02,0.05,0.02,0.11,0,0.16l0,0l0,0
				l0,0l0.4-0.16c0.85-0.38,1.18-1,0.84-1.67c-0.03-0.05-0.06-0.1-0.1-0.14c-0.45-0.59-1.29-0.7-1.88-0.25c0,0-0.01,0.01-0.01,0.01
				c-0.17,0.11-0.33,0.24-0.51,0.34c-0.19,0.13-0.45,0.08-0.58-0.12c-0.1-0.15-0.09-0.34,0.01-0.48c0.1-0.15,0.24-0.26,0.4-0.33
				c0.33-0.12,0.19-0.3,0-0.42s-0.15-0.47-0.49-0.29c-0.56,0.29-0.85,0.93-0.7,1.54C101.83,23.33,102.49,23.68,103.14,23.52z"/>
			<path class="st1" d="M129.76,30.09c-0.52,0.2-1.06,0.36-1.61,0.47c-0.07,0-0.18,0.05-0.19,0s0-0.08,0-0.09s0,0,0,0.08
				s0.12,0,0.19,0l-0.09-0.09l1.37-1.32c0.15-0.15,0.42-0.24,0.24-0.55s-0.39-0.14-0.6-0.1c-0.58,0.18-1.18,0.29-1.78,0.32l0,0l0,0
				l0,0c0.51-0.56,1.08-1.05,1.71-1.47c-0.06-0.41-0.46-0.62-0.54-1s-0.36-0.47-0.76-0.37c-0.74,0.18-1.49,0.29-2.45,0.48
				c0.72-0.75,1.28-1.36,1.88-2c0.26-0.26,0.12-0.44,0-0.66s-0.32,0-0.45,0.1c-0.5,0.25-1,0.57-1.49,0.8s-1,0.74-1.63,0.71
				c0,0.6,0,0.9,0.69,0.4c0.3-0.28,0.69-0.45,1.1-0.48l0,0l0,0l0,0l0,0l0,0l0,0l0.09-0.06c0.07-0.05,0.15-0.12,0.21,0l0,0
				c-0.07-0.11-0.14,0-0.21,0l0,0l-0.08,0.06l0,0l0,0l0,0l0,0l0,0l0,0l0,0l0,0c-0.12,0.47-0.53,0.64-0.74,1s-0.57,0.33-0.37,0.65
				s0.47,0,0.71,0c0.55-0.14,1.12-0.19,1.69-0.15c-0.54,0.32-1.1,0.61-1.68,0.85c-0.33,0.12-0.25,0.23-0.15,0.42s0.18,0.27,0.44,0.1
				c0.87-0.54,1.77-1,2.66-1.5c0.17-0.09,0.4-0.29,0.54-0.06s-0.11,0.36-0.26,0.49l-2.26,2.06c-0.13,0.13-0.39,0.23-0.25,0.49
				s0.34,0.12,0.53,0.08l2-0.48c0.07,0,0.17,0,0.2,0s0,0.07,0,0.1c0.02-0.03,0.02-0.06,0-0.09c0,0-0.13,0-0.2,0l0.1,0.13h0.08h-0.08
				c-0.5,0.48-1,0.95-1.48,1.43c-0.14,0.13-0.39,0.22-0.26,0.49s0.37,0.09,0.54,0l3.58-0.92C130.53,29.89,130.27,29.84,129.76,30.09
				z M125.28,25.36L125.28,25.36z M127.19,28.93c-0.07,0-0.15,0-0.12-0.1l0,0c0,0.09,0,0.11,0.12,0.11
				c0.04-0.02,0.08-0.05,0.12-0.08l0,0c-0.03,0.03-0.07,0.06-0.11,0.08L127.19,28.93z"/>
			<path class="st1" d="M123.47,25.42L123.47,25.42L123.47,25.42L123.47,25.42L123.47,25.42z"/>
			<path class="st1" d="M122.48,21.92c-0.45-0.1-0.48-0.56-0.71-0.87s0-0.5,0.28-0.67s0.5-0.11,0.63,0.21
				c0.07,0.16,0.17,0.31,0.25,0.47c0.17,0.35,0.39,0.2,0.63,0.08c0.43-0.2,0.08-0.32,0-0.46s-0.16-0.32-0.26-0.47
				s-0.09-0.44,0.18-0.59s0.46-0.18,0.59,0.14s0.48,0.65,0.38,1.11c0.18-0.29,0.87-0.07,0.66-0.69c-0.34-1.05-0.86-1.51-1.69-1.41
				c1-0.37,0.45-0.82,0.25-1.25c-0.1-0.17-0.2-0.35-0.28-0.53c-0.27-0.78-0.7-0.74-1.22-0.26c0.72,0.45,0.73,0.63,0,1
				c-0.68,0.4-1.38,0.76-2.1,1.08c-0.37,0.15-0.19,0.28-0.1,0.43s0.08,0.38,0.41,0.13c0.57-0.37,1.17-0.7,1.78-1
				c0.53-0.32,1-0.72,1.22,0.35c0.06,0.31,0.05,0.36-0.16,0.48l-1.47,0.81c-0.35,0.18-0.94,0.31-1,0.55s0.33,0.71,0.47,1.08
				C121.47,22.31,121.84,22.57,122.48,21.92z"/>
			<path class="st1" d="M131.27,33.12c0.47-0.52,0.43-1.33-0.09-1.81c-0.29-0.26-0.68-0.38-1.07-0.31c-0.98,0.02-1.89,0.54-2.4,1.38
				c-0.38,0.61-0.2,1.41,0.41,1.79c0.23,0.15,0.5,0.22,0.77,0.2C129.85,34.4,130.75,33.93,131.27,33.12z M128.27,33.12
				c0-0.04,0-0.09,0-0.13c0-0.62,0.87-1.34,1.68-1.35c0.45,0.06,0.87,0.21,0.9,0.8c0.03,0.59-0.85,1.4-1.6,1.4l0,0
				c-0.46,0.08-0.9-0.23-0.98-0.69c0-0.02-0.01-0.04-0.01-0.06L128.27,33.12z"/>
			<path class="st1" d="M128.81,35.56c0.36,0.64,0.53-0.22,0.85-0.19s0.38-0.32,0.58,0s0.35,0.51,0,0.79
				c-0.13,0.13-0.2,0.32-0.35,0.41c-0.47,0.32-0.39,0.62,0,1c0.48-0.61,0.68-1.33,1.72-1.35c1.2,0,1.57-1,1-2.07l-0.45-0.79
				c-0.91,0.65-1.92,1-2.79,1.63C129.21,35.1,128.44,34.9,128.81,35.56z M131.81,34.29c0.35,0,0.39,0.5,0.53,0.78
				c-0.03,0.36-0.34,0.63-0.7,0.61l0,0c-0.42-0.05-0.73-0.42-0.71-0.84c-0.03-0.36,0.53-0.56,0.85-0.55H131.81z"/>
			<path class="st1" d="M130.08,37.92c0.04,0.15,0.11,0.29,0.22,0.4c0.19,0.22,0.23-0.07,0.33-0.13c0.49-0.25,0.93-0.71,1.63-0.36
				c-0.33,0.43-0.61,0.82-0.93,1.18c-0.48,0.55-0.49,0.54,0,1.06c1.11-2.15,1.31-2.27,3.38-2c-0.3-1.3-1.5-0.39-2.16-1
				c0.31-0.2,0.65-0.37,1-0.49c0.4-0.1,0.27-0.26,0.15-0.48s-0.18-0.22-0.43-0.07c-0.95,0.59-1.95,1.1-2.94,1.64
				C130.27,37.76,130,37.67,130.08,37.92z"/>
			<path class="st1" d="M123.47,25.21L123.47,25.21c0.01-0.06,0.04-0.11,0.08-0.15l0,0l0.2-0.2l2-2.16
				c0.14-0.15,0.41-0.25,0.28-0.56s-0.42-0.21-0.66-0.17l-3.67,0.7c0.12,0.4,0.22,0.74,0.79,0.43s0.64,0.26,0.86,0.57
				s0.27,0.61-0.11,0.83c-0.74,0.44-0.23,0.69,0.13,1C123.34,25.39,123.38,25.28,123.47,25.21z M123.98,22.76
				c0.2-0.17,0.71-0.29,0.81,0s-0.34,0.52-0.63,0.82l0,0c-0.03-0.36-0.53-0.53-0.16-0.82L123.98,22.76z"/>
			<path class="st1" d="M109,50.36c-0.32,0-0.35,0.23-0.42,0.45c-0.24,0.74-0.47,1.48-0.78,2.43c-0.31-1-0.56-1.76-0.78-2.53l0,0
				c-0.06-0.25-0.31-0.39-0.56-0.33c-0.47,0-0.17,0.33-0.17,0.5c0,1.07,0,2.15,0,3.21c0,0.39,0.1,0.36,0.34,0.37
				s0.23-0.15,0.21-0.38c0-0.66,0-1.33,0-2c0.3,0.62,0.54,1.27,0.73,1.93c0.06,0.17,0.07,0.4,0.27,0.42s0.28-0.24,0.34-0.42
				c0.21-0.64,0.42-1.28,0.62-1.92h0.08c0.04,0.67,0.04,1.33,0,2c0,0.39,0.15,0.3,0.33,0.31s0.29,0,0.27-0.33
				c-0.07-1.12-0.07-2.25,0-3.37C109.39,50.27,109.2,50.37,109,50.36z"/>
			<path class="st1" d="M105.56,50.35c-0.3,0-0.49,0-0.59,0.39c-0.2,0.79-0.49,1.55-0.79,2.47c-0.29-0.91-0.54-1.66-0.75-2.42
				c-0.1-0.37-0.3-0.51-0.65-0.44s-0.07,0.37-0.08,0.54c0,1,0,2.09,0,3.13c0,0.21-0.15,0.41,0.2,0.4s0.4,0,0.35-0.37
				c-0.04-0.63-0.04-1.25,0-1.88c0.3,0.6,0.55,1.23,0.74,1.88c0,0.15,0,0.38,0.3,0.35s0.19-0.21,0.23-0.35
				c0.22-0.64,0.43-1.28,0.69-2.08c0.05,0.71,0.05,1.43,0,2.14c0,0.37,0.09,0.32,0.29,0.31s0.36,0.14,0.33-0.27
				c-0.07-1.09,0-2.19-0.06-3.29C105.66,50.71,106,50.41,105.56,50.35z"/>
			<path class="st1" d="M127.42,50.3c-0.65,0-1.18,0.45-1.41,1.28c-0.07,0.3-0.12,0.6-0.16,0.9c0.01,0.34,0.07,0.68,0.19,1
				c0.16,0.75,0.89,1.22,1.64,1.06c0.53-0.11,0.95-0.53,1.06-1.06c0.22-0.6,0.22-1.27,0-1.87C128.55,50.91,128.2,50.35,127.42,50.3z
				 M127.35,53.81L127.35,53.81c-0.52,0-1-0.69-1-1.39s0.48-1.35,1-1.36s1,0.65,1,1.44S127.9,53.84,127.35,53.81z"/>
			<path class="st1" d="M100.75,50.26c-0.86,0-1.48,0.93-1.49,2.16s0.63,2.1,1.54,2.09s1.48-0.83,1.48-2.06
				S101.62,50.23,100.75,50.26z M100.75,53.77c-0.54,0-1-0.61-1-1.35s0.48-1.43,1-1.4s0.93,0.66,0.93,1.4s-0.36,1.35-0.9,1.35
				L100.75,53.77z"/>
			<path class="st1" d="M115.05,50.37c-0.14,0-0.37-0.09-0.3,0.25c0.09,0.86,0.12,1.72,0.1,2.58c-0.11-0.14-0.21-0.28-0.3-0.43
				c-0.37-0.7-0.73-1.4-1.08-2.11c-0.08-0.22-0.32-0.35-0.55-0.29c-0.39,0.07-0.1,0.32-0.1,0.47c0,1.07,0,2.15,0,3.22
				c0,0.25-0.06,0.37,0.25,0.38s0.33-0.11,0.31-0.41c0-0.69,0-1.39,0-2.08c0.48,0.71,0.9,1.44,1.27,2.21
				c0.07,0.2,0.28,0.31,0.48,0.27c0.33,0,0.22-0.29,0.23-0.47c0-1.12-0.07-2.24,0.07-3.36C115.41,50.28,115.19,50.37,115.05,50.37z"
				/>
			<path class="st1" d="M121.13,50.38c-0.41,0-0.38,0.34-0.46,0.58c-0.37,1.13-0.73,2.27-1.11,3.44c0.39,0.1,0.7,0.15,0.73-0.44
				s0.57-0.5,1-0.53s0.64,0.09,0.62,0.48c0,0.65,0.34,0.59,0.77,0.5c-0.38-1.2-0.74-2.34-1.12-3.47
				C121.47,50.72,121.5,50.39,121.13,50.38z M121.35,52.73L121.35,52.73c-0.17,0.05-0.36,0.05-0.53,0c-0.22-0.07-0.08-0.25,0-0.38
				c0.08-0.29,0.17-0.57,0.27-0.88c0.29,0.25,0.24,0.6,0.36,0.87S121.55,52.67,121.35,52.73z"/>
			<path class="st1" d="M111.94,50.36c-0.2,0-0.25,0-0.21,0.29c0.07,0.68,0.09,1.37,0.06,2.06c0,0.52-0.12,1-0.75,1s-0.7-0.53-0.7-1
				c0-0.69,0-1.38,0-2.06c0-0.35-0.15-0.32-0.35-0.31s-0.39-0.07-0.33,0.14c0.28,1-0.07,2,0.2,3c0.18,0.63,0.52,1.08,1.22,1
				c0.59-0.03,1.07-0.5,1.1-1.09c0.1-0.52,0.1-1.06,0.15-1.59h-0.06l0.06-1.23C112.39,50.23,112.11,50.39,111.94,50.36z"/>
			<path class="st1" d="M97.63,51.05c0.45-0.17,0.74,0.11,0.94,0.63L99,50.8c-1.5-1.32-2.7,0-2.72,1.5
				c-0.03,0.54,0.1,1.07,0.37,1.54c0.27,0.49,0.82,0.75,1.37,0.65c0.91-0.13,1.07-0.52,0.51-1.28c0.01,0.05,0.01,0.11,0,0.16
				c-0.15,0.34-0.55,0.48-0.89,0.33c0,0,0,0,0,0c-0.5-0.18-0.81-0.68-0.76-1.21C96.76,51.89,97.07,51.29,97.63,51.05z"/>
			<path class="st1" d="M117.92,51.09c0.48-0.19,0.79,0.11,1,0.62c0.09-0.39,0.54-0.67,0.28-0.94c-0.1-0.13-0.23-0.24-0.38-0.32
				c-0.65-0.35-1.47-0.1-1.82,0.55c-0.5,0.88-0.5,1.97,0,2.85c0.24,0.5,0.78,0.79,1.33,0.71c0.87-0.09,1.08-0.5,0.61-1.34v0.12
				c-0.14,0.37-0.55,0.56-0.92,0.43c-0.53-0.18-0.86-0.7-0.81-1.26C117.11,51.93,117.4,51.36,117.92,51.09z"/>
			<path class="st1" d="M124,50.37c-0.26,0.02-0.51,0.02-0.77,0c-0.93,0-0.93,0-0.73,0.92c0.76-0.36,0.82-0.32,0.83,0.47
				s0,1.58,0,2.37c0,0.33,0.12,0.33,0.34,0.33s0.28-0.07,0.27-0.32c0-0.76,0-1.53,0-2.29s0.09-0.9,0.9-0.61
				C124.85,50.62,124.69,50.26,124,50.37z"/>
			<path class="st1" d="M116.35,50.7c0-0.32-0.08-0.34-0.31-0.33s-0.3,0-0.29,0.29c0,1.14,0,2.3,0,3.44c0,0.31,0.07,0.35,0.32,0.35
				s0.29-0.12,0.27-0.38c0-0.56,0-1.12,0-1.68C116.31,51.83,116.32,51.26,116.35,50.7z"/>
			<path class="st1" d="M125.58,52.42L125.58,52.42c0-0.56,0-1.12,0-1.68c0-0.28,0-0.37-0.28-0.37s-0.33,0.07-0.32,0.36
				c0,1.12,0,2.25,0,3.37c0,0.28,0,0.36,0.31,0.36s0.33,0,0.3-0.35C125.55,53.55,125.55,52.98,125.58,52.42z"/>
			<path class="st1" d="M112.53,33.92c-0.08,0.3-0.13,0.6-0.16,0.9c-0.34,1.27,0.14,2.63,1.22,3.39c0.82,0.59,1.37,1.5,1.51,2.5
				c0.12,0.62,0.08,1.25,0.19,1.89c0.49-0.93,0.81-1.95,0.94-3c0.16-0.92-0.13-1.87-0.77-2.55C114.51,36,113.17,35.3,112.53,33.92z"
				/>
			<path class="st1" d="M115,33.75c-0.26,0.81-0.17,1.68,0.23,2.43c1,1.25,2.1,2.4,1.71,4.24c0.71-0.71,0.99-1.74,0.72-2.71
				C117.27,36.07,115.9,35.09,115,33.75z"/>
			<path class="st1" d="M113.66,33.1c-0.05,0.8,0.23,1.58,0.76,2.18c0.19-1.1,0.1-2.23-0.28-3.28c-0.1-0.21-0.22-0.56-0.53-0.43
				s0,0.34,0,0.53C113.61,32.29,113.69,32.77,113.66,33.1z"/>
		</g>
	</g>
</g>
</svg>
