<svg xmlns="http://www.w3.org/2000/svg" viewBox="0 0 228 124"><defs><style>.cls-1,.cls-3{fill:#fff;}.cls-1{stroke:#757575;}.cls-1,.cls-4{stroke-miterlimit:10;}.cls-2{fill:#757575;}.cls-4,.cls-5{fill:none;}.cls-4{stroke:#fff;}</style></defs><title>common-sense</title><g id="Layer_2" data-name="Layer 2"><g id="Layer_1-2" data-name="Layer 1"><g id="Group_11354" data-name="Group 11354"><g id="badge_3" data-name="badge 3"><g id="Group_11086" data-name="Group 11086"><ellipse id="Ellipse_163" data-name="Ellipse 163" class="cls-1" cx="113.67" cy="61.83" rx="57.67" ry="57.83"/><ellipse id="Ellipse_164" data-name="Ellipse 164" class="cls-2" cx="113.93" cy="61.83" rx="53.54" ry="53.7"/><g id="Group_11077" data-name="Group 11077"><path id="Path_12808" data-name="Path 12808" class="cls-3" d="M105.92,20.36V31.71H103.3V20.36h-4V18.08h10.57l.37,2.28Z"/><path id="Path_12809" data-name="Path 12809" class="cls-3" d="M113.08,31.91c-2.59,0-4.48-1.85-4.48-5s1.91-5,4.48-5,4.5,1.88,4.5,5S115.7,31.91,113.08,31.91Zm0-8c-1.4,0-2.17,1.25-2.17,3s.78,3,2.17,3,2.22-1.25,2.22-3-.8-3-2.22-3Z"/><path id="Path_12810" data-name="Path 12810" class="cls-3" d="M123.91,31.8a7,7,0,0,1-2.23-.37V35l-2.36.34V22.17h2l.23,1.31A3.82,3.82,0,0,1,124.52,22c2,0,3.59,1.51,3.59,4.7C128.08,30.23,126.1,31.8,123.91,31.8Zm-.06-7.73a2.91,2.91,0,0,0-2.17,1.34v4.08a3.63,3.63,0,0,0,1.83.42c1.23,0,2.17-1,2.17-3.1C125.67,25,124.91,24.07,123.85,24.07Z"/><path id="Path_12811" data-name="Path 12811" class="cls-3" d="M86.87,43.68H85.7v5H83.12V35.07h4c3.1,0,5,1.46,5,4.19C92.09,42.2,90,43.68,86.87,43.68Zm.09-6.5H85.7v4.4h1.14c1.68,0,2.68-.68,2.68-2.25s-.88-2.15-2.56-2.15Z"/><path id="Path_12812" data-name="Path 12812" class="cls-3" d="M94.77,37.55a1.33,1.33,0,0,1-1.42-1.25h0v-.09a1.42,1.42,0,0,1,1.48-1.34,1.4,1.4,0,0,1,1.34,1.34,1.34,1.34,0,0,1-1.33,1.35ZM93.55,48.7V39.15h2.36V48.7Z"/><path id="Path_12813" data-name="Path 12813" class="cls-3" d="M102.27,48.87c-2.65,0-4.54-1.77-4.54-4.91,0-3.31,2.07-5,4.59-5a5.75,5.75,0,0,1,3,.81L105,41.89a3.9,3.9,0,0,0-2.51-.88c-1.37,0-2.33,1-2.33,2.9s1.06,2.94,2.51,2.94a3.89,3.89,0,0,0,2.48-.91l.31,2A5.34,5.34,0,0,1,102.27,48.87Z"/><path id="Path_12814" data-name="Path 12814" class="cls-3" d="M113.39,48.85,109.88,44v4.72h-2.36V34.85l2.36-.37v8.67l3.1-4h2.68l-3.51,4.27,3.74,5Z"/><path id="Path_12815" data-name="Path 12815" class="cls-3" d="M126.81,36.56c-.79,0-1.25.35-1.25,1.21v1.38h1.83l.28,1.94h-2.11v7.62h-2.33V41.09h-1.36V39.15h1.36V37.53c0-2.11,1.34-2.91,3.31-2.91a3.94,3.94,0,0,1,1,.09l.31,1.93C127.49,36.6,127.15,36.57,126.81,36.56Z"/><path id="Path_12816" data-name="Path 12816" class="cls-3" d="M133.14,48.9c-2.58,0-4.47-1.85-4.47-5s1.91-5,4.47-5,4.5,1.88,4.5,5S135.74,48.9,133.14,48.9Zm0-8c-1.4,0-2.16,1.25-2.16,3s.77,3,2.16,3,2.23-1.26,2.23-3S134.54,40.92,133.14,40.92Z"/><path id="Path_12817" data-name="Path 12817" class="cls-3" d="M141.75,43.23V48.7h-2.36V39.15h2l.29,1.91A3.7,3.7,0,0,1,144.75,39l.37,2.33A4.48,4.48,0,0,0,141.75,43.23Z"/><path id="Path_12818" data-name="Path 12818" class="cls-3" d="M79.26,65.69V52.06h2.63V63.38h4.53l.34,2.31Z"/><path id="Path_12819" data-name="Path 12819" class="cls-3" d="M95.89,61.39H89.75c.12,1.85,1.12,2.68,2.57,2.68a5.61,5.61,0,0,0,3.28-1.2l.28,1.85a6.51,6.51,0,0,1-3.82,1.17c-2.68,0-4.65-1.51-4.65-5,0-3.1,1.85-5,4.33-5,2.85,0,4.14,2.17,4.14,4.85A4,4,0,0,1,95.89,61.39Zm-4.2-3.8c-.94,0-1.71.75-1.91,2.31h3.79c-.14-1.48-.74-2.3-1.88-2.3Z"/><path id="Path_12820" data-name="Path 12820" class="cls-3" d="M103.58,65.69l-.2-1.25a4.32,4.32,0,0,1-3.19,1.45,2.5,2.5,0,0,1-2.71-2.28,2.29,2.29,0,0,1,0-.37c0-2.31,1.91-3.31,5.76-3.71v-.28c0-1-.6-1.42-1.63-1.42a7.87,7.87,0,0,0-3.19.77l-.28-1.91a10.27,10.27,0,0,1,3.79-.78c2.48,0,3.7.92,3.7,3.2v6.53h-2v0Zm-.34-4.76c-2.74.34-3.39,1.14-3.39,2a1,1,0,0,0,1,1.12,1.34,1.34,0,0,0,.2,0,3.19,3.19,0,0,0,2.22-1V60.92h0Z"/><path id="Path_12821" data-name="Path 12821" class="cls-3" d="M110.14,60.22v5.47h-2.4V56.14h2l.28,1.91a3.71,3.71,0,0,1,3-2.11l.37,2.33A4.46,4.46,0,0,0,110.14,60.22Z"/><path id="Path_12822" data-name="Path 12822" class="cls-3" d="M120.58,65.69V59.45c0-.83-.34-1.4-1.23-1.4a3.24,3.24,0,0,0-2.16,1.2v6.44h-2.37V56.14h2l.23,1.34a4.64,4.64,0,0,1,3.2-1.55A2.54,2.54,0,0,1,123,58.26a2.18,2.18,0,0,1,0,.51v6.87h-2.42v0Z"/><path id="Path_12823" data-name="Path 12823" class="cls-3" d="M126.42,54.58A1.36,1.36,0,0,1,125,53.32h0v-.08a1.41,1.41,0,1,1,2.82-.15,1.4,1.4,0,0,1-1.33,1.48Zm-1.2,11.11V56.14h2.36v9.55h-2.36Z"/><path id="Path_12824" data-name="Path 12824" class="cls-3" d="M135.65,65.69V59.45c0-.83-.34-1.4-1.22-1.4a3.26,3.26,0,0,0-2.17,1.2v6.44h-2.37V56.14h2l.23,1.34a4.64,4.64,0,0,1,3.19-1.55,2.54,2.54,0,0,1,2.75,2.33,2.9,2.9,0,0,1,0,.51v6.87h-2.42v0Z"/><path id="Path_12825" data-name="Path 12825" class="cls-3" d="M148.71,56l.31,1.91-1.74.11a2.91,2.91,0,0,1,.26,1.26c0,2-1.77,3.28-3.82,3.28-.26,0-.52,0-.77-.06a.78.78,0,0,0-.4.52c0,.31.28.4,1.77.6l1.22.11c2,.28,3.2.88,3.2,2.33,0,2-2.26,3.19-5,3.19-2.59,0-4.53-.8-4.53-2.36,0-.89.6-1.57,1.8-2.26a1.26,1.26,0,0,1-.54-1c0-.54.42-1.06,1.2-1.51a3,3,0,0,1-1.8-2.79c0-2.07,1.71-3.37,3.82-3.37a4.2,4.2,0,0,1,2.7.89Zm-7.47,10.63c0,.71.86,1.23,2.65,1.23s2.68-.57,2.68-1.3c0-.51-.42-.8-1.6-1l-1.29-.17c-.66-.08-.94-.14-1.43-.22-.7.52-1,1-1,1.46Zm2.45-9.18A1.66,1.66,0,0,0,142,59.14a1.41,1.41,0,0,0,0,.2,1.61,1.61,0,0,0,1.48,1.73h.17a1.8,1.8,0,0,0,0-3.6Z"/></g><g id="Group_11085" data-name="Group 11085"><g id="Group_11078" data-name="Group 11078"><path id="Path_12826" data-name="Path 12826" class="cls-3" d="M105.32,98.74h-3.53c0,1.29.6,2.16,1.71,2.16a2.63,2.63,0,0,0,1.73-.77l.09.46a2.7,2.7,0,0,1-1.83.74c-1.31,0-2.2-1-2.2-2.58s.92-2.59,2.11-2.59,1.91,1.11,1.91,2.48v.1Zm-1.91-2.2c-.94,0-1.48.74-1.6,1.77h3c0-1-.48-1.77-1.36-1.77Z"/><path id="Path_12827" data-name="Path 12827" class="cls-3" d="M110.23,101.21l-.11-.74a2.07,2.07,0,0,1-1.6.83c-1.11,0-2-.8-2-2.45,0-1.83,1.08-2.71,2.28-2.71a3.27,3.27,0,0,1,1.34.26V93.86h.51v7.33h-.37Zm-.14-4.3a2.94,2.94,0,0,0-1.34-.32c-1,0-1.8.72-1.8,2.26,0,1.31.66,2,1.56,2a2.14,2.14,0,0,0,1.56-.91v-3Z"/><path id="Path_12828" data-name="Path 12828" class="cls-3" d="M115.73,101.21l-.12-.74a2.7,2.7,0,0,1-1.82.86,1.38,1.38,0,0,1-1.52-1.2,1.51,1.51,0,0,1,0-.37v-3.5h.51v3.48c0,.74.37,1.17,1.09,1.17a2.72,2.72,0,0,0,1.74-.92V96.26h.48v5h-.37v0Z"/><path id="Path_12829" data-name="Path 12829" class="cls-3" d="M119.72,101.33a2.62,2.62,0,0,1,0-5.17,2.89,2.89,0,0,1,1.63.54l-.09.52a2.19,2.19,0,0,0-1.55-.63c-1,0-1.68.88-1.68,2.17s.6,2.16,1.74,2.16a2.41,2.41,0,0,0,1.57-.63l0,.46A2.67,2.67,0,0,1,119.72,101.33Z"/><path id="Path_12830" data-name="Path 12830" class="cls-3" d="M125.85,101.21l-.12-.65a2.71,2.71,0,0,1-1.77.77,1.32,1.32,0,0,1-1.49-1.14,1.36,1.36,0,0,1,0-.2c0-1.11.86-1.71,3.25-1.94v-.42c0-.72-.42-1-1.11-1a3.83,3.83,0,0,0-1.71.46l0-.46a4.28,4.28,0,0,1,1.8-.42c1,0,1.56.51,1.56,1.48v3.62h-.34v-.06Zm-.14-2.73c-2.06.23-2.74.65-2.74,1.48a.93.93,0,0,0,.9,1H124a2.64,2.64,0,0,0,1.71-.8V98.48Z"/><path id="Path_12831" data-name="Path 12831" class="cls-3" d="M129.3,101.3c-.72,0-1.17-.28-1.17-1.14v-3.5h-.78v-.43h.78V94.68h.48v1.55h1.23l.06.43h-1.3v3.42c0,.57.23.8.8.8a2.27,2.27,0,0,0,.52-.09l.09.4A2.15,2.15,0,0,1,129.3,101.3Z"/><path id="Path_12832" data-name="Path 12832" class="cls-3" d="M131.64,94.89a.43.43,0,1,1,.42-.43h0a.42.42,0,0,1-.41.43h0Zm-.23,6.32v-5h.48v5Z"/><path id="Path_12833" data-name="Path 12833" class="cls-3" d="M135.58,101.33c-1.26,0-2.2-1-2.2-2.58a2.32,2.32,0,0,1,2-2.58h.18c1.25,0,2.2.94,2.2,2.59a2.29,2.29,0,0,1-2,2.56Zm0-4.76c-1.09,0-1.68.88-1.68,2.17s.6,2.16,1.68,2.16,1.68-.88,1.68-2.16S136.65,96.57,135.58,96.57Z"/><path id="Path_12834" data-name="Path 12834" class="cls-3" d="M142.56,101.21V97.74c0-.74-.37-1.17-1.09-1.17a2.71,2.71,0,0,0-1.74.91v3.73h-.48v-5h.37l.11.74a2.72,2.72,0,0,1,1.83-.86,1.37,1.37,0,0,1,1.52,1.2,1.53,1.53,0,0,1,0,.37v3.51h-.52v0Z"/></g><g id="Group_11083" data-name="Group 11083"><g id="Group_11081" data-name="Group 11081"><g id="Group_11079" data-name="Group 11079"><path id="Path_12835" data-name="Path 12835" class="cls-3" d="M103.67,83.66c-1.46,0-2.51-1-2.51-2.85s1.14-2.94,2.53-2.94a2.88,2.88,0,0,1,1.66.49l-.17,1.25a2.07,2.07,0,0,0-1.4-.51c-.75,0-1.31.6-1.31,1.68s.6,1.71,1.39,1.71a2,2,0,0,0,1.37-.54l.17,1.16A2.71,2.71,0,0,1,103.67,83.66Z"/><path id="Path_12836" data-name="Path 12836" class="cls-3" d="M108.4,83.68c-1.43,0-2.48-1.08-2.48-2.88s1-2.91,2.48-2.91,2.48,1.09,2.48,2.91S109.83,83.68,108.4,83.68Zm0-4.67c-.78,0-1.2.74-1.2,1.77s.43,1.77,1.2,1.77,1.23-.72,1.23-1.77S109.17,79,108.4,79Z"/><path id="Path_12837" data-name="Path 12837" class="cls-3" d="M118,83.57V79.92c0-.48-.18-.82-.66-.82a1.71,1.71,0,0,0-1.17.68v3.76h-1.32V79.9c0-.49-.17-.83-.66-.83a1.74,1.74,0,0,0-1.17.69v3.76h-1.31V78h1.11l.12.77a2.55,2.55,0,0,1,1.74-.91,1.35,1.35,0,0,1,1.37.91,2.5,2.5,0,0,1,1.77-.91c1,0,1.48.63,1.48,1.68v4H118v.06Z"/><path id="Path_12838" data-name="Path 12838" class="cls-3" d="M126.87,83.57V79.92c0-.48-.17-.82-.66-.82a1.71,1.71,0,0,0-1.16.68v3.76h-1.32V79.9c0-.49-.17-.83-.65-.83a1.72,1.72,0,0,0-1.17.69v3.76H120.6V78h1.11l.11.77a2.6,2.6,0,0,1,1.74-.91,1.34,1.34,0,0,1,1.37.91,2.6,2.6,0,0,1,1.77-.91c1,0,1.48.63,1.48,1.68v4h-1.31v0Z"/></g><g id="Group_11080" data-name="Group 11080"><path id="Path_12839" data-name="Path 12839" class="cls-3" d="M131.64,83.69c-1.43,0-2.48-1.09-2.48-2.89s1.05-2.9,2.48-2.9,2.5,1.08,2.5,2.9S133.06,83.69,131.64,83.69Zm0-4.68c-.78,0-1.2.74-1.2,1.77s.42,1.77,1.2,1.77,1.22-.71,1.22-1.77S132.4,79,131.64,79Z"/><path id="Path_12840" data-name="Path 12840" class="cls-3" d="M138.16,83.57V79.92c0-.48-.2-.82-.68-.82a1.66,1.66,0,0,0-1.2.71v3.76H135V78h1.12l.12.78a2.54,2.54,0,0,1,1.77-.91c1,0,1.51.62,1.51,1.68v4Z"/></g></g><g id="Group_11082" data-name="Group 11082"><path id="Path_12841" data-name="Path 12841" class="cls-3" d="M103.38,92a4.33,4.33,0,0,1-2-.54l.17-1.14a3.56,3.56,0,0,0,1.94.66c.57,0,.88-.23.88-.57s-.23-.54-1.08-.78c-1.29-.34-1.83-.74-1.83-1.74s.72-1.62,1.94-1.62a4.27,4.27,0,0,1,1.86.4L105,87.82a3.32,3.32,0,0,0-1.68-.52c-.48,0-.74.2-.74.52s.2.45,1,.68c1.37.37,1.91.78,1.91,1.8S104.78,92,103.38,92Z"/><path id="Path_12842" data-name="Path 12842" class="cls-3" d="M110.76,89.39h-3.39c.06,1.08.6,1.56,1.43,1.56a3,3,0,0,0,1.82-.68l.14,1.08a3.4,3.4,0,0,1-2.11.69c-1.48,0-2.58-.89-2.58-2.91,0-1.83,1-2.91,2.39-2.91,1.6,0,2.31,1.25,2.31,2.82A1.37,1.37,0,0,1,110.76,89.39Zm-2.3-2.23c-.52,0-.95.43-1.06,1.34h2.11C109.43,87.65,109.08,87.16,108.46,87.16Z"/><path id="Path_12843" data-name="Path 12843" class="cls-3" d="M115,91.9V88.25c0-.49-.2-.83-.68-.83a1.66,1.66,0,0,0-1.2.71V91.9h-1.31V86.34h1.11l.12.78a2.59,2.59,0,0,1,1.77-.92c1,0,1.51.63,1.51,1.69v4Z"/><path id="Path_12844" data-name="Path 12844" class="cls-3" d="M119.18,92a4.48,4.48,0,0,1-2.06-.54l.17-1.14a3.59,3.59,0,0,0,1.94.66c.57,0,.89-.23.89-.57s-.23-.54-1.09-.78c-1.29-.34-1.82-.74-1.82-1.74s.71-1.62,1.94-1.62a4.22,4.22,0,0,1,1.85.4l-.16,1.14a3.47,3.47,0,0,0-1.68-.51c-.49,0-.75.2-.75.51s.2.46,1,.69c1.37.37,1.91.77,1.91,1.8S120.58,92,119.18,92Z"/><path id="Path_12845" data-name="Path 12845" class="cls-3" d="M126.56,89.39h-3.4c.06,1.08.6,1.56,1.42,1.56a3.05,3.05,0,0,0,1.83-.68l.14,1.08a3.4,3.4,0,0,1-2.11.69c-1.48,0-2.58-.89-2.58-2.91,0-1.83,1-2.91,2.39-2.91,1.6,0,2.31,1.25,2.31,2.82A1.37,1.37,0,0,1,126.56,89.39Zm-2.31-2.23c-.52,0-.94.43-1,1.34h2.11C125.23,87.65,124.88,87.16,124.25,87.16Z"/></g></g><g id="Group_11084" data-name="Group 11084"><path id="Path_12846" data-name="Path 12846" class="cls-3" d="M94.06,85.22a6.1,6.1,0,1,1-1.77-4.7q.3.32.57.66L94,79.76a3.56,3.56,0,0,0-.46-.49,8,8,0,1,0,0,11.25v0a8,8,0,0,0,2.18-7.22Z"/><path id="Path_12847" data-name="Path 12847" class="cls-3" d="M88.73,88.39h0A3.35,3.35,0,0,1,86.4,87.3L84.26,85a.85.85,0,1,1,1.16-1.23h0l.07.06,2.17,2.29h0a1.81,1.81,0,0,0,1.11.48,2.37,2.37,0,0,0,1.62-.91l6.19-7.5a.85.85,0,0,1,1.34,1l0,0-6.27,7.56A4,4,0,0,1,88.73,88.39Z"/></g></g><line id="Line_61" data-name="Line 61" class="cls-4" x1="89.07" y1="71.96" x2="137.54" y2="71.96"/></g></g><rect id="Rectangle_1935" data-name="Rectangle 1935" class="cls-5" width="228" height="124"/></g></g></g></svg>