<svg xmlns="http://www.w3.org/2000/svg" viewBox="0 0 228 72"><defs><style>.cls-1{fill:none;}.cls-2,.cls-3,.cls-4{fill:#334354;}.cls-3{opacity:0.4;}.cls-3,.cls-4{isolation:isolate;}.cls-4{opacity:0.7;}</style></defs><title>edmonds</title><g id="Layer_2" data-name="Layer 2"><g id="Layer_1-2" data-name="Layer 1"><g id="Group_10979" data-name="Group 10979"><g id="Group_10978" data-name="Group 10978"><rect id="Rectangle_1562" data-name="Rectangle 1562" class="cls-1" width="228" height="72"/><g id="Group_11431" data-name="Group 11431"><g id="Group_11436" data-name="Group 11436"><path id="Path_13611" data-name="Path 13611" class="cls-2" d="M110.14,31.48a4.64,4.64,0,0,1,5.4-2.11,3.15,3.15,0,0,1,2.1,2.23c.18-.23.35-.45.53-.66a4.69,4.69,0,0,1,4.1-1.76,3.31,3.31,0,0,1,3.16,2.94,9.27,9.27,0,0,1,.17,1.75c0,2.15,0,4.3,0,6.46,0,.32-.08.41-.4.4-.75,0-1.5,0-2.24,0-.3,0-.38-.06-.38-.37q0-3.16,0-6.33a4.91,4.91,0,0,0-.13-1,1.69,1.69,0,0,0-1.9-1.45l-.24.05A2.8,2.8,0,0,0,118,34.29c0,2,0,4,0,6,0,.32-.07.42-.4.4-.73,0-1.47,0-2.2,0-.32,0-.43,0-.43-.41,0-2.11,0-4.22,0-6.33a4,4,0,0,0-.12-1,1.67,1.67,0,0,0-1.87-1.45l-.23.05a2.79,2.79,0,0,0-2.4,2.68c0,2,0,4,0,6,0,.4-.12.47-.48.46-.73,0-1.46,0-2.2,0-.24,0-.35,0-.35-.31q0-5.27,0-10.51c0-.24.08-.32.3-.35.73-.08,1.45-.18,2.18-.29.21,0,.29,0,.3.26C110,30.14,110.09,30.75,110.14,31.48Z"/><path id="Path_13612" data-name="Path 13612" class="cls-2" d="M104.74,39.39c-1,.25-1.24,0-1.26-.9v-5c0-2.75,0-5.51,0-8.26,0-.32-.09-.38-.39-.34-.75.12-1.5.23-2.26.3-.3,0-.37.12-.37.41,0,1.63,0,3.27,0,4.91,0,.1.07.22-.09.32a1.43,1.43,0,0,0-.2-.23,5.26,5.26,0,0,0-7.42.17,5,5,0,0,0-.54.68,6.63,6.63,0,0,0-.87,5.24,5.09,5.09,0,0,0,3.7,4.18,5.28,5.28,0,0,0,5.49-1.58,2.05,2.05,0,0,0,1,1.38,3.23,3.23,0,0,0,3,0c.12-.06.22-.12.22-.28Zm-4.26-4.24c0,.4,0,.8,0,1.2a1.37,1.37,0,0,1-.34,1,3.46,3.46,0,0,1-3.81,1.29,2.89,2.89,0,0,1-1.86-1.88,4.88,4.88,0,0,1-.08-3.09,3.13,3.13,0,0,1,5.23-1.38,2.1,2.1,0,0,1,.86,2,6.17,6.17,0,0,0,0,.86Z"/><path id="Path_13613" data-name="Path 13613" class="cls-2" d="M170.42,39.63c0-.23-.07-.24-.28-.19-.64.16-.94-.06-1-.74,0-.16,0-.31,0-.47V33.75q0-4.26,0-8.53c0-.32-.09-.38-.39-.33-.53.1-1.05.15-1.58.22-.34.05-.78,0-1,.18s-.06.65-.06,1c0,1.5,0,3,0,4.65l-.29-.33a5.22,5.22,0,0,0-7.38.14,5.41,5.41,0,0,0-.74,1,6.68,6.68,0,0,0-.24,6.36,4.84,4.84,0,0,0,4.8,3,5.11,5.11,0,0,0,3.9-1.77c.41,1,.73,1.38,1.45,1.59a3.4,3.4,0,0,0,1.79,0C170.36,40.72,170.45,40.58,170.42,39.63Zm-4.28-4.5a12,12,0,0,0,0,1.2,1.42,1.42,0,0,1-.36,1.06A3.46,3.46,0,0,1,162,38.65a2.91,2.91,0,0,1-1.84-1.9,4.78,4.78,0,0,1-.06-3.08,3.11,3.11,0,0,1,3.84-2.16,3.07,3.07,0,0,1,1.36.79,2.08,2.08,0,0,1,.88,2,5,5,0,0,0,0,.86Z"/><path id="Path_13614" data-name="Path 13614" class="cls-2" d="M79.32,33c0-2.46,0-4.91,0-7.37,0-.28.06-.38.37-.38h9.39c.32,0,.38.1.37.39,0,.56,0,1.12,0,1.68,0,.33-.09.4-.41.4-2,0-4.1,0-6.16,0-.34,0-.42.09-.41.42,0,1,0,2,0,2.93,0,.28.08.33.33.32h5c.32,0,.41.08.4.4a14.06,14.06,0,0,0,0,1.59c0,.37-.07.49-.46.48-1.61,0-3.22,0-4.83,0-.3,0-.41,0-.4.39,0,1.24,0,2.5,0,3.74,0,.28.06.36.35.36,2.06,0,4.13,0,6.2,0,.33,0,.44.09.42.43,0,.57,0,1.15,0,1.72,0,.23,0,.33-.3.33H79.62c-.32,0-.3-.15-.3-.37Z"/><path id="Path_13615" data-name="Path 13615" class="cls-2" d="M139,31a6.28,6.28,0,0,0-5.84-1.8,6,6,0,0,0-5,6.88c0,.13.05.27.08.4a6,6,0,0,0,6.2,4.69,4.45,4.45,0,0,0,1.09-.08A6,6,0,0,0,139,31Zm-1.7,6a2.93,2.93,0,0,1-2.79,1.93,3,3,0,0,1-3-1.88,4.69,4.69,0,0,1-.09-3.64c.51-1.37,1.58-2.09,3.6-2.09a2.83,2.83,0,0,1,2.28,1.84,4.67,4.67,0,0,1,0,3.84Z"/><path id="Path_13616" data-name="Path 13616" class="cls-2" d="M146.06,31.44a5,5,0,0,1,5.64-2.05,3.57,3.57,0,0,1,2.41,2.89,6.76,6.76,0,0,1,.17,1.62c0,2.12,0,4.25,0,6.37,0,.4-.11.48-.47.46-.73,0-1.47,0-2.2,0-.29,0-.35-.08-.35-.36,0-2.06,0-4.13,0-6.2a4.31,4.31,0,0,0-.18-1.23,2,2,0,0,0-2.49-1.31l-.26.1a3,3,0,0,0-2.15,3c0,1.87,0,3.74,0,5.6,0,.3-.05.43-.39.42-.76,0-1.53,0-2.29,0-.24,0-.34,0-.34-.32,0-3.5,0-7,0-10.51,0-.24.08-.31.3-.34.73-.09,1.45-.18,2.17-.29.23,0,.29,0,.3.26C146,30.14,146,30.75,146.06,31.44Z"/><path id="Path_13617" data-name="Path 13617" class="cls-2" d="M180,32.16a6.75,6.75,0,0,0-3.12-.93,3.39,3.39,0,0,0-1.23.17,1,1,0,0,0-.7.85,1,1,0,0,0,.54.91,5.85,5.85,0,0,0,1.74.58,8.49,8.49,0,0,1,2.12.8,3.33,3.33,0,0,1,.13,5.76,6.16,6.16,0,0,1-3.9.74,8.7,8.7,0,0,1-3.26-1c-.29-.15-.44-.29-.32-.65a7.11,7.11,0,0,0,.29-1.21c.07-.4.16-.48.55-.25a6.76,6.76,0,0,0,3.63,1,3.38,3.38,0,0,0,1.14-.2,1.13,1.13,0,0,0,.77-1,1,1,0,0,0-.68-.95,8,8,0,0,0-1.72-.54,6.58,6.58,0,0,1-2.08-.79,3.18,3.18,0,0,1-1.62-3.22,3.1,3.1,0,0,1,2.22-2.69,7.4,7.4,0,0,1,5.79.53.25.25,0,0,1,.17.31v0C180.29,31,180.15,31.56,180,32.16Z"/></g><g id="Group_11437" data-name="Group 11437"><path id="Path_13618" data-name="Path 13618" class="cls-2" d="M109.29,50.55a4.23,4.23,0,0,0-4.53,3.93c0,.1,0,.2,0,.3a4.24,4.24,0,0,0,4.17,4.3h.26a4.21,4.21,0,0,0,4.46-3.93c0-.11,0-.21,0-.32a4.19,4.19,0,0,0-4.11-4.28Zm1.22,6.87a2.65,2.65,0,0,1-2.74-.07A3.11,3.11,0,0,1,108.3,52c1.9-.63,3.61.7,3.6,2.87A2.79,2.79,0,0,1,110.51,57.42Z"/><path id="Path_13619" data-name="Path 13619" class="cls-2" d="M119.5,50.55A4.23,4.23,0,0,0,115,54.48c0,.1,0,.2,0,.3a4.23,4.23,0,0,0,4.16,4.3h.26a4.21,4.21,0,0,0,4.46-3.93c0-.11,0-.21,0-.32a4.2,4.2,0,0,0-4.12-4.28Zm-1.18,7a3,3,0,0,1,.64-5.61,2.69,2.69,0,0,1,3.12,2.16,3.08,3.08,0,0,1,0,.74,2.7,2.7,0,0,1-3.79,2.71Z"/><path id="Path_13620" data-name="Path 13620" class="cls-2" d="M142.7,53.53a3.61,3.61,0,0,0-3.29-2.72,31.78,31.78,0,0,0-3.65-.09c-.31,0-.41.05-.41.38,0,1.24,0,2.47,0,3.7s0,2.53,0,3.79c0,.23,0,.33.3.32,1,0,2,0,3,0a4.46,4.46,0,0,0,2.91-1A4.07,4.07,0,0,0,142.7,53.53ZM141,55.8a2.37,2.37,0,0,1-2.3,1.73c-.46,0-.92,0-1.38,0-.27,0-.36,0-.35-.34,0-.82,0-1.63,0-2.45s0-1.55,0-2.32c0-.36.11-.42.43-.41a7.39,7.39,0,0,1,2.09.21A2.16,2.16,0,0,1,141.08,54,4,4,0,0,1,141,55.8Z"/><path id="Path_13621" data-name="Path 13621" class="cls-2" d="M169.76,57.85l0,0A1.46,1.46,0,0,1,168,57l-.66-1.16c-.11-.18-.14-.27.12-.35a2.07,2.07,0,0,0,1.24-1.06,2.47,2.47,0,0,0-1-3.35,2.36,2.36,0,0,0-1.25-.3c-1,0-2.07,0-3.1,0-.34,0-.39.1-.39.41,0,2.15,0,4.3,0,6.46,0,.43-.16,1,.06,1.24s.84,0,1.28.09.32-.11.31-.34c0-.86,0-1.73,0-2.59,0-.11-.05-.24.06-.32a1,1,0,0,1,1,.26c.28.57.55,1.13.85,1.69A2.31,2.31,0,0,0,168.69,59C169.77,59,169.85,58.92,169.76,57.85ZM166,54.46c-.46,0-1,.17-1.34-.06s-.06-.83-.08-1.27c0-.1,0-.2,0-.3,0-.91,0-.91.9-.9H166A1.17,1.17,0,0,1,167.29,53a.67.67,0,0,1,0,.2,1.14,1.14,0,0,1-1,1.26Z"/><path id="Path_13622" data-name="Path 13622" class="cls-2" d="M95.75,54.8c0-1.23,0-2.47,0-3.7,0-.28,0-.42.36-.38s1-.18,1.23.09.06.79.07,1.2,0,1.06,0,1.59c0,.21.06.27.27.27H101c.23,0,.29-.08.29-.3,0-.85,0-1.7,0-2.54,0-.24,0-.33.3-.32a8.37,8.37,0,0,0,1.12,0c.19,0,.24.06.24.25q0,3.85,0,7.71c0,.22-.08.26-.28.25-.44,0-1,.15-1.29-.07s-.08-.83-.09-1.27c0-.64,0-1.29,0-1.93,0-.27,0-.38-.34-.37-1.07,0-2.15,0-3.23,0-.25,0-.3.08-.3.31,0,1,0,2,0,3,0,.23,0,.33-.3.31a8.85,8.85,0,0,0-1,0c-.27,0-.33-.07-.33-.33C95.75,57.33,95.75,56.07,95.75,54.8Z"/><path id="Path_13623" data-name="Path 13623" class="cls-2" d="M94,52.88c-2.06-1.52-4-1.05-4.87,0a3.38,3.38,0,0,0,.06,4c.84,1,2.8,1.42,4.8-.08V58.1a.3.3,0,0,1-.15.28c-2.21,1.35-6.07.91-7-2.37a4.22,4.22,0,0,1,2.82-5.27A4.06,4.06,0,0,1,91,50.55a5.18,5.18,0,0,1,2.72.67.4.4,0,0,1,.24.4C94,52,94,52.42,94,52.88Z"/><path id="Path_13624" data-name="Path 13624" class="cls-2" d="M181.78,52.88c-2-1.51-4-1.05-4.84-.06a3.41,3.41,0,0,0,0,4c.83,1,2.8,1.47,4.84-.06V58.1a.29.29,0,0,1-.16.28c-2.2,1.35-6.06.91-7-2.37a4.23,4.23,0,0,1,2.82-5.28,4.4,4.4,0,0,1,1.35-.18,5.27,5.27,0,0,1,2.72.66.4.4,0,0,1,.23.4C181.77,52,181.78,52.42,181.78,52.88Z"/><path id="Path_13625" data-name="Path 13625" class="cls-2" d="M148.21,56.73a3.92,3.92,0,0,0,2.36,1.11,1.92,1.92,0,0,0,1-.18,1,1,0,0,0,.59-.88,1,1,0,0,0-.51-1,4.81,4.81,0,0,0-1.2-.44,3.64,3.64,0,0,1-1.71-.85,2.25,2.25,0,0,1,.66-3.69,4,4,0,0,1,3.74.37c.16.09.22.18.15.37s-.2.63-.3,1a4,4,0,0,0-2.28-.7,1.69,1.69,0,0,0-.59.13.84.84,0,0,0-.46,1.09.74.74,0,0,0,.34.4,3.73,3.73,0,0,0,1.2.46,6,6,0,0,1,1.24.47,2.35,2.35,0,0,1,1.25,2.6A2.19,2.19,0,0,1,152,58.9a4.45,4.45,0,0,1-3.89-.63c-.19-.13-.27-.25-.18-.49A10.23,10.23,0,0,0,148.21,56.73Z"/><path id="Path_13626" data-name="Path 13626" class="cls-2" d="M84.72,52.52a4,4,0,0,0-2.26-.7,2,2,0,0,0-.59.12.87.87,0,0,0-.54.72.83.83,0,0,0,.41.8,4.36,4.36,0,0,0,1.2.45,6.22,6.22,0,0,1,1.39.56A2.53,2.53,0,0,1,85,58a.71.71,0,0,1-.1.14,2.71,2.71,0,0,1-1.71.9,4.5,4.5,0,0,1-3.4-.73c-.2-.14-.3-.26-.19-.52s.21-.67.3-1a5.93,5.93,0,0,0,1.1.75,3,3,0,0,0,1.91.28,1.12,1.12,0,0,0,.93-.9,1,1,0,0,0-.67-1.16,7.17,7.17,0,0,0-1.26-.42,3.71,3.71,0,0,1-1.27-.6,2.26,2.26,0,0,1,.42-3.86,4,4,0,0,1,3.78.36c.14.09.21.16.14.34S84.83,52.17,84.72,52.52Z"/><path id="Path_13627" data-name="Path 13627" class="cls-2" d="M186.39,50.72h3.27c.25,0,.34,0,.34.32,0,1,0,1-1,1-.49,0-1,0-1.46,0-.32,0-.38.1-.38.39,0,2,0,4,0,6,0,.44-.12.55-.52.5a3.3,3.3,0,0,0-.77,0c-.3,0-.38-.07-.38-.37,0-2,0-4.05,0-6.07,0-.37-.07-.5-.46-.47-.68,0-1.35,0-2,0-.25,0-.3-.08-.3-.31,0-1,0-1,1-1Z"/><path id="Path_13628" data-name="Path 13628" class="cls-2" d="M158,50.72h3.27c.24,0,.31.05.32.3,0,1,0,1-1,1-.42,0-.84,0-1.25,0s-.58.07-.57.54c0,2,0,4,0,6,0,.29-.05.41-.37.38s-1,.14-1.2-.06-.08-.81-.08-1.24c0-1.73,0-3.47,0-5.2,0-.32-.07-.41-.4-.4-.67,0-1.35,0-2,0-.26,0-.37,0-.37-.34,0-1,0-1,1-1Z"/><path id="Path_13629" data-name="Path 13629" class="cls-2" d="M125.58,54.82c0-1.25,0-2.5,0-3.75,0-.27.06-.38.35-.35a8.17,8.17,0,0,0,1,0c.27,0,.33.06.33.33,0,2,0,4,0,6.06,0,.37.06.52.48.5.93,0,1.86,0,2.8,0,.32,0,.45,0,.44.41,0,.9,0,.9-.92.9h-4.09c-.29,0-.36-.08-.35-.35C125.59,57.31,125.58,56.06,125.58,54.82Z"/><path id="Path_13630" data-name="Path 13630" class="cls-2" d="M172.89,54.86c0,1.24,0,2.49,0,3.74,0,.26-.07.35-.34.33-.42,0-1,.13-1.24-.08s-.08-.8-.08-1.23c0-2.18,0-4.36,0-6.53,0-.3.07-.4.37-.37s1-.14,1.2.07.07.78.08,1.19C172.9,52.94,172.89,53.9,172.89,54.86Z"/><path id="Path_13631" data-name="Path 13631" class="cls-2" d="M146.25,54.86c0,1.23,0,2.47,0,3.7,0,.31-.08.39-.38.37a8.17,8.17,0,0,0-1,0c-.21,0-.3,0-.3-.28q0-3.82,0-7.65c0-.24.08-.29.3-.28a9.55,9.55,0,0,0,1.07,0c.27,0,.3.1.3.32C146.25,52.31,146.25,53.59,146.25,54.86Z"/></g><g id="Group_11438" data-name="Group 11438"><path id="Path_13632" data-name="Path 13632" class="cls-3" d="M51.32,59a11.84,11.84,0,0,1-2.83-1.23,3.72,3.72,0,0,0,.25-2,82.65,82.65,0,0,0-.16-8.33,9.6,9.6,0,0,0,2.38,2,7.61,7.61,0,0,0,3.7,1h14c.51,0,.52,0,.32.47a12.34,12.34,0,0,1-4.55,5.33,17.9,17.9,0,0,1-8.09,3.15,13,13,0,0,1-3.52,0l-.1,0h0A8.38,8.38,0,0,0,51.32,59Z"/><path id="Path_13633" data-name="Path 13633" class="cls-3" d="M60.73,38.21A5.26,5.26,0,0,1,62,40.6a7.6,7.6,0,0,1-1,6.48,2.1,2.1,0,0,0-.13.26H54.63a3.54,3.54,0,0,1-2.09-.64V38.87a4,4,0,0,1,2.27-.65C56.78,38.2,58.76,38.21,60.73,38.21Z"/><path id="Path_13634" data-name="Path 13634" class="cls-4" d="M48.58,47.44a82.7,82.7,0,0,1,.16,8.33,3.7,3.7,0,0,1-.25,2,10,10,0,0,1-1.77-1.26,12.09,12.09,0,0,1-3.06-14.32,12.2,12.2,0,0,1,3.87-4.7,1.52,1.52,0,0,1,.51-.32,3.3,3.3,0,0,1,.07,1.29c0,.14,0,.19.14.2A8,8,0,0,0,47,42.72,7.49,7.49,0,0,0,48.58,47.44Z"/><path id="Path_13635" data-name="Path 13635" class="cls-2" d="M52.38,26.28c-.09.1-.2,0-.3.06-1-.34-2-.62-3-1a11,11,0,0,1-6.49-7.37,20.77,20.77,0,0,1-.82-4.69c0-.22,0-.31.26-.21a20.32,20.32,0,0,1,6.57,4.2,10.37,10.37,0,0,1,2,3.3,30.46,30.46,0,0,1,1.58,5.19c0,.15.06.31.08.46Z"/><path id="Path_13636" data-name="Path 13636" class="cls-2" d="M52.38,26.28l-.06-.09a47.36,47.36,0,0,1,1.86-4.56,14.11,14.11,0,0,1,2.07-2.95c.09-.09.16-.27.34-.09l2.65,2.65a7.22,7.22,0,0,0-2.49,1,3.74,3.74,0,0,0-1.23,1.36,6.16,6.16,0,0,1-2.72,2.48l-.29.17Z"/><path id="Path_13637" data-name="Path 13637" class="cls-2" d="M52.54,38.87V46.7a4.34,4.34,0,0,1-2.2-3.1A4.5,4.5,0,0,1,52.54,38.87Z"/><path id="Path_13638" data-name="Path 13638" class="cls-3" d="M48.24,38.63c-.13,0-.16-.06-.13-.2A3.3,3.3,0,0,0,48,37.14a10.83,10.83,0,0,1,5-1.88,17,17,0,0,0-1.84.7,7.66,7.66,0,0,0-2.66,2.27C48.47,38.37,48.35,38.5,48.24,38.63Z"/><path id="Path_13639" data-name="Path 13639" class="cls-2" d="M51.32,59a8.15,8.15,0,0,1,1.4.33,4.9,4.9,0,0,1-1.37-.22Z"/><path id="Path_13640" data-name="Path 13640" class="cls-2" d="M69.37,35.13a11.93,11.93,0,0,0-3.06-4.21,15.85,15.85,0,0,0-7.2-4.18,14.07,14.07,0,0,0-4.42-.53,15.85,15.85,0,0,0-2.18.12l-.13,0c-.09.1-.2,0-.29.06l-.6.1a16.62,16.62,0,0,0-.14,32.61l0-.11a11.84,11.84,0,0,1-2.83-1.23,10,10,0,0,1-1.77-1.27,12.09,12.09,0,0,1-3.06-14.32,12.2,12.2,0,0,1,3.87-4.7,1.69,1.69,0,0,1,.51-.32,11.22,11.22,0,0,1,8.79-1.7,7.16,7.16,0,0,1,3.91,2.76A5.45,5.45,0,0,1,62,40.62a7.6,7.6,0,0,1-1,6.48l-.13.26a8.19,8.19,0,0,0,7.16-3.11A8.86,8.86,0,0,0,69.37,35.13Z"/><path id="Path_13641" data-name="Path 13641" class="cls-2" d="M52.77,59.33l.1.05Z"/></g></g></g><path id="Path_12576" data-name="Path 12576" class="cls-1" d="M0,8V36.59"/></g></g></g></svg>