<svg xmlns="http://www.w3.org/2000/svg" viewBox="0 0 228 72"><defs><style>.cls-1{fill:none;}.cls-2{fill:#334354;}</style></defs><title>everett</title><g id="Layer_2" data-name="Layer 2"><g id="Layer_1-2" data-name="Layer 1"><g id="Group_11453" data-name="Group 11453"><rect id="Rectangle_1559" data-name="Rectangle 1559" class="cls-1" width="228" height="72"/><g id="Group_11426" data-name="Group 11426"><path id="Path_13423" data-name="Path 13423" class="cls-2" d="M83.17,64.32h0a51.84,51.84,0,0,1-6.92,2.58c-.4.09-.85-.07-1.21.22l-3,.23A28.18,28.18,0,0,1,65.93,67,31.71,31.71,0,0,1,60,65,25.83,25.83,0,0,1,47.65,53.41a17,17,0,0,1-1.51-3.67h2.21c.44,0,.63.2.79.61a24.79,24.79,0,0,0,6.59,9.34c.21.19.39.59.71.45s.12-.54.17-.83c0-.13,0-.29,0-.4.76-1.53-.18-2.42-1.16-3.41a32.46,32.46,0,0,1-4.09-5.25c-.15-.21-.3-.47.1-.5.67,0,1.35-.25,1.84.6a32.59,32.59,0,0,0,3.87,5c.32.36.49.5.83,0a8.72,8.72,0,0,1,3.74-3c.69-.27.65-.55.25-1.09A22.9,22.9,0,0,1,60.55,49c-.18-.3-.6-.72.05-1s1-.42,1.38.28c.44.87.9,1.73,1.37,2.58.16.28.29.64.72.62l1.14,3.4c-.55-.1-.8-.57-1.1-1s-.4-.46-.76-.32a8.66,8.66,0,0,0-4,2.85.81.81,0,0,0-.06,1.14,1.07,1.07,0,0,0,.16.14c1.17,1.07,2.28,2.19,3.42,3.29l0,0a1.26,1.26,0,0,1-.75-.24A17.79,17.79,0,0,1,59,58.77c-.15-.13-.3-.42-.57-.14-.55.56-.22,3.08.46,3.5A26.27,26.27,0,0,0,70.2,65.9a3.66,3.66,0,0,0,2.44-.18,5.48,5.48,0,0,0,.9.61c.48.22.21-.22.27-.37.62-.08,1.27.12,1.86-.22l1,0a21.82,21.82,0,0,0,4.06-1l.61-.19a.85.85,0,0,0,.83-.35l.79-.07Z"/><path id="Path_13424" data-name="Path 13424" class="cls-2" d="M77,45.66A27.52,27.52,0,0,0,83.84,56a75.6,75.6,0,0,0,6.58,5.54l1,.79a22.67,22.67,0,0,1-6.86-1.76c-7-3-11.62-8.37-14.71-15.19-.25-.54-.06-.67.37-.88,1.62-.75,3.25-1.5,4.82-2.34.66-.35.76-.14.91.44.24.9.58,1.78.88,2.68Z"/><path id="Path_13425" data-name="Path 13425" class="cls-2" d="M133.76,54.18a9.5,9.5,0,0,0,.05-1.41c-.09-.85.13-1.16,1.08-1.15s1.09.29,1.08,1.15c0,3.71,0,7.43,0,11.14,0,.41,0,.81,0,1.22-2.11.17-2.1.17-2.14-1.85a5.61,5.61,0,0,0-.06-.59,1.22,1.22,0,0,0,0-.8c0-.46.36-1.06-.55-1.06-1.75,0-3.5,0-5.25,0-.48,0-.65.16-.64.64,0,1.21,0,2.42,0,3.63a.12.12,0,0,0-.12.1c-2-.06-2-.06-2-2.09,0-3.51,0-7,0-10.54,0-1.18.72-.82,1.31-.91.76-.12.87.26.85.92,0,1.82,0,3.65,0,5.47,0,.64.15.94.84.87s1.14-.05,1.71-.07a6.24,6.24,0,0,0,1.83,0c2.25.2,2.25.2,2.06-1.62A15.54,15.54,0,0,0,133.76,54.18Z"/><path id="Path_13426" data-name="Path 13426" class="cls-2" d="M105.41,34.43a26.86,26.86,0,0,0-5.15-.13l-.05.6c0,3.77,0,7.55.06,11.33,0,.7-.49,1.66,1,1.67s1.07-.87,1.11-1.62a5.79,5.79,0,0,0,0-1c-.05-.54.19-.68.7-.68a13.65,13.65,0,0,0,2.22-.15,4.84,4.84,0,0,0,4.2-5A4.78,4.78,0,0,0,105.41,34.43Zm-.82,8.19c-2.15.28-2.15.28-2.15-1.82V38.87c0-.44,0-.87,0-1.3,0-1.61-.38-1.48,1.54-1.42,2.24.06,3.39,1.27,3.35,3.42a2.85,2.85,0,0,1-2.64,3Z"/><path id="Path_13427" data-name="Path 13427" class="cls-2" d="M93.7,19.49a12.81,12.81,0,0,1-2,3.06A31.06,31.06,0,0,1,79.36,31c-1.28.52-2.59,1-3.91,1.37a.76.76,0,0,0-.67.85s0,.05,0,.08a15.8,15.8,0,0,0,0,1.82c.15.91-.27,1.28-1,1.62a108.79,108.79,0,0,1-11,4.16c-.73.23-1,.14-1-.69-.26-2.59-.4-5.18-.57-7.77,0-.55,0-1.1,0-1.66l0-1.18c0-.07,0-.15,0-.22,0-.72.32-1.51-.16-2.14a24.38,24.38,0,0,0-1.83-2,2.66,2.66,0,0,0-.79-1c-.75-1.07-1.5-2.14-2.26-3.2a1.6,1.6,0,0,0-.59-.81,52,52,0,0,1-3.15-6.88A24.18,24.18,0,0,1,51.07,6c0-.23,0-.45.06-1a36.05,36.05,0,0,0,3.46,6.3A29.92,29.92,0,0,0,60,17.52a.4.4,0,0,0,.36.33c6.27,6,13.44,9,22.22,6.79a30,30,0,0,0,10.12-4.71c.22-.15.43-.31.66-.46A1.35,1.35,0,0,1,93.7,19.49Z"/><path id="Path_13428" data-name="Path 13428" class="cls-2" d="M43.68,35.28a5,5,0,0,0-1.64,4,3.94,3.94,0,0,0,1.84,3.13A10.38,10.38,0,0,0,49.36,44,40.17,40.17,0,0,0,64,41.58c5.8-1.91,11.51-4.07,16.59-7.58A48.48,48.48,0,0,0,93.22,21.77c.33-.48.59-1,.88-1.52s.59-1,1-1.78A14.23,14.23,0,0,1,93,24.22c-4.16,7.27-10.24,12.54-17.5,16.53a69.59,69.59,0,0,1-18.7,7.12,28.48,28.48,0,0,1-11.44.6C41.7,47.76,39,46,38,42.08a4.13,4.13,0,0,1,.52-2.41A6.53,6.53,0,0,1,43.68,35.28Z"/><path id="Path_13429" data-name="Path 13429" class="cls-2" d="M59.15,40.8c.13.52.25,1-.46,1.22s-.86.11-1-.5a33.3,33.3,0,0,1-1.06-5.33c-.07-.85-.38-.7-.85-.35a22.27,22.27,0,0,0-5.37,5.83,1.7,1.7,0,0,0-.19.35c-.39,1-.77,1.14-1.78.79a.39.39,0,0,1-.32-.42c0-2.1-.58-4.16-.48-6.28a21.19,21.19,0,0,0-.34,5.62c0,.84-.28,1-1,.77-1.55-.45-1.79-.83-1.61-2.87A27.7,27.7,0,0,1,47.9,28.58a26.42,26.42,0,0,1,6.73-7.85,1.4,1.4,0,0,1,1-.44,1.55,1.55,0,0,1,.59.81c-.38,0-.59.29-.82.52a27.22,27.22,0,0,0-2.49,2.66c-2.36,3.07-4.43,6.22-3.82,10.39.1.66,0,1.36,0,2a10.61,10.61,0,0,0,.5,3,21.64,21.64,0,0,1,6.46-6.29,1.08,1.08,0,0,0,.51-1,19.93,19.93,0,0,1,1.88-8.1,2.64,2.64,0,0,1,.78,1,3,3,0,0,1-.2,1.18,28.42,28.42,0,0,0-.82,4.66c-.08.72.06,1,.85.6a22.41,22.41,0,0,1,2.13-.92l0,1.65a10.81,10.81,0,0,0-2.43,1.21,1.2,1.2,0,0,0-.61,1.17A23.91,23.91,0,0,0,59.15,40.8Z"/><path id="Path_13430" data-name="Path 13430" class="cls-2" d="M73.55,66.33a6.09,6.09,0,0,1-.89-.61A24.57,24.57,0,0,1,68,60.31a58.3,58.3,0,0,1-2.77-5.39q-.58-1.7-1.14-3.39c-.3-1.14-.56-2.28-.89-3.41-.18-.59-.12-.89.55-1.11,1.84-.61,3.65-1.33,5.61-2a32.43,32.43,0,0,0,.25,5.57A67.73,67.73,0,0,0,73.83,66C73.76,66.11,74,66.54,73.55,66.33Z"/><path id="Path_13431" data-name="Path 13431" class="cls-2" d="M132.67,40.26A2.83,2.83,0,0,0,134.2,38a3.25,3.25,0,0,0-2.75-3.67,2.91,2.91,0,0,0-.51,0c-1.65-.1-3.31,0-5-.05-.36,0-.57.07-.57.5q0,6.29,0,12.57c0,.38.14.56.53.54,1.88-.1,3.78.14,5.66-.13a3.77,3.77,0,0,0,3.52-3.35C135.39,42.47,134.68,41.24,132.67,40.26Zm-3.36-4.12a9.55,9.55,0,0,1,1.31,0,1.67,1.67,0,0,1,0,3.33,11.41,11.41,0,0,1-1.31,0c-1.69,0-1.69,0-1.69-1.69s0-1.7,1.68-1.7Zm1.87,9.71c-1,.11-2,0-3,.08-.4,0-.53-.16-.52-.54,0-.61,0-1.22,0-1.83,0-2.18,0-2.18,2.19-2.18.4,0,.81,0,1.21,0a2.1,2.1,0,0,1,2,2.17,2,2,0,0,1-1.75,2.27h-.08Z"/><path id="Path_13432" data-name="Path 13432" class="cls-2" d="M145.58,51.48a6.93,6.93,0,1,0,7,6.89,6.75,6.75,0,0,0-6.63-6.89Zm0,12a5,5,0,1,1,4.76-4.83A5,5,0,0,1,145.57,63.46Z"/><path id="Path_13433" data-name="Path 13433" class="cls-2" d="M161.6,51.48a6.93,6.93,0,1,0,6.91,6.94v0A6.73,6.73,0,0,0,162,51.48Zm-.06,12a5,5,0,1,1,4.83-5.26v.23a4.86,4.86,0,0,1-4.69,5Z"/><path id="Path_13434" data-name="Path 13434" class="cls-2" d="M143.49,26.83c-.24-.35-.39-.57.11-.86,2.09-1.19,2.41-3.14,2.05-5.27a4.58,4.58,0,0,0-4-3.67,31.66,31.66,0,0,0-4.24-.18c-.69,0-.93.13-.92.87,0,4,.05,7.9,0,11.85,0,.89.41.88,1,.86s1.26.15,1.12-.87a15.13,15.13,0,0,1,0-2c0-.23,0-.46.27-.58a2.7,2.7,0,0,1,2.78.89,4.79,4.79,0,0,1,.62.92,2.63,2.63,0,0,0,3.23,1.65l.33-.09C145.05,29.1,144.28,28,143.49,26.83ZM141.22,25a5.55,5.55,0,0,1-1.83.39c-.53,0-.73-.22-.73-.72V21.91c0-.81,0-1.63,0-2.43,0-.6.2-.8.76-.74s1.08,0,1.61.13a3.11,3.11,0,0,1,.2,6.1Z"/><path id="Path_13435" data-name="Path 13435" class="cls-2" d="M124.85,23.57c0-2,0-4,0-6,0-.57.17-.75.75-.74,2.4,0,4.79,0,7.19,0,.93,0,.7.53.74,1s-.05.91-.79.89c-1.62-.06-3.24,0-4.86,0-.61,0-.92.09-.88.82.07,1.21.05,2.43,0,3.64,0,.64.2.8.81.79,1.42,0,2.84,0,4.26,0,.86,0,.66.52.68,1s.06.9-.69.87c-1.45-.07-2.9,0-4.36,0-.51,0-.68.14-.7.68-.06,2.12-.08,2.12,2,2.12,1.39,0,2.77,0,4.15,0,.7,0,.69.36.63.81s.3,1.07-.61,1.07q-3.79,0-7.6,0c-.62,0-.71-.27-.71-.79C124.86,27.62,124.85,25.6,124.85,23.57Z"/><path id="Path_13436" data-name="Path 13436" class="cls-2" d="M100.26,23.7c0-2,0-4,0-6,0-.64.12-.89.82-.88,2.33,0,4.66.05,7,0,.78,0,.88.29.87.95s0,1-.83,1c-1.62-.07-3.24,0-4.86,0-.6,0-.84.16-.82.8,0,1.21,0,2.43,0,3.65,0,.6.15.83.79.81,1.39,0,2.78,0,4.16,0,.85,0,.77.43.8,1s-.14.88-.83.85c-1.38-.05-2.77,0-4.15,0-.55,0-.76.12-.77.72,0,2.07-.07,2.07,2,2.07,1.35,0,2.7.05,4.05,0,.8,0,.67.44.66.89s.2,1-.68,1c-2.5-.05-5,0-7.5,0-.58,0-.76-.18-.75-.75,0-2,0-4,0-6Z"/><path id="Path_13437" data-name="Path 13437" class="cls-2" d="M67.75,16.51a5.76,5.76,0,0,1,1.68-4.05,3,3,0,0,1,4.23-.11,1.7,1.7,0,0,1,.19.19A6.83,6.83,0,0,1,74,21.11a3.06,3.06,0,0,1-4.3.47,3.17,3.17,0,0,1-.48-.49A6.82,6.82,0,0,1,67.75,16.51Z"/><path id="Path_13438" data-name="Path 13438" class="cls-2" d="M148.55,23.59c0-2,0-3.92,0-5.88,0-.62.12-.89.82-.87,2.37,0,4.73.05,7.1,0,.75,0,.81.32.8.9s0,1-.8,1c-1.62-.06-3.24,0-4.87,0-.58,0-.86.09-.83.76.06,1.21.05,2.43,0,3.65,0,.64.15.88.83.85,1.35-.05,2.7,0,4.06,0,.82,0,.82.38.83,1s-.12.9-.82.87c-1.38-.06-2.77,0-4.15,0-.57,0-.74.16-.75.74,0,2.06-.06,2,2,2,1.35,0,2.7,0,4.05,0,.69,0,.7.34.64.81s.31,1.07-.61,1.06c-2.57,0-5.13,0-7.7,0-.61,0-.63-.3-.62-.76C148.56,27.65,148.55,25.62,148.55,23.59Z"/><path id="Path_13439" data-name="Path 13439" class="cls-2" d="M112,39.33c0-1.42.07-2.84,0-4.25-.06-1.06.62-.78,1.17-.82s1-.06,1,.79c-.06,2.6,0,5.2,0,7.8,0,2.45,1.57,3.65,3.94,3.14a2.56,2.56,0,0,0,2.11-2.8c0-2.67.06-5.34,0-8,0-1,.53-.9,1.18-.94s1.06.12,1,1c-.06,2.54,0,5.07,0,7.61,0,1.93-.53,3.66-2.42,4.54a6,6,0,0,1-6.08-.32A4.09,4.09,0,0,1,112,43.59c-.05-1.41,0-2.83,0-4.25Z"/><path id="Path_13440" data-name="Path 13440" class="cls-2" d="M160.37,48a6.74,6.74,0,0,1-6.6-4.27,7.09,7.09,0,0,1,1.76-7.88,7.31,7.31,0,0,1,8-1,6.06,6.06,0,0,1,1.07.75c1.17,1,1.13,1.17-.16,2.06-.37.25-.5.2-.8-.11a4.67,4.67,0,0,0-5.54-1.09,5,5,0,0,0-2.66,5.23A4.68,4.68,0,0,0,159.22,46a4.46,4.46,0,0,0,4.57-1.5c.85-1,1.18.15,1.67.39.76.36,0,.73-.17,1A6.26,6.26,0,0,1,160.37,48Z"/><path id="Path_13441" data-name="Path 13441" class="cls-2" d="M116.39,65.34a6.43,6.43,0,0,1-5.64-4.27,7.09,7.09,0,0,1,1.73-7.81,7.39,7.39,0,0,1,8-1.09,6.69,6.69,0,0,1,1.24.86c1.13,1,1.1,1.18-.16,2-.34.22-.55.27-.83-.09a4.7,4.7,0,0,0-6.24-.67,5.34,5.34,0,0,0-1.54,6.38,4.72,4.72,0,0,0,5.62,2.63,4.47,4.47,0,0,0,2.34-1.51c.8-.91,1.1.26,1.6.45s.16.58-.06.84C121.06,64.69,119.3,65.38,116.39,65.34Z"/><path id="Path_13442" data-name="Path 13442" class="cls-2" d="M107.51,53.74a4.33,4.33,0,0,0-.7.39c-.53.38-.93.62-1.46-.13a2,2,0,0,0-2.23-.56,1.38,1.38,0,0,0-1.08,1.2,1.57,1.57,0,0,0,.8,1.72c1.09.59,2.25,1.08,3.34,1.68a3.8,3.8,0,0,1,2.17,3.8,3.35,3.35,0,0,1-1.56,2.79,5.69,5.69,0,0,1-7.15-1.19c-.21-.27-.85-.55-.29-1.06.76-.69,1.43-.75,1.9-.2a3.26,3.26,0,0,0,3.61,1.14,1.77,1.77,0,0,0,1.36-1.46,1.74,1.74,0,0,0-.79-1.74,19.73,19.73,0,0,0-3-1.49,3.87,3.87,0,0,1-2.52-3.89,3.21,3.21,0,0,1,1.93-2.86c2.16-1,4.92-.12,5.64,1.86Z"/><path id="Path_13443" data-name="Path 13443" class="cls-2" d="M185.56,65.32a5,5,0,0,1-4.46-2.11c-.3-.42-.38-.68.17-1,.77-.45,1.27-.66,1.95.26a2.87,2.87,0,0,0,3.31.84,1.77,1.77,0,0,0,1.34-2.11,1.82,1.82,0,0,0-.86-1.15c-.94-.52-1.93-.95-2.9-1.43a3.85,3.85,0,0,1-2.51-3.89,3.17,3.17,0,0,1,1.59-2.67,4.5,4.5,0,0,1,5.61.9c.18.24.7.63.08.87s-.87,1.3-1.63.37a2.11,2.11,0,0,0-1.46-.82,1.71,1.71,0,0,0-2,1.08,1.62,1.62,0,0,0,.94,2c1.07.56,2.19,1,3.25,1.63a3.83,3.83,0,0,1-1.47,7.22C186.17,65.35,185.86,65.32,185.56,65.32Z"/><path id="Path_13444" data-name="Path 13444" class="cls-2" d="M110.71,16.93c2.2-.19,2.23-.2,3,1.66,1,2.4,2.14,4.72,2.9,7.2,0,.05.1.08.24.18l2.86-6.88a6.14,6.14,0,0,0,.41-1c.22-1.09.91-1.33,1.9-1.22.5.05.68.11.45.64q-2.72,6.38-5.4,12.75a2.47,2.47,0,0,1-.36.49Z"/><path id="Path_13445" data-name="Path 13445" class="cls-2" d="M176.92,24.64c0,1.59-.06,3.17,0,4.76,0,.86-.26,1.07-1.08,1.05s-1.14-.07-1.12-1c.06-3.24,0-6.48,0-9.71,0-.8-.21-1.07-1-1s-1.55,0-2.32,0-.66-.55-.68-1-.13-.93.66-.92c2.93,0,5.87,0,8.8,0,.87,0,.67.52.69,1s.07,1-.74.93-1.69,0-2.53,0c-.58,0-.75.19-.74.75C176.93,21.2,176.92,22.92,176.92,24.64Z"/><path id="Path_13446" data-name="Path 13446" class="cls-2" d="M171.13,58.39c0-2,.05-4,0-6,0-.92.52-.77,1-.74s1.17-.3,1.15.73c0,3.34,0,6.69,0,10,0,.72.19.92.9.89,1.55,0,3.1,0,4.66,0,.8,0,.78.4.75.94s.15,1-.71,1c-2.33,0-4.66,0-7,0-.68,0-.76-.27-.75-.83C171.15,62.37,171.13,60.38,171.13,58.39Z"/><path id="Path_13447" data-name="Path 13447" class="cls-2" d="M91.18,17.93a10.76,10.76,0,0,1,1.57-2.28c1-1.33,1-1.32-.25-2.48a10.87,10.87,0,0,1-1.79-1.86c1.43.25,2.72.43,4,.72a.81.81,0,0,0,1-.47v0c.51-.94,1-1.85,1.65-2.92a14.38,14.38,0,0,1,.6,3.32.86.86,0,0,0,.84.81c1.1.14,2.19.34,3.53.55A18.48,18.48,0,0,1,99,14.74,1.24,1.24,0,0,0,98.05,16a10.25,10.25,0,0,1-.5,3.52A8.81,8.81,0,0,1,95.83,17c-.26-.4-.45-.47-.88-.31C93.76,17.1,92.54,17.48,91.18,17.93Z"/><path id="Path_13448" data-name="Path 13448" class="cls-2" d="M139.71,40c0,1.65,0,3.31,0,5,0,.79.26,1,1,.95,1.52,0,3,0,4.56,0,.72,0,.78.33.72.86s.27,1.11-.69,1.1c-2.33,0-4.66,0-7,0-.62,0-.72-.23-.72-.78,0-4,0-8,0-12.05,0-.87.44-.82,1-.77s1.23-.26,1.18.8c-.08,1.65,0,3.31,0,5Z"/><path id="Path_13449" data-name="Path 13449" class="cls-2" d="M165.42,24.64c0,1.62-.07,3.24,0,4.85.05.9-.36,1-1.06,1s-1.12,0-1.1-.91c.07-3.24,0-6.48.05-9.71,0-.94-.27-1.19-1.14-1.09-.6.06-1.22-.06-1.81,0-1,.14-1.2-.27-1.14-1.16,0-.56.16-.75.75-.74,2.86,0,5.73,0,8.6,0,.8,0,.84.35.84,1s-.08,1-.86,1-1.62,0-2.43,0c-.58,0-.75.18-.73.75C165.44,21.19,165.42,22.92,165.42,24.64Z"/><path id="Path_13450" data-name="Path 13450" class="cls-2" d="M150.59,41.05c0,2,0,4.05,0,6.07,0,.83-.44.78-1,.72s-1.21.39-1.2-.67q0-6.12,0-12.24c0-1.08.75-.59,1.2-.66s1-.14,1,.71C150.54,37,150.59,39,150.59,41.05Z"/><path id="Path_13451" data-name="Path 13451" class="cls-2" d="M60.39,17.86a.39.39,0,0,1-.36-.33,11.82,11.82,0,0,1,4.34-1.62A24.86,24.86,0,0,1,60.39,17.86Z"/><path id="Path_13452" data-name="Path 13452" class="cls-2" d="M65,15.67l0,.06a.15.15,0,0,1-.09,0s0,0,0-.06Z"/><path id="Path_13453" data-name="Path 13453" class="cls-2" d="M61.25,29.41a1.8,1.8,0,0,1,0,.22l-.06-.16S61.22,29.43,61.25,29.41Z"/><path id="Path_13454" data-name="Path 13454" class="cls-2" d="M63,61.17l-.1-.09,0,0Z"/></g></g></g></g></svg>