<svg xmlns="http://www.w3.org/2000/svg" viewBox="0 0 228 124"><defs><style>.cls-1{fill:#757575;}.cls-2{fill:#2c83fb;}.cls-3{fill:#feba00;}.cls-4{fill:#fd2c25;}.cls-5{fill:#00ac47;}.cls-6{fill:#767676;}.cls-7{fill:none;}</style></defs><title>google-partner</title><g id="Layer_2" data-name="Layer 2"><g id="Layer_1-2" data-name="Layer 1"><g id="Group_11351" data-name="Group 11351"><g id="Badge_1" data-name="Badge 1"><path id="Path_12731" data-name="Path 12731" class="cls-1" d="M44,54a17.37,17.37,0,0,0-5.63-.85c-4.38,0-8.75,0-13.12,0-.79,0-1,.2-1,1,0,6.47,0,12.94,0,19.41,0,6,0,12,0,17.93,0,.77-.36,1.77.18,2.27s1.52.07,2.3.17.94-.17.94-.91c0-4.69,0-9.37,0-14.06,0-1.66,0-1.64,1.65-1.67,3.93-.07,7.87.23,11.79-.18a12.8,12.8,0,0,0,7-2.75c2.68-2.24,3.65-5.23,3.75-8.58C52,60.2,49.46,55.88,44,54Zm2.52,17.23c-1.62,2-3.94,2.77-6.43,3-2,.2-3.93.11-5.9.12s-3.76,0-5.64,0c-.63,0-.87-.13-.87-.82,0-5.6,0-11.19,0-16.79,0-.44,0-.8.62-.78,3.93.09,7.87-.2,11.79.16,3.48.33,6.31,1.86,7.6,5.26s1.18,6.81-1.19,9.81Z"/><path id="Path_12732" data-name="Path 12732" class="cls-1" d="M81,93.28a20.06,20.06,0,0,1-.83-6.76c0-4.62,0-9.25,0-13.88-.05-4-1.76-7-5.53-8.61a12.56,12.56,0,0,0-4.1-.94c-3.87-.27-7.41.52-10.36,3.22a7.59,7.59,0,0,0-2.63,5c-.05.46.08.65.55.64.76,0,1.53,0,2.29,0,.37,0,.52-.15.55-.5a5.71,5.71,0,0,1,3.53-4.6,10.47,10.47,0,0,1,7.3-.69,6.25,6.25,0,0,1,5.06,6.15c0,1,0,2.11,0,3.16,0,.63-.2.77-.8.77-2.58,0-5.17-.1-7.75.11a16.44,16.44,0,0,0-7.05,2,8.16,8.16,0,0,0-4.44,8.06,8,8,0,0,0,5.51,7.27,11.87,11.87,0,0,0,6.67.52,12.59,12.59,0,0,0,7.8-4.47c.24,1.25.23,2.37.51,3.46.13.47.3.71.82.69.79,0,1.59,0,2.38,0C80.94,93.9,81.17,93.79,81,93.28Zm-4.16-8.14a2.07,2.07,0,0,1-.32,1,10.68,10.68,0,0,1-12.09,5,5.51,5.51,0,0,1-4.23-5,5.41,5.41,0,0,1,3-5.54A14.49,14.49,0,0,1,70,78.87c1-.05,2,0,3,0v0c1.08,0,2.17,0,3.25,0,.47,0,.6.15.6.6,0,1.91,0,3.81,0,5.71Z"/><path id="Path_12733" data-name="Path 12733" class="cls-1" d="M181.68,71.67c-1.18-4-3.49-6.9-7.57-8.1A12.43,12.43,0,0,0,159.4,70c-1.88,3.52-2.19,7.29-1.92,11.17.47,6.7,5,12.75,12.59,13.25a12.47,12.47,0,0,0,10.64-4c1.11-1.24,1.07-1.2-.19-2.25-.66-.56-1-.51-1.59.14a10.29,10.29,0,0,1-13.36,1.59c-3.49-2.53-4.78-6.15-4.86-10.32,0-.68.42-.57.82-.57h20.08c.37,0,.76.1.76-.52A22.81,22.81,0,0,0,181.68,71.67Zm-3.44,4.43c-2.78,0-5.57,0-8.35,0H162c-1.12,0-1.13,0-.95-1.07a12.25,12.25,0,0,1,3.34-6.72c3.88-3.89,12.18-3.61,14.27,4.43a15.12,15.12,0,0,1,.4,2.6c.05.64-.19.78-.79.77Z"/><path id="Path_12734" data-name="Path 12734" class="cls-1" d="M131.43,68.42l.73-.94a11.59,11.59,0,0,1,13.37-3.7c3,1.2,4.37,3.66,5,6.66a19.74,19.74,0,0,1,.35,3.84c0,6.2,0,12.41,0,18.62,0,.73-.12,1.11-.94,1s-1.82.34-2.27-.2-.14-1.45-.14-2.21V74.36a13.43,13.43,0,0,0-.66-4.49,5.36,5.36,0,0,0-4.23-3.68c-6.09-1.25-9.76,2.64-11.23,6.73a3.31,3.31,0,0,0-.09,1c0,6.33,0,12.65,0,19,0,.8-.23,1-1,1-2.37,0-2.37,0-2.37-2.39,0-9,0-18,0-27,0-.76.18-1,1-1,2.23,0,2.24,0,2.27,2.24,0,.86,0,1.72,0,2.58Z"/><path id="Path_12735" data-name="Path 12735" class="cls-1" d="M111.49,77.46c0-3.43,0-6.86,0-10.28,0-.65-.15-.87-.82-.84-1.38,0-2.76,0-4.14,0-.49,0-.65-.13-.67-.64-.06-2.14-.08-2.14,2.07-2.14.94,0,1.88,0,2.82,0,.6,0,.74-.2.74-.75,0-2.05,0-4.1,0-6.15,0-.62.1-.94.81-.86s1.86-.33,2.39.16.15,1.55.17,2.36c0,1.43,0,2.87,0,4.3,0,.71.14,1,.9.94,1.53-.06,3.06,0,4.58,0,.63,0,.79.2.79.8,0,2,0,2-2,2-1.23,0-2.47,0-3.7,0-.46,0-.61.13-.6.6,0,6.82,0,13.64,0,20.47a6.07,6.07,0,0,0,.29,1.63,3.09,3.09,0,0,0,3.06,2.44,9.85,9.85,0,0,0,2.54-.16c.55-.1.77,0,.8.65.08,2.16.1,2.15-2.07,2.37a11.57,11.57,0,0,1-2.63,0,5.39,5.39,0,0,1-5-4.36,12.72,12.72,0,0,1-.39-3.13c0-3.13,0-6.27,0-9.4Z"/><path id="Path_12736" data-name="Path 12736" class="cls-1" d="M192.21,68.2c.64-.86,1.09-1.57,1.64-2.19a8.9,8.9,0,0,1,8.36-2.83c.55.07.87.28.77.9,0,.32,0,.64,0,1,0,1.39,0,1.39-1.45,1.27a8.34,8.34,0,0,0-9.2,6.57,4.61,4.61,0,0,0-.08,1.05c0,6.32,0,12.64,0,19,0,.72-.11,1.11-.94,1s-1.72.3-2.21-.16-.19-1.5-.19-2.27c0-9,0-17.91,0-26.86,0-.79.18-1.06,1-1,2.3,0,2.3,0,2.32,2.27C192.22,66.56,192.21,67.27,192.21,68.2Z"/><path id="Path_12737" data-name="Path 12737" class="cls-1" d="M92.51,68a9,9,0,0,1,4.76-4.33,9.86,9.86,0,0,1,5-.5c.6.1.87.34.79,1s.14,1.59-.21,2-1.31,0-2,0a8.38,8.38,0,0,0-8.44,6.48,4.28,4.28,0,0,0-.09,1.13c0,6.32,0,12.64,0,19,0,.81-.16,1.12-1,1.1C89,93.85,89,93.9,89,91.55q0-13.48,0-26.95c0-.8.2-1,1-1,2.24.06,2.25,0,2.27,2.24,0,.72,0,1.45,0,2.18Z"/><path id="Path_12738" data-name="Path 12738" class="cls-2" d="M35.9,35.31c.91,0,1.82,0,2.73,0s1,.28,1,1c.18,5.53-4.67,9.14-10,7.34a7.7,7.7,0,0,1-5.56-6.81,7.46,7.46,0,0,1,3.62-7.41,7.76,7.76,0,0,1,8.57-.24l.15.09c1.37.88,1.34,1.48-.1,2.33-.4.24-.53-.11-.73-.26a5.8,5.8,0,0,0-8.1,1.28l-.12.18A5.91,5.91,0,0,0,29,41l.1.06a5.78,5.78,0,0,0,6.86-.6,4,4,0,0,0,.73-.87c.34-.59.79-1.3.51-1.88-.2-.42-1-.12-1.56-.14-1,0-1.94,0-2.9,0-.5,0-.65-.16-.67-.65-.06-1.58-.08-1.58,1.5-1.58Z"/><path id="Path_12739" data-name="Path 12739" class="cls-2" d="M72.38,34c-1.11-.16-1.65,0-1.85.7a4.51,4.51,0,0,0-6.17.56A5.2,5.2,0,0,0,63.92,42c1.63,2.18,3.78,2.54,6.67,1.09a2.64,2.64,0,0,1,0,1.28,2.66,2.66,0,0,1-4.71,1.31c-.57-.83-1-.68-1.79-.39s-.72.62-.33,1.2A5.07,5.07,0,0,0,69,48.58a4.37,4.37,0,0,0,3.64-3.69,8,8,0,0,0,.15-1.83c0-2.69,0-5.38,0-8.07C72.77,34.67,73.07,34.14,72.38,34Zm-4.27,8a3,3,0,0,1-2.93-3V39a3,3,0,0,1,2.75-3.18H68a2.9,2.9,0,0,1,2.83,3,.34.34,0,0,1,0,.1A2.9,2.9,0,0,1,68.17,42Z"/><path id="Path_12740" data-name="Path 12740" class="cls-1" d="M139.82,30.52c0-.76-.36-.76-.9-.76s-.95,0-.92.75c.06,1.58,0,3.16,0,4.83-2.37-2-4.68-1.94-6.45-.05a5.54,5.54,0,0,0,0,7.36c1.76,1.85,4.14,1.85,6.41,0,0,.09.08.17.06.24-.17.91.4.85,1,.89.82.06.72-.44.72-.94C139.8,38.71,139.78,34.61,139.82,30.52Zm-1.9,9.6a3,3,0,0,1-3.55,2.21l-.17,0A3.23,3.23,0,0,1,132,39c0-2.35,1.76-3.9,3.82-3.34a3.5,3.5,0,0,1,2.1,4.49Z"/><path id="Path_12741" data-name="Path 12741" class="cls-3" d="M56.81,33.72a5.1,5.1,0,0,0-5.18,5,.57.57,0,0,0,0,.13,5.08,5.08,0,0,0,5,5.19h.19a5.14,5.14,0,0,0,5.26-5v-.18a5.16,5.16,0,0,0-5.14-5.16Zm0,8.27a2.91,2.91,0,0,1-2.91-2.91.86.86,0,0,1,0-.16,2.9,2.9,0,0,1,2.7-3.11h.15a3,3,0,0,1,2.94,3v0A3,3,0,0,1,56.89,42Z"/><path id="Path_12742" data-name="Path 12742" class="cls-4" d="M45.56,33.75a5.06,5.06,0,0,0-5.13,5v.13a5.06,5.06,0,0,0,5,5.17h.19a5.06,5.06,0,0,0,5.17-4.95v-.21a5.06,5.06,0,0,0-5-5.13Zm0,8.27a3.13,3.13,0,0,1-.07-6.24h.12a3,3,0,0,1,2.87,3.06s0,.06,0,.09A3,3,0,0,1,45.66,42h-.07Z"/><path id="Path_12743" data-name="Path 12743" class="cls-4" d="M80.94,40.18c1.89-.73,3.75-1.52,5.61-2.3.25-.11.66-.09.53-.62a5,5,0,0,0-3.68-3.43,4.87,4.87,0,0,0-5.64,4,5.29,5.29,0,0,0-.07.8A5.08,5.08,0,0,0,82.38,44a3.38,3.38,0,0,0,.45,0,5.08,5.08,0,0,0,3.88-1.76c.12-.14.4-.32.26-.5a4.19,4.19,0,0,0-1.41-1c-.36-.21-.48.23-.66.41a2.92,2.92,0,0,1-4.11,0l-.06-.07C80.36,40.68,80.31,40.43,80.94,40.18Zm-1-2A2.78,2.78,0,0,1,81.66,36a2.27,2.27,0,0,1,2.41.25c.41.31.66.6-.08.87-1.18.44-2.33,1-3.49,1.44-.41.17-.64.14-.54-.38Z"/><path id="Path_12744" data-name="Path 12744" class="cls-1" d="M120.84,36.66c0-2,0-4.1,0-6.15,0-.56.14-.76.73-.75q3.39.06,6.78,0c.71,0,.72.34.73.86s0,.87-.75.85c-1.64,0-3.29,0-4.93,0-.56,0-.79.14-.77.74,0,1,0,2,0,3,0,.65.23.79.82.78,1.44,0,2.88,0,4.31,0,.7,0,.66.38.66.84s0,.86-.65.84c-1.41,0-2.82,0-4.23,0-.66,0-1,.14-.91.87a20.57,20.57,0,0,1,0,2.72c-.06.77.26.93,1,.91,1.58-.05,3.17,0,4.75,0,.71,0,.73.33.73.86s0,.87-.72.85c-2.26,0-4.52,0-6.78,0-.6,0-.74-.2-.74-.75C120.85,40.88,120.84,38.77,120.84,36.66Z"/><path id="Path_12745" data-name="Path 12745" class="cls-1" d="M170.32,42.94c0-1.73,0-3.46,0-5.18a3.76,3.76,0,0,0-2.81-3.71,4.53,4.53,0,0,0-4.93,1.42c-.14.2-.4.4-.28.69.17.45,1.49.58,1.82.2a2.73,2.73,0,0,1,3.06-.65A2.14,2.14,0,0,1,168.52,38a6.62,6.62,0,0,0-4.6-.1,3.11,3.11,0,0,0-2.12,3.27,2.92,2.92,0,0,0,2,2.61,3.91,3.91,0,0,0,4.12-.71c.18-.15.25-.47.59-.44a1.45,1.45,0,0,1,0,.36c-.16.89.46.7,1,.75S170.34,43.53,170.32,42.94Zm-1.83-2.67a3.21,3.21,0,0,1-2.81,2.16,2,2,0,0,1-2-1.35,1.86,1.86,0,0,1,1.55-1.94,4.64,4.64,0,0,1,2.83.18.65.65,0,0,1,.45,1Z"/><path id="Path_12746" data-name="Path 12746" class="cls-1" d="M103.56,33.86a4.9,4.9,0,0,0-5,4.81c0,.1,0,.2,0,.3A4.86,4.86,0,0,0,103.23,44h.27a4.82,4.82,0,0,0,4.93-4.68c0-.13,0-.25,0-.38a4.84,4.84,0,0,0-4.54-5.11Zm0,8.56a3.2,3.2,0,0,1-3.16-3.25,1.93,1.93,0,0,1,0-.24,3.19,3.19,0,0,1,2.94-3.43h.17a3.21,3.21,0,0,1,3.12,3.3c0,.05,0,.1,0,.14a3.24,3.24,0,0,1-3,3.49h-.11Z"/><path id="Path_12747" data-name="Path 12747" class="cls-1" d="M186.87,33.86a4.83,4.83,0,0,0-4.93,4.72c0,.11,0,.23,0,.34A4.8,4.8,0,0,0,186.42,44h.38a4.86,4.86,0,0,0,5-4.71V39a4.9,4.9,0,0,0-4.62-5.17Zm.19,8.56a3.21,3.21,0,0,1-3.33-3.08c0-.14,0-.28,0-.41a3.21,3.21,0,0,1,3-3.43h0a3.17,3.17,0,0,1,3.18,3.1C190.08,40.72,188.93,42.24,187.06,42.42Z"/><path id="Path_12748" data-name="Path 12748" class="cls-1" d="M195.06,35.38a3.91,3.91,0,0,1,3.67-1.48,3.34,3.34,0,0,1,3,3.39c.07,2,0,3.92,0,5.88,0,.78-.53.53-.91.54s-.9.18-.88-.57c0-1.7,0-3.39,0-5.09,0-2-1.5-3.08-3.21-2.38a2.77,2.77,0,0,0-1.68,2.75c0,1.52-.06,3,0,4.56,0,.79-.39.75-.92.75s-.92,0-.91-.76c.05-2.63,0-5.26,0-7.89,0-.54,0-1,.75-.91.6,0,1.14,0,1,.84A1.61,1.61,0,0,0,195.06,35.38Z"/><path id="Path_12749" data-name="Path 12749" class="cls-1" d="M148.35,42.52a3.9,3.9,0,0,1-3.9,1.45,3.36,3.36,0,0,1-2.74-3.5c-.06-1.9,0-3.8,0-5.7,0-.85.57-.54,1-.58s.86-.1.84.63c-.06,1.66,0,3.33,0,5,0,2.08,1.64,3.21,3.34,2.36a2.88,2.88,0,0,0,1.55-2.75c0-1.53.06-3,0-4.57,0-.85.5-.65,1-.68s.86,0,.85.7c0,2.67,0,5.33,0,8,0,.51,0,.94-.7.86-.54-.06-1.19.13-1-.8A1.15,1.15,0,0,0,148.35,42.52Z"/><path id="Path_12750" data-name="Path 12750" class="cls-1" d="M156.26,44a4.46,4.46,0,0,1-4.16-2.78,5.15,5.15,0,0,1,.73-5.75,4.7,4.7,0,0,1,5-1.47A4,4,0,0,1,160.38,36c.13.23.54.59,0,.76s-.91.86-1.46.24c-1.21-1.38-2.28-1.77-3.56-1.24a3.45,3.45,0,0,0-1.94,3.6,3.16,3.16,0,0,0,2.4,3,2.73,2.73,0,0,0,3.06-1.2c.6-.9,1.1-.12,1.55.07.61.25.06.65-.1.9A4.49,4.49,0,0,1,156.26,44Z"/><path id="Path_12751" data-name="Path 12751" class="cls-1" d="M93.81,39.74c0-1,0-2.05,0-3.07,0-.7-.2-1-.88-.87s-1-.19-.93-.91.22-.8.77-.7c.88.15,1.06-.24,1-1.06a3.21,3.21,0,0,1,4-3.39c.26.05.82,0,.65.45s-.06,1.26-.89,1.17c-1.7-.19-2.08.88-2,2.21,0,.44.12.66.6.62.32,0,.64,0,1,0,1,0,1.07,0,1,1.09,0,.35-.1.57-.5.54a.48.48,0,0,0-.17,0c-1.88.07-1.88.07-1.88,2,0,1.75,0,3.51,0,5.26,0,.76-.42.69-.9.68s-1,.14-.92-.65C93.85,42,93.81,40.85,93.81,39.74Z"/><path id="Path_12752" data-name="Path 12752" class="cls-5" d="M76.61,36.22c0,2.23,0,4.45,0,6.68,0,.63-.12.86-.81.84-1.5,0-1.5,0-1.5-1.53,0-4.25,0-8.49,0-12.74,0-.64.09-.94.84-.91,1.47.06,1.47,0,1.47,1.51Z"/><path id="Path_12753" data-name="Path 12753" class="cls-1" d="M172.8,38.84c0-.76,0-1.53,0-2.29,0-.56-.15-.82-.74-.75s-1,0-1-.84.42-.84,1-.77.84-.19.77-.79c0-.38,0-.77,0-1.14-.13-.86.2-1.12,1.05-1,.56,0,.84.15.75.74a2,2,0,0,0,0,.35c0,1.76,0,1.8,1.77,1.87.68,0,.55.44.55.82s.12.85-.56.83-1.26-.26-1.61.11-.13,1.17-.14,1.77c0,1,0,2,0,3.08s.53,1.6,1.6,1.45.82.71,1,1.14-.46.46-.77.49c-2.35.24-3.56-.85-3.59-3.18C172.79,40.07,172.8,39.45,172.8,38.84Z"/><path id="Path_12754" data-name="Path 12754" class="cls-1" d="M111.6,35.64A3.52,3.52,0,0,1,115.11,34c.56.07.66.25.45.79s-.52,1.07-1.41,1a2.38,2.38,0,0,0-2.46,2.31.67.67,0,0,0,0,.2c0,1.55-.07,3.1,0,4.65,0,.82-.39.78-1,.8s-.88-.1-.87-.8c0-2.6,0-5.2,0-7.8,0-.55-.07-1,.78-1s1,.31.91,1A2.59,2.59,0,0,0,111.6,35.64Z"/><path id="Path_12755" data-name="Path 12755" class="cls-1" d="M180.41,38.94c0,1.38,0,2.75,0,4.12,0,.79-.45.66-.9.66s-.93.16-.92-.64q.06-4.11,0-8.24c0-.78.44-.66.9-.65s1-.18.92.63C180.37,36.19,180.41,37.57,180.41,38.94Z"/><path id="Path_12756" data-name="Path 12756" class="cls-6" d="M179.53,32.11A1.2,1.2,0,0,1,178.27,31v-.12a1.2,1.2,0,0,1,1.16-1.21h.07a1.2,1.2,0,0,1,1.27,1.14v.12a1.22,1.22,0,0,1-1.22,1.21Z"/></g><rect id="Rectangle_1933" data-name="Rectangle 1933" class="cls-7" width="228" height="124"/></g></g></g></svg>