<svg xmlns="http://www.w3.org/2000/svg" viewBox="0 0 159.68 56.99"  fill="white"><title>handle</title><g id="Layer_2" data-name="Layer 2"><g id="Layer_1-2" data-name="Layer 1"><path d="M159.68,0V23.9h-6.21c-.57,0-1.13,0-1.69.07l-1.39.08-1.23.11H149l-1.17.13c-.43,0-.85.1-1.26.15l-.63.09-.21,0-.23,0-.19,0h0s0,0,0,0h-.08c-.37.06-.75.11-1.12.18l-1.21.22c-.72.13-1.42.27-2.11.43l-.81.19h0l-1.13.27a65.39,65.39,0,0,0-27.72,15,3.45,3.45,0,0,0-.28.26l-.14.14-.33.33A3.57,3.57,0,0,1,110,42c-.09.1-.19.19-.28.28s-.1.11-.16.16-.26.28-.32.33l-.22.2A.19.19,0,0,1,109,43c-.33.33-.67.65-1,1a3.84,3.84,0,0,1,.28-.3,66.45,66.45,0,0,1-8.08,6.23C94.9,53.29,87.85,56.64,79.94,57h-.2c-7.91-.35-15-3.7-20.22-7.12a66.45,66.45,0,0,1-8.08-6.23,3.84,3.84,0,0,1,.28.3c-.34-.31-.68-.63-1-1a.19.19,0,0,1-.07-.06l-.22-.2c-.06,0-.16-.16-.32-.33s-.11-.11-.16-.16L49.66,42a3.57,3.57,0,0,1-.27-.28q-.18-.16-.33-.33l-.14-.14a3.45,3.45,0,0,0-.28-.26A65.39,65.39,0,0,0,20.92,26l-1.13-.27h0L19,25.48c-.69-.16-1.39-.3-2.11-.43l-1.21-.22c-.37-.07-.75-.12-1.12-.18h-.08s0,0,0,0h0l-.19,0-.23,0a.76.76,0,0,0-.21,0l-.63-.09c-.41-.05-.83-.11-1.26-.15l-1.17-.13h-.19l-1.23-.11L7.9,24c-.56,0-1.12-.06-1.69-.07H0V0Z"/></g></g></svg>