<svg xmlns="http://www.w3.org/2000/svg" viewBox="0 0 492 414"><defs><style>.cls-1,.cls-5{fill:#fff;}.cls-2,.cls-21,.cls-3,.cls-32,.cls-4{fill:none;}.cls-2,.cls-4{stroke:#e6e4e1;}.cls-2,.cls-21,.cls-3,.cls-4{stroke-miterlimit:10;}.cls-2{stroke-width:1.05px;}.cls-3{stroke:#222b3a;stroke-width:1.12px;}.cls-4{stroke-width:1.01px;}.cls-5{opacity:1;}.cls-10,.cls-14,.cls-18,.cls-23,.cls-26,.cls-27,.cls-29,.cls-30,.cls-5{isolation:isolate;}.cls-6{fill:#e6e4e1;}.cls-7{fill:#bfbbb2;}.cls-8{fill:#ceccc8;}.cls-9{fill:#ba5a5a;}.cls-10{fill:#904e4c;}.cls-11{fill:#c46060;}.cls-12{fill:#222b3a;}.cls-13{fill:#e3e0dc;}.cls-14{fill:#c7c4c1;opacity:0.8;}.cls-15{fill:#282b57;}.cls-16{fill:#334354;}.cls-17{fill:#2b3749;}.cls-18{fill:#efefef;}.cls-18,.cls-23{opacity:0.48;}.cls-19{fill:#ffa200;}.cls-20{fill:#f38800;}.cls-21{stroke:#fa0;stroke-linecap:round;stroke-width:3.04px;}.cls-22,.cls-26,.cls-30{fill:#e5e3e1;}.cls-23{fill:#773939;}.cls-24{fill:#231c3a;}.cls-25{fill:#ffb700;}.cls-26{opacity:0.67;}.cls-27{fill:#e7e5e2;}.cls-28{fill:#ff9a00;}.cls-29{fill:#cac9c6;opacity:0.46;}.cls-31{fill:#ea8500;}</style></defs><title>Hero</title><g id="Layer_2" data-name="Layer 2"><g id="Layer_1-2" data-name="Layer 1"><g id="Hero_image" data-name="Hero image"><g id="Group_11187" data-name="Group 11187"><path id="Path_3060" data-name="Path 3060" class="cls-1" d="M355.17,402.1c7,.23,33.7,0,49.31-15.57,6.62-6.6,18.8-22.57,13.25-33.66-2.74-5.45-8.68-7.55-10.31-8.13-10.65-3.77-21.11,2.85-28.34,7C373.6,354.94,364,362.39,360,367.29Z"/><path id="Path_3309" data-name="Path 3309" class="cls-2" d="M345.47,391.78a22.35,22.35,0,0,0,10.36-2.48,124.58,124.58,0,0,0,41.84-30"/><path id="Path_3054" data-name="Path 3054" class="cls-3" d="M221,160.9a29.48,29.48,0,0,1-5.1-36.39"/><path id="Path_3055" data-name="Path 3055" class="cls-1" d="M105.57,322.93c-7.44-4-17.24-10.85-22.33-17.68-1.24-1.67-10.65-12.56-9.61-32.43a31.68,31.68,0,0,1,8.29-20.3,9.81,9.81,0,0,1,6.83-3,9.26,9.26,0,0,1,5.86,3c9.46,9.16,13.41,23.14,13.41,23.14a111.89,111.89,0,0,1,3.9,36.33Z"/><path class="cls-1" d="M384,334.86c-3-1.8-17.47-16.38-11.42-45.75,0-.17,3-17.09,13.38-23.6a3.87,3.87,0,0,1,2.08-.59,7.84,7.84,0,0,1,3.73,1.18c3.16,1.77,5.59,5.64,7.08,11-9.46,13.76-12.44,25.53-12.48,25.69a80,80,0,0,0-1.4,31.05l-1,1"/><path class="cls-1" d="M387.79,331.94a77.15,77.15,0,0,1,1.55-28.43c.9-3.65,4.13-12.44,10.47-22.27.29-.44.58-.89.89-1.34s.56-.85.86-1.28a94,94,0,0,1,11.73-14c16.36-15.93,32.79-15.05,36.89-12,6.16,4.57,8.4,26.22-6.56,46.44-2.61,3.53-5,6.67-6.84,8.93a1.85,1.85,0,0,0,0,2.33l.05.07a1.93,1.93,0,0,0,2,.64,5.24,5.24,0,0,1,3.59.41,3.72,3.72,0,0,1,1.9,2.67,5,5,0,0,1-1.54,4.14c-11.47,12.31-33.83,20.83-52.73,15l-1.18-.38-1-.35,0-.22Z"/><path class="cls-4" d="M344.82,357.82s6.17-2.55,15.09-7.45a201.36,201.36,0,0,0,22.26-14.13l.94-.69c.31-.23.62-.47.93-.69l1-.78,1.36-1.05h0l1.38-1.08,1.68-1.37q1.72-1.41,3.44-2.91c.66-.58,1.32-1.16,2-1.76l.52-.48c22-20.15,40.18-52.72,40.18-52.72"/><path id="Path_3059" data-name="Path 3059" class="cls-5" d="M404.94,254.11a4.32,4.32,0,0,1-1.77-.37c-1.13-.52-2.6-1.88-3.07-5.41a12.49,12.49,0,0,1,1.74-8.29,10.07,10.07,0,0,1,7-4.6,4.4,4.4,0,0,1,4.89,2.16,9.72,9.72,0,0,1,1,7.38c-.39,1.49-1.55,5.15-4,6.85A10.84,10.84,0,0,1,404.94,254.11Z"/><path class="cls-1" d="M184.87,223.37c-.15,1.39-.39,3.23-.6,4.94-.47,3.66-1,8-1.41,12.09a257.74,257.74,0,0,0-64.27,44.43c-5-14.26,4-37.3,5-39.11,1.79-3.11,6.53-11.37,15.5-14.46,2.58-.89,6.88-2.37,10.45-.57a18.45,18.45,0,0,1,6.79,5.86,11,11,0,0,0,3,3.43,9.53,9.53,0,0,0,5.89,2l.25,0a9.73,9.73,0,0,0,6.31-3.28,18.28,18.28,0,0,0,4-6.72,15.23,15.23,0,0,1,8.88-8.56Z"/><path class="cls-1" d="M361.14,283A23.22,23.22,0,0,1,356,296.47c-3,3.64-13.71,6.29-19.21,6.08-12.84-.5-27.39-1.05-41.52-3-1.55-.21-3.1-.45-4.65-.68-8.66-1.32-17.62-2.69-26.52.36-11.42,3.91-12.38,16.28-13.15,26.22-.12,1.66-.25,3.22-.41,4.72-2.65,24.71,1.32,18.91,1.86,26.78-8.8,2.68-19.38,1.49-30.38-1.09,0,0,2.47-56.14.1-68.3,1.64.55,3.74,1.4,5.34,2,7,2.81,13.53,5.46,17.39,3.05l.12-.08c1.31.31,3.21,0,5.33-2.79,3.8-5,6.56-16.12,8.78-25,.78-3.11,1.51-6.05,2.14-8.1a18.59,18.59,0,0,0,.52-2.15,53.19,53.19,0,0,0,1.63,6.13,25.73,25.73,0,0,0,9.9,12.73c7.56,4.89,15.58,3.67,18.22,3.26l.42-.06c9.43-1.33,15.66-7.13,21.15-12.25,3.06-2.85,6-5.55,9.13-7.27l16.51,1.71h.16A23.55,23.55,0,0,1,361.14,283Z"/><path id="Path_3064" data-name="Path 3064" class="cls-4" d="M110,317.42a97.41,97.41,0,0,1-11.48-16.09A99.83,99.83,0,0,1,86.56,266.4"/><path id="Path_3065" data-name="Path 3065" class="cls-1" d="M66.09,296.13a54.11,54.11,0,0,1-24.63-5.41c-21.35-10.49-42.39-43.3-32.4-77.51,1.18-4,5.85-10.5,10-10.59h.09c11.07-.2,19.23,7.75,24.85,13.39a84.88,84.88,0,0,1,22.1,80.12Z"/><path id="Path_3066" data-name="Path 3066" class="cls-6" d="M105.18,327.36a147.44,147.44,0,0,1-73.82-91.6l1-.3a146.35,146.35,0,0,0,73.27,90.92Z"/><path id="Path_3069" data-name="Path 3069" class="cls-7" d="M419.72,63.55a19.31,19.31,0,0,1-11.48-6.91,1.07,1.07,0,0,1-.26-.56,1.16,1.16,0,0,1,.32-.7Q415.85,46,424,37.13q2.84,8.09,5.64,16.16,1.41,4.1,2.81,8.17c.37,1.07,1.33,2.41.3,2.94-.86.45-3.12,0-4.11,0A40.18,40.18,0,0,1,419.72,63.55Z"/><path id="Path_3070" data-name="Path 3070" class="cls-8" d="M468.22,69.62l-6.71,9.89a36.55,36.55,0,0,1-12.1-2.46,39.67,39.67,0,0,1-11.32-6.6A9.09,9.09,0,0,1,435,65.1a2.07,2.07,0,0,1,.13-1.1.19.19,0,0,1,.15-.12.2.2,0,0,1,.12.08,3.41,3.41,0,0,0,2.15,1.16l1.45.21,3.85.57,9.85,1.45,9.62,1.41,5.61.83Z"/><path id="Path_3071" data-name="Path 3071" class="cls-6" d="M453.25,40.36l-16.85,21A33.09,33.09,0,0,1,434,64.25c-.57.12-8.29-2-14.94-6.11-6.91-4.33-10.71-13.6-10.71-13.6L416.28,37l17-19.44s3.78,9.86,9.51,15.24C444.22,34.17,453.25,40.36,453.25,40.36Z"/><path id="Path_3072" data-name="Path 3072" class="cls-1" d="M436.08,65.34s8.43,6.57,17.64,7.94c8.77,1.31,18.34-2.59,18.34-2.59L491.5,38.87S478.69,43.59,468.23,44a29.43,29.43,0,0,1-15-3.63L434,63.74Z"/><path id="Path_3073" data-name="Path 3073" class="cls-9" d="M98.06,350.28a27.94,27.94,0,0,0-6,4.88,23.18,23.18,0,0,0-4.14,6.26,35.61,35.61,0,0,0-1.48,3.75,8.72,8.72,0,0,0-.34,4c.34,2.28,1.44,3.7.77,5.58A4.59,4.59,0,0,1,84,377.56c-3.35,1.43-5.67-1.56-11.76-1.75-2.32-.07-16.22,1.65-16.5,1a2.55,2.55,0,0,1,0-1.92c1.95-1.4,5.08-3.61,8.94-6.33,10-7,13.06-8.85,16.7-12.4.15-.14.29-.29.44-.44a51.73,51.73,0,0,0,4.83-5.52q1.48-1.92,3-4.34Z"/><path id="Path_3074" data-name="Path 3074" class="cls-10" d="M92.06,355.17a23,23,0,0,0-4.14,6.26,35.61,35.61,0,0,0-1.48,3.75,6.73,6.73,0,0,1-2-2.21,26.38,26.38,0,0,1-3-6.76l.44-.44a53.93,53.93,0,0,0,4.82-5.53,39.76,39.76,0,0,1,3.65,2.94A6.89,6.89,0,0,1,92.06,355.17Z"/><path id="Path_3075" data-name="Path 3075" class="cls-11" d="M438.81,70.94a.84.84,0,0,1-.26.5,8.73,8.73,0,0,1-8,3.31.65.65,0,0,1-.7-.59h0v-.1c-.33-2.76-1.2-7.15.4-9.63a25.17,25.17,0,0,1,3-3c1.33-1.44,2.48-3,3.75-4.54.44-.5,1-1.06,1.65-1a9.34,9.34,0,0,1-1.44,5.19c-.62,1.23-2,2.4-2.06,3.83a6.54,6.54,0,0,0,.7,2.68C436.24,68.22,438.77,70.74,438.81,70.94Z"/><path id="Path_3078" data-name="Path 3078" class="cls-12" d="M355.82,3.12a1.11,1.11,0,0,0-.45-1,20.75,20.75,0,0,0-6-1.42h0c-.13.05.27.34.15.5-.65.81-.35,3.54.35,7.69l.13.73a25.35,25.35,0,0,1-.28,6.46v0c-.07.5-.15,1-.23,1.49s-.11.71-.17,1.06c-.21,1.29-.41,2.55-.54,3.75-.06.94-.13,1.88-.19,2.8,0,.12,0,.23,0,.34l-.39,1.29,1.07-1.09c.21-.29.41-.59.6-.87h0c.59-.87,1.13-1.7,1.62-2.51h0c.28-.45.53-.89.78-1.32C355.65,14.82,356.12,9.88,355.82,3.12Zm-4,16.82c-.14.29-.3.56-.47.85a0,0,0,0,1,0,0,1.74,1.74,0,0,1-.15.26h0c-.38.64-.79,1.29-1.25,2-.18.27-.37.55-.57.83l.1-1.4c.11-1,.28-2.12.45-3.22v0l0-.15.18-1.15a31.75,31.75,0,0,0,.54-8.39l-.12-.74c-.75-4.43-.91-6.83-.51-7.11h.12A15.43,15.43,0,0,1,352.4,2a16.78,16.78,0,0,1,2.59.78c.05,0,.1.17.11.39C355.38,9.49,354.81,14.44,351.81,19.94Z"/><path class="cls-13" d="M233.49,315.15v89.37a9.42,9.42,0,0,1-8.81,9.45l-.47,0H136.64l-1,0h0a20.5,20.5,0,0,1-2.58-.26,21.16,21.16,0,0,1-4.05-1c-.61-.21-1.2-.46-1.77-.72A23,23,0,0,1,117,402.47c-.22-.38-.43-.76-.62-1.16s-.43-.9-.62-1.37-.4-1-.56-1.49a23.36,23.36,0,0,1-1.27-7.6V301.42A9.39,9.39,0,0,1,123.2,292h88.36a26,26,0,0,1,3.18.35c.39.07.78.15,1.16.25.23.05.46.1.68.17l.9.26,1.13.4c.42.16.84.34,1.26.52s.65.3,1,.46c.16.1.33.17.49.26l.82.46.31.19c.3.18.6.38.9.58l.74.52.19.16c.25.18.48.37.72.55l.14.12c.51.42,1,.87,1.47,1.34.19.2.38.38.56.59a22.12,22.12,0,0,1,1.71,2,7.4,7.4,0,0,1,.57.81c.2.29.4.6.58.9s.21.36.31.54.35.6.5.9.29.58.42.87a.48.48,0,0,1,.08.16c.11.25.23.5.33.75a20.21,20.21,0,0,1,.75,2.1c.07.22.14.44.19.66s.14.5.2.77.09.4.12.59c.09.38.17.76.23,1.15.1.58.17,1.16.23,1.75S233.49,314.47,233.49,315.15Z"/><path class="cls-14" d="M233.4,313.11c-9.85,21.26-17.21,24.66-22.9,23-2.83-.82-4.48-6.53-4.68-8.55-.5-4.86-5.88-4.78-9.92-3.8-4.35,1-8,3.89-11.42,6.8-11.13,9.54-52.51,54.2-65.22,55.55a17.44,17.44,0,0,1-5.3-.21h0v-48s0,0,0,0,0-.07,0-.11c1.05-2.8,2.09-5.62,3-8.5,2.82-8.7,9.3-14.21,14-21.6a117.06,117.06,0,0,1,10.18-13.87l7.91-1.29h63.06a24.63,24.63,0,0,1,3.2.34,21.82,21.82,0,0,1,5.17,1.6,22.72,22.72,0,0,1,4.6,2.76c.51.42,1,.87,1.47,1.34.19.2.38.38.56.59a22.12,22.12,0,0,1,1.71,2,7.4,7.4,0,0,1,.57.81c.2.29.4.6.58.9s.21.36.31.54.35.6.5.9.29.58.42.87a.48.48,0,0,1,.08.16c.11.25.23.5.33.75a20.21,20.21,0,0,1,.75,2.1c.07.22.14.44.19.66s.14.5.2.77.09.4.12.59c.09.38.17.76.23,1.15C233.27,311.94,233.34,312.52,233.4,313.11Z"/><path id="Path_3098" data-name="Path 3098" class="cls-11" d="M314.37,287.08a4.39,4.39,0,0,0,1.6,4.28,6.33,6.33,0,0,0,3.66.56,41.25,41.25,0,0,1,8.87.66c4.35.8,8.95,2.27,13.07.62,1.83-.72,3.58-2.37,3.46-4.37-5.31-.21-11.31-.74-14.65-4.95a16.78,16.78,0,0,1-2.19-4c-.84-2-1.5-6.73-3.17-7.7a19.84,19.84,0,0,0-6.24-1.1.9.9,0,0,0-.67.23c-.1.13,1.82,3,1.8,3.12C318.67,279.45,314.94,282,314.37,287.08Z"/><path id="Path_3314" data-name="Path 3314" class="cls-13" d="M359.91,315.14v73A25.58,25.58,0,0,1,334.59,414H253.23a12.46,12.46,0,0,1-6.57-1.84,11.15,11.15,0,0,1-1.33-.91c-.34-.28-.67-.57-1-.88a12.06,12.06,0,0,1-1-1.05,13.16,13.16,0,0,1-3-7.56c0-.31,0-.62,0-.92V298.7a6.75,6.75,0,0,1,6-6.73l.67,0h90.21a17.62,17.62,0,0,1,2.81.19c.53.05,1,.14,1.55.23A22.44,22.44,0,0,1,353,298.46c.35.32.66.68,1,1A23.41,23.41,0,0,1,359.91,315.14Z"/><path id="Path_3083" data-name="Path 3083" class="cls-14" d="M258,298.27a261.77,261.77,0,0,1-17.72,24.29V298.61a6.74,6.74,0,0,1,6-6.73c.22,0,.43,0,.66,0h10.67C260,293,260.36,294.49,258,298.27Z"/><path id="Path_3084" data-name="Path 3084" class="cls-9" d="M112.82,98.82c.83-.66,2.06.06,2.66.94s1,2,1.92,2.52a12.55,12.55,0,0,0,.17-8.89c-.79-2.16-2.19-4.16-2.3-6.46,1.92-.58,3.77,1,5.2,2.39A20,20,0,0,1,124,93.56c2.12,3.77,1.67,8.45,1.15,12.76l-.8,6.63c-1.41.89-3.14,2.67-4.75,1.81-1.39-.74-2.68-3.37-3.43-4.71a27,27,0,0,1-2.31-5.42C113.67,104,112.22,99.3,112.82,98.82Z"/><path id="Path_3085" data-name="Path 3085" class="cls-12" d="M240.59,164.09c-5.18-.74-7.81-1.13-9.76-1.92-11-4.49-21-19.13-17.69-32.76.34-1.41,2.7-10.62,11.23-14.94.94-.47,9.12-4.46,15.83-.7,3,1.67,4.68,4.52,8.06,10.2,3.8,6.38,3,7.47,5.93,10.45,1.15,1.18,5.15,5.28,10.64,5.65a47.82,47.82,0,0,1,5.22-.11,10.75,10.75,0,0,1,6.51,3,10.55,10.55,0,0,1,2.64,5.25c1,5.45-4.93,12.75-14.65,18A221,221,0,0,1,240.59,164.09Z"/><path id="Path_3086" data-name="Path 3086" class="cls-12" d="M247.15,145.78c1.8.63,4,1.27,4.52,3.13a4.58,4.58,0,0,1-1.58,4.22c-3.47,3.57-8.62,4.74-13.5,5.45-3,.44-6.17.73-8.93-.53a14.16,14.16,0,0,1-4.6-3.75A21.67,21.67,0,0,1,217.29,143c3.41-1.26,7.16-.85,10.77-.73a11.88,11.88,0,0,0,4.77-.56c1.08-.44,2-1.16,3.16-1.52,2.19-.7,3.47.71,5,2A19.52,19.52,0,0,0,247.15,145.78Z"/><path id="Path_3087" data-name="Path 3087" class="cls-12" d="M236.11,109.4c.19.68,1.86.24,4.49,1.35a12.93,12.93,0,0,1,4.58,3.37,4.44,4.44,0,0,0,3.25-1.69c1.42-2.2-.3-6-2.75-7.33C241.54,102.87,235.73,108,236.11,109.4Z"/><path id="Path_3088" data-name="Path 3088" class="cls-9" d="M225.64,158.15a49.32,49.32,0,0,0,0-6.2c0-.18,0-.35,0-.5a13.25,13.25,0,0,0-.49-3.19,11.65,11.65,0,0,0-1.2-2.64,13.56,13.56,0,0,0-.94-1.31l7.81-3.1.06.85.3,3.93q.31,4,.62,8.06Q228.73,156.1,225.64,158.15Z"/><path id="Path_3089" data-name="Path 3089" class="cls-10" d="M231.19,146c-.21.56-.46,1.13-.7,1.67a11.2,11.2,0,0,1-1.68,2.87A3.9,3.9,0,0,1,226,152l-.28,0c0-.17,0-.35,0-.5a13.25,13.25,0,0,0-.49-3.19,11.65,11.65,0,0,0-1.2-2.64,3.34,3.34,0,0,1,.85-.52,39.26,39.26,0,0,0,6.08-3C231,143.37,231.09,144.68,231.19,146Z"/><path id="Path_3090" data-name="Path 3090" class="cls-9" d="M235.91,139.77a18.62,18.62,0,0,1-11.45,6.35,17.07,17.07,0,0,1-6.71-.5c-.12-.19-.3-.46-.49-.8-3.24-5.71-1.6-12.19-1.29-13.35a19.13,19.13,0,0,1,4.36-7.83c.25-.28.5-.52.71-.74l2.64-.41,3.16-.48,3.39-.52c.34.74.67,1.5,1,2.26A75.86,75.86,0,0,1,235.91,139.77Z"/><path id="Path_3091" data-name="Path 3091" class="cls-10" d="M218.15,128.28a.94.94,0,0,1-.59-.16.59.59,0,0,1-.17-.27,19.28,19.28,0,0,1,3-4.22l3.35-1.14,2.3-.79a.72.72,0,0,1,.54,0,.65.65,0,0,1,.29.32l0,0C229.14,126.13,220.88,128.34,218.15,128.28Z"/><path id="Path_3092" data-name="Path 3092" class="cls-9" d="M232.15,141.46a3.89,3.89,0,0,0,2.22,2c1.9.56,4.46-.91,5.66-3.85Z"/><path id="Path_3093" data-name="Path 3093" class="cls-10" d="M234.64,142.49a3.34,3.34,0,0,0,2.68-1.11,2.44,2.44,0,0,0,1-1.66.54.54,0,0,0-.11-.37.6.6,0,0,0-.42-.14,2,2,0,0,0-1.3.16,2.31,2.31,0,0,0-.52.56,4.49,4.49,0,0,1-1.15,1.15C233.74,141.74,232.88,142.16,234.64,142.49Z"/><path id="Path_3094" data-name="Path 3094" class="cls-15" d="M220.67,140.68a3,3,0,0,1-1.93-.71,2.72,2.72,0,0,1-.8-2.81.25.25,0,0,1,.31-.16h0a.26.26,0,0,1,.16.32,2.18,2.18,0,0,0,.65,2.27,2.56,2.56,0,0,0,2.35.48l.24-.08a.23.23,0,0,1,.32.13h0a.26.26,0,0,1-.13.33h0l-.26.09A3.29,3.29,0,0,1,220.67,140.68Z"/><path id="Path_3095" data-name="Path 3095" class="cls-12" d="M227.17,121.19a7.47,7.47,0,0,1-3,2.82,7.22,7.22,0,0,1-3.34,1.06,7,7,0,0,1-4.38-1.41,9.84,9.84,0,0,1,3.46-4.7,10,10,0,0,1,8.17-1.41A7.24,7.24,0,0,1,227.17,121.19Z"/><path id="Path_3096" data-name="Path 3096" class="cls-12" d="M225.16,118.73a6.3,6.3,0,0,1,1.26,2.35,6.87,6.87,0,0,1,.12,3.06,28.81,28.81,0,0,0-.12,7.76,11.55,11.55,0,0,0,4.14,6.7,12.31,12.31,0,0,0,10.37,1.88,16.64,16.64,0,0,0,0-12C238.45,122.55,232.22,118.68,225.16,118.73Z"/><path id="Path_3099" data-name="Path 3099" class="cls-16" d="M325.71,179.67s9.71,30.26,8.13,37.21-10.1,27.69-12.74,36.75c-1,3.35-5,21.11-4.05,23.25,1.14,2.59,8.25,5.35,10.8,4.07,1.69-.86,14.7-22.13,18.29-28.95,5-9.48,12.31-20,15-30.52.82-3.22,1.12-17.74-.45-33.45-1.7-17-5.33-35.11-5.33-35.11L341,154.14Z"/><path id="Path_3100" data-name="Path 3100" class="cls-17" d="M349.23,153.45A138,138,0,0,1,329.62,193c-11,14.82-26.84,30.69-26.84,30.69S282.92,240,261,248.44c-6.76,2.6-12.68,5.6-14.95-3.69-.94-3.88-1.74-7.71.95-10.53,2.18-2.29,5.77-4,8.36-5.8,5.45-3.84,11-7.62,16.2-11.8,6.81-5.46,14.81-23.71,18.6-33.41s9.4-29.09,9.4-29.09Z"/><path id="Path_3101" data-name="Path 3101" class="cls-18" d="M259.6,236.44l-.51-1.24c29.55-12.74,52.24-41.87,57.82-74.2.11-.63.94-6,1-6.64l1.31.21c-.1.62-.93,6-1,6.66C312.56,194,289.55,223.52,259.6,236.44Z"/><path class="cls-19" d="M216.38,238.57q-1.83,7.81-3.67,15.63l-4.23,18c-.55,2.38-1.11,4.74-1.67,7.12-.08.37-.17.75-.26,1.12-.62,2.62-1.24,5.25-1.85,7.87h0l1.13.94a48.26,48.26,0,0,1-8.1,2.73l-1.43.39-.61.16c-1.22.33-2.51.66-3.86,1s-2.91.73-4.44,1.08l-3.47.82-1.2.27L178,296.75h0c-2.79.62-5.6,1.22-8.3,1.79l-1.17.24-3.34.69h0l-3.16.63a127,127,0,0,1-12.67,2.11h-.1c-.06.12-.14.27-.2.42-4.69,9-10.1,18.56-16.35,28.41q-8.78,13.83-18.7,26.89v0q-3,4-6.21,7.95l-.15.17c-1.14-.27-2.26-.58-3.37-.94a41.24,41.24,0,0,1-4.87-1.9c-1.06-.48-2.09-1-3.11-1.57-.51-.28-1-.58-1.51-.88h0a41.85,41.85,0,0,1-4.56-3.2h0a41.71,41.71,0,0,1-5.27-5h0a43.26,43.26,0,0,1-4.06-5.35l15-25.19.56-.94L98,318.32l5.49-9.2q4.08-6.87,8.18-13.74l3.52-5.9c.51-.87,1-1.74,1.55-2.61l.34-.57,1.55-1.47a257.74,257.74,0,0,1,64.27-44.43l2.64-1.26,2.43-1.14.21-.1q2.3-1.05,4.62-2.06l11.6,1.34Z"/><path id="Path_3316" data-name="Path 3316" class="cls-20" d="M209.88,255.89c-.39,3.54-.76,7.1-1.15,10.66q-.28,2.82-.66,5.57c-.39,2.77-.85,5.51-1.5,8.29-.62,2.63-1.25,5.25-1.86,7.87l1.14,1c-6.35,3.46-52.4,13-56.59,13h-.07c-.07.13-.15.28-.21.42-4.69,9-10.1,18.56-16.34,28.41a385.29,385.29,0,0,1-24.93,34.86,1.14,1.14,0,0,0-.15.17v0a44.34,44.34,0,0,1-12.87-5.3v0l25.56-43.7c4.48-7.65,8.77-15.47,13.45-23,2.94-4.73,8.76-5.31,14-6.67,3.76-1,7.47-2.08,11.16-3.28,10.87-3.54,18.67-6.11,28.69-11.73,8.51-4.76,7.84-21.37,11.08-29.59.1-.25,1.64.71,1.86.55a1.41,1.41,0,0,1,.92-.15q4,.17,8,.36a.92.92,0,0,1,1.08.72h0a.65.65,0,0,1,0,.34A64.3,64.3,0,0,1,209.88,255.89Z"/><path class="cls-9" d="M261,294a6.69,6.69,0,0,1-1.05,3.28,2.44,2.44,0,0,1-1.5,1.33,1.9,1.9,0,0,1-1.66-.71,10.51,10.51,0,0,1-1-1.58,8.86,8.86,0,0,0-2.49-2.54,5.6,5.6,0,0,0-1.78-.8,32.34,32.34,0,0,0-6.22-.13h0a7.56,7.56,0,0,1-5.1-2.09,7.81,7.81,0,0,1-1.18-1.43,20,20,0,0,1-2.17-4.27h0c-.13-.34-.24-.7-.35-1-.37-1.12-.68-2.26-.95-3.33l0-.07.14,0c1.82-.48,3.63-1,5.41-1.66l1.95-.7c.07.23.15.47.21.7a31.63,31.63,0,0,0,1.07,3l.1.22a8.37,8.37,0,0,0,.94,1.61l.19.24a6.78,6.78,0,0,0,2.36,1.81l.09,0c1.87.89,3.88,1.29,5.79,2a21.84,21.84,0,0,1,4.94,2.44A4.79,4.79,0,0,1,261,294Z"/><path class="cls-1" d="M268.58,170.11c-.44,30.94-2,40.06-2,40.06-.31,1.84-.94,5.58-2.28,11.87-.7,3.28-1.58,7.25-2.71,12-.11.44-.21.89-.32,1.34,0,.11-.05.21-.08.32a.94.94,0,0,1,0,.16c-1,4-2.11,8.64-3.44,13.8-1.15,4.42-2.43,9.27-3.88,14.58-1.8,6.62-3.05,10.4-5,17a17,17,0,0,1-1.08,3.69,3,3,0,0,1-.5.65,6.7,6.7,0,0,1-2.87,1.43h0l-.15.05c-2.07.68-4.52.14-6.89-.49-1.19-.31-2.36-.65-3.46-.87l-.44-.08c-3.25-.55-3.48,3.13-4.54.34a37.67,37.67,0,0,1-1.46-4.63,14.31,14.31,0,0,0-.61-3.31L212.71,254.2l-1.77-3-.59-.2a63.07,63.07,0,0,1-8.14-3.37c-1.51-.74-3-1.55-4.43-2.41a63.68,63.68,0,0,1-9.67-7.09l-.18-.16-.05,0a143.1,143.1,0,0,1,2-18q1.14-6.57,2.92-13c1-3.74,2.16-7.26,3.36-10.55l.1-.27.38-1.07c.12-.29.22-.58.34-.87a104.07,104.07,0,0,1-45.38-22c-.48-.4-.94-.8-1.4-1.2A108.86,108.86,0,0,1,117,117l2.93-2.14,1.16-.85,3.44-2.51,1.06-.77a132.34,132.34,0,0,0,33.12,31.3c21.32,14,39.21,16.68,44.15,17.28,5.59.67,11.32,1.31,16.77.11a22.64,22.64,0,0,0,4.43-1.43l.21-.1c.47-.21.94-.44,1.41-.7l.24-.13.08,0c.36-.2.91-.53,1.7-1l4.06-2.38,1.54-.9,2.92-1.69.39-.23c5.37-3.1,6.64-3.76,8.68-4.27a17.14,17.14,0,0,1,2.51-.57,17.48,17.48,0,0,1,9.26,1.07c6,2.7,8.41,8.81,9.57,11.77a29.87,29.87,0,0,1,1.47,5.25A29.49,29.49,0,0,1,268.58,170.11Z"/><path id="Path_3135" data-name="Path 3135" class="cls-21" d="M330.07,6.82C301.89-5.32,265.93,6,249.33,32.19c-3.4,5.37-6.1,11.43-6.28,17.83s2.52,13.13,7.9,16.42,13.36,2,16.54-3.5c2.65-4.59,1.43-10.72-1.74-14.94s-7.93-6.9-12.7-9c-11.44-5.16-24.8-8-36.34-3.08-12.15,5.19-19.56,17.71-30.08,25.83-13.71,10.59-32.23,13.07-49.16,10C122.52,69,91.4,43.61,79,57.14"/><path id="Path_3106" data-name="Path 3106" class="cls-12" d="M320.71,18.58c-.19-1.16-1.07-10.24,4.31-15a13,13,0,0,1,7.07-2.7A48,48,0,0,1,349.61.77c1.48.26,2.65.63,2.77,1.17a36,36,0,0,1,.41,5c.32,8.46-.9,14-3.36,18.17-6.63.36-7.57,15.35-19.12,9.89C327.35,33.59,322.39,28.88,320.71,18.58Z"/><path id="Path_3107" data-name="Path 3107" class="cls-22" d="M239.77,184.38l.12,0c1.11.48.7,4.51.7,5.5q0,6.54-.37,13.07-.36,6.22-1.08,12.4c-.41,3.62-2.25,8.76-1.77,12.32-.4-1-2.8-2.12-3.61-2.72-1.86-1.38-3.6-2.71-3.2-5.38a14.37,14.37,0,0,1,1.47-3.9c3.71-7.9,4.85-16.76,5.86-25.45C238,189.25,238.34,184.06,239.77,184.38Z"/><path id="Path_3108" data-name="Path 3108" class="cls-9" d="M216.49,326c-1.1,2.75-3.63,11.38-7.8,9a5.74,5.74,0,0,1-2.22-3.28A29.49,29.49,0,0,1,205,318.54c.49-4.32,2.27-8.33,3.09-12.58a43.85,43.85,0,0,0,.68-5.22,46.07,46.07,0,0,0-.45-10.23l9.58,2c-.09.78-.17,1.56-.26,2.34-.32,2.78-.63,5.57-.94,8.35.29,1,.58,2.15.83,3.35C218,308.7,217.25,321.59,216.49,326Z"/><path id="Path_3109" data-name="Path 3109" class="cls-10" d="M216.69,303.16c.29,1,.57,2.15.83,3.34a19.28,19.28,0,0,1-6.56.2,10.67,10.67,0,0,1-2.88-.77,43.59,43.59,0,0,0,.68-5.22,44.38,44.38,0,0,0,0-5.65c3-.19,5.89-.28,8.83-.25Z"/><path id="Path_3110" data-name="Path 3110" class="cls-19" d="M196.28,292.6a427.31,427.31,0,0,1,7.55-53.18,62.27,62.27,0,0,1,10.22-23.12c4.9-6.73,9.08-9.24,13.15-9.94a11,11,0,0,1,7.07.75c4.84,2.55,6,9.45,6.57,14.16,2.93,24.6-3.46,51-5.6,59.4-1.9,7.49-3.71,13.77-5.11,18.39a46.28,46.28,0,0,1-33.84-6.46Z"/><path id="Path_3317" data-name="Path 3317" class="cls-11" d="M339.07,37.56c0,.08,0,.13,0,.19,0,1.09-.08,2.17-.14,3.26-.08,1.85-.17,3.72-.25,5.6-2.14-.08-4.28-.13-6.42-.19a26,26,0,0,0,.77-6.85c0-.1,0-.19,0-.29,0-.57-.07-1.14-.13-1.71a24.1,24.1,0,0,0-.37-2.53l6.27,2.41Z"/><path class="cls-1" d="M430.87,77.48l0,0c-15.63,11.06-22.32,16-42.5,23.1l-2-.27a115.93,115.93,0,0,1-14.45-2.84,48.39,48.39,0,0,1-8.48-3,2.78,2.78,0,0,0-3.69,1.32s0,0,0,0a2.88,2.88,0,0,0-.23.74,2.77,2.77,0,0,0,0,.76,160.33,160.33,0,0,1-.84,40q-1.15,7.74-3.07,15.34c-6.22.63-12.41,1.1-18.6,1.51l-.26,0-2,.14c-3.09.21-6.17.39-9.25.6l-.76.05c-1.87.11-3.73.23-5.6.36l-1.89.12-.38,0c-3.08.21-6.15.43-9.23.68q-2.34.18-4.68.39l-4.41.41h0c-.48-3.57-.51-12.75-.56-22s-.14-18.55-.75-22.38q1.54-11.84,3.11-23.66a1.81,1.81,0,0,1,0-.23s0-.07,0-.11q1.5-11.39,3-22.79c6.84-8.6,11.83-11.76,14.55-13.07,6.87-3.33,12.93-5.12,13.61-6.08a4.6,4.6,0,0,0,.4-2.13.55.55,0,0,1,.56-.55h0c1.4.14,2.83.27,4.28.37.91.06,2.07.1,3,.14a.58.58,0,0,1,.54.56,6.31,6.31,0,0,0,.62,3,5.22,5.22,0,0,0,2.57,1.88,46.51,46.51,0,0,1,5.83,3c8.08,4.9,30.65,24.1,39.62,27.14,4.11-.23,31.3-9.4,39.68-13.44A9.84,9.84,0,0,1,430.87,77.48Z"/><path class="cls-22" d="M333.72,150.55c-.12,1.62,2.09,2.32,2.94,3.63l.06.1-2.26.16c-3.08.21-6.17.39-9.25.6l-.56-.07a26.33,26.33,0,0,0-5.6.36l-1.89.12-.38,0c-3.08.21-6.15.43-9.23.68q-2.34.18-4.68.39l-4.41.41h0c-.48-3.57-.51-12.75-.56-22s-.14-18.55-.75-22.38q1.54-11.84,3.11-23.66a1.81,1.81,0,0,1,0-.23s0-.07,0-.11a42.59,42.59,0,0,1,7.39-6.54,10.47,10.47,0,0,1,6.49-2.39c6.15.46,1.78,11.21.88,14.37-3.5,12.5-3.21,24.64,4.24,35.77,4.68,7,9.78,13.13,17.07,17.47a3.08,3.08,0,0,1,1.12.93,1,1,0,0,1-.14,1.34,2.78,2.78,0,0,0-2.14-.54A1.82,1.82,0,0,0,333.72,150.55Z"/><path id="Path_3318" data-name="Path 3318" class="cls-23" d="M339.06,37.75c0,1.09-.09,2.17-.14,3.26-1.05.57-4.8-.72-6.05-3.44A24.1,24.1,0,0,0,332.5,35l6.27,2.41A1.64,1.64,0,0,1,339.06,37.75Z"/><path id="Path_3115" data-name="Path 3115" class="cls-11" d="M341.45,156.17a2.36,2.36,0,0,0,1.16-.33.94.94,0,0,0,.41-1.07,20,20,0,0,1-7-3.77c-.35-.29-.72-.77-.47-1.15a.76.76,0,0,1,.38-.28,10.56,10.56,0,0,1,1.86-.27c.61-.11,1.27-.53,1.3-1.17l-10.86-3.35a2,2,0,0,0-1.33-.09,1.85,1.85,0,0,0-.68.62c-1.29,1.7-2.2,3.12-.73,4.81a17.73,17.73,0,0,0,4.81,3.66A19.76,19.76,0,0,0,341.45,156.17Z"/><path id="Path_3116" data-name="Path 3116" class="cls-1" d="M318.61,80.35c-2.68,3.2-9.57,10.54-11.74,18-1,3.49-2.5,7.32-2.68,10A58.29,58.29,0,0,0,329,144a17.14,17.14,0,0,1-5.5,5.95,92.93,92.93,0,0,1-19.09-10.27A95.58,95.58,0,0,1,278,111.57a85.44,85.44,0,0,1,6.56-20.68A92,92,0,0,1,314,54.9C314,63.89,318.6,71.36,318.61,80.35Z"/><path id="Path_3117" data-name="Path 3117" class="cls-11" d="M348.71,10.94c.79,1.44,4.82,24.51-7.6,28.89-1.46,0-6.15-1.65-9.31-5-3.77-4-4.39-8.57-4.38-13.8a38,38,0,0,1,.36-6.57C330.2,6.51,347,7.75,348.71,10.94Z"/><path id="Path_3120" data-name="Path 3120" class="cls-24" d="M341.48,35.84h-.11a3.43,3.43,0,0,1-2.52-1.38.41.41,0,0,1,.08-.56.39.39,0,0,1,.52.05l0,0a2.59,2.59,0,0,0,1.94,1.08,2,2,0,0,0,1.82-1,.38.38,0,0,1,.5-.22h0a.39.39,0,0,1,.22.51v0l0,.05A2.75,2.75,0,0,1,341.48,35.84Z"/><path id="Path_3121" data-name="Path 3121" class="cls-15" d="M98.68,81.64c-1.82-3,.48-4.91.55-6.9q2.77,3,5.6,6,16.32,17.39,32.69,33.75a1.69,1.69,0,0,1-.25,1.31,1.7,1.7,0,0,1-2.28.12C120.63,107.63,101.43,86.09,98.68,81.64Z"/><path id="Path_3123" data-name="Path 3123" class="cls-22" d="M386.2,100.44c-12-1.68-18.9-3.91-22.93-5.88a2.76,2.76,0,0,0-3.68,1.3l0,0v0a2.66,2.66,0,0,0-.23.74q-.93-5.86-1.84-11.75C366.35,91.57,375.62,98.15,386.2,100.44Z"/><path id="Path_3118" data-name="Path 3118" class="cls-25" d="M343,21.84c-.43-2.77-2.36-4.92-4.79-5.07a4.79,4.79,0,0,0-3.86,1.66,7.45,7.45,0,0,0-1.71,3.62,7.7,7.7,0,0,0-.1,1.17,7.44,7.44,0,0,0,1.25,4.19,4.79,4.79,0,0,0,3.62,2.15h.29a4.87,4.87,0,0,0,3.58-1.68,7.13,7.13,0,0,0,1.79-4.39c0-.19,0-.38,0-.57A6.5,6.5,0,0,0,343,21.84Zm-.95,1.6a6,6,0,0,1-1.51,3.75,3.66,3.66,0,0,1-.85.77l-.07,0a3.66,3.66,0,0,1-5-1.19,6.4,6.4,0,0,1,.48-7.67,3.86,3.86,0,0,1,2.85-1.35h.21c2.22.14,3.92,2.43,3.92,5.2C342.06,23.15,342.06,23.29,342.05,23.44Z"/><path id="Path_3119" data-name="Path 3119" class="cls-25" d="M352.22,21a6.05,6.05,0,0,0-.41-1.1,1.55,1.55,0,0,0-.14-.29,1.24,1.24,0,0,0-.1-.2A3.43,3.43,0,0,0,350.33,18l-.06,0-.15-.08a2.1,2.1,0,0,0-.3-.15,2.79,2.79,0,0,0-.37-.14,3.38,3.38,0,0,0-3.82,1.45,7.77,7.77,0,0,0-.51,8.14l.18.32A3.69,3.69,0,0,0,348,29.18h.18a2.92,2.92,0,0,0,1.05-.2,4.23,4.23,0,0,0,1.85-1.42,7.27,7.27,0,0,0,1.4-4A7.29,7.29,0,0,0,352.22,21Zm-.76,2.49a5.49,5.49,0,0,1-2,4.2h0a2.15,2.15,0,0,1-1.41.42,2.69,2.69,0,0,1-2-1.39l0-.09a6.75,6.75,0,0,1-.7-4.05h0a6.84,6.84,0,0,1,1.14-2.9,2.7,2.7,0,0,1,2.1-1.2h.13a2.66,2.66,0,0,1,.63.17,2.5,2.5,0,0,1,.62.34.08.08,0,0,1,0,0,2.58,2.58,0,0,1,.77.93,7.35,7.35,0,0,1,.47,1.08h0l0,.11a5.35,5.35,0,0,1,.23,1.18h0a4.49,4.49,0,0,1,0,.64C351.48,23.19,351.47,23.36,351.46,23.53Z"/><path id="Rectangle_753" data-name="Rectangle 753" class="cls-25" d="M325.44,25.31l7.45-3.37.4.94-7.44,3.37Z"/><path id="Path_3124" data-name="Path 3124" class="cls-25" d="M344.42,23.11a.87.87,0,0,0-.68-.34,1,1,0,0,0-.8.27l-.76-.68a2,2,0,0,1,1.63-.62,1.85,1.85,0,0,1,1.48.87Z"/><path id="Path_3126" data-name="Path 3126" class="cls-9" d="M233.34,152.66a22,22,0,0,1-1.83,5.1,10.58,10.58,0,0,1-2.56,3.61,4.32,4.32,0,0,1-4.1.94c-2.26-1.15-2.32-2.54-1.41-3.87,1.8-1.06,4.74-2.79,9.47-5.53Z"/><path id="Path_3128" data-name="Path 3128" class="cls-11" d="M324,30.23A4.42,4.42,0,0,1,321.23,28a7.66,7.66,0,0,1-1.2-3.16,4.09,4.09,0,0,1,.92-3.17,2.15,2.15,0,0,1,.81-.59,2,2,0,0,1,2,.46,4.62,4.62,0,0,1,1.16,1.78C325.63,25.12,327.52,30.8,324,30.23Z"/><path id="Path_3129" data-name="Path 3129" class="cls-23" d="M324,28a1.93,1.93,0,0,1-1.49-.95,3.19,3.19,0,0,1-.4-1.79c0-.48.19-1,.63-1.18a.86.86,0,0,1,.75.11,2.17,2.17,0,0,1,.54.55C324.44,25.39,325.66,28.1,324,28Z"/><path id="Path_3130" data-name="Path 3130" class="cls-14" d="M344.14,293c-1.13,2.05-2.92,4.13-4.12,6a260.59,260.59,0,0,1-32.66,40.28,63.6,63.6,0,0,1-7.19,6.43c-2.29,1.69-5.3,3.14-7.85,1.89-3.75-1.84-3.19-7.43-1.9-11.46a181.52,181.52,0,0,1,20.7-43.61l.4-.61h25.66A22.28,22.28,0,0,1,344.14,293Z"/><path id="Path_3131" data-name="Path 3131" class="cls-9" d="M113,102.49a14,14,0,0,1-.53-5.19,1.85,1.85,0,0,1,.56-1.59,1.25,1.25,0,0,1,1.6.5,5.09,5.09,0,0,1,.57,1.78A7,7,0,0,0,117,101.6a4.09,4.09,0,0,1,.78.83A2.06,2.06,0,0,1,117,105C114.47,106.79,113.79,104.6,113,102.49Z"/><path id="Path_3132" data-name="Path 3132" class="cls-26" d="M234.14,182.44a13.82,13.82,0,0,1-1.2,4.67,9.17,9.17,0,0,1-3.39,4.66,3.52,3.52,0,0,1-2.45.66,3.22,3.22,0,0,1-2.29-2.12,7.82,7.82,0,0,1-.33-3.26c.12-1.71-.17-4.2,1.69-4.72,1.14-.14,2.29-.23,3.43-.26a19.45,19.45,0,0,0,3.61-1,.53.53,0,0,1,.39,0,.49.49,0,0,1,.18.17A2.35,2.35,0,0,1,234.14,182.44Z"/><ellipse id="Ellipse_89" data-name="Ellipse 89" class="cls-27" cx="72.9" cy="407.67" rx="34.04" ry="5.92"/><path id="Path_3133" data-name="Path 3133" class="cls-12" d="M236.54,109.7a.38.38,0,0,1-.3-.15,3,3,0,0,1-.43-2.39,4.78,4.78,0,0,1,1.07-2.07,8.09,8.09,0,0,1,7.45-2.79,12.16,12.16,0,0,1,3.25,1.28.38.38,0,0,1,.12.52.37.37,0,0,1-.45.16h0A11.19,11.19,0,0,0,244.2,103a7.47,7.47,0,0,0-6.76,2.53,4.14,4.14,0,0,0-.91,1.75,2.24,2.24,0,0,0,.31,1.78.38.38,0,0,1-.09.53.4.4,0,0,1-.21.07Z"/><path class="cls-1" d="M88.75,63.14h0Z"/><path class="cls-1" d="M84.56,63.75h0a.69.69,0,0,0,0,.32h0A.65.65,0,0,1,84.56,63.75Z"/><path class="cls-1" d="M89.82,63.29h0Z"/><path class="cls-1" d="M87.69,63.07h0Z"/><path class="cls-1" d="M101,72.29a12.87,12.87,0,0,0-.94-2,14.94,14.94,0,0,0-4-4.31h0c.3.46.3.85,0,1.1A1.47,1.47,0,0,1,95,67.3c-.63-.07-1.22-.37-1.85-.49a3.36,3.36,0,0,0-2.74.75,2.05,2.05,0,0,1-.61.45l-.14,0c1.49,2.51,1.41,4.76,3.41,8,.34.57,7.23,2.62,7,4.18C102.31,78.57,102,75,101,72.29Z"/><path class="cls-28" d="M92.84,64.15a15,15,0,0,0-3-.86A15.05,15.05,0,0,1,96.06,66C95.55,65.13,93.69,64.5,92.84,64.15Z"/><path class="cls-28" d="M88.8,63.15c.34,0,.68.08,1,.14C89.48,63.23,89.14,63.18,88.8,63.15Z"/><path class="cls-28" d="M87.73,63.08l1,.06Z"/><path class="cls-28" d="M85.52,63.16h0a15.53,15.53,0,0,1,2.15-.09,15.53,15.53,0,0,0-2.15.09h0a1.33,1.33,0,0,0-.84.36.63.63,0,0,0-.12.23h0a.57.57,0,0,1,.12-.23A1.39,1.39,0,0,1,85.52,63.16Z"/><path class="cls-28" d="M84.56,64.06s0,0,0,0a1.27,1.27,0,0,1,.83-.35h0A15.22,15.22,0,0,1,89.62,68l.14,0a2.05,2.05,0,0,0,.61-.45,3.36,3.36,0,0,1,2.74-.75c.63.12,1.22.42,1.85.49a1.47,1.47,0,0,0,1.15-.25c.25-.25.25-.64,0-1.1h0a15.05,15.05,0,0,0-6.23-2.66h0c-.34-.06-.68-.11-1-.14h0l-1-.06h0a15.53,15.53,0,0,0-2.15.09h0a1.39,1.39,0,0,0-.84.36.57.57,0,0,0-.12.23A.65.65,0,0,0,84.56,64.06Z"/><path class="cls-1" d="M85.23,65a.18.18,0,0,0,0,.07l0-.07L85,64.76a1.73,1.73,0,0,1-.44-.7h0a2,2,0,0,0,.43.7Z"/><path class="cls-29" d="M85.23,65a.18.18,0,0,0,0,.07l0-.07L85,64.76a1.73,1.73,0,0,1-.44-.7h0a2,2,0,0,0,.43.7Z"/><path class="cls-1" d="M93,76.06c-2-3.27-1.92-5.52-3.41-8a1.6,1.6,0,0,1-.43,0c-1.2,0-1.6.12-2.35-.67l0,0a14.1,14.1,0,0,1,1.05,2.47c.26.84.46,1.71.65,2.58.48,2.22.94,4.43,2.45,6,1.71,1.8,6.54,3.43,8.86,2a2.15,2.15,0,0,0,.24-.18C100.26,78.68,93.37,76.63,93,76.06Z"/><path class="cls-30" d="M93,76.06c-2-3.27-1.92-5.52-3.41-8a1.6,1.6,0,0,1-.43,0c-1.2,0-1.6.12-2.35-.67l0,0a14.1,14.1,0,0,1,1.05,2.47c.26.84.46,1.71.65,2.58.48,2.22.94,4.43,2.45,6,1.71,1.8,6.54,3.43,8.86,2a2.15,2.15,0,0,0,.24-.18C100.26,78.68,93.37,76.63,93,76.06Z"/><path class="cls-28" d="M85.44,63.67h0a1.27,1.27,0,0,0-.83.35s0,0,0,0a1.73,1.73,0,0,0,.44.7l.23.28,0,.07a14.39,14.39,0,0,1,1.54,2.27l0,0c.75.79,1.15.67,2.35.67a1.6,1.6,0,0,0,.43,0A15.22,15.22,0,0,0,85.44,63.67Z"/><path class="cls-31" d="M85.44,63.67h0a1.27,1.27,0,0,0-.83.35s0,0,0,0a1.73,1.73,0,0,0,.44.7l.23.28,0,.07a14.39,14.39,0,0,1,1.54,2.27l0,0c.75.79,1.15.67,2.35.67a1.6,1.6,0,0,0,.43,0A15.22,15.22,0,0,0,85.44,63.67Z"/><circle id="Ellipse_153" data-name="Ellipse 153" class="cls-32" cx="3.5" cy="221.52" r="3"/></g></g><rect class="cls-32" width="492" height="414"/></g></g></svg>