<svg xmlns="http://www.w3.org/2000/svg" viewBox="0 0 540.01 435"><defs><style>.cls-1,.cls-3{fill:#e3e0dc;}.cls-2{fill:none;stroke-width:3px;}.cls-2,.cls-3{stroke:#e3e0dc;}.cls-4{fill:#fff;}.cls-5{fill:#f5f3f0;}.cls-13,.cls-6{fill:#e58732;}.cls-7{fill:#222b3a;}.cls-8{fill:#18202b;}.cls-9{fill:#e5e3e1;opacity:0.67;}.cls-13,.cls-14,.cls-9{isolation:isolate;}.cls-10{fill:#b7b6b6;}.cls-11{fill:#ba5a5a;}.cls-12{fill:#f90;}.cls-13{opacity:0.37;}.cls-14{fill:#773939;opacity:0.48;}.cls-15{fill:#c4c3c0;}</style></defs><title>Individual-ed</title><g id="Layer_2" data-name="Layer 2"><g id="Layer_1-2" data-name="Layer 1"><g id="Individual_edition_-_image" data-name="Individual edition - image"><g id="Group_10815-2" data-name="Group 10815-2"><ellipse id="Ellipse_152" data-name="Ellipse 152" class="cls-1" cx="465.27" cy="324.5" rx="51.01" ry="10.74"/><path id="Path_12356" data-name="Path 12356" class="cls-2" d="M430.53,240.47c3.16-1.62,16.34-2.77,30.8-3,5.22-.08,10.6,0,15.74.16,2.57.1,3.33.23,5.73.4"/><path id="Path_12357" data-name="Path 12357" class="cls-1" d="M422,104c-2.79,5.58-9.85,8.05-16,7.05s-11.52-4.8-16.08-9.06c-7.07-6.61-13-15-14.51-24.54-2.72-17.3,13.28-29.43,26.66-18C410.5,66.66,427.54,92.85,422,104Z"/><path id="Path_12358" data-name="Path 12358" class="cls-1" d="M428.29,107.82c-1.5-13.87-3.66-29.86-10.5-44-4.38-9.07-9.87-14.64-16.32-16.57l.53-1.78c7,2.08,12.84,8,17.46,17.55,7,14.43,9.16,30.6,10.68,44.63Z"/><path id="Path_12359" data-name="Path 12359" class="cls-3" d="M489.07,259.67c-2.34-11.17-4.68-24.17-2.92-37,1.16-8.51,4.21-14.52,9.05-17.86l.85,1.23c-4.48,3.09-7.31,8.76-8.42,16.83-1.73,12.61.59,25.46,2.9,36.5Z"/><path id="Path_12360" data-name="Path 12360" class="cls-1" d="M447.13,80.2c4.7-2.44,10.08-3.13,15.34-3.71,5.68-.62,12.43-.72,15.9,3.82s1.46,11.49-1.85,16.33c-5.61,8.23-31.73,42.23-40.45,36.64C421.84,124.16,435.86,86.05,447.13,80.2Z"/><path id="Path_12361" data-name="Path 12361" class="cls-3" d="M439.22,244.71l-1.86-.05c1.29-47.62-3.64-90.31-9.8-140.9l1.85-.23C435.58,154.26,440.5,197,439.22,244.71Z"/><path id="Path_12362" data-name="Path 12362" class="cls-1" d="M389.79,149.12A31.54,31.54,0,0,1,377,138.51a21.17,21.17,0,0,1-3.37-16,11.2,11.2,0,0,1,2-4.51c2.06-2.62,5.61-3.71,8.94-3.54a27.17,27.17,0,0,1,9.53,2.77c8.69,3.86,31.39,14.32,31.69,25.92C426.17,157.55,397.26,152.72,389.79,149.12Z"/><path id="Path_12363" data-name="Path 12363" class="cls-1" d="M486.23,177.7c2.2,4.41,7.76,6.36,12.62,5.56s9.08-3.78,12.68-7.14c5.58-5.21,10.26-11.81,11.44-19.36,2.15-13.63-10.46-23.21-21-14.19C495.29,148.26,481.84,168.91,486.23,177.7Z"/><path id="Path_12364" data-name="Path 12364" class="cls-1" d="M469.85,158.94c-3.71-1.93-8-2.48-12.11-2.93-4.48-.49-9.8-.57-12.54,3s-1.16,9.06,1.46,12.88c4.43,6.49,25,33.31,31.9,28.9C489.78,193.61,478.73,163.55,469.85,158.94Z"/><path id="Path_12365" data-name="Path 12365" class="cls-1" d="M515.5,213.3a24.77,24.77,0,0,0,10-8.37,16.68,16.68,0,0,0,2.66-12.61,8.82,8.82,0,0,0-1.56-3.56,8.38,8.38,0,0,0-7-2.8,21.72,21.72,0,0,0-7.52,2.19c-6.86,3-24.76,11.3-25,20.45C486.8,220,509.6,216.14,515.5,213.3Z"/><path id="Path_12366" data-name="Path 12366" class="cls-3" d="M479.87,250.7c-.39-13.93-.79-28.33,1.49-42.37,2.56-15.7,8.43-29.05,17-38.6l1.12,1c-8.36,9.33-14.1,22.42-16.62,37.84-2.26,13.9-1.86,28.23-1.47,42.08Z"/><path id="Path_12367" data-name="Path 12367" class="cls-4" d="M418.13,111.54a93.61,93.61,0,0,0-29.94-41.82l.8-1a94.89,94.89,0,0,1,30.36,42.4Z"/><path id="Path_12368" data-name="Path 12368" class="cls-4" d="M432.79,131.17l-1.26-.3a65.38,65.38,0,0,1,26-38.25l.74,1.06A64,64,0,0,0,432.79,131.17Z"/><path id="Path_12369" data-name="Path 12369" class="cls-4" d="M426,149a105.37,105.37,0,0,0-33.5-19l.43-1.22A106.71,106.71,0,0,1,426.84,148Z"/><path id="Path_12370" data-name="Path 12370" class="cls-4" d="M478.88,202.92l-1.28-.19c.6-4-1-7.91-2.9-11.92-4.44-9.52-8.55-17.22-14.24-23.88l1-.84c5.78,6.77,9.95,14.56,14.43,24.17C477.82,194.46,479.53,198.59,478.88,202.92Z"/><path id="Path_12371" data-name="Path 12371" class="cls-4" d="M489.92,184.65l-1.17-.55A111.49,111.49,0,0,1,508.34,155l1,.88A110.06,110.06,0,0,0,489.92,184.65Z"/><path id="Path_12372" data-name="Path 12372" class="cls-4" d="M489.48,214.87l-1.11-.66c2.59-4.32,7-7.89,13.48-10.92,2.16-1,4.39-1.91,6.56-2.77a92.16,92.16,0,0,0,9.19-4.1,1.22,1.22,0,0,0,.59-.53l1.17-.53c.36.76-.09,1.62-1.15,2.19a87.31,87.31,0,0,1-9.32,4.16c-2.15.87-4.37,1.76-6.49,2.75C496.16,207.38,491.93,210.78,489.48,214.87Z"/><path id="Path_12373" data-name="Path 12373" class="cls-1" d="M467.36,220.55a11,11,0,0,1-2.43-.25,12.46,12.46,0,0,1-8.92-7.76,7.94,7.94,0,0,1,.53-7.26,5.3,5.3,0,0,1,3.75-2.18,4.16,4.16,0,0,1,3.33,1A117.43,117.43,0,0,1,474.82,216l-1.16.95a116.47,116.47,0,0,0-11.05-11.71,2.73,2.73,0,0,0-2.16-.61,3.86,3.86,0,0,0-2.68,1.55,6.48,6.48,0,0,0-.36,5.89,11,11,0,0,0,7.83,6.81,10.77,10.77,0,0,0,9.88-3.07l1.1,1A12.3,12.3,0,0,1,467.36,220.55Z"/><path id="Path_12374" data-name="Path 12374" class="cls-3" d="M447.29,215c-1.2-12-2.67-24.84-6.4-37.09-4.09-13.37-10.32-24.14-18.57-32l1.29-1.34c8.47,8.1,14.88,19.14,19.05,32.81,3.78,12.41,5.27,25.3,6.47,37.45v41.41h-1.48Z"/><path id="Path_12375" data-name="Path 12375" class="cls-1" d="M445,56.74c4.22,3.34-1,14.06-6.66,9.93C433.08,62.81,441.22,53.74,445,56.74Z"/><path id="Path_12376" data-name="Path 12376" class="cls-1" d="M499.46,243.66c-14.1,8.25-53.67,9-70.28,0-1.72,13.39.4,40.41,1.36,51.75,1.36,16.08,4,31,36,30.91,3.94,0,7.93.09,11.73-1,9.33-2.69,15-7.75,18.54-17.17S499.78,243.47,499.46,243.66Z"/><path id="Path_12377" data-name="Path 12377" class="cls-2" d="M492.72,239.23a33.34,33.34,0,0,1,4.72,1.92,3.84,3.84,0,0,1,1.72,3.56"/></g><ellipse id="Ellipse_152-2" data-name="Ellipse 152-2" class="cls-1" cx="275.43" cy="385.31" rx="264.58" ry="49.69"/><path id="Path_12359-2" data-name="Path 12359-2" class="cls-4" d="M446.33,322.77c0,1.15-.05,2.32-.16,3.53-1.2,14.23-9.24,26.88-19.33,37-13,13-29.3,22-38.82,24.79q-6.75,2-13.53,3.86c-2.27.61-4.54,1.2-6.8,1.79q-5.12,1.31-10.25,2.5c-1.14.27-2.28.53-3.43.78q-8.56,1.95-17.2,3.58a511.17,511.17,0,0,1-59.24,7.73q-4.4.31-8.8.55-3.4.18-6.81.3l-1.43.06q-11.89.42-23.78.2l-2.7-.06-2.7-.07-2.88-.1a455.57,455.57,0,0,1-69.38-7.86c-52.81-10.26-121.88-22.91-148-77.3C-4.84,290.79.25,257.6,3,239.42,12,180.57,48,141.09,68.26,123a158.09,158.09,0,0,1,13.53-10.94q4.86-3.42,9.94-6.47l3-1.77a182,182,0,0,1,17.32-8.7c2.39-1.05,4.8-2,7.24-3,1.21-.49,2.43-1,3.65-1.39q6-2.22,12.2-4h0c1.7-.5,3.42-1,5.14-1.44,1.22-.35,2.46-.66,3.7-1l2.41-.59c1-.23,2-.49,3-.68.46-.12,1-.22,1.41-.32q5.7-1.23,11.45-2.18h0q4.38-.75,8.8-1.3a.22.22,0,0,0,.16,0,241.33,241.33,0,0,1,31.79-1.77q6.33.06,12.65.47l2.3.16q8.91.66,17.76,2.05c1.44.22,2.88.46,4.3.72l2.23.41c19.09,3.6,36.72,9.75,51.49,18.3,38.67,22.36,67.72,52.26,90.56,111.14,8.53,22,3.39,9.53,19.12,30.19,2.68,3.5,5.23,6.75,7.68,9.81,9.1,11.44,16.57,20.33,22.45,30.76a94.24,94.24,0,0,1,5.54,11.61h0c.94,2.35,1.8,4.8,2.62,7.42.44,1.41.87,2.78,1.28,4.13a.3.3,0,0,0,0,.1l0,.11h0c.17.6.35,1.19.52,1.79s.38,1.32.55,2c.09.34.18.66.26,1,.17.66.33,1.3.48,1.95.06.25.12.52.17.78.2.88.38,1.77.52,2.66,0,.14.06.29.08.44.05.32.11.64.15,1s.09.53.12.8c.06.45.12.9.15,1.37s.09.92.12,1.38,0,.8.07,1.21c0,.12,0,.25,0,.37s0,.39,0,.6S446.33,322.56,446.33,322.77Z"/><path id="Path_12360-2" data-name="Path 12360-2" class="cls-5" d="M449.06,315.21l-3.45.11c-45.53,1.44-91.74,1.85-135.64-10.12-16.26-4.43-32.37-10.8-45.23-21.7-10.82-9.17-18.9-21.17-25.58-33.68C225,223.27,216.45,191.69,225.5,163c2.67-8.43,6.59-17,10.12-25.54-6.26-1.7-12.44-3.77-18.54-5.82-2.17-.73-4.46-1.54-5.89-3.34-1.29-1.64-1.64-3.83-1.85-5.92a76.54,76.54,0,0,1,1.53-24.7,78.9,78.9,0,0,1,3.77-12c.74-1.84.82-2.49,3-2.4a13.24,13.24,0,0,1,5.86,2.22c5.08,3,9.19,8.18,12.78,13.09,9.74,13.32,20.59,18.69,25.87,22.82,4.59,3.6,24.55,24.41,26.56,30,1.5,1.57,3,3.16,4.42,4.77,14.2,15.76,24,37,39.17,51.85,13.91,13.56,32.57,20.9,50.15,29.18,10.33,4.87,25.67,30.94,36.5,34.64,6.59,8.26,11,8.8,14.66,10,3.17,1,5.78,2.61,8.76,10.11.93,2.35,1.81,4.81,2.62,7.42A104.64,104.64,0,0,1,449.06,315.21Z"/><path id="Path_12361-2" data-name="Path 12361-2" class="cls-5" d="M446.33,322.77c0,1.15-.05,2.32-.15,3.53-1.2,14.23-9.25,26.88-19.34,37-13,13.05-29.3,22-38.81,24.8q-6.75,2-13.54,3.85c-2.26.61-4.53,1.2-6.8,1.79q-5.12,1.31-10.25,2.5c-1.14.27-2.28.53-3.43.78q-8.55,1.95-17.2,3.58a510.72,510.72,0,0,1-59.23,7.73q-4.41.31-8.8.55-3.42.18-6.82.3l-1.42.06q-11.9.42-23.79.2l-2.7-.06-2.7-.07-2.87-.1c-18.56-16.1-54.49-61-67.72-82.94-14.68-19-74.61-16.07-75.79-84.83-.54-31.1,31-70.15,46.93-96.85,3.75-6.28,6-13.7,7.67-20.76.84-3.47-1.51-27.9,19.09-38.62,5.56-2.9,8.6.77,14.33,3.49,3.45,1.63,7.42,2.14,11.16,2.65,9.13,1.25,18.87,1.16,27.71,4,1.92.61,4.29,1.41,5.44,3.21,8.75,13.76-11.57,36.37-3.39,50.46,8.48,14.6,13.48,30.87,19.78,46.52a294,294,0,0,0,17.1,35.55c4.4,7.79,9.23,15.47,15.7,21.67,5.43,5.21,11.89,9.24,18.38,13.05A174.79,174.79,0,0,0,309,278c12.1,4.78,25,7.38,37.07,12.25,9.74,3.93,19.22,9.7,25.51,17.94,22.41-6.74,44.68-13.86,67.58-15.1.93,2.35,1.8,4.81,2.62,7.42.43,1.41.86,2.79,1.27,4.14a.19.19,0,0,1,0,.1l0,.12c.18.6.36,1.19.53,1.78s.38,1.32.55,2c.1.33.18.65.26,1,.17.65.33,1.3.48,1.94.06.26.12.52.17.78.23,1,.44,2.07.6,3.1.06.33.11.65.16,1s.08.53.11.8c.06.45.11.91.16,1.38s.08.92.11,1.38.06.8.07,1.21c0,.12,0,.25,0,.37s0,.41,0,.61S446.33,322.56,446.33,322.77Z"/><path id="Path_12353" data-name="Path 12353" class="cls-6" d="M321.73,319.17c-7.2,2.75-14.73,5.3-22.42,4.82-15-.95-27-13.28-34-26.6-.95-1.82-1.86-3.94-1.15-5.86.58-1.56,2.07-2.57,3.49-3.44,27.52-16.78,61.65-22,93.05-15,14.51,3.25,30.52,10.38,11.46,22.17C356.45,304.94,338.94,312.59,321.73,319.17Z"/><path id="Path_12362-2" data-name="Path 12362-2" class="cls-7" d="M227.94,84.12a83.33,83.33,0,0,1-3.89,7.8A28.71,28.71,0,0,1,212,103.26l-.2.08c-5.05,2-10.07,4.48-15.34,5.88-.45.12-.91.24-1.37.34s-.92.2-1.39.3A30.67,30.67,0,0,1,178,108.58c-3.57-1.25-9.38-3.15-12.24-5.63-8.88-7.72-8.34-18.09-7.13-28.67.64-5.51,6.75-17.79-3.87-16.75-3,.3-5.9,1.68-8.91,1.44a10.49,10.49,0,0,1-7.68-4.91,18.88,18.88,0,0,1-2.68-9,38.56,38.56,0,0,1,4-19.28,43.43,43.43,0,0,1,5.4-9A58.82,58.82,0,0,1,151.19,11a6.53,6.53,0,0,1,6.14-.91,17,17,0,0,0,2.5,1.23,6,6,0,0,0,3.37-.44c3.07-1.06,6.4-3.09,9.68-3.37,3.63-.3,7.07,2,9.91,3.94,3.91,2.75,7.75,6.33,8.53,11,.5,3-.33,6.06-.42,9.09a10.28,10.28,0,0,0,0,1.11C221.37,41,227,63.75,228.2,68.13,229.65,73.46,229.38,80.82,227.94,84.12Z"/><path id="Path_12363-2" data-name="Path 12363-2" class="cls-8" d="M217.81,85.56a17.1,17.1,0,0,1-9.91,19.52,93.25,93.25,0,0,1-11.46,4c-.45.13-.91.24-1.36.35l-1.39.29A30.71,30.71,0,0,1,178,108.47h0c1.13-2.9,2.55-5.51,2.46-8.69-.11-3.49-1.93-6.7-2.34-10.16-.22-1.76-.67-5.21,0-6.88.71-1.85,4.22-1.58,5.9-1.68a67.1,67.1,0,0,1,7.37-.14c3.07.16,6.09.75,9.15,1.1a112.75,112.75,0,0,0,16.44.2C217.28,83.32,217.56,84.43,217.81,85.56Z"/><path id="Path_12355-2" data-name="Path 12355-2" class="cls-4" d="M291.12,240.72c19.26-11.21,28.73-26.44,24.23-37.1a18.11,18.11,0,0,0-7-7.88c-15.36-20.1-29.24-43.58-41.82-60.27-6.23-8.26-14.19-15.42-30.95-20.89-4.83-1.57-10.4-1.11-15.56-1.38l-32.32,5.1-39,68.71q2.91,31.1,5.83,62.19l78.05,32.6,76.89-6.52Z"/><path id="Path_12358-2" data-name="Path 12358-2" class="cls-9" d="M262.57,177.55c-.72-4.08-5.84-12.65-10.46-12.54,2.1,3.4,4.4,6.64,5.16,10.68,1.78,9.36,14,80.38,22,86.79,2.27,1.8-.48-12.1,2.38-11.66S263.82,184.61,262.57,177.55Z"/><path id="Path_12357-2-2" data-name="Path 12357-2-2" class="cls-9" d="M181.35,248.09c-9.61-16.15-4.29-59.81-2.24-64.89,1.76,11.24,2.84,51.58,5.75,59.47,4.74,11.63,46.43,23.71,47,27.82-5.29,2.89-28.93-2.48-33.39-5.33A53,53,0,0,1,181.35,248.09Z"/><path id="Path_12358-2-2" data-name="Path 12358-2-2" class="cls-4" d="M199,115.32a70.06,70.06,0,0,0-23.08,4.41c-3.43,1.3-6.33,2.26-8.67,3a19.88,19.88,0,0,0-11.34,8.53c-36.86,60.84-35.55,118-33.55,125.42,4.45,16.61,29.72,27.12,32.85,30.16,18.84,18.33,64.82,16.43,111.33-2.93l5.13-10.3c-22.91,0-52.55-3.41-80.36-16.93-17.25-8.38-22.41-15.14-24.79-19.14-5.87-9.82-5.11-19.92-3.42-39a203.62,203.62,0,0,1,4.28-27.24Z"/><path id="Path_12359-2-2" data-name="Path 12359-2-2" class="cls-10" d="M264.16,291.55l-22.87-13.09,87.43-10.64Z"/><path id="Path_12360-2-2" data-name="Path 12360-2-2" class="cls-10" d="M251.93,265.81l61.18-12-1.26,20.5-51.41,2.84Z"/><path id="Path_12361-2-2" data-name="Path 12361-2-2" class="cls-11" d="M254.05,263.69a15.78,15.78,0,0,1,10.3,4.09,47.37,47.37,0,0,1,7.35,8.57l4.4,6.07c.58.8,1.18,1.9.6,2.71-1.38,1.28-3.63,1.06-5.31.21-4.53-2.32-8.25-5.7-13.29-7.19a13,13,0,0,0-9.27.39c-1.7.83-3.18,2.06-5.16,2a17.45,17.45,0,0,1-6-1.86c-2.72-1-5-2.63-7.58-3.9a40.6,40.6,0,0,0-4-1.69c-.67-.26-3.29-1.62-3.82-1.25a4.63,4.63,0,0,1,.92-2.83c.75-1,1.27-.65,2.38-.42a34.12,34.12,0,0,0,6.29.69,25.22,25.22,0,0,0,12.19-2.68A23.31,23.31,0,0,1,254.05,263.69Z"/><path id="Path_12362-2-2" data-name="Path 12362-2-2" class="cls-12" d="M451.15,313.36c-3.27,3.75-13.11,13.86-44.62,18.91-18.69,3-35.14,7.26-66,5.75-12.38-.64-21.95-6.36-28.85-6.9,4-4.73-30.34-13.94-22.69-14.75a85.8,85.8,0,0,0,9.95-1.7,131.18,131.18,0,0,0,26.39-9.58c10.52-5,19.44-10.45,25.27-13.79a159.6,159.6,0,0,1,18.3-8.95,184.84,184.84,0,0,1,20.47-7.24,204,204,0,0,1,20.27-4.73c23.67-4.24,33.63,3.75,39.26,7.8,1.63,1.19,9.09,6.6,10.19,15.5S454.17,309.85,451.15,313.36Z"/><path id="Path_12363-2-2" data-name="Path 12363-2-2" class="cls-4" d="M313.76,321.58l-.66-2.35A523,523,0,0,0,414.2,279.3c4.54-2.37,9.22-5.39,9.6-10l2.43.2c-.48,5.79-6.08,9.43-10.9,11.94A525.74,525.74,0,0,1,313.76,321.58Z"/><path id="Path_12364-2" data-name="Path 12364-2" class="cls-13" d="M382.9,329.31a2.14,2.14,0,0,1-1,.9c-5.31,3.22-11.11,6.58-17.32,6.12a30.51,30.51,0,0,1-7.68-1.95c-14.21-5-42.52-10.39-56.75-15.38-3.05-1.07-3.32-2.58-2-4.34a130.11,130.11,0,0,0,26.39-9.57c2.73,1.63,5.29,3.87,7.66,5.36a112.06,112.06,0,0,0,48.1,16.71C381.63,327.29,383.41,328.09,382.9,329.31Z"/><path id="Path_12365-2" data-name="Path 12365-2" class="cls-11" d="M225.54,113.83c-1.73,4.89-6.19,11.59-17.74,12.89-11.85,1.34-21.75-3.1-25.88-6.87,2.66-1.24,15.25-6.6,16.16-9.4a13,13,0,0,0,.51-4.73,29.35,29.35,0,0,0-.75-4.75c-.3-1.27-2.39-6-2-7.48a.66.66,0,0,1,.17-.29c1.24-1.2,6,1.85,7.11,2.58a3.75,3.75,0,0,1,1.1.88,3,3,0,0,1,.61,1.34,10.66,10.66,0,0,1,.2,1.26,21.93,21.93,0,0,0,2.05,7.27,10.38,10.38,0,0,0,3,3.61,16,16,0,0,0,4.53,2.07C218.38,113.39,221.65,113.27,225.54,113.83Z"/><path id="Path_12366-2" data-name="Path 12366-2" class="cls-14" d="M207.07,106.53a2.08,2.08,0,0,1-.88.25,14.41,14.41,0,0,1-6.36-.44,7.13,7.13,0,0,1-1.24-.61,29.35,29.35,0,0,0-.75-4.75c-.3-1.27-2.39-6-2-7.48,1.92.68,3.82,1.41,5.72,2.19a7.67,7.67,0,0,1,2.8,1.7,5.61,5.61,0,0,1,.47.62c.09.41.15.84.2,1.26A21.63,21.63,0,0,0,207.07,106.53Z"/><path id="Path_12367-2" data-name="Path 12367-2" class="cls-15" d="M407.24,182.06l-17.89,93.16a187.65,187.65,0,0,0-20.47,7.24L264.17,291.6l12.5-108.93a9.15,9.15,0,0,1,8.48-7l113.27-6.2C404.56,169.34,409,175.7,407.24,182.06Z"/><path id="Path_12368-2" data-name="Path 12368-2" class="cls-11" d="M362.87,334.48c5.23-1.33,9.18-6.36,14.57-6.75,4.11-.3,7.79,2.13,11.42,3.67s9.08-.25,13.05-.57c4.18-.33,8.52-.2,12.36,1.48.72.31,1.5.79,1.63,1.56a1.75,1.75,0,0,1-.9,1.67,5.19,5.19,0,0,1-1.91.56c-10.28,1.61-20.55,2.83-30.78,4.42s-21.31,3.66-31.81,3.66a2,2,0,0,1-1.61-.36c-1.27-1.34,1.33-8.71,3-9.65C354.47,332.71,359.67,335.15,362.87,334.48Z"/><path id="Path_12359-2-2-2" data-name="Path 12359-2-2-2" class="cls-12" d="M355.12,347.73c-34.15,4-59.62,5.56-81.82,5.68,0,0-28.72.15-75.61-7.56-14.48-2.38-27.94-5.17-38.56-16.25-2.47-2.59-14-14.65-11.71-29.12,2.83-17.81,24.52-26,30.61-28.35,25.21-9.55,49.66.1,57.08,3a39.28,39.28,0,0,1,6.13,2.95c1.07.62,2.3,1.37,4,2.37,3.73,2.23,9.61,5.7,20.55,11.67,12,6.57,23.22,12.69,32.59,17.05a215,215,0,0,0,56.69,17.05A60.56,60.56,0,0,1,355.12,347.73Z"/><path id="Path_12371-2" data-name="Path 12371-2" class="cls-11" d="M218.43,79.12a36.05,36.05,0,0,1-.83,4.62c-.26,1-.57,2.1-1,3.26a29.71,29.71,0,0,1-9.45,13.87c-.57.44-1.06.77-1.39,1a32.73,32.73,0,0,1-11.91-3.8,35.62,35.62,0,0,1-13.61-14.38,35.09,35.09,0,0,1-1.81-4.29,136.11,136.11,0,0,1,16.63-21.54c.75-.82,1.53-1.6,2.3-2.4,1-1,2-1.94,3-2.87a3.83,3.83,0,0,1,.29-.28l5.47,3.23c1.73,1,3.44,2,5.11,3l4.29,2.53c.2.52.47,1.08.72,1.73A34.44,34.44,0,0,1,218.43,79.12Z"/><path id="Path_12372-2" data-name="Path 12372-2" class="cls-14" d="M217.6,83.65c-.25,1-.57,2.09-1,3.25-1.11.65-3.28.16-4.39-.2a7,7,0,0,1-3.9-3.15,7.09,7.09,0,0,1-.77-5,18.4,18.4,0,0,0,2.58,4,6.27,6.27,0,0,0,4.14,2.07A7.06,7.06,0,0,0,217.6,83.65Z"/><path id="Path_12373-2" data-name="Path 12373-2" class="cls-14" d="M202.37,61.92A31.55,31.55,0,0,1,200,72.67a44.63,44.63,0,0,1-3.61,6.66,32.87,32.87,0,0,1-4.21,5.06c-1.44,1.49-.11,3.15,1.49,4.06a12.84,12.84,0,0,0,4.67,1.2,2.25,2.25,0,0,0,1.51-.18A5.46,5.46,0,0,1,195,90.86a10.69,10.69,0,0,1-5.41-2.67c-1.07-.9-1.25-.48-2.41.26A14,14,0,0,1,184.36,90a45,45,0,0,1-4.1-6.29,12.14,12.14,0,0,1,.51-1.88A4.41,4.41,0,0,1,182.09,80c2.32-2.17,4.75-4.23,6.87-6.64a19.31,19.31,0,0,0,4.6-8.23c.26-1.14.36-2.3.57-3.44a21.26,21.26,0,0,1,1-3.83,24.25,24.25,0,0,1,1.73-4.23,3.41,3.41,0,0,1,1-1.24,2.32,2.32,0,0,1,2.59.21,3.9,3.9,0,0,1,.38.33C202.76,55.08,202.48,59.24,202.37,61.92Z"/><path id="Path_3095" data-name="Path 3095" class="cls-7" d="M197.65,56.3A27,27,0,0,0,199.78,59a32.78,32.78,0,0,0,8.76,6.86,27.89,27.89,0,0,1,5,3.3c3.93,3.59,4.76,11.8,4.31,14.77a29.52,29.52,0,0,0,2.5-6.94c.37-2.54.43-16.57-1.15-18.54-1.74-2.16-5.14-.78-7-2.91a20,20,0,0,0-15.07-6.35c-.62,0-.38,5.24-.18,5.77A7.08,7.08,0,0,0,197.65,56.3Z"/><path id="Path_12374-2" data-name="Path 12374-2" class="cls-11" d="M178.65,92.62a8.77,8.77,0,0,1-4.08-6.88,3.93,3.93,0,0,1,.2-1.4,2.42,2.42,0,0,1,2.68-1.49,3.38,3.38,0,0,1,1.91,1.46,15.62,15.62,0,0,1,1.16,2.22c.55,1.12,4,5,4,5.86C184.41,95.11,179.75,93.34,178.65,92.62Z"/><path id="Path_12375-2" data-name="Path 12375-2" class="cls-7" d="M204.51,96.62a6,6,0,0,1-4.31-2,.51.51,0,0,1,0-.73.53.53,0,0,1,.73,0v0h0A4.71,4.71,0,0,0,205,95.54a3.34,3.34,0,0,0,2.88-2.85.47.47,0,0,1,.45-.49h.1a.52.52,0,0,1,.48.55h0a4.37,4.37,0,0,1-3.77,3.8A4.91,4.91,0,0,1,204.51,96.62Z"/><path id="Path_12360-2-2-2" data-name="Path 12360-2-2-2" class="cls-4" d="M355.72,338.69c-.29,0-.61,0-.94,0-13.65,0-58.55-12.35-66.47-14.7-20.58-6.08-43.91-13-62.23-27.11-3.8-2.93-8-7.5-6.36-12.6,1.37-4.33,14.33-5.83,21.52-6.19l4,2.38c-6.49-.38-22.3,1.72-23.19,4.55C220.79,289,225,293,227.58,295c18,13.86,41,20.69,61.42,26.71,11.43,3.38,55.28,15.07,66.6,14.57Z"/><path id="Path_12378" data-name="Path 12378" class="cls-9" d="M236.66,174.18a6.83,6.83,0,0,1-2.38-2,3.25,3.25,0,0,1-.49-2.94,2.93,2.93,0,0,1,2.94-1.73,4,4,0,0,1,3,1.9c.62-.63,1-1.44,1.6-2.11a2.58,2.58,0,0,1,2.3-1.07,2.25,2.25,0,0,1,1.59,2.35,6.55,6.55,0,0,1-1,2.89c-.88,1.59-1.71,3.23-2.66,4.77C240.88,175,238,174.92,236.66,174.18Z"/><ellipse id="Ellipse_154" data-name="Ellipse 154" class="cls-4" cx="337.31" cy="228.29" rx="16.92" ry="14.68" transform="translate(41.2 507.96) rotate(-77.46)"/><path id="Path_12379" data-name="Path 12379" class="cls-12" d="M214.27,85.83c-3.65,0-6.61-3.73-6.61-8.31s3-8.31,6.61-8.31,6.61,3.73,6.61,8.31S217.91,85.83,214.27,85.83Zm0-15.4c-3,0-5.39,3.18-5.39,7.1s2.42,7.09,5.39,7.09,5.39-3.18,5.39-7.09-2.42-7.1-5.39-7.1Z"/><path id="Path_12380" data-name="Path 12380" class="cls-12" d="M197,90.18c-4.06,0-7.37-3.74-7.37-8.35S193,73.49,197,73.49s7.37,3.74,7.37,8.34S201.1,90.18,197,90.18Zm0-15.4c-3.35,0-6.08,3.16-6.08,7s2.73,7.06,6.08,7.06,6.08-3.16,6.08-7.06-2.73-7-6.08-7Z"/><path id="Path_12381" data-name="Path 12381" class="cls-12" d="M204.15,80.8,203,80.37a4.14,4.14,0,0,1,5.41-2.23h0l.12,0L208,79.28a2.81,2.81,0,0,0-2.24,0A2.73,2.73,0,0,0,204.15,80.8Z"/><path id="Path_12382" data-name="Path 12382" class="cls-12" d="M179.89,86.15l-.07-1.22a62.36,62.36,0,0,0,10-1.38l.26,1.19A64.76,64.76,0,0,1,179.89,86.15Z"/><path id="Path_3096" data-name="Path 3096" class="cls-7" d="M203.57,49.35a12.52,12.52,0,0,0-3.48,3.87A13.24,13.24,0,0,0,198.52,59a55.46,55.46,0,0,1-3.22,14.72,22.31,22.31,0,0,1-10.91,10.81,24.61,24.61,0,0,1-20.74-1.1A31.86,31.86,0,0,1,169,60.73C176.35,50.6,190,46.08,203.57,49.35Z"/><path id="Path_12365-2-2" data-name="Path 12365-2-2" class="cls-7" d="M158.38,6.14a3.38,3.38,0,0,1-.79-1.87,3.81,3.81,0,0,1,.29-2.33c1.67-3.07,7.47-2.32,8.32,1C167.12,6.62,160.52,8.34,158.38,6.14Z"/><path id="Path_12366-2-2" data-name="Path 12366-2-2" class="cls-14" d="M178.11,89.77a2.08,2.08,0,0,1-.7-2,.28.28,0,0,1,0-.18.27.27,0,0,1,.17-.1,1.19,1.19,0,0,1,1,.26c.52.42,2,2.23,1.81,3C180.17,91.81,178.53,90.21,178.11,89.77Z"/></g></g></g></svg>