<svg xmlns="http://www.w3.org/2000/svg" viewBox="0 0 228 124"><defs><style>.cls-1{fill:#fff;}.cls-2{fill:#bcbcbc;}.cls-3{fill:#5b5b5b;}.cls-4{fill:#494949;}.cls-5{fill:#757575;}.cls-6{fill:#898989;}.cls-7{fill:#58595b;}.cls-8{fill:none;}</style></defs><title>iste</title><g id="Layer_2" data-name="Layer 2"><g id="Layer_1-2" data-name="Layer 1"><g id="Group_11353" data-name="Group 11353"><g id="badge_4" data-name="badge 4"><g id="Group_11099" data-name="Group 11099"><g id="Group_11098" data-name="Group 11098"><g id="Group_11096" data-name="Group 11096"><g id="Group_11087" data-name="Group 11087"><path id="Path_12848" data-name="Path 12848" class="cls-1" d="M158,6.17A6.19,6.19,0,0,0,151.82,0H78.18A6.19,6.19,0,0,0,72,6.17V117.83A6.19,6.19,0,0,0,78.18,124h73.64a6.19,6.19,0,0,0,6.17-6.17Z"/><g id="Path_12849" data-name="Path 12849"><path class="cls-2" d="M151.82,1A5.22,5.22,0,0,1,157,6.17V117.83a5.22,5.22,0,0,1-5.19,5.19H78.18A5.22,5.22,0,0,1,73,117.83V6.17A5.22,5.22,0,0,1,78.18,1h73.64m0-1H78.18A6.19,6.19,0,0,0,72,6.17V117.83A6.19,6.19,0,0,0,78.18,124h73.64a6.19,6.19,0,0,0,6.17-6.17V6.17A6.19,6.19,0,0,0,151.82,0Z"/></g></g><g id="Group_11090" data-name="Group 11090"><g id="Group_11088" data-name="Group 11088"><path id="Path_12850" data-name="Path 12850" class="cls-3" d="M51,62.82H72V43.64H51l3.78,9.59Z"/><path id="Path_12851" data-name="Path 12851" class="cls-4" d="M72,63.46l-11.32,5V48.67l11.32-5Z"/></g><g id="Group_11089" data-name="Group 11089"><path id="Path_12852" data-name="Path 12852" class="cls-3" d="M179,62.82H158V43.64h21l-3.76,9.59Z"/><path id="Path_12853" data-name="Path 12853" class="cls-4" d="M158,63.46l11.33,5V48.67l-11.33-5Z"/></g><path id="Path_12854" data-name="Path 12854" class="cls-5" d="M169.46,48.67V68.8h-.05s0,0-.13,0l-.13.05c-.05,0-.08,0-.16.06-18.35,8.52-37.23,11-54,10.7h0C98.29,80,79.47,77.51,61.16,69L61,69a.39.39,0,0,1-.15-.06s-.08,0-.13-.05l-.13,0h0V48.67h0a.24.24,0,0,0,.13,0s.08,0,.13.05A160.35,160.35,0,0,0,115,59.53h0A160.68,160.68,0,0,0,168.81,48.9l.18-.07a.44.44,0,0,0,.16-.06.69.69,0,0,0,.13-.05l.13,0Z"/></g><g id="Group_11091" data-name="Group 11091"><path id="Path_12855" data-name="Path 12855" class="cls-1" d="M79,61.66a1.66,1.66,0,0,0-1-.94,1.14,1.14,0,0,0-1.42.74l0,.12c-.23.73.16,1.19.75,1.76a2.77,2.77,0,0,1,1.07,3.06,2.52,2.52,0,0,1-3,1.91l-.24-.07a3.24,3.24,0,0,1-2-1.69l1.12-.83a2,2,0,0,0,1.24,1.17,1.14,1.14,0,0,0,1.4-.78l0-.11c.23-.72-.19-1.27-.83-1.89a2.63,2.63,0,0,1-1-3,2.48,2.48,0,0,1,3-1.88l.24.07a2.77,2.77,0,0,1,1.79,1.45Z"/><path id="Path_12856" data-name="Path 12856" class="cls-1" d="M80.72,66.63c-.23,1,0,1.87.65,2a1.1,1.1,0,0,0,1.16-.57l.89.86a2.17,2.17,0,0,1-2.39.91c-1.45-.37-2.12-1.82-1.58-3.94s1.82-3.11,3.24-2.75c1.61.42,1.87,1.92,1.43,3.73l-.13.52Zm1.68-2.31c-.7-.18-1.24.73-1.4,1.32l1.92.47c.21-.9.11-1.63-.52-1.78Z"/><path id="Path_12857" data-name="Path 12857" class="cls-1" d="M87.48,70.1a1.4,1.4,0,0,1-1.66.81,1.69,1.69,0,0,1-1.27-2,.66.66,0,0,1,.06-.2c.36-1.79,1.87-1.92,3.06-1.68l.33.07.06-.2c.15-.83-.13-1.27-.71-1.38a1.43,1.43,0,0,0-1.27.39l-.49-1a2.53,2.53,0,0,1,2.13-.52c1.55.31,1.89,1.42,1.53,3.18l-.75,3.76-1.17-.23.15-1Zm.34-2L87.41,68c-.68-.13-1.38-.08-1.56.82-.13.65.13,1,.52,1.12.75.15,1.22-.75,1.38-1.5Z"/><path id="Path_12858" data-name="Path 12858" class="cls-1" d="M90.05,71.55l1.53-9.43,1.42.24-1.52,9.43Z"/><path id="Path_12859" data-name="Path 12859" class="cls-1" d="M97.72,72.82c-1.53-.15-2.3-1.66-2.1-3.68s1.3-3.34,2.83-3.16,2.31,1.63,2.1,3.71S99.25,73,97.72,72.82Zm.6-5.6c-.73-.07-1.14.86-1.27,2.08s.08,2.2.8,2.28,1.17-.86,1.3-2.08-.11-2.19-.83-2.27Z"/><path id="Path_12860" data-name="Path 12860" class="cls-1" d="M104.85,64.61a.9.9,0,0,0-.36-.08c-.62,0-.83.57-.89,1.19l0,.91,1,.08-.08,1.14-1-.08-.37,5.29-1.4-.11.37-5.28-.81,0,.08-1.14.81,0,.07-.94c.11-1.37.73-2.38,2.15-2.3a3.93,3.93,0,0,1,.68.15Z"/><path id="Path_12861" data-name="Path 12861" class="cls-1" d="M111.43,73.37,111,71.48l-2.36,0-.5,1.89-1.52,0L109,64.4l2,0,2,9ZM110,65.83h0l-1,4.4,2,0Z"/><path id="Path_12862" data-name="Path 12862" class="cls-1" d="M113.82,73.34l0-9.56h1.45l0,9.56Z"/><path id="Path_12863" data-name="Path 12863" class="cls-1" d="M117.4,65.93a.84.84,0,0,1-.84-.83.43.43,0,0,1,0,0,.87.87,0,0,1,.83-.91.9.9,0,0,1,0,1.79Zm-.7,7.44V66.92h1.42v6.45Z"/><path id="Path_12864" data-name="Path 12864" class="cls-1" d="M121.78,76.35a3.24,3.24,0,0,1-2.31-.89l.75-1a2.13,2.13,0,0,0,1.48.67c1,0,1.22-.86,1.19-1.89l0-.78h0a1.51,1.51,0,0,1-1.38,1.06c-1.38.05-2.12-1.38-2.17-3.31s.64-3.45,2-3.5a1.36,1.36,0,0,1,1.45,1.09h0l0-.91,1.38,0,.18,6.27C124.34,75,123.64,76.3,121.78,76.35Zm-.08-8.45c-.75,0-1,1-1,2.2s.39,2.18,1.11,2.18,1-1,1-2.23-.38-2.17-1.11-2.15Z"/><path id="Path_12865" data-name="Path 12865" class="cls-1" d="M126.91,66.63l.08,1h0a1.73,1.73,0,0,1,1.51-1.35c1.4-.1,1.73,1.17,1.84,2.49l.31,4-1.43.11-.31-4.05c-.05-.64-.21-1.37-.88-1.32s-1,.81-.91,1.76l.28,3.74-1.42.1-.49-6.43Z"/><path id="Path_12866" data-name="Path 12866" class="cls-1" d="M134.51,65.65a1.45,1.45,0,0,1,1.65,1h0a1.78,1.78,0,0,1,1.5-1.45c1.4-.18,1.82,1.06,2,2.36l.54,4-1.42.21-.55-4c-.07-.65-.28-1.35-1-1.27s-.93.86-.8,1.81L137,72l-1.4.18-.54-4c-.08-.64-.29-1.34-1-1.27s-.91.86-.78,1.82l.52,3.7-1.4.18-.89-6.37,1.4-.18.13,1h0A1.57,1.57,0,0,1,134.51,65.65Z"/><path id="Path_12867" data-name="Path 12867" class="cls-1" d="M142.49,68.21c.21,1,.75,1.71,1.48,1.58a1.08,1.08,0,0,0,.8-1l1.14.39A2.17,2.17,0,0,1,144.15,71c-1.45.29-2.7-.72-3.14-2.85s.29-3.58,1.74-3.86c1.63-.34,2.51.93,2.9,2.74l.11.55Zm.49-2.8c-.72.16-.8,1.2-.7,1.79l1.95-.39c-.19-.93-.6-1.52-1.25-1.4Z"/><path id="Path_12868" data-name="Path 12868" class="cls-1" d="M147.47,63.44l.25,1h0A1.72,1.72,0,0,1,149,62.82c1.35-.36,1.92.83,2.26,2.13l1,3.91-1.38.36-1-3.91c-.15-.65-.44-1.29-1.11-1.14s-.83,1-.6,1.89l.93,3.6-1.37.37-1.61-6.25Z"/><path id="Path_12869" data-name="Path 12869" class="cls-1" d="M153.74,62.82l1,3.16c.21.68.49.91.9.78a.81.81,0,0,0,.39-.23l.34,1.06a2.37,2.37,0,0,1-.83.44c-1,.31-1.68-.21-2-1.35l-1.06-3.47-.78.23-.31-1.06.78-.23-.5-1.58,1.27-.39.47,1.58,1.09-.34.31,1.07Z"/></g><g id="Group_11095" data-name="Group 11095"><g id="Group_11092" data-name="Group 11092"><path id="Path_12870" data-name="Path 12870" class="cls-4" d="M91.24,11.37V25a32.36,32.36,0,0,0,4.83,2.39v-16H91.24Z"/><path id="Path_12871" data-name="Path 12871" class="cls-6" d="M107.91,30.37a5.54,5.54,0,0,1-2.13.95,10.32,10.32,0,0,1-2.82.39A11.6,11.6,0,0,1,98.84,31a9,9,0,0,1-2.78-1.6v1.83H91.24v-5.1a34.28,34.28,0,0,0,4.92,2.28A32,32,0,0,0,107.91,30.37Z"/><path id="Path_12872" data-name="Path 12872" class="cls-6" d="M116.57,29.15l-1.12.31v1.76h4.8V28A33.34,33.34,0,0,1,116.57,29.15Z"/><path id="Path_12873" data-name="Path 12873" class="cls-6" d="M130.07,27.13V23h8.25V19.17h-5a29.57,29.57,0,0,1-7.88,6.32v5.73H139.3v-4.1Zm8.56-15.76a35.69,35.69,0,0,1-2.37,4.05h2.52V11.37Z"/><path id="Path_12874" data-name="Path 12874" class="cls-4" d="M137,11.37a24.53,24.53,0,0,1-1.27,2.44c-.28.49-.65,1.11-1,1.61h-4.7v3.75h1.79a29.39,29.39,0,0,1-6.4,5.47V15.46h-5.21l0,11.84a20.5,20.5,0,0,1-3.55,1.25l-1.27.31V15.44h-5.6V14.2l-2.18,2.3a4.85,4.85,0,0,0-3.52-1.71,6,6,0,0,0-1,.08,2.31,2.31,0,0,0-.89.31,1.93,1.93,0,0,0-.65.62,1.72,1.72,0,0,0-.26,1,1.6,1.6,0,0,0,.21.83,1.78,1.78,0,0,0,.62.6,6,6,0,0,0,1,.46l1.27.44c.68.24,1.38.47,2.1.75a8.25,8.25,0,0,1,2,1.09A5.73,5.73,0,0,1,110,22.59a4.9,4.9,0,0,1,.59,2.49,6.52,6.52,0,0,1-.62,3,4.5,4.5,0,0,1-1.19,1.63c-1.17,0-2.7-.1-3.89-.2a31.82,31.82,0,0,1-8.06-1.87l1.91-1.95a6.12,6.12,0,0,0,1.92,1.51,5.39,5.39,0,0,0,2.37.59,4.5,4.5,0,0,0,1-.1,3.14,3.14,0,0,0,.89-.36,1.79,1.79,0,0,0,.6-.68,2.08,2.08,0,0,0,.23-1,1.72,1.72,0,0,0-.29-1,3.06,3.06,0,0,0-.8-.72,6.14,6.14,0,0,0-1.3-.6c-.51-.18-1.09-.36-1.76-.57A14.2,14.2,0,0,1,99.8,22a6.79,6.79,0,0,1-1.63-1.08A5.19,5.19,0,0,1,97,19.32,5.42,5.42,0,0,1,96.59,17a5.54,5.54,0,0,1,.67-2.82,6.09,6.09,0,0,1,1.76-2,8,8,0,0,1,2.46-1.11,11.35,11.35,0,0,1,2.78-.37,10.62,10.62,0,0,1,3.44.63,8.43,8.43,0,0,1,2.21,1.14V11.31Z"/></g><g id="Group_11093" data-name="Group 11093"><rect id="Rectangle_1592" data-name="Rectangle 1592" class="cls-4" x="91.3" y="34.3" width="48.08" height="0.18"/></g><path id="Path_12875" data-name="Path 12875" class="cls-4" d="M139.74,30.21a1.15,1.15,0,0,1,.08-.41.89.89,0,0,1,.23-.34,1.08,1.08,0,0,1,.34-.21,1.19,1.19,0,0,1,.83,0,1,1,0,0,1,.57.55,1.15,1.15,0,0,1,.08.41,1,1,0,0,1-.08.39,1,1,0,0,1-.23.34.9.9,0,0,1-.34.2,1,1,0,0,1-.42.08,1.15,1.15,0,0,1-.41-.08,1.68,1.68,0,0,1-.34-.2,1.85,1.85,0,0,1-.23-.34A1,1,0,0,1,139.74,30.21Zm.16,0a.68.68,0,0,0,.08.34.84.84,0,0,0,.18.28.57.57,0,0,0,.28.18.74.74,0,0,0,.68,0,.8.8,0,0,0,.46-.46.74.74,0,0,0,0-.68.8.8,0,0,0-.46-.46.74.74,0,0,0-.68,0,.77.77,0,0,0-.46.46A.68.68,0,0,0,139.9,30.21Zm.46-.6h.42a.37.37,0,0,1,.15,0,.19.19,0,0,1,.13.05.2.2,0,0,1,.11.11.25.25,0,0,1,0,.15.27.27,0,0,1-.07.21.41.41,0,0,1-.21.1l.31.52H141l-.29-.49h-.15v.49h-.21V29.61Zm.39.52a.35.35,0,0,0,.18,0,.15.15,0,0,0,.07-.2.13.13,0,0,0-.07-.06.37.37,0,0,0-.15,0h-.18v.34h.15Z"/><g id="Group_11094" data-name="Group 11094"><path id="Path_12876" data-name="Path 12876" class="cls-5" d="M95.62,39.12a1.75,1.75,0,0,0-1.27-.62c-.44,0-1,.16-1,.7s.41.62,1.09.83c1,.31,2.2.72,2.2,2.12A2.39,2.39,0,0,1,94,44.52a3.77,3.77,0,0,1-2.65-1l1.12-1.14a2,2,0,0,0,1.53.75c.51,0,1-.21,1-.78s-.54-.7-1.48-1-1.81-.75-1.81-2c0-1.58,1.42-2.23,2.75-2.23a3.43,3.43,0,0,1,2.3.89Z"/><path id="Path_12877" data-name="Path 12877" class="cls-5" d="M99.43,40.6v1.89c0,.47.16.7.63.7a1.4,1.4,0,0,0,.49-.08l0,1.19a2.83,2.83,0,0,1-.95.16,1.55,1.55,0,0,1-1.77-1.28,1.93,1.93,0,0,1,0-.48V40.6h-.8V39.38h.78V38.09h1.6v1.29h1.17V40.6Z"/><path id="Path_12878" data-name="Path 12878" class="cls-5" d="M101.4,40.05a3.28,3.28,0,0,1,2.23-.82c1.66,0,2.28.82,2.28,2.61v2.52h-1.5v-.52h0a1.71,1.71,0,0,1-1.4.65,1.64,1.64,0,0,1-1.81-1.43s0-.09,0-.13c0-1.42,1.74-1.68,3.19-1.68v-.08c0-.49-.39-.73-.91-.73a1.88,1.88,0,0,0-1.22.52Zm3,2.13h-.21c-.72,0-1.53.08-1.53.67,0,.39.39.52.7.52a1,1,0,0,0,1-.85.85.85,0,0,0,0-.16v-.18Z"/><path id="Path_12879" data-name="Path 12879" class="cls-5" d="M110.4,44.36V41.64c0-.55-.16-1-.75-1a.94.94,0,0,0-.89,1.06v2.7h-1.65v-5h1.58v.7h0a1.72,1.72,0,0,1,1.48-.83A1.79,1.79,0,0,1,112,41a2.62,2.62,0,0,1,0,.28v3.08H110.4Z"/><path id="Path_12880" data-name="Path 12880" class="cls-5" d="M117,44.36v-.65h0a2,2,0,0,1-1.63.78,2.64,2.64,0,0,1,0-5.26,2,2,0,0,1,1.53.67h0V36.79h1.63v7.54H117Zm-1.25-3.79a1.29,1.29,0,0,0,0,2.57A1.2,1.2,0,0,0,117,41.92v-.05a1.24,1.24,0,0,0-1.19-1.3Z"/><path id="Path_12881" data-name="Path 12881" class="cls-5" d="M119.76,40.05a3.24,3.24,0,0,1,2.23-.82c1.65,0,2.28.82,2.28,2.61v2.52h-1.51v-.52h0a1.69,1.69,0,0,1-1.4.65,1.64,1.64,0,0,1-1.81-1.43s0-.09,0-.13c0-1.42,1.74-1.68,3.19-1.68v-.08c0-.49-.39-.73-.91-.73a1.83,1.83,0,0,0-1.21.52Zm3,2.13h-.2c-.73,0-1.53.08-1.53.67,0,.39.39.52.7.52a.94.94,0,0,0,1-.85.43.43,0,0,0,0-.16v-.18Z"/><path id="Path_12882" data-name="Path 12882" class="cls-5" d="M128.73,40.7a1.21,1.21,0,0,0-.42-.05,1.14,1.14,0,0,0-1.17,1.09v2.61h-1.63v-5h1.58v.73h0a1.52,1.52,0,0,1,1.35-.86.74.74,0,0,1,.33,0Z"/><path id="Path_12883" data-name="Path 12883" class="cls-5" d="M133.24,44.36v-.65h0a2,2,0,0,1-1.63.78,2.64,2.64,0,0,1,0-5.26,2,2,0,0,1,1.53.67h0V36.79h1.64v7.54h-1.53ZM132,40.57a1.17,1.17,0,0,0-1.17,1.17v.1a1.19,1.19,0,0,0,1.09,1.29H132a1.22,1.22,0,0,0,1.19-1.25v0a1.24,1.24,0,0,0-1.19-1.3Z"/><path id="Path_12884" data-name="Path 12884" class="cls-5" d="M139,40.83a1.56,1.56,0,0,0-1-.44c-.31,0-.62.1-.62.39s.26.36.9.49,1.59.55,1.59,1.53c0,1.27-1.12,1.71-2.13,1.71a3.12,3.12,0,0,1-2.18-.78l.91-.95a1.75,1.75,0,0,0,1.22.56c.26,0,.59-.1.59-.44s-.31-.41-1-.57-1.45-.51-1.45-1.45c0-1.19,1.11-1.65,2.07-1.65a2.89,2.89,0,0,1,2,.7Z"/></g></g></g><g id="Group_11097" data-name="Group 11097"><path id="Path_12885" data-name="Path 12885" class="cls-5" d="M103.45,87.47a1.2,1.2,0,0,0-.93-.44.84.84,0,0,0-.86.84V88c0,.57.39.83.94,1.09A2.11,2.11,0,0,1,104.05,91a1.9,1.9,0,0,1-1.75,2h-.17a2.31,2.31,0,0,1-1.79-.78l.62-.83a1.48,1.48,0,0,0,1.17.57.84.84,0,0,0,.83-.86v-.07c0-.57-.42-.89-1-1.17A2,2,0,0,1,100.6,88a1.85,1.85,0,0,1,1.72-2h.17a2,2,0,0,1,1.58.65Z"/><path id="Path_12886" data-name="Path 12886" class="cls-5" d="M106,88.87v2.48c0,.52.15.76.49.76a1,1,0,0,0,.34-.08l0,.83a1.7,1.7,0,0,1-.67.13c-.81,0-1.17-.52-1.17-1.4V88.87h-.6V88h.6V86.8h1V88h.86v.83Z"/><path id="Path_12887" data-name="Path 12887" class="cls-5" d="M110,92.88v-.77h0a1.28,1.28,0,0,1-1.19.93c-1.06,0-1.24-1-1.24-2V88h1.06v3c0,.49.08,1,.6,1s.77-.52.77-1.27V88h1.07v4.82h-1Z"/><path id="Path_12888" data-name="Path 12888" class="cls-5" d="M114.7,92.88v-.7h0a1.07,1.07,0,0,1-1.09.86c-1,0-1.56-1.14-1.56-2.62s.55-2.54,1.56-2.54a1.13,1.13,0,0,1,1.06.78h0v-3h1.06v7.15h-1Zm-.78-4.06c-.57,0-.8.72-.8,1.65s.23,1.64.8,1.64.81-.73.81-1.64S114.44,88.82,113.92,88.82Z"/><path id="Path_12889" data-name="Path 12889" class="cls-5" d="M117.76,90.74c0,.75.31,1.37.86,1.37.38,0,.59-.28.75-.62l.78.47a1.63,1.63,0,0,1-1.59,1.09c-1.11,0-1.87-.94-1.87-2.57s.75-2.59,1.84-2.59c1.25,0,1.72,1.06,1.72,2.44v.41Zm.8-2c-.54,0-.77.75-.77,1.22h1.47c0-.73-.23-1.22-.69-1.22Z"/><path id="Path_12890" data-name="Path 12890" class="cls-5" d="M122.27,88.06v.78h0a1.27,1.27,0,0,1,1.19-.93c1.06,0,1.24,1,1.24,2v3h-1.06v-3c0-.49-.08-1-.6-1s-.77.55-.77,1.27v2.8h-1.07V88.09h1Z"/><path id="Path_12891" data-name="Path 12891" class="cls-5" d="M127,88.87v2.48c0,.52.16.76.49.76a1,1,0,0,0,.34-.08l0,.83a1.79,1.79,0,0,1-.68.13c-.8,0-1.17-.52-1.17-1.4V88.87h-.59V88h.6V86.8h1V88h.85v.83Z"/><path id="Path_12892" data-name="Path 12892" class="cls-5" d="M100.52,97a1.2,1.2,0,0,0-.93-.44.85.85,0,0,0-.86.84v.09c0,.57.39.83.94,1.09a2.12,2.12,0,0,1,1.45,1.94,1.91,1.91,0,0,1-1.75,2H99.2a2.31,2.31,0,0,1-1.79-.78l.62-.83a1.49,1.49,0,0,0,1.17.57.83.83,0,0,0,.83-.86v-.07c0-.57-.42-.88-1-1.17a2,2,0,0,1-1.35-1.91,1.86,1.86,0,0,1,1.72-2h.17a2,2,0,0,1,1.58.65Z"/><path id="Path_12893" data-name="Path 12893" class="cls-5" d="M103,98.35v2.49c0,.51.15.75.49.75a.81.81,0,0,0,.34-.08l0,.83a1.7,1.7,0,0,1-.67.13c-.81,0-1.17-.52-1.17-1.4V98.35h-.59v-.83h.59V96.28h1v1.24h.86v.83Z"/><path id="Path_12894" data-name="Path 12894" class="cls-5" d="M106.77,101.64a1.06,1.06,0,0,1-1.11.86c-.55,0-1.22-.39-1.22-1.45,0-1.38,1.09-1.69,2-1.69h.26v-.15c0-.63-.28-.91-.7-.91a1.08,1.08,0,0,0-.88.47l-.52-.68a2,2,0,0,1,1.47-.7c1.2,0,1.61.78,1.61,2.13v2.87h-.89l0-.75Zm0-1.55h-.31c-.52,0-1,.15-1,.85,0,.49.25.75.54.75.57,0,.78-.72.78-1.29Z"/><path id="Path_12895" data-name="Path 12895" class="cls-5" d="M109.88,97.52v.78h0a1.26,1.26,0,0,1,1.19-.93c1.06,0,1.24.95,1.24,2v3h-1.06v-3c0-.49-.08-1-.6-1s-.77.54-.77,1.27v2.79h-1.07V97.54h1Z"/><path id="Path_12896" data-name="Path 12896" class="cls-5" d="M116,102.37v-.7h0a1.06,1.06,0,0,1-1.09.85c-1,0-1.56-1.14-1.56-2.61s.55-2.54,1.56-2.54a1.12,1.12,0,0,1,1.06.77h0v-3H117v7.15h-1Zm-.8-4.07c-.57,0-.8.72-.8,1.66s.23,1.63.8,1.63.8-.72.8-1.63-.26-1.66-.8-1.66Z"/><path id="Path_12897" data-name="Path 12897" class="cls-5" d="M120.22,101.64a1.06,1.06,0,0,1-1.11.86c-.55,0-1.22-.39-1.22-1.45,0-1.38,1.09-1.69,2-1.69h.25v-.15c0-.63-.28-.91-.7-.91a1.08,1.08,0,0,0-.88.47l-.52-.68a2,2,0,0,1,1.48-.7c1.19,0,1.6.78,1.6,2.13v2.87h-.88l0-.75Zm0-1.55h-.31c-.52,0-1,.15-1,.85,0,.49.26.75.55.75.57,0,.78-.72.78-1.29Z"/><path id="Path_12898" data-name="Path 12898" class="cls-5" d="M124.4,97.37a.26.26,0,0,1,.15,0l0,1.09-.23,0c-.57,0-.89.75-.89,1.48v2.44H122.3V97.54h1.06v.94h0C123.54,97.75,123.9,97.37,124.4,97.37Z"/><path id="Path_12899" data-name="Path 12899" class="cls-5" d="M127.64,102.37v-.7h0a1.05,1.05,0,0,1-1.09.85c-1,0-1.55-1.14-1.55-2.61s.54-2.54,1.55-2.54a1.1,1.1,0,0,1,1.06.77h0v-3h1.06v7.15h-1Zm-.81-4.07c-.57,0-.8.72-.8,1.66s.23,1.63.8,1.63.81-.72.81-1.63-.26-1.66-.8-1.66Z"/><path id="Path_12900" data-name="Path 12900" class="cls-5" d="M132,98.61a.94.94,0,0,0-.77-.41.55.55,0,0,0-.57.56v0c0,.39.2.49.7.67a1.46,1.46,0,0,1,1.14,1.46,1.49,1.49,0,0,1-1.39,1.57h-.17a2,2,0,0,1-1.5-.68l.57-.67a1.25,1.25,0,0,0,.93.49c.36,0,.57-.26.57-.65s-.31-.59-.8-.78a1.35,1.35,0,0,1-1-1.37,1.46,1.46,0,0,1,1.42-1.48h.08a1.88,1.88,0,0,1,1.38.57Z"/><path id="Path_12901" data-name="Path 12901" class="cls-7" d="M97.7,113.74V108.2h0l-1.5,5.54h-.78l-1.48-5.54h0v5.54h-.78V107h1.24l1.43,5.31h0l1.4-5.31H98.5v6.71Z"/><path id="Path_12902" data-name="Path 12902" class="cls-7" d="M102,113.74a5.16,5.16,0,0,1-.08-.78h0a1.06,1.06,0,0,1-1.12.91,1.24,1.24,0,0,1-1.18-1.28s0-.08,0-.12c0-1.38,1.08-1.66,1.91-1.66h.31v-.21c0-.75-.31-1.06-.77-1.06a1.13,1.13,0,0,0-.89.49l-.41-.49a1.79,1.79,0,0,1,1.37-.67c1.09,0,1.46.72,1.46,2v1.92a5.32,5.32,0,0,0,.07,1H102Zm-.13-2.36h-.36c-.57,0-1.14.18-1.14,1,0,.57.28.85.62.85.65,0,.89-.88.89-1.53Z"/><path id="Path_12903" data-name="Path 12903" class="cls-7" d="M105.66,108.82h.1l0,.85-.15,0c-.6,0-.94.85-.94,1.68v2.41h-.8v-3.55c0-.38,0-.85,0-1.19h.78c0,.31,0,.68,0,1h0C104.8,109.18,105.19,108.82,105.66,108.82Z"/><path id="Path_12904" data-name="Path 12904" class="cls-7" d="M106.54,113.79a.52.52,0,0,1-.52-.52v0a.53.53,0,0,1,1.06-.08v.08a.54.54,0,0,1-.5.57Z"/><path id="Path_12905" data-name="Path 12905" class="cls-7" d="M112.32,111l-1.48,2h2.41v.75H109.9V113l1.87-2.54a2.8,2.8,0,0,0,.7-1.63c0-.59-.28-1.11-.85-1.11s-.86.36-1,1l-.81-.08a1.77,1.77,0,0,1,1.82-1.66,1.64,1.64,0,0,1,1.67,1.6,1.62,1.62,0,0,1,0,.22A3.89,3.89,0,0,1,112.32,111Z"/><path id="Path_12906" data-name="Path 12906" class="cls-7" d="M116.15,113.84c-1.55,0-1.89-1.91-1.89-3.47s.34-3.47,1.89-3.47,1.9,1.92,1.9,3.47S117.71,113.84,116.15,113.84Zm0-6.19c-.93,0-1,1.79-1,2.72s.1,2.72,1,2.72,1-1.76,1-2.72-.1-2.72-1-2.72Z"/><path id="Path_12907" data-name="Path 12907" class="cls-7" d="M120.48,113.74V108l-1.19.91-.39-.67,1.63-1.22h.78v6.71Z"/><path id="Path_12908" data-name="Path 12908" class="cls-7" d="M124.6,106.9c1.17,0,1.9.86,1.9,2.2A4.6,4.6,0,0,1,126,111l-1.37,2.72h-.91l1.48-2.8h0a1.22,1.22,0,0,1-.8.26c-.7,0-1.66-.47-1.66-2.07a1.94,1.94,0,0,1,1.62-2.21Zm0,3.6c.65,0,1.06-.62,1.06-1.45s-.39-1.45-1-1.45-1,.62-1,1.48.33,1.42,1,1.42Z"/><path id="Path_12909" data-name="Path 12909" class="cls-7" d="M127.17,111.54v-.65h1.5v.65Z"/><path id="Path_12910" data-name="Path 12910" class="cls-7" d="M131.6,111l-1.48,2h2.42v.75h-3.35V113l1.87-2.54a2.86,2.86,0,0,0,.7-1.63c0-.59-.29-1.11-.86-1.11s-.85.36-1,1l-.8-.08A1.77,1.77,0,0,1,131,107a1.64,1.64,0,0,1,1.66,1.82A3.83,3.83,0,0,1,131.6,111Z"/><path id="Path_12911" data-name="Path 12911" class="cls-7" d="M135.31,113.74V108l-1.19.91-.39-.67,1.63-1.22h.78v6.71Z"/></g></g></g></g><rect id="Rectangle_1936" data-name="Rectangle 1936" class="cls-8" width="228" height="124"/></g></g></g></svg>