<svg xmlns="http://www.w3.org/2000/svg" viewBox="0 0 228 72"><defs><style>.cls-1{fill:none;}.cls-2,.cls-3,.cls-4{fill:#334354;}.cls-3{opacity:0.4;}.cls-3,.cls-4{isolation:isolate;}.cls-4{opacity:0.7;}</style></defs><title>metro-nashville</title><g id="Layer_2" data-name="Layer 2"><g id="Layer_1-2" data-name="Layer 1"><rect id="Rectangle_1559" data-name="Rectangle 1559" class="cls-1" width="228" height="72"/><g id="Group_11447" data-name="Group 11447"><g id="Group_11448" data-name="Group 11448"><g id="Group_11447-2" data-name="Group 11447-2"><path id="Path_13668" data-name="Path 13668" class="cls-2" d="M109.33,12.53q-1.14,2.55-2.29,5.1a5,5,0,0,1-.55,1,.77.77,0,0,1-1.4-.12c-.67-1.46-1.33-2.93-2-4.42a6.41,6.41,0,0,1-.75-1.56,11.34,11.34,0,0,0-.28,1.73,53.06,53.06,0,0,1-.49,6c-.05.41-.26.53-.64.55s-.42-.26-.4-.54c.17-2,.35-4,.51-6a28.66,28.66,0,0,1,.31-3.58c0-.2-.07-.54.27-.52s.74-.25,1,.25c.61,1.37,1.32,2.7,1.86,4.1a11.86,11.86,0,0,1,1.17,2.8c0,.11.1.17.19.12a.47.47,0,0,0,.24-.22c.73-2.08,1.88-4,2.6-6.07a5.19,5.19,0,0,1,.42-.77c.25-.42.67-.25,1-.23s.23.39.26.61c.29,2.4.42,4.81.6,7.22.07.82.18,1.65.22,2.48,0,.34-.1.53-.47.51s-.69,0-.67-.47a34.13,34.13,0,0,0-.3-3.51c-.07-1.47-.21-2.94-.32-4.4Z"/><path id="Path_13669" data-name="Path 13669" class="cls-2" d="M155.29,53.41a5.47,5.47,0,0,0-5.56,4.94,5.58,5.58,0,0,0,11.09,1.25l0-.4a5.45,5.45,0,0,0-5.1-5.78Zm4.3,5.47c-.08,2.81-2,4.77-4.8,4.53a4.33,4.33,0,0,1-3.88-4.74l0-.21a4.07,4.07,0,0,1,4.16-4l.29,0a4.23,4.23,0,0,1,4.2,4.26v.11Z"/><path id="Path_13670" data-name="Path 13670" class="cls-2" d="M141.1,53.42c-3.2-.28-5.46,2.69-5.57,5.11a5.74,5.74,0,0,0,5.31,6,5.6,5.6,0,0,0,5.79-5.4c0-.12,0-.25,0-.38a5.28,5.28,0,0,0-5.19-5.37Zm0,10.06a4.66,4.66,0,0,1-4.39-4.71A4.4,4.4,0,0,1,141,54.39a4.22,4.22,0,0,1,4.37,4.07c0,.17,0,.33,0,.49.32,2.38-2.34,4.56-4.23,4.53Z"/><path id="Path_13671" data-name="Path 13671" class="cls-2" d="M129.65,44.54c-.56-.4-.42-.61,0-1a2.53,2.53,0,0,0,0-3.5,3.28,3.28,0,0,0-2.35-1c-1,0-2,0-3,0-.51,0-.69.16-.68.68,0,1.6,0,3.19,0,4.79h0v4.79c0,.32,0,.64.48.63,1.22,0,2.45,0,3.68,0a3,3,0,0,0,1.42-.4,3,3,0,0,0,.45-4.91Zm-4.9-2.5c0-.23,0-.27,0-.32.07-.52-.26-1.18.13-1.52s1-.05,1.54-.09c.32,0,.65,0,1,0a1.78,1.78,0,0,1,1.75,1.7,2,2,0,0,1-1.64,1.87c-.78,0-1.56,0-2.35,0-.37,0-.42-.2-.43-.48V42.05ZM128,48.72c-.87.08-1.74.1-2.61.16-.49,0-.67-.2-.65-.66s0-1,0-1.45h0c0-.51,0-1,0-1.52s.14-.49.49-.49c.88,0,1.76,0,2.63,0a1.75,1.75,0,0,1,1.62,1.76,1.79,1.79,0,0,1-1.34,2.14l-.15,0Z"/><path id="Path_13672" data-name="Path 13672" class="cls-2" d="M152.13,10a5.25,5.25,0,0,0-5.63,4.85,3.75,3.75,0,0,0,0,.58c.12,3.45,2.14,5.56,5.52,5.7a5.46,5.46,0,0,0,5.54-5.39v-.26C157.47,12.51,155.61,10,152.13,10Zm-.19,10.07a4.45,4.45,0,0,1-4.21-4.67A4.29,4.29,0,0,1,151.85,11H152a4.44,4.44,0,0,1,4.4,4.48v.06A4.67,4.67,0,0,1,152,20.08Z"/><path id="Path_13673" data-name="Path 13673" class="cls-2" d="M143.15,20.05c-.6-1.1-1.21-2.2-1.82-3.29-.15-.27-.32-.6,0-.76a3,3,0,0,0,1.58-2.19,3.05,3.05,0,0,0-1.64-3.45,8.47,8.47,0,0,0-2.7-.26c-.65,0-1.21,0-1.76,0s-.76.2-.76.74c0,1.43.09,2.86,0,4.29-.09,1.75,0,3.49,0,5.23,0,.42.11.63.59.6s.56-.27.55-.67c0-1.07,0-2.13,0-3.19,0-.2-.07-.54.14-.56a9.36,9.36,0,0,1,2.48,0c.16,0,.14.22.2.34.66,1.19,1.36,2.35,1.93,3.59a.9.9,0,0,0,1.17.45l.05,0C143.66,20.7,143.29,20.32,143.15,20.05Zm-3.09-4.73c-.8.09-1.62,0-2.43,0-.39,0-.39-.25-.4-.5,0-.53,0-1.07,0-1.6h0c0-.53,0-1.07,0-1.6s.13-.48.49-.47a18,18,0,0,0,2.08,0,1.79,1.79,0,0,1,1.93,1.6c.11,1.5-.44,2.38-1.67,2.52Z"/><path id="Path_13674" data-name="Path 13674" class="cls-2" d="M108.32,33.26a38.92,38.92,0,0,1,0-4.32,15.78,15.78,0,0,1,.07-3.57c.07-.32.13-.61.52-.6s.41.37.41.66c0,3,0,6,0,9,0,.25.13.63-.25.71a.94.94,0,0,1-1.07-.29c-.7-1-1.34-2-2.09-3-1-1.3-2-2.67-3-4a2,2,0,0,1-.39-.71c0-.17-.19-.37-.37-.35s-.16.29-.16.46c0,2.33,0,4.67,0,7,0,.34.11.79-.46.83-.39,0-.62-.09-.61-.53,0-.6,0-1.2,0-1.8,0-2.43,0-4.85,0-7.28,0-.87.16-1.07.75-1a.38.38,0,0,1,.29.15c.35.47.67,1,1,1.41,1,1.25,1.9,2.63,2.84,4A20.68,20.68,0,0,0,108.32,33.26Z"/><path id="Path_13675" data-name="Path 13675" class="cls-2" d="M123.37,58.87V54.15c0-.4,0-.71.57-.7s.56.32.56.72c0,1.22,0,2.45,0,3.67,0,.47.14.6.59.6,1.67,0,3.33,0,5,0,.47,0,.59-.15.59-.6,0-1.2,0-2.4,0-3.6,0-.44.11-.76.64-.77s.48.38.48.72v9.5c0,.35,0,.64-.49.63s-.65-.17-.64-.65c0-1.18,0-2.36,0-3.54,0-.51-.17-.63-.64-.62-1.67,0-3.33,0-5,0-.45,0-.55.16-.54.57,0,1.2,0,2.41,0,3.61,0,.65-.32.59-.75.64s-.38-.38-.38-.6C123.36,62.11,123.37,60.49,123.37,58.87Z"/><path id="Path_13676" data-name="Path 13676" class="cls-2" d="M118.4,20.93h-2.63c-.47,0-.62-.27-.58-.65.18-2.05,0-4.11.08-6.16,0-1.09,0-2.17,0-3.26,0-.54.12-.79.73-.78,1.54,0,3.09,0,4.64,0,.49,0,.68.2.69.62s-.34.51-.71.51c-1.2,0-2.4,0-3.6,0-.42,0-.63.07-.61.55,0,.86,0,1.71,0,2.57,0,.45.18.58.62.56.86,0,1.71,0,2.57,0,.49,0,.91.07.9.67s-.45.54-.85.54c-.86,0-1.71,0-2.57,0-.47,0-.68.12-.67.61q0,1.22,0,2.43c0,.53.19.74.74.72,1.27,0,2.54,0,3.81,0,.38,0,.79,0,.8.54s-.42.57-.84.56Z"/><path id="Path_13677" data-name="Path 13677" class="cls-2" d="M134.8,30V25.4c0-.38,0-.78.54-.79s.55.43.56.82c0,1.18,0,2.36,0,3.53,0,.45.13.61.59.6,1.69,0,3.38,0,5.06,0,.46,0,.55-.23.56-.6l.09-3.46a3.87,3.87,0,0,1,0-.48.5.5,0,0,1,.5-.47c.39,0,.4.27.4.52,0,1.18,0,2.36,0,3.53,0,2,0,3.93,0,5.9,0,.31.12.78-.4.8s-.56-.38-.62-.78a28.12,28.12,0,0,1,0-3.18c0-.62-.13-.86-.88-.8-1.47.11-2.94-.17-4.42-.1-.9,0-.94,0-.94.94s0,2.08,0,3.12c0,.36.13.83-.53.83s-.54-.42-.55-.8Z"/><path id="Path_13678" data-name="Path 13678" class="cls-2" d="M119.54,43.13c0,.95,0,1.9,0,2.84a3.62,3.62,0,0,1-1.38,3.15,4.26,4.26,0,0,1-3.52.9,4.08,4.08,0,0,1-2.44-1.22,3.6,3.6,0,0,1-1-2.36c-.06-2.24,0-4.49,0-6.73,0-.44,0-.73.62-.73s.54.36.54.74v6.17a3.29,3.29,0,0,0,.47,1.75,3.18,3.18,0,0,0,4.14,1,2.56,2.56,0,0,0,1.44-2.41c0-2.08,0-4.16,0-6.24,0-.38-.26-1,.56-1s.57.55.58.95C119.56,41,119.54,42.07,119.54,43.13Z"/><path id="Path_13679" data-name="Path 13679" class="cls-2" d="M107.94,41.57A3.55,3.55,0,0,0,104.72,39c-1,0-2.09,0-3.13,0-.53,0-.72.14-.71.7,0,1.57,0,3.15,0,4.72v4.93c0,.35.06.56.49.53s.67,0,.65-.54c0-1,0-2,0-3,0-.5.07-.71.62-.67s1.3,0,2,0a3.36,3.36,0,0,0,3.43-3.3A3.22,3.22,0,0,0,107.94,41.57Zm-1.28,1.62a1.91,1.91,0,0,1-2,1.39c-.73,0-1.47,0-2.21,0-.34,0-.45-.12-.44-.44,0-.6,0-1.2,0-1.8h0c0-.58,0-1.16,0-1.74,0-.34.08-.5.47-.48.73,0,1.47,0,2.22,0a2.16,2.16,0,0,1,2,3.07Z"/><path id="Path_13680" data-name="Path 13680" class="cls-2" d="M121.29,34.43A28.22,28.22,0,0,1,120,31c-.64-1.95-1.59-3.78-2.14-5.77-.09-.31-.21-.6-.63-.61a.75.75,0,0,0-.87.47c-.23.5-.33,1-.54,1.53-.52,1.22-1,2.46-1.42,3.69-.54,1.41-1,2.85-1.66,4.21-.12.26-.22.59,0,.77a.74.74,0,0,0,.84-.08.81.81,0,0,0,.35-.48c.25-.78.54-1.55.79-2.33.08-.25.2-.49.44-.44a6.11,6.11,0,0,0,1.86-.07,7.7,7.7,0,0,0,1.86.13c.26,0,.33.18.4.38.31.82.67,1.62,1,2.45.18.51.55.68,1,.51S121.43,34.73,121.29,34.43ZM117.75,31H117c-.35,0-.69,0-1,0-.65.06-.72-.34-.56-.78.4-1.09.87-2.15,1.29-3.23a.4.4,0,0,1,.47-.29c.24,0,.35.16.4.4a13.53,13.53,0,0,0,1,2.7C118.91,30.79,118.79,31,117.75,31Z"/><path id="Path_13681" data-name="Path 13681" class="cls-2" d="M115.5,53.44a4.67,4.67,0,0,1,3.2.84c.29.17.69.31.47.75s-.51.27-.85.18a16,16,0,0,0-2.25-.74,4.1,4.1,0,0,0-3.73,1.26A4.6,4.6,0,0,0,111.25,60a4.15,4.15,0,0,0,2.85,3.16,4.38,4.38,0,0,0,4-.62c.18-.12.38-.17.55-.28.4-.29.57.05.79.27s0,.5-.17.61a5.78,5.78,0,0,1-5.09,1.18,9.61,9.61,0,0,1-2.28-1,3.58,3.58,0,0,1-1.42-1.95c-.89-2.39-.74-5.22,1.6-7A4.6,4.6,0,0,1,115.5,53.44Z"/><path id="Path_13682" data-name="Path 13682" class="cls-2" d="M149.2,44.44a5.53,5.53,0,0,1,2.5-4.75,6.24,6.24,0,0,1,3.83-.73,6,6,0,0,1,2.66.91.48.48,0,0,1,.29.6.35.35,0,0,1-.08.13c-.22.3-.37.45-.82.18a5.15,5.15,0,0,0-4.3-.64,4.65,4.65,0,0,0-2.7,3.07,6.09,6.09,0,0,0,0,2.48,4.94,4.94,0,0,0,2.65,3,5.23,5.23,0,0,0,3.9-.32c.31-.14.5-.43.81-.6.46-.25.53.08.77.29s0,.5-.13.59a6.91,6.91,0,0,1-2.2,1.15,5.47,5.47,0,0,1-3.3,0,4.94,4.94,0,0,1-2.8-2A5.64,5.64,0,0,1,149.2,44.44Z"/><path id="Path_13683" data-name="Path 13683" class="cls-2" d="M176.94,53.43a3.56,3.56,0,0,1,2.29.55c.33.18.65.33.46.75a.62.62,0,0,1-.77.42.72.72,0,0,1-.24-.14,3,3,0,0,0-1.94-.49,2.13,2.13,0,0,0-1.06.22,1.61,1.61,0,0,0-1,1.7,1.67,1.67,0,0,0,1.12,1.4c.79.42,1.62.74,2.43,1.14a2.8,2.8,0,0,1,1.58,3.63,2.89,2.89,0,0,1-.86,1.16,3.84,3.84,0,0,1-4.18.39c-.36-.17-.69-.43-1-.59-.66-.31-.41-.59-.17-1,.34-.56.57-.08.81.06,1.1.63,2.22,1.18,3.5.49a1.62,1.62,0,0,0,.88-1.57,2,2,0,0,0-1.25-1.7c-.83-.42-1.7-.73-2.52-1.15A2.85,2.85,0,0,1,173.43,56a3,3,0,0,1,3-2.52Z"/><path id="Path_13684" data-name="Path 13684" class="cls-2" d="M183.64,30V25.53c0-.81.14-.93.93-.94,1.46,0,2.91,0,4.37,0,.31,0,.75-.13.78.42s-.31.65-.76.65c-1.2,0-2.4,0-3.61,0-.53,0-.68.17-.64.68,0,.81,0,1.62,0,2.43s.18,1,.94.84a23,23,0,0,1,2.49-.05c.28,0,.5,0,.48.4s-.19.47-.53.46c-.95,0-1.9,0-2.84,0-.45,0-.58.16-.58.56,0,1,0,2,0,3,0,.49.2.56.69.55,1.42,0,2.84,0,4.26.07a.29.29,0,0,1,.32.2.38.38,0,0,1-.15.36.9.9,0,0,1-.7.24c-1.62,0-3.23,0-4.85,0-.53,0-.67-.27-.67-.74,0-1.53,0-3,0-4.58Z"/><path id="Path_13685" data-name="Path 13685" class="cls-2" d="M127.94,24.55a3,3,0,0,1,2.15.53.63.63,0,0,1,.19.88h0c-.17.41-.45.19-.67,0a3.22,3.22,0,0,0-3.08-.32,1.94,1.94,0,0,0-.92,2.1A2.7,2.7,0,0,0,127,29.07c1.2.6,2.6,1,3.4,2.16a2.24,2.24,0,0,1,.18,2.51,3.36,3.36,0,0,1-4.16,1.63,5.28,5.28,0,0,1-1.88-.83c-.26-.21-.45-.46-.23-.75a.55.55,0,0,1,.75-.2l.09.06a4.53,4.53,0,0,0,2.55.9,2.34,2.34,0,0,0,2-1.56,1.29,1.29,0,0,0-.29-1.16,5.48,5.48,0,0,0-2.91-1.76,3.05,3.05,0,0,1-2.27-2.68,3.23,3.23,0,0,1,2.7-2.84C127.29,24.53,127.62,24.55,127.94,24.55Z"/><path id="Path_13686" data-name="Path 13686" class="cls-2" d="M103.66,53.42A3.68,3.68,0,0,1,106,54c.35.2.64.44.4.84s-.47.42-.91.15a3.26,3.26,0,0,0-3.06-.19,1.51,1.51,0,0,0-1,1.8c.1.74.69,1,1.25,1.29a14,14,0,0,1,3.13,1.65,2.82,2.82,0,0,1,.24,4,2.75,2.75,0,0,1-1.16.78,4.74,4.74,0,0,1-4.59-.86c-.22-.15-.45-.36-.06-.64s.33-.62.79-.25a3.55,3.55,0,0,0,2.76.9c1.13-.18,2.27-1.16,1.55-2.58a3.07,3.07,0,0,0-1.61-1.25,11.86,11.86,0,0,1-2.72-1.45,2.23,2.23,0,0,1-.75-1.44,2.88,2.88,0,0,1,1.78-3.12A4.12,4.12,0,0,1,103.66,53.42Z"/><path id="Path_13687" data-name="Path 13687" class="cls-2" d="M147.12,24.59c.7-.07.83.47.93.95a21.15,21.15,0,0,0,.77,2.61,11.14,11.14,0,0,0,1,2.53c.51.78.42,1.79,1,2.55.1.12.1.31.32.27a.33.33,0,0,0,.26-.29,33.56,33.56,0,0,1,1.4-4c.44-1.24.84-2.5,1.4-3.7,0-.06,0-.13.07-.2.18-.32.28-.86.81-.6s.28.66.12,1c-.9,2-1.58,4.14-2.37,6.21-.36.94-.75,1.86-1.08,2.81-.15.45-.5.44-.82.47s-.51-.14-.64-.49c-.8-2.19-1.59-4.38-2.48-6.54-.39-1-.72-1.95-1.15-2.9C146.4,24.7,146.46,24.59,147.12,24.59Z"/><path id="Path_13688" data-name="Path 13688" class="cls-2" d="M127.87,16.09c0-1.41,0-2.82,0-4.23,0-.53-.18-.67-.67-.65-.88,0-1.76,0-2.64,0-.37,0-.61-.09-.61-.54s.18-.56.58-.56c2.64,0,5.27,0,7.9,0,.39,0,.46.17.45.51s0,.63-.51.61c-.92,0-1.85,0-2.77,0-.47,0-.62.13-.61.63,0,2.77,0,5.54,0,8.32,0,.44-.11.66-.62.69s-.54-.13-.54-.53c0-1.41,0-2.82,0-4.23Z"/><path id="Path_13689" data-name="Path 13689" class="cls-2" d="M164.59,30V25.64a1.1,1.1,0,0,1,.09-.67,2.58,2.58,0,0,0,.08-.26s0,0,0-.06l.2,0c.6-.12.9.26.89.95a53.78,53.78,0,0,0,0,7.51c.06.47-.23,1,.19,1.38s.9,0,1.35,0l2.91.07c.24,0,.54-.05.55.35s-.2.51-.55.54a15.13,15.13,0,0,1-3.92-.06,1.12,1.12,0,0,0-.6.07.85.85,0,0,1-1.12-.43.87.87,0,0,1-.07-.42V30Z"/><path id="Path_13690" data-name="Path 13690" class="cls-2" d="M174.14,30c0-1.5,0-3,0-4.5,0-.32-.18-.81.35-.91s.78.16.77.74c0,2.56,0,5.12,0,7.69,0,1.34,0,1.34,1.34,1.34,1,0,2.08,0,3.11,0,.44,0,.52.21.55.53s-.16.48-.51.48c-1.66,0-3.32,0-5,0-.5,0-.56-.25-.56-.65,0-1.57,0-3.14,0-4.71Z"/><path id="Path_13691" data-name="Path 13691" class="cls-2" d="M134.77,44.35c0-1.5,0-3,0-4.51,0-.37-.18-.85.54-.85s.58.5.58.89c0,2.73,0,5.46,0,8.19,0,.52.1.72.68.71,1.27,0,2.54,0,3.81,0,.34,0,.52,0,.53.4s0,.65-.48.65H137c-.55,0-1.11,0-1.66,0s-.6-.16-.6-.6C134.78,47.64,134.77,46,134.77,44.35Z"/><path id="Path_13692" data-name="Path 13692" class="cls-2" d="M164.48,58.94c0-1.53,0-3.06,0-4.58,0-.4-.16-.91.59-.9s.54.56.54.93c0,2.65,0,5.31,0,8,0,.92.11,1,1,1h3.47c.3,0,.54,0,.53.43s-.13.52-.53.51c-1.69,0-3.38,0-5.06,0-.46,0-.6-.14-.59-.59,0-1.6,0-3.19,0-4.79Z"/><path id="Path_13693" data-name="Path 13693" class="cls-2" d="M145.36,44.42V49.2c0,.41,0,.7-.59.68s-.58-.27-.57-.69q0-4.78,0-9.56c0-.48.14-.64.63-.65s.53.28.52.66v4.78Z"/><path id="Path_13694" data-name="Path 13694" class="cls-2" d="M159.82,30v4.5c0,.29,0,.62-.43.62s-.46-.28-.46-.6V25.6a1.09,1.09,0,0,1,.08-.47c.1-.21.24-.41.52-.37s.3.28.3.48c0,1,0,2.08,0,3.11V30Z"/></g></g><g id="_1VKyQf.tif" data-name=" 1VKyQf.tif"><g id="Group_11449" data-name="Group 11449"><path id="Path_13695" data-name="Path 13695" class="cls-3" d="M79.43,17.3a23.3,23.3,0,0,0-6-4.37A24.37,24.37,0,0,0,62,10.23a21.37,21.37,0,0,0-4.43.47,24.27,24.27,0,0,0-16.2,11.5,24.65,24.65,0,0,0-2.87,7.42,24.22,24.22,0,0,0-.47,5.7,24.5,24.5,0,0,0,.55,4.44c0,.24.13.26.32.11a2.46,2.46,0,0,1,1.19-.58,7.21,7.21,0,0,1,2,.07c2.94.26,5.89.54,8.83.82,2.12.19,4.24.4,6.37.56,1.7.14,3.4.36,5.11.34a7,7,0,0,0,6.38-3.67,51.77,51.77,0,0,0,2.61-4.8q3.21-6.43,6.21-13a3.17,3.17,0,0,1,1.72-1.85C79.74,17.62,79.74,17.61,79.43,17.3ZM69.38,31.86a9.17,9.17,0,0,1-17.91.76,8.59,8.59,0,0,1-.3-2.42l0-.08,0,0,0,0L51,29.89h-.08c-.1,0-.12-.13-.09-.25l-.14-.18h0L50.34,29v0l0,0-.15-.15h0L47.6,30.14,45,31.48l-.67.36c-.08,0-.17.11-.25.05s0-.2,0-.29c.18-.4.37-.81.56-1.21l4.28-8.93c.2-.41.42-.82.6-1.24s.59-.51.93-.69c2.08-1.08,4.17-2.13,6.26-3.2l4.11-2.12a1.34,1.34,0,0,1,.24-.12c.11,0,.24-.19.34-.08s0,.26,0,.39c-.53,1.1-1,2.21-1.58,3.31a.34.34,0,0,0,.08.48.1.1,0,0,0,0,0,5.25,5.25,0,0,0,3.88.91,4.53,4.53,0,0,0,1.9-.94h0c0-.09,0-.17,0-.24v-.1a.82.82,0,0,1,0-.27v0a.51.51,0,0,1,.15-.23s0,0,0-.05l0,0h0l.16-.09.07,0,0,0,.13-.05a.64.64,0,0,0,.18-.1c.23-.78.45-1.56.67-2.35.13-.46.3-.56.76-.42a2.89,2.89,0,0,1,1.43,1c.26.32.24.56-.06.79l-1.6,1.21-.53.4h0c0,.05,0,.1,0,.14a1.13,1.13,0,0,1,0,.48.36.36,0,0,1,0,.07.66.66,0,0,1-.14.2l-.06,0a.47.47,0,0,1-.2.1h-.07a1.47,1.47,0,0,1-.69-.05,3.17,3.17,0,0,1-.35.29l-.07.06a.71.71,0,0,0-.14.1,4.34,4.34,0,0,1-2,.68,5.83,5.83,0,0,1-3.63-.93c-.36-.22-.44-.19-.62.2a8.08,8.08,0,0,1-.37.79c-.18.31-.16.52.2.65,0,0,0,0,0,0h0l.12.07.13.08h0l.1,0a1.63,1.63,0,0,1,.4.24s0,0,0,0,0,0,0,0a.33.33,0,0,1,.21.17h0l.13.06a8.8,8.8,0,0,1,5.93,2A8.92,8.92,0,0,1,69.38,31.86Z"/><path id="Path_13696" data-name="Path 13696" class="cls-2" d="M82.8,21.48A19.12,19.12,0,0,1,84.21,24a24.29,24.29,0,0,1-2.93,25.76c-.24.31-.25.31-.41-.08A45.75,45.75,0,0,0,76.1,41a.54.54,0,0,1,0-.57L79.75,30c1-2.71,1.93-5.43,2.9-8.14A3.63,3.63,0,0,1,82.8,21.48Z"/><path id="Path_13697" data-name="Path 13697" class="cls-2" d="M53.35,57.13a20,20,0,0,1-3.82-1.9A24.19,24.19,0,0,1,40.4,45.11c0-.12-.19-.26-.1-.38s.24,0,.37,0l13.18,2.73,7.64,1.58a.48.48,0,0,1,.39.26A40.19,40.19,0,0,1,65,56.67a.09.09,0,0,1,0,.07c-.18.2-.24,0-.32-.1a3.91,3.91,0,0,0-3.26-1.5,13.44,13.44,0,0,0-3.61.77,25.5,25.5,0,0,1-4,1.14c-.1,0-.17,0-.18.15h-.11l-.07-.07Z"/><path id="Path_13698" data-name="Path 13698" class="cls-3" d="M53.44,57.2h.12l.12.12a.77.77,0,0,1-.45.18c-.54.1-1.08.2-1.62.28a16.16,16.16,0,0,1-4.71,0A16.87,16.87,0,0,1,43,56.62c-.36-.16-.43-.1-.43.29,0,1.58,0,3.16,0,4.74a.37.37,0,0,0,.3.44H86.33c.63,0,1.25,0,1.88,0,.29,0,.36-.12.35-.39,0-1.58,0-3.16,0-4.75,0-.44-.07-.48-.47-.3a13.63,13.63,0,0,1-3.53,1.09,16.76,16.76,0,0,1-3.61.2A20.68,20.68,0,0,1,77,57.29c-1.4-.34-2.75-.81-4.12-1.25a9.41,9.41,0,0,0-3.6-.61,3.63,3.63,0,0,0-2.17.83c-.36.31-.64.71-1,1.07a1.68,1.68,0,0,1,.22-.91,4.27,4.27,0,0,1,1.56-2.13,3.86,3.86,0,0,1,2.72-.49,30.17,30.17,0,0,1,3.4.71c2.23.56,4.39,1.43,6.71,1.59a9.39,9.39,0,0,0,3.3-.19,7.64,7.64,0,0,0,3.46-2.22,1,1,0,0,0,.34-.55,14.32,14.32,0,0,1-2.44,1.15,11.6,11.6,0,0,1-5.6.58,49.13,49.13,0,0,1-5.88-1.36,15.53,15.53,0,0,0-4.55-.68,3.75,3.75,0,0,0-3,1.69,5.24,5.24,0,0,0-.78,2.91,2.66,2.66,0,0,1-.09,1c-.2-.21-.37-.39-.32-.67l.1-.09a1.41,1.41,0,0,0,.19-.88,4.61,4.61,0,0,1,1.32-3.12,4,4,0,0,1,2.29-1,12.22,12.22,0,0,1,4.29.48c2.07.46,4.07,1.21,6.18,1.48a11.75,11.75,0,0,0,6.89-1c.62-.31,1.23-.66,1.87-1,.08.19,0,.32-.11.45a7.45,7.45,0,0,1-1.47,1.55,6.9,6.9,0,0,1-3.18,1.51,11,11,0,0,1-2.86.07A33.82,33.82,0,0,1,75.07,55a27.83,27.83,0,0,0-4.41-1,3.58,3.58,0,0,0-2.65.48,3.75,3.75,0,0,0-1.43,1.91c.14.09.2,0,.27-.09a4.25,4.25,0,0,1,3.83-1,36.35,36.35,0,0,1,4.69,1.34,20.76,20.76,0,0,0,7.5,1.1A14.63,14.63,0,0,0,86.56,57a17.38,17.38,0,0,0,1.69-.66c.3-.13.43,0,.44.33,0,.66,0,1.33,0,2V62.2H42.32c.1-1.88,0-3.77,0-5.65,0-.31.11-.35.41-.21a14.75,14.75,0,0,0,4.4,1.29,17.76,17.76,0,0,0,2.63.14,20.79,20.79,0,0,0,3.24-.4A.62.62,0,0,0,53.44,57.2Z"/><path id="Path_13699" data-name="Path 13699" class="cls-2" d="M53.68,57.32l-.12-.12c0-.12.08-.14.18-.15a23.69,23.69,0,0,0,4-1.14,13.13,13.13,0,0,1,3.61-.76,3.83,3.83,0,0,1,3.26,1.5c.09.11.15.3.33.1l.28,1-.1.08-.27-.45a3.79,3.79,0,0,0-2.3-1.83,5.6,5.6,0,0,0-3,.11c-1.81.49-3.6,1.07-5.41,1.61a.31.31,0,0,0-.26.07.09.09,0,0,0-.07,0h-.15Z"/><path id="Path_13700" data-name="Path 13700" class="cls-2" d="M63.05,64.49c.07,0,.19,0,.2.05,0,.26.14.52,0,.78C63.07,65.08,63.28,64.72,63.05,64.49Z"/><path id="Path_13701" data-name="Path 13701" class="cls-2" d="M53.35,57.13h0Z"/><path id="Path_13702" data-name="Path 13702" class="cls-2" d="M90.78,62.2h-48l-2.55,0c-.05,0-.07,0-.08.05v2c0,.11-.08.26.14.24l21.83,0,.92,0h.18a0,0,0,0,1,0,0,4.11,4.11,0,0,1,.08.6.13.13,0,0,1,0,.06h0l0,.12a.84.84,0,0,0,.87.6q1.34,0,2.67,0a.94.94,0,0,0,1-.9c0-.16,0-.33,0-.5l.07,0,.19,0H90.32l.43,0s.06-.09.06-.16C90.8,63.64,90.78,62.2,90.78,62.2Zm-23,2.16a1.26,1.26,0,0,1,.61,0A1.26,1.26,0,0,1,67.8,64.36Z"/><path id="Path_13703" data-name="Path 13703" class="cls-2" d="M67.82,64.54l.07-.05Z"/><path id="Path_13704" data-name="Path 13704" class="cls-4" d="M59.72,24.33a14.58,14.58,0,0,1-1.27,3.39,2.32,2.32,0,0,1-1,1,13.51,13.51,0,0,1-5.65,1.57,1.76,1.76,0,0,1-.68-.1l0-.08h0L51,29.89h0c0-.09-.11-.18-.17-.27l-.14-.17h0a1.24,1.24,0,0,0-.29-.48l-.16-.15v-.14c.1-.06.19-.13.29-.18l4.86-2.58a1,1,0,0,0,.43-.41c.87-1.78,1.76-3.56,2.64-5.34a.54.54,0,0,1,.29.15l.06.05h0l.06,0h0l.1,0h0l.12.07.12.08h0l.52.31a.36.36,0,0,1,.21.17h0l.13.06A6.78,6.78,0,0,1,59.72,24.33Z"/><path id="Path_13705" data-name="Path 13705" class="cls-2" d="M66.47,16.94c.22-.78.44-1.57.67-2.35.13-.46.29-.56.75-.42a2.8,2.8,0,0,1,1.43,1c.26.32.24.56,0,.79l-2.13,1.61C67,17.25,66.65,17.19,66.47,16.94Z"/><path id="Path_13706" data-name="Path 13706" class="cls-2" d="M66.47,16.94c.19.25.53.31.67.61.13.86-.33,1.23-1.22,1a.74.74,0,0,0-.28-.35c-.13-.66,0-1,.64-1.16A.69.69,0,0,0,66.47,16.94Z"/><path id="Path_13707" data-name="Path 13707" class="cls-3" d="M59.73,20.9l-.52-.31a1,1,0,0,1,.54.26,0,0,0,0,1,0,0S59.74,20.9,59.73,20.9Z"/><path id="Path_13708" data-name="Path 13708" class="cls-3" d="M50.38,29a1.24,1.24,0,0,1,.29.48L50.35,29a0,0,0,0,1,0,0Z"/><path id="Path_13709" data-name="Path 13709" class="cls-3" d="M50.8,29.63l.18.27C50.81,29.88,50.76,29.78,50.8,29.63Z"/><path id="Path_13710" data-name="Path 13710" class="cls-2" d="M51.13,30.12h0l0,0Z"/><path id="Path_13712" data-name="Path 13712" class="cls-2" d="M68.41,64.37a1.26,1.26,0,0,1-.61,0A1.25,1.25,0,0,1,68.41,64.37Z"/><path id="Path_13713" data-name="Path 13713" class="cls-3" d="M53.83,57.31a.09.09,0,0,1,.07,0c.1,0,.2.06.26-.07,1.8-.54,3.59-1.12,5.41-1.61a5.6,5.6,0,0,1,3-.11,3.83,3.83,0,0,1,2.3,1.83l.27.46c0,.29.13.46.32.67a2.34,2.34,0,0,0,.09-1,5.27,5.27,0,0,1,.78-2.91,3.73,3.73,0,0,1,3-1.68,15.29,15.29,0,0,1,4.55.67,51,51,0,0,0,5.87,1.37,11.72,11.72,0,0,0,5.6-.59,14.32,14.32,0,0,0,2.44-1.15,1,1,0,0,1-.34.55,7.66,7.66,0,0,1-3.45,2.22,9.4,9.4,0,0,1-3.3.19c-2.33-.16-4.49-1-6.72-1.59a27.72,27.72,0,0,0-3.4-.71,3.88,3.88,0,0,0-2.72.49,4.29,4.29,0,0,0-1.56,2.12,1.84,1.84,0,0,0-.22.92c.37-.36.65-.76,1-1.07a3.58,3.58,0,0,1,2.17-.83,9.21,9.21,0,0,1,3.59.61c1.37.44,2.73.91,4.12,1.25a20.78,20.78,0,0,0,3.92.62,17.5,17.5,0,0,0,3.61-.2,13.75,13.75,0,0,0,3.53-1.09c.4-.18.46-.15.46.3,0,1.58,0,3.17,0,4.75,0,.27-.07.37-.36.39-.63.06-1.25,0-1.87,0H43.26a2,2,0,0,1-.35,0,.37.37,0,0,1-.4-.35.28.28,0,0,1,0-.09c0-1.58,0-3.16,0-4.75,0-.39.06-.44.42-.29a16,16,0,0,0,8.66,1.16c.54-.07,1.08-.18,1.62-.27a.72.72,0,0,0,.45-.18h.11l0,0Z"/><path id="Path_13714" data-name="Path 13714" class="cls-3" d="M54.16,57.24c-.06.13-.16.11-.26.07A.31.31,0,0,1,54.16,57.24Z"/><path id="Path_13715" data-name="Path 13715" class="cls-3" d="M53.83,57.31v.06l0,0Z"/><path id="Path_13716" data-name="Path 13716" class="cls-2" d="M65.64,18.2a4.53,4.53,0,0,1-1.9.94,5.25,5.25,0,0,1-3.88-.91.35.35,0,0,1-.16-.46l0-.06c.53-1.1,1.05-2.21,1.58-3.31.06-.13.15-.28,0-.39s-.23,0-.34.08a.9.9,0,0,0-.24.12l-4.11,2.12c-2.09,1.07-4.18,2.12-6.26,3.2-.34.18-.75.27-.93.69s-.4.83-.6,1.24L44.6,30.39c-.19.4-.38.81-.56,1.22,0,.08-.09.2,0,.28s.17,0,.25-.05.44-.25.67-.36l5.25-2.67a.62.62,0,0,1,0-.13l.28-.19,4.86-2.57a.9.9,0,0,0,.43-.41q1.32-2.67,2.65-5.34c.21,0,.31.23.51.27l0,0,0,0c-.36-.13-.38-.35-.2-.66s.25-.52.37-.79.26-.42.62-.2a5.75,5.75,0,0,0,3.63.93,4.25,4.25,0,0,0,2.53-1.13A.74.74,0,0,0,65.64,18.2Z"/></g></g></g></g></g></svg>