<svg xmlns="http://www.w3.org/2000/svg" viewBox="0 0 228 72"><defs><style>.cls-1{fill:none;}.cls-2{fill:#334354;}</style></defs><title>national-heritage</title><g id="Layer_2" data-name="Layer 2"><g id="Layer_1-2" data-name="Layer 1"><g id="Group_10964" data-name="Group 10964"><g id="Group_10952" data-name="Group 10952"><rect id="Rectangle_1552" data-name="Rectangle 1552" class="cls-1" width="228" height="72"/><g id="Group_11420" data-name="Group 11420"><path id="Path_13278" data-name="Path 13278" class="cls-2" d="M48.16,37.84c0,2,0,4.1,0,6.15,0,.35,0,.51.45.47a5.72,5.72,0,0,1,1.17,0c.35,0,.44-.09.44-.43,0-3.83,0-7.66,0-11.48,0-1,0-2.07,0-3.1,0-.3-.09-.38-.37-.37a8.83,8.83,0,0,1-1.26,0c-.33,0-.42.08-.42.41,0,1.94,0,3.88,0,5.82,0,.19.06.38-.27.38H40.33c-.22,0-.3-.07-.29-.29s0-.75,0-1.13V29.46c0-.15.09-.37-.2-.37a16.1,16.1,0,0,0-1.84,0V44.46c.54,0,1.09,0,1.63,0,.34,0,.42-.09.42-.41,0-2.09,0-4.17,0-6.25,0-.31.08-.4.39-.4q3.66,0,7.3,0C48.07,37.4,48.16,37.49,48.16,37.84Z"/><path id="Path_13279" data-name="Path 13279" class="cls-2" d="M80,12.26c.4,0,.81,0,1.21,0s.32-.09.32-.34c0-.64,0-1.28,0-1.92H79.64c0,.64,0,1.28,0,1.92C79.64,12.17,79.68,12.28,80,12.26Z"/><path id="Path_13280" data-name="Path 13280" class="cls-2" d="M120.5,25.39a7.88,7.88,0,0,0,1.68-.06c0-.16,0-.31,0-.46V12.56c0-.83,0-1.65,0-2.47l0-.09h-1.85V25.22C120.36,25.31,120.39,25.39,120.5,25.39Z"/><path id="Path_13281" data-name="Path 13281" class="cls-2" d="M189.93,41.11c0-.08-.18-.13-.1-.25.26-.32.07-.6-.06-.89q-4.71-9.7-9.4-19.41a.91.91,0,0,0-1-.61c-.62,0-1.21-.07-1.44-.79,0-.1-.11-.2-.2-.2-.44,0-.55-.36-.69-.67,0-.09-.11-.2-.2-.2-.44,0-.5-.37-.64-.65,0-.09-.1-.2-.2-.2-.41,0-.45-.37-.63-.63a5.88,5.88,0,0,1-.56-1c-.07-.17-.2-.17-.34-.19a11,11,0,0,1-1.8-.36c-1.91-.54-3.74-1.31-5.63-1.91a15.39,15.39,0,0,0-5.66-1,5.74,5.74,0,0,0-4.18,2c-.29.34-.54.71-.83,1.1-.14-.2-.24-.38-.36-.55a5.34,5.34,0,0,0-3.22-2.25,9.33,9.33,0,0,0-3.83,0,36.45,36.45,0,0,0-5.31,1.5,25.46,25.46,0,0,1-5.3,1.5c-.08,0-.21,0-.22.08-.14.46-.53.73-.78,1.1s-.22.53-.58.56c-.13,0-.19.16-.25.27-.12.27-.18.59-.6.59-.1,0-.17.12-.22.23-.15.28-.22.64-.66.64-.1,0-.19.11-.22.22a1.18,1.18,0,0,1-1.37.78.92.92,0,0,0-1,.62q-4.71,9.63-9.44,19.26c-.16.32-.45.64-.15,1,.07.08-.06.14-.1.2a.54.54,0,0,0,.13.75.48.48,0,0,0,.35.1c.13,0,.25,0,.38,0h28.69a.82.82,0,0,1,.77.35,3.18,3.18,0,0,0,2,1.24,6.09,6.09,0,0,0,2.33,0,3.11,3.11,0,0,0,2.08-1.29.68.68,0,0,1,.65-.31q14.46,0,28.9,0c.14,0,.29,0,.42,0a.54.54,0,0,0,.54-.54A.59.59,0,0,0,189.93,41.11ZM157.08,15.76A5.42,5.42,0,0,1,162.84,13a28.29,28.29,0,0,1,6.68,1.83,22.2,22.2,0,0,0,4.53,1.32c.25,0,.29.24.37.4q2.15,4.54,4.3,9.11,2,4.18,4,8.39l.2.45a24.11,24.11,0,0,1-3.78-.56c-3-.63-5.93-1.45-8.94-2a26.54,26.54,0,0,0-7-.55A9.83,9.83,0,0,0,157,33.81l-.14.08c0-.17,0-.32,0-.46q0-8.44,0-16.88A1.47,1.47,0,0,1,157.08,15.76ZM130.2,33.92l8.24-17.19a.89.89,0,0,1,.74-.58,35.86,35.86,0,0,0,5.2-1.58,27,27,0,0,1,5.5-1.43,7.54,7.54,0,0,1,3,.19A4.83,4.83,0,0,1,155.85,16a.74.74,0,0,1,.06.36V33.67c0,.06,0,.13,0,.25l-.71-.59a9.92,9.92,0,0,0-4.82-1.88,26.39,26.39,0,0,0-8.45.54c-3,.57-6,1.42-9,2a17.23,17.23,0,0,1-2.87.39,1,1,0,0,1,.17-.48Zm53.42,6h-.06l-.24,0H159.44a1.06,1.06,0,0,0-.53,0,.49.49,0,0,0-.52.34,1.89,1.89,0,0,1-2,1.36,2.21,2.21,0,0,1-2.33-1.33.5.5,0,0,0-.46-.36,1,1,0,0,0-.53-.06H129c-.17,0-.36.08-.51-.08,1.87-.27,3.71-.67,5.55-1.05,3.06-.63,6.12-1.28,9.23-1.62a22.19,22.19,0,0,1,8,.3,8.67,8.67,0,0,1,4.71,2.94.55.55,0,0,0,.77.16.57.57,0,0,0,.14-.13,9.54,9.54,0,0,1,6.56-3.3,30.17,30.17,0,0,1,8.43.38c3.74.57,7.41,1.49,11.13,2.18l.87.14a.26.26,0,0,1-.21.11Z"/><path id="Path_13282" data-name="Path 13282" class="cls-2" d="M46.18,25.39a8.28,8.28,0,0,1,1.22,0c.36,0,.43-.11.42-.44,0-3.8,0-7.6,0-11.4v-.43a1.51,1.51,0,0,1,.37.43l7.49,11.5a.61.61,0,0,0,.6.34,11.37,11.37,0,0,1,1.43,0c.35,0,.43-.1.43-.44q0-5.07,0-10.14c0-1.58,0-3.15,0-4.73,0,0,0-.06,0-.09H56.2s0,.06,0,.09,0,.3,0,.46v12l0-.05-.26-.37L51.75,15.7c-1.22-1.88-2.45-3.75-3.68-5.63V10H45.88a.29.29,0,0,0,0,.09c0,.15,0,.3,0,.46V23.6c0,.49,0,1,0,1.47C45.87,25.31,45.94,25.4,46.18,25.39Z"/><path id="Path_13283" data-name="Path 13283" class="cls-2" d="M101,44.31a3.37,3.37,0,0,0,2-1.8,9.66,9.66,0,0,1-.1,2.15,3.1,3.1,0,0,1-2.2,2.7,3.88,3.88,0,0,1-2.11,0c-.83-.22-1.59-.56-1.79-1.53,0-.17-.16-.13-.26-.13-.41,0-.82,0-1.22,0s-.38.13-.32.41a3.19,3.19,0,0,0,2.25,2.47,7,7,0,0,0,3.43.32,4.08,4.08,0,0,0,3.29-2,5.7,5.7,0,0,0,.74-2.88c0-3.28,0-6.56,0-9.84,0-.21,0-.42,0-.63s-.05-.25-.24-.25h-1.26c-.18,0-.24.07-.23.24,0,.42,0,.84,0,1.34-.22-.28-.37-.49-.54-.69a2.66,2.66,0,0,0-.6-.51,4.73,4.73,0,0,0-6.32,1.48,7,7,0,0,0-.6,6.23,4.67,4.67,0,0,0,5.92,2.93Zm-4.23-7.39a3,3,0,0,1,3-2.25,3,3,0,0,1,2.91,2.27,6,6,0,0,1-.1,3.82,3,3,0,0,1-5.93-.41,6.67,6.67,0,0,1-.17-1.54,5.76,5.76,0,0,1,.26-1.89Z"/><path id="Path_13284" data-name="Path 13284" class="cls-2" d="M122.69,53.91a2.62,2.62,0,0,0-1.83-2.6,4.89,4.89,0,0,0-3.16-.09,4,4,0,0,0-2.18,1.68,2.56,2.56,0,0,0-1.7-1.67,4.5,4.5,0,0,0-5,1.58v-.24c0-.43.19-1-.1-1.23s-.83-.05-1.26-.08-.37.09-.37.37c0,1.7,0,3.41,0,5.11s0,3.52,0,5.28c0,.33.09.41.4.39a6.14,6.14,0,0,1,1.05,0c.3,0,.41,0,.4-.38q0-3.2,0-6.37a3,3,0,0,1,2.9-3,2.73,2.73,0,0,1,.57,0,1.65,1.65,0,0,1,1.41,1.2,4.44,4.44,0,0,1,.17,1.4q0,3.38,0,6.75c0,.32.08.41.39.39a6.14,6.14,0,0,1,1,0c.33,0,.41-.09.41-.42q0-3.26,0-6.53c0-2.41,2.07-3.15,3.75-2.72a1.57,1.57,0,0,1,1.15,1.12,4.92,4.92,0,0,1,.16,1.53c0,2.21,0,4.41,0,6.62,0,.3.06.42.39.4a11.42,11.42,0,0,1,1.17,0c.22,0,.29-.06.29-.28C122.7,59.39,122.73,56.65,122.69,53.91Z"/><path id="Path_13285" data-name="Path 13285" class="cls-2" d="M52.46,47.33A.37.37,0,0,0,52,47c-.5,0-1,0-1.51,0s-.5.11-.63.44q-2.65,6.86-5.33,13.7c-.16.4-.3.8-.47,1.23.6,0,1.14,0,1.68,0a.46.46,0,0,0,.54-.37c.47-1.31,1-2.6,1.44-3.91a.45.45,0,0,1,.51-.36c1.93,0,3.86,0,5.78,0,.3,0,.4.11.5.37.46,1.31.94,2.61,1.41,3.93.09.24.19.35.47.34.52,0,1,0,1.55,0,.28,0,.37,0,.25-.34Q55.33,54.71,52.46,47.33ZM48.56,56,51.13,49h.09c.85,2.35,1.69,4.71,2.54,7.09Z"/><path id="Path_13286" data-name="Path 13286" class="cls-2" d="M92.68,54c0-2.21,0-4.42,0-6.62,0-.29-.06-.4-.37-.38a6.61,6.61,0,0,1-1.09,0c-.3,0-.37.08-.37.38,0,1.61,0,3.23,0,4.85a.61.61,0,0,1-.07.44A3.67,3.67,0,0,0,90.1,52,5,5,0,0,0,83.18,53l-.2.3A7.13,7.13,0,0,0,82.21,58a5.54,5.54,0,0,0,1.6,3.37,4.68,4.68,0,0,0,3.55,1.31,3.73,3.73,0,0,0,3.49-1.79c0,.47,0,.8,0,1.12s.05.49.42.45a3.24,3.24,0,0,1,.88,0c.41,0,.54-.07.53-.51C92.66,59.28,92.68,56.65,92.68,54ZM90.53,59a3.26,3.26,0,0,1-6,.16,5.7,5.7,0,0,1,.09-4.86,2.91,2.91,0,0,1,3-1.64,3.19,3.19,0,0,1,3,2.32,6.86,6.86,0,0,1,.23,1c0,.29,0,.58.06.87A5.55,5.55,0,0,1,90.53,59Z"/><path id="Path_13287" data-name="Path 13287" class="cls-2" d="M114.56,18.63a16,16,0,0,1-1.94.33,10,10,0,0,0-3,.82,3,3,0,0,0-1.48,3.28,2.68,2.68,0,0,0,2.14,2.35A5.28,5.28,0,0,0,115.67,24c0,.21,0,.36.08.51a1.31,1.31,0,0,0,1.14,1.11,3,3,0,0,0,1,0c.61-.11.63-.14.63-.75,0-.2,0-.39,0-.59s-.06-.26-.29-.23c-.67.1-.82-.05-.85-.73,0-.24,0-.47,0-.71,0-1.84,0-3.69,0-5.53a2.67,2.67,0,0,0-2.29-2.82,8.29,8.29,0,0,0-3.74,0,3.49,3.49,0,0,0-2.84,3.12c0,.27,0,.42.32.39a6.61,6.61,0,0,1,1.09,0c.28,0,.41,0,.44-.37a1.48,1.48,0,0,1,.74-1.25,4.1,4.1,0,0,1,3.63-.17,1.54,1.54,0,0,1,.82,1.69C115.53,18.25,115.06,18.47,114.56,18.63Zm1,3a2.23,2.23,0,0,1-1.06,1.76,4,4,0,0,1-3.32.52,1.41,1.41,0,0,1-1.14-1.2,1.68,1.68,0,0,1,.77-1.81,5.16,5.16,0,0,1,2-.57,8.44,8.44,0,0,0,2.8-.63c0,.68,0,1.31,0,1.93Z"/><path id="Path_13288" data-name="Path 13288" class="cls-2" d="M62.88,25.46a6,6,0,0,0,3.1-.1,4.6,4.6,0,0,0,2.15-1.42l.07.51a1.31,1.31,0,0,0,1.13,1.13,3.36,3.36,0,0,0,1,0c.62-.11.64-.15.64-.78,0-.17,0-.34,0-.5s0-.35-.31-.3c-.64.11-.79,0-.83-.7,0-.24,0-.48,0-.71,0-1.86,0-3.72,0-5.57a2.67,2.67,0,0,0-2.26-2.8,8.18,8.18,0,0,0-3.78,0A3.52,3.52,0,0,0,61,17.35c0,.28,0,.4.34.37a10.65,10.65,0,0,1,1.13,0c.25,0,.36,0,.39-.32a1.5,1.5,0,0,1,.67-1.25A4,4,0,0,1,67.29,16,1.51,1.51,0,0,1,68,17.67c-.07.6-.53.81-1,1a4.08,4.08,0,0,1-.77.17,21.24,21.24,0,0,0-3.45.67,2.93,2.93,0,0,0-2.2,2.38,2.91,2.91,0,0,0,2.08,3.56Zm.53-4.67a5.67,5.67,0,0,1,1.8-.49A8.8,8.8,0,0,0,68,19.68c0,.7,0,1.37,0,2a2.29,2.29,0,0,1-1.21,1.76,4.06,4.06,0,0,1-3,.45,1.53,1.53,0,0,1-1.32-1.27A1.74,1.74,0,0,1,63.41,20.79Z"/><path id="Path_13289" data-name="Path 13289" class="cls-2" d="M93.48,43.37c0-.31-.08-.37-.38-.31-.5.1-.67,0-.74-.53a6.85,6.85,0,0,1,0-.79c0-1.91,0-3.82,0-5.73a2.6,2.6,0,0,0-2.07-2.69,7.8,7.8,0,0,0-3.9,0,3.51,3.51,0,0,0-2.9,3.16c0,.28,0,.37.32.36s.81,0,1.22,0c.21,0,.28-.06.3-.28A1.6,1.6,0,0,1,86,35.2,4,4,0,0,1,89.7,35a1.52,1.52,0,0,1,.8,1.62c0,.65-.5.89-1,1.06A13.38,13.38,0,0,1,87.7,38a10.39,10.39,0,0,0-3.15.82A3,3,0,0,0,83,42a2.68,2.68,0,0,0,2.14,2.44,5.27,5.27,0,0,0,5.42-1.43c.18,1.18.54,1.58,1.47,1.63a4.3,4.3,0,0,0,.88-.07c.39,0,.63-.24.55-.69A2,2,0,0,1,93.48,43.37Zm-3-2.68a2.28,2.28,0,0,1-1.28,1.89,4.08,4.08,0,0,1-2.92.42,1.57,1.57,0,0,1-1.33-1.33,1.71,1.71,0,0,1,1-1.83,5.82,5.82,0,0,1,2-.49c.44-.06.88-.12,1.32-.2a3.53,3.53,0,0,0,1.27-.42C90.48,39.44,90.51,40.07,90.47,40.69Z"/><path id="Path_13290" data-name="Path 13290" class="cls-2" d="M81,61.28C81,61,81,61,80.69,61c-.56.1-.75-.06-.79-.62,0-.28,0-.56,0-.84,0-1.84,0-3.68,0-5.52a2.56,2.56,0,0,0-1.9-2.7,7.22,7.22,0,0,0-4.81.13A3.32,3.32,0,0,0,71,54.35c0,.27,0,.42.33.39a10.65,10.65,0,0,1,1.13,0c.26,0,.36-.06.39-.34A1.66,1.66,0,0,1,74,52.9a4.68,4.68,0,0,1,2.89-.1,1.58,1.58,0,0,1,1.16,1.76c0,.6-.39,1-1.25,1.14-.68.14-1.38.21-2.06.34a8.71,8.71,0,0,0-2.69.76,3,3,0,0,0-1.47,3.29,2.67,2.67,0,0,0,2.1,2.33,5.73,5.73,0,0,0,2.7.1A4.61,4.61,0,0,0,78.13,61c0,.15.05.25.06.34a1.36,1.36,0,0,0,1.4,1.32h0a6,6,0,0,0,.84-.07c.4-.05.62-.24.55-.69A2.33,2.33,0,0,1,81,61.28Zm-3-2.59A2.26,2.26,0,0,1,77,60.4a4,4,0,0,1-3.25.51,1.43,1.43,0,0,1-1.18-1.2,1.67,1.67,0,0,1,.72-1.79,4.9,4.9,0,0,1,2.11-.61A8.62,8.62,0,0,0,78,56.7c0,.69,0,1.34,0,2Z"/><path id="Path_13291" data-name="Path 13291" class="cls-2" d="M110.47,44.43a6.07,6.07,0,0,0,3.43,0A4.15,4.15,0,0,0,117,41.26c.06-.23,0-.36-.26-.34a11.42,11.42,0,0,1-1.17,0c-.25,0-.34.08-.4.31a2.32,2.32,0,0,1-1.64,1.69c-2,.57-4.45-.22-4.63-3.13,0-.31.09-.37.37-.36H113c1.25,0,2.49,0,3.73,0,.43,0,.51-.13.48-.51a9.72,9.72,0,0,0-.33-2.15c-.64-2-1.84-3.42-4-3.67a4.82,4.82,0,0,0-5,2.4,6.76,6.76,0,0,0-.18,6.5A4.28,4.28,0,0,0,110.47,44.43Zm-1.55-6.9a3.14,3.14,0,0,1,3.13-2.86,3.2,3.2,0,0,1,3.2,2.75c0,.3,0,.42-.35.41-.94,0-1.9,0-2.84,0h-2.85c-.24,0-.32,0-.29-.29Z"/><path id="Path_13292" data-name="Path 13292" class="cls-2" d="M62.73,40.93c-.45,0-.9,0-1.34,0s-.49.06-.58.41a2.19,2.19,0,0,1-1.16,1.41A3.41,3.41,0,0,1,55,41.36a3.28,3.28,0,0,1-.41-1.47c0-.34,0-.47.43-.47,2.5,0,5,0,7.51,0,.31,0,.4-.07.39-.39a7.94,7.94,0,0,0-.28-2.11c-.56-1.93-1.65-3.4-3.76-3.78a5,5,0,0,0-5.33,2.32,6.5,6.5,0,0,0-.75,4.8,5.23,5.23,0,0,0,1.72,3.25,5.44,5.44,0,0,0,4.26,1.1A4.25,4.25,0,0,0,62.73,40.93Zm-8.11-3.46a3.17,3.17,0,0,1,3.18-2.8A3.22,3.22,0,0,1,61,37.55c0,.24,0,.28-.27.28H57.77c-.94,0-1.9,0-2.84,0-.31,0-.35-.11-.31-.37Z"/><path id="Path_13293" data-name="Path 13293" class="cls-2" d="M139.66,54.86c-.57-1.94-1.67-3.39-3.78-3.75a5,5,0,0,0-5.33,2.34,6.62,6.62,0,0,0-.74,4.73,5.3,5.3,0,0,0,1.7,3.27,5.42,5.42,0,0,0,4.78,1,4.16,4.16,0,0,0,3.42-3.32c.06-.26,0-.32-.24-.3h-1.22c-.22,0-.31.06-.37.28a2.37,2.37,0,0,1-1.2,1.53,3.44,3.44,0,0,1-5.07-3c0-.28.07-.35.34-.35h3.82c1.27,0,2.52,0,3.78,0,.34,0,.41-.11.4-.42A8.39,8.39,0,0,0,139.66,54.86Zm-2,.92h-5.73c-.28,0-.32-.09-.29-.33a3.17,3.17,0,0,1,3.17-2.83A3.22,3.22,0,0,1,138,55.44c0,.29-.06.35-.33.34Z"/><path id="Path_13294" data-name="Path 13294" class="cls-2" d="M104.9,54.82c-.58-1.92-1.68-3.36-3.78-3.71a4.87,4.87,0,0,0-5.27,2.27,6.6,6.6,0,0,0-.7,5.24,4.92,4.92,0,0,0,2.21,3.27,5.71,5.71,0,0,0,3.88.67,4.24,4.24,0,0,0,3.7-3.38c.06-.26,0-.32-.23-.31s-.81,0-1.22,0a.32.32,0,0,0-.37.25v0a2.42,2.42,0,0,1-1.2,1.54,3.44,3.44,0,0,1-5.07-3c0-.27.06-.35.34-.35,1.29,0,2.57,0,3.86,0s2.51,0,3.77,0c.3,0,.37-.09.37-.38A8.5,8.5,0,0,0,104.9,54.82Zm-2,1H97.15c-.23,0-.31-.05-.28-.3a3.16,3.16,0,0,1,3.18-2.85,3.19,3.19,0,0,1,3.17,2.82C103.26,55.7,103.2,55.79,102.93,55.78Z"/><path id="Path_13295" data-name="Path 13295" class="cls-2" d="M88.13,14.09A4.81,4.81,0,0,0,84,17.62a7.69,7.69,0,0,0-.28,2.9,5.11,5.11,0,0,0,5.15,5.09H89a5,5,0,0,0,4.44-2.07,6.23,6.23,0,0,0,1-3.72A6.12,6.12,0,0,0,93.4,16,5.19,5.19,0,0,0,88.13,14.09ZM92,22.27A3.15,3.15,0,0,1,89.11,24a3,3,0,0,1-2.88-1.75,5.22,5.22,0,0,1,0-4.9,3.07,3.07,0,0,1,3.1-1.74,3.18,3.18,0,0,1,2.87,2.1,4.61,4.61,0,0,1,.38,2,4.85,4.85,0,0,1-.54,2.51Z"/><path id="Path_13296" data-name="Path 13296" class="cls-2" d="M148.72,56.52A12.83,12.83,0,0,0,146.8,56a10.69,10.69,0,0,1-2.76-.82,1.21,1.21,0,0,1-.72-1.18,1.18,1.18,0,0,1,.91-1.08,3.94,3.94,0,0,1,2.79,0,1.75,1.75,0,0,1,1.21,1.38c0,.23.13.26.33.26h1.26c.23,0,.28-.08.26-.29a3.2,3.2,0,0,0-1.9-2.76,6,6,0,0,0-1.87-.42,5.62,5.62,0,0,0-3.48.66,2.76,2.76,0,0,0-1.46,2.55A2.6,2.6,0,0,0,143,56.67a8.7,8.7,0,0,0,2,.63,12.91,12.91,0,0,1,2.73.78,1.42,1.42,0,0,1-.18,2.72,5,5,0,0,1-3.17,0,2,2,0,0,1-1.31-1.27c-.07-.2,0-.51-.19-.6a2.05,2.05,0,0,0-.7,0h-.75c-.21,0-.29,0-.27.27a3.38,3.38,0,0,0,2,3,5.53,5.53,0,0,0,2.19.51,6.21,6.21,0,0,0,4-.86,3,3,0,0,0,1.28-3A2.72,2.72,0,0,0,148.72,56.52Z"/><path id="Path_13297" data-name="Path 13297" class="cls-2" d="M105.82,16.84a2.9,2.9,0,0,0-1.5-2.34,4.68,4.68,0,0,0-4.53.1A4.16,4.16,0,0,0,98.43,16V15.6c0-.43.18-1-.07-1.25s-.85,0-1.28-.1-.39.09-.39.4c0,1.91,0,3.82,0,5.73,0,1.55,0,3.1,0,4.65,0,.28.08.37.35.35a10.84,10.84,0,0,1,1.14,0c.3,0,.36-.09.36-.37,0-1.93,0-3.86,0-5.78a6.59,6.59,0,0,1,.09-1.09,3.13,3.13,0,0,1,3.61-2.53,4.43,4.43,0,0,1,.49.13,2,2,0,0,1,1.36,2.1c0,2,0,4.07,0,6.11,0,.46-.19,1.06.08,1.33s.9,0,1.37.1c.31,0,.4-.06.4-.39,0-2.33,0-4.66,0-7A7.46,7.46,0,0,0,105.82,16.84Z"/><path id="Path_13298" data-name="Path 13298" class="cls-2" d="M68.77,58.32a6.14,6.14,0,0,1-1,0c-.39,0-.54.09-.62.49a2.54,2.54,0,0,1-1.45,1.93,3.13,3.13,0,0,1-4.23-1.35,2.35,2.35,0,0,1-.19-.43,6.32,6.32,0,0,1-.08-3.87,3,3,0,0,1,3.08-2.45A2.34,2.34,0,0,1,66.78,54a1.15,1.15,0,0,0,1.36.89l.11,0a1.48,1.48,0,0,1,.42,0c.3,0,.34-.1.3-.36a3.9,3.9,0,0,0-2-2.83A5.62,5.62,0,0,0,64.87,51a5,5,0,0,0-5.17,2.58A7.49,7.49,0,0,0,59,57.14a7.19,7.19,0,0,0,.1,1.13,4.79,4.79,0,0,0,2.81,3.93,6,6,0,0,0,3.16.38,4.44,4.44,0,0,0,4-4C69.08,58.36,69,58.31,68.77,58.32Z"/><path id="Path_13299" data-name="Path 13299" class="cls-2" d="M80.31,34.93c.4,0,1,.14,1.17-.07s.06-.82.09-1.24c0-.24-.06-.32-.3-.3-.53,0-1.06,0-1.59,0-.26,0-.33-.07-.33-.33,0-.89,0-1.79,0-2.68,0-.24,0-.36-.32-.34s-.84,0-1.26,0c-.17,0-.28,0-.25.23.12.59-.27,1-.45,1.6-.11-.26-.19-.45-.26-.65A.21.21,0,0,0,76.6,31a.15.15,0,0,0-.16.13,0,0,0,0,0,0,0V32c0,.05,0,.11.07.12s.11-.07.11-.14v-.6c.25.26.17.68.42.71s.19-.38.33-.56l.08,0c0,.39.06.78.07,1.17,0,.64,0,.63-.63.64-.42,0-1-.18-1.2.08s0,.83-.08,1.26c0,.23.08.28.29.27.42,0,.84,0,1.26,0s.37.1.37.39c0,1.36,0,2.73,0,4.1,0,1,0,2.1,0,3.14A1.65,1.65,0,0,0,79,44.36h.22a6,6,0,0,0,1,.06c.42,0,1,.19,1.2-.07s.06-.83.08-1.26c0-.23-.07-.28-.29-.28-.41,0-.83,0-1.25,0a.63.63,0,0,1-.66-.6v-.07c0-.21,0-.42,0-.63V35.87C79.35,34.93,79.35,34.93,80.31,34.93Z"/><path id="Path_13300" data-name="Path 13300" class="cls-2" d="M71.57,15.61c0,.2.06.27.26.26.43,0,.87,0,1.3,0,.26,0,.33.06.33.32,0,1.16,0,2.32,0,3.73,0,1.09-.07,2.43.06,3.77a1.6,1.6,0,0,0,1.54,1.63,16.48,16.48,0,0,0,2.22.08c.18,0,.25-.07.25-.25,0-.34,0-.67,0-1s-.06-.41-.37-.38-.64,0-1,0c-.69,0-.9-.24-.9-.93,0-2.22,0-4.44,0-6.66,0-.24.08-.3.31-.3.53,0,1.06,0,1.59,0,.25,0,.36,0,.34-.32a7.69,7.69,0,0,1,0-1c0-.25-.06-.34-.33-.33-.51,0-1,0-1.55,0-.3,0-.37-.1-.36-.38,0-.84,0-1.68,0-2.51,0-.4-.12-.5-.48-.46a7.85,7.85,0,0,1-1,0c-.3,0-.41.05-.4.38,0,.87,0,1.73,0,2.6,0,.29-.08.41-.38.37h-.25c-.41,0-1-.19-1.19.09S71.59,15.18,71.57,15.61Z"/><path id="Path_13301" data-name="Path 13301" class="cls-2" d="M70.65,34.7c0-.44,0-.89,0-1.34,0-.24-.07-.3-.31-.3a3.81,3.81,0,0,0-3,1.42c-.28.35-.5.73-.8,1.09,0-.64,0-1.28,0-1.91,0-.24,0-.36-.31-.34a10.84,10.84,0,0,1-1.14,0c-.22,0-.28.07-.27.28,0,.62,0,1.23,0,1.84q0,4.32,0,8.62c0,.3,0,.43.38.4a9.91,9.91,0,0,1,1.09,0c.29,0,.39-.06.38-.36,0-.8,0-1.59,0-2.39a26.31,26.31,0,0,1,.09-3.55,3.28,3.28,0,0,1,2.39-3A4.33,4.33,0,0,1,70.34,35C70.57,35,70.66,34.94,70.65,34.7Z"/><path id="Path_13302" data-name="Path 13302" class="cls-2" d="M127.42,56.83c0-1.73,0-3.46,0-5.19,0-.28,0-.4-.36-.38a7.1,7.1,0,0,1-1.13,0c-.27,0-.36.06-.35.34V62.07c0,.25,0,.35.32.33a10.65,10.65,0,0,1,1.13,0c.31,0,.4-.06.4-.38C127.41,60.29,127.42,58.56,127.42,56.83Z"/><path id="Path_13303" data-name="Path 13303" class="cls-2" d="M80.1,25.39a4.71,4.71,0,0,1,.92,0c.36,0,.48-.06.47-.45,0-1.71,0-3.43,0-5.14s0-3.46,0-5.19c0-.26-.06-.37-.34-.35a11.61,11.61,0,0,1-1.18,0c-.3,0-.34.1-.33.35,0,.52,0,1,0,1.55,0,2.93,0,5.86,0,8.79C79.63,25.33,79.75,25.42,80.1,25.39Z"/><path id="Path_13304" data-name="Path 13304" class="cls-2" d="M72.51,44.46a5.68,5.68,0,0,1,1,0c.34,0,.45-.07.44-.43,0-1.71,0-3.43,0-5.15s0-3.46,0-5.19c0-.28,0-.4-.36-.38a6.61,6.61,0,0,1-1.09,0c-.34,0-.38.11-.38.4,0,1.62,0,3.24,0,4.86,0,1.83,0,3.66,0,5.48C72.12,44.36,72.18,44.49,72.51,44.46Z"/><path id="Path_13305" data-name="Path 13305" class="cls-2" d="M126.7,47c-.36,0-.82-.15-1,.07s0,.69-.07,1,0,.63,0,.9,0,.28.25.28c.45,0,.89,0,1.34,0,.21,0,.26-.08.25-.27,0-.42,0-.83,0-1.25C127.42,47,127.42,47,126.7,47Z"/><path id="Path_13306" data-name="Path 13306" class="cls-2" d="M72.41,31.31c.41,0,.81,0,1.21,0s.35-.1.34-.36,0-.5,0-.75,0-.56,0-.83,0-.3-.28-.3c-.42,0-.84,0-1.25,0-.21,0-.3.06-.3.28,0,.56,0,1.11,0,1.67C72.12,31.24,72.19,31.32,72.41,31.31Z"/><path id="Path_13307" data-name="Path 13307" class="cls-2" d="M76.15,31.16c.09,0,0-.14-.06-.16h-.34a.11.11,0,0,0-.08,0c-.13,0-.33-.08-.37.07s.18.09.26.15,0,.16,0,.23V32c0,.07,0,.15.1.15s.14,0,.15-.15a.43.43,0,0,1,0-.16C75.92,31.59,75.66,31.23,76.15,31.16Z"/></g></g><path id="Path_12564" data-name="Path 12564" class="cls-1" d="M57.24,0h139.6"/></g></g></g></svg>