<svg xmlns="http://www.w3.org/2000/svg" viewBox="0 0 228 72.01"><defs><style>.cls-1{fill:none;}.cls-2{fill:#334354;}</style></defs><title>ocps</title><g id="Layer_2" data-name="Layer 2"><g id="Layer_1-2" data-name="Layer 1"><g id="Group_10977" data-name="Group 10977"><rect id="Rectangle_1561" data-name="Rectangle 1561" class="cls-1" y="0.01" width="228" height="72"/><path id="Path_12575" data-name="Path 12575" class="cls-1" d="M63.59,0H172.43"/><g id="Group_11427" data-name="Group 11427"><path id="Path_13455" data-name="Path 13455" class="cls-2" d="M147.43,36.94c-.84-.71-.88-1.29,0-2A7.77,7.77,0,0,0,150,28.56c-.06-6.71,0-13.42,0-20.13,0-5.25-3.14-8.38-8.44-8.39C135,0,128.44.07,121.9,0a8.27,8.27,0,0,0-7.09,3.2c-.62.79-1,.85-1.63,0A7.64,7.64,0,0,0,106.6,0H86a8,8,0,0,0-5.57,2.05A7.68,7.68,0,0,0,78,7V30.33a7.27,7.27,0,0,0,2.85,4.76c.46.41,1.15.73.24,1.38A7.57,7.57,0,0,0,78,41.84V65.2a7.89,7.89,0,0,0,6.78,6.42h22.68a.35.35,0,0,0,.06-.14h0a6.62,6.62,0,0,0,5.64-3.06c.58-.83.94-.89,1.56,0A8,8,0,0,0,120,71.62h23c5.2-1.22,6.94-3.45,6.94-8.89,0-6.49,0-13,0-19.45A7.6,7.6,0,0,0,147.43,36.94Zm-32-28.24a6.36,6.36,0,0,1,6.3-6.42h.33c3.22,0,6.43,0,9.65,0s6.31,0,9.47,0c3.74,0,6.54,2.48,6.63,6.23q.21,10,0,20c-.08,3.71-2.91,6.17-6.68,6.18q-9.48,0-18.95,0a6.38,6.38,0,0,1-6.74-6,3.85,3.85,0,0,1,0-.48q-.15-9.72,0-19.45ZM80.09,28q0-9.65,0-19.29a6.33,6.33,0,0,1,6.24-6.43h.17q9.81,0,19.63,0a6.38,6.38,0,0,1,6.36,6.34c.05,3.27,0,6.54,0,9.81s0,6.32,0,9.47a6.45,6.45,0,0,1-6.15,6.73H86.7a6.43,6.43,0,0,1-6.61-6.24ZM112.5,62.85a6.43,6.43,0,0,1-6.18,6.67c-.13,0-.26,0-.39,0q-9.65.08-19.29,0a6.46,6.46,0,0,1-6.55-6.37V62.8q0-9.55,0-19.11a6.27,6.27,0,0,1,6-6.51h.16c6.82-.1,13.65-.08,20.47,0,3.08,0,5.72,3,5.77,6.2s0,6.65,0,10c0,3.16,0,6.31,0,9.47ZM114,40.26a10.69,10.69,0,0,0-4.06-4.37,10.06,10.06,0,0,0,4-4.38,9.52,9.52,0,0,0,4.19,4.34A9.52,9.52,0,0,0,114,40.26Zm33.79,23.27a6.2,6.2,0,0,1-6.34,6q-9.72.09-19.46,0a6.45,6.45,0,0,1-6.57-6.32c0-.13,0-.26,0-.39-.08-6.37-.1-12.74,0-19.11.06-4,2.81-6.53,6.84-6.54h19.12a6.16,6.16,0,0,1,6.39,5.9q.24,10.24,0,20.47Z"/><path id="Path_13456" data-name="Path 13456" class="cls-2" d="M88.65,32.86h15.78c3.78,0,6.44-2.4,6.51-6.11q.16-8.31,0-16.63C110.85,6.39,108.22,4,104.47,4q-8,0-16,0c-3.3,0-5.3,1.53-6.34,4.77-.29,6.44-.27,12.89,0,19.34C83.25,31.38,85.22,32.85,88.65,32.86Zm.75-24a16.5,16.5,0,0,1,13.49-.74c4.46,1.52,6.67,4.93,6.8,9.87a10.63,10.63,0,0,1-6.46,10.41,14.67,14.67,0,0,1-6.36,1.36,18.66,18.66,0,0,1-6.07-.82c-4.78-1.59-7-5-7.17-9.94A10.31,10.31,0,0,1,89.4,8.86Z"/><path id="Path_13457" data-name="Path 13457" class="cls-2" d="M105.46,38.76c-6-.29-12-.28-18,0-2.88.14-4.74,2.11-5.36,5-.22,6.33-.27,12.67,0,19a6,6,0,0,0,5,4.71c6.11.17,12.22.15,18.33,0,3.1-.49,5.3-2.55,5.37-5.58q.21-8.8,0-17.62A5.7,5.7,0,0,0,105.46,38.76Zm.68,15c-2.59,2.32-5.7,2.82-9,2.32a.73.73,0,0,1-.73-.73v0a.27.27,0,0,0,.11-.29c.44-1.28.82-2.42,2.69-2.17,1.1.14,1.91-.89,2.27-2,.55-1.68.69-3.43-.71-4.74s-3.24-1-4.94-.32c0,.78-.07,1.57-.1,2.36-.15,4.29-.19,8.59,0,12.9-.2.86.48.88,1,1s1.32.25,2,.37c0,.54,0,1.07-.07,1.6L86.89,64c-.17-1.06-.09-1.92,1.31-2,.69,0,.7-.6.75-1.12a121.2,121.2,0,0,0,0-15.6,1.09,1.09,0,0,0-1-1.17h-.13c-.76-.09-1.1-.46-1-1.24s.81-.65,1.3-.63c4.41.18,8.82-.15,13.24-.15,2.61,0,4.94.75,6.37,3.15a6.76,6.76,0,0,1-1.62,8.46Z"/><path id="Path_13458" data-name="Path 13458" class="cls-2" d="M141.64,39a136.77,136.77,0,0,0-19.73,0c-2.68.57-4.31,2.48-4.68,5.49V61.75c.37,3.15,1.88,4.85,5,5.73,6.22.19,12.45.15,18.67,0,3.07-.72,5.08-2.64,5.14-5.44q.18-8.88,0-17.77A5.55,5.55,0,0,0,141.64,39Zm-2.33,23.06c-3.38,2.48-7.25,2.63-11.21,2.25a24.73,24.73,0,0,1-5.75-1.38c-.82-.28-1-.62-.64-1.46a39.5,39.5,0,0,0,1.51-3.77c.22-.64.45-.93,1.2-.79s1,.36.92,1.08a1.13,1.13,0,0,0,.59,1.28,12.14,12.14,0,0,0,6.3,1.73c1.4-.07,2.76-.53,3-2.18s-.95-2.4-2.31-2.86c-2.19-.74-4.51-1.08-6.63-2s-3.83-2.27-4-4.79c-.2-2.76,1.33-4.53,3.56-5.88,1.55-.93,3.32-1,5-1.48h3.24l5.84,1c1,.18,1.46.53.89,1.65a24.7,24.7,0,0,0-1.22,3.34c-.13.4-.21.77-.74.74s-.88,0-1-.46c-.68-2.5-2.81-2.33-4.71-2.6a3.49,3.49,0,0,0-1.7,0,4.77,4.77,0,0,0-1,.08c-.83.29-1.45.67-1.45,1.78s.63,1.38,1.39,1.62c1.62.5,3.25.95,4.89,1.39a15.34,15.34,0,0,1,3.32,1.26,6.09,6.09,0,0,1,.71,10.5Z"/><path id="Path_13459" data-name="Path 13459" class="cls-2" d="M123.65,32.86c5.15,0,10.31-.18,15.45.06a6.59,6.59,0,0,0,7.09-6,7.69,7.69,0,0,0,0-1c-.17-5.26,0-10.52-.1-15.78A6,6,0,0,0,140.18,4H140q-8.32-.12-16.65,0c-3.41,0-5.73,2.29-6.15,5.77V27C117.66,30.7,120,32.85,123.65,32.86Zm-3.58-14.92c.51-5.54,4.18-9.26,10.21-10.39A22.9,22.9,0,0,1,140.53,8c1,.28,1.5.6,1.13,1.81a13.38,13.38,0,0,0-.73,4.16l-1.65.06c-1.32-2.84-3.89-3.52-7.33-2.87a5.57,5.57,0,0,0-4.88,4.67,5.73,5.73,0,0,0,0,3.38,6.89,6.89,0,0,0,6.43,6.1,5.91,5.91,0,0,0,2.71,0,8,8,0,0,0,4-1.64c1.45-1.08,1.65.47,2.3,1,.86.72.13,1.13-.37,1.56-4.81,4.22-12.75,5-18,1.34-3.23-2.23-4.41-5.77-4.05-9.66Z"/><path id="Path_13460" data-name="Path 13460" class="cls-2" d="M96.4,26.32a5.53,5.53,0,0,0,5.26-3.06,10.51,10.51,0,0,0,.1-9.43,5.73,5.73,0,0,0-10.38.1,10.18,10.18,0,0,0,0,9A5.47,5.47,0,0,0,96.4,26.32Z"/></g></g></g></g></svg>