<svg xmlns="http://www.w3.org/2000/svg" viewBox="0 0 228 124"><defs><style>.cls-1{fill:none;}.cls-2{fill:#757575;}.cls-3{fill:#6f7070;}.cls-4{fill:#707171;}.cls-5{fill:#707070;}.cls-6{fill:#717272;}.cls-7{fill:#727373;}</style></defs><title>privacy-pledge</title><g id="Layer_2" data-name="Layer 2"><g id="Layer_1-2" data-name="Layer 1"><g id="Group_11356" data-name="Group 11356"><rect id="Rectangle_1937" data-name="Rectangle 1937" class="cls-1" width="228" height="124"/></g><path class="cls-2" d="M90.18,69c0-.31,0-.63,0-.94V43.43c0-.94,0-.94-.91-.94H46.69c-1.2,0-1.08-.09-1.08,1V68.39c0,1.4-.14,1.22,1.18,1.22q21.1,0,42.21,0a5.42,5.42,0,0,1,.57,0C90,69.66,90.22,69.5,90.18,69Zm-14.47-8.3c0,1.67,0,1.68-1.54,2.42a14,14,0,0,1-6.28,1.64,16.23,16.23,0,0,1-7.45-2.25.61.61,0,0,1-.38-.58c0-1.47,0-2.93,0-4.4a1.35,1.35,0,0,1,.84.19c2.14.86,4.28,1.72,6.42,2.6a1.45,1.45,0,0,0,1.24,0c2-.85,4-1.66,6.07-2.47a2.22,2.22,0,0,1,1.07-.3Zm6.34-6.81c-4.45,1.8-8.92,3.6-13.37,5.43a1.75,1.75,0,0,1-1.5,0q-6.51-2.64-13-5.24c0,.67,0,1.35-.08,2a6.84,6.84,0,0,1,0,1.5c.06.54,0,1.11.46,1.54a.58.58,0,0,1,.09.44,5.54,5.54,0,0,0,.25,2.52c.17.59,0,.73-.59.93h-.21a1.16,1.16,0,0,1-.64,0,.69.69,0,0,1-.52-.92,5.21,5.21,0,0,0,.25-2.54.51.51,0,0,1,.12-.52c.51-.4.33-1,.43-1.48a6.84,6.84,0,0,1,0-1.5l-.06-2.24a1.23,1.23,0,0,1-.65-.33c.12-.27.39-.31.61-.41Q60.47,50,67.3,46.93a1.43,1.43,0,0,1,1.32,0c4.53,2.1,9.09,4.17,13.63,6.26.18.08.44.1.52.37A1.92,1.92,0,0,1,82.05,53.93ZM90.18,69c0-.31,0-.63,0-.94V43.43c0-.94,0-.94-.91-.94H46.69c-1.2,0-1.08-.09-1.08,1V68.39c0,1.4-.14,1.22,1.18,1.22q21.1,0,42.21,0a5.42,5.42,0,0,1,.57,0C90,69.66,90.22,69.5,90.18,69Zm-14.47-8.3c0,1.67,0,1.68-1.54,2.42a14,14,0,0,1-6.28,1.64,16.23,16.23,0,0,1-7.45-2.25.61.61,0,0,1-.38-.58c0-1.47,0-2.93,0-4.4a1.35,1.35,0,0,1,.84.19c2.14.86,4.28,1.72,6.42,2.6a1.45,1.45,0,0,0,1.24,0c2-.85,4-1.66,6.07-2.47a2.22,2.22,0,0,1,1.07-.3Zm6.34-6.81c-4.45,1.8-8.92,3.6-13.37,5.43a1.75,1.75,0,0,1-1.5,0q-6.51-2.64-13-5.24c0,.67,0,1.35-.08,2a6.84,6.84,0,0,1,0,1.5c.06.54,0,1.11.46,1.54a.58.58,0,0,1,.09.44,5.54,5.54,0,0,0,.25,2.52c.17.59,0,.73-.59.93h-.21a1.16,1.16,0,0,1-.64,0,.69.69,0,0,1-.52-.92,5.21,5.21,0,0,0,.25-2.54.51.51,0,0,1,.12-.52c.51-.4.33-1,.43-1.48a6.84,6.84,0,0,1,0-1.5l-.06-2.24a1.23,1.23,0,0,1-.65-.33c.12-.27.39-.31.61-.41Q60.47,50,67.3,46.93a1.43,1.43,0,0,1,1.32,0c4.53,2.1,9.09,4.17,13.63,6.26.18.08.44.1.52.37A1.92,1.92,0,0,1,82.05,53.93ZM90.18,69c0-.31,0-.63,0-.94V43.43c0-.94,0-.94-.91-.94H46.69c-1.2,0-1.08-.09-1.08,1V68.39c0,1.4-.14,1.22,1.18,1.22q21.1,0,42.21,0a5.42,5.42,0,0,1,.57,0C90,69.66,90.22,69.5,90.18,69Zm-14.47-8.3c0,1.67,0,1.68-1.54,2.42a14,14,0,0,1-6.28,1.64,16.23,16.23,0,0,1-7.45-2.25.61.61,0,0,1-.38-.58c0-1.47,0-2.93,0-4.4a1.35,1.35,0,0,1,.84.19c2.14.86,4.28,1.72,6.42,2.6a1.45,1.45,0,0,0,1.24,0c2-.85,4-1.66,6.07-2.47a2.22,2.22,0,0,1,1.07-.3Zm6.34-6.81c-4.45,1.8-8.92,3.6-13.37,5.43a1.75,1.75,0,0,1-1.5,0q-6.51-2.64-13-5.24c0,.67,0,1.35-.08,2a6.84,6.84,0,0,1,0,1.5c.06.54,0,1.11.46,1.54a.58.58,0,0,1,.09.44,5.54,5.54,0,0,0,.25,2.52c.17.59,0,.73-.59.93h-.21a1.16,1.16,0,0,1-.64,0,.69.69,0,0,1-.52-.92,5.21,5.21,0,0,0,.25-2.54.51.51,0,0,1,.12-.52c.51-.4.33-1,.43-1.48a6.84,6.84,0,0,1,0-1.5l-.06-2.24a1.23,1.23,0,0,1-.65-.33c.12-.27.39-.31.61-.41Q60.47,50,67.3,46.93a1.43,1.43,0,0,1,1.32,0c4.53,2.1,9.09,4.17,13.63,6.26.18.08.44.1.52.37A1.92,1.92,0,0,1,82.05,53.93ZM90.18,69c0-.31,0-.63,0-.94V43.43c0-.94,0-.94-.91-.94H46.69c-1.2,0-1.08-.09-1.08,1V68.39c0,1.4-.14,1.22,1.18,1.22q21.1,0,42.21,0a5.42,5.42,0,0,1,.57,0C90,69.66,90.22,69.5,90.18,69Zm-14.47-8.3c0,1.67,0,1.68-1.54,2.42a14,14,0,0,1-6.28,1.64,16.23,16.23,0,0,1-7.45-2.25.61.61,0,0,1-.38-.58c0-1.47,0-2.93,0-4.4a1.35,1.35,0,0,1,.84.19c2.14.86,4.28,1.72,6.42,2.6a1.45,1.45,0,0,0,1.24,0c2-.85,4-1.66,6.07-2.47a2.22,2.22,0,0,1,1.07-.3Zm6.34-6.81c-4.45,1.8-8.92,3.6-13.37,5.43a1.75,1.75,0,0,1-1.5,0q-6.51-2.64-13-5.24c0,.67,0,1.35-.08,2a6.84,6.84,0,0,1,0,1.5c.06.54,0,1.11.46,1.54a.58.58,0,0,1,.09.44,5.54,5.54,0,0,0,.25,2.52c.17.59,0,.73-.59.93h-.21a1.16,1.16,0,0,1-.64,0,.69.69,0,0,1-.52-.92,5.21,5.21,0,0,0,.25-2.54.51.51,0,0,1,.12-.52c.51-.4.33-1,.43-1.48a6.84,6.84,0,0,1,0-1.5l-.06-2.24a1.23,1.23,0,0,1-.65-.33c.12-.27.39-.31.61-.41Q60.47,50,67.3,46.93a1.43,1.43,0,0,1,1.32,0c4.53,2.1,9.09,4.17,13.63,6.26.18.08.44.1.52.37A1.92,1.92,0,0,1,82.05,53.93ZM90.18,69c0-.31,0-.63,0-.94V43.43c0-.94,0-.94-.91-.94H46.69c-1.2,0-1.08-.09-1.08,1V68.39c0,1.4-.14,1.22,1.18,1.22q21.1,0,42.21,0a5.42,5.42,0,0,1,.57,0C90,69.66,90.22,69.5,90.18,69Zm-14.47-8.3c0,1.67,0,1.68-1.54,2.42a14,14,0,0,1-6.28,1.64,16.23,16.23,0,0,1-7.45-2.25.61.61,0,0,1-.38-.58c0-1.47,0-2.93,0-4.4a1.35,1.35,0,0,1,.84.19c2.14.86,4.28,1.72,6.42,2.6a1.45,1.45,0,0,0,1.24,0c2-.85,4-1.66,6.07-2.47a2.22,2.22,0,0,1,1.07-.3Zm6.34-6.81c-4.45,1.8-8.92,3.6-13.37,5.43a1.75,1.75,0,0,1-1.5,0q-6.51-2.64-13-5.24c0,.67,0,1.35-.08,2a6.84,6.84,0,0,1,0,1.5c.06.54,0,1.11.46,1.54a.58.58,0,0,1,.09.44,5.54,5.54,0,0,0,.25,2.52c.17.59,0,.73-.59.93h-.21a1.16,1.16,0,0,1-.64,0,.69.69,0,0,1-.52-.92,5.21,5.21,0,0,0,.25-2.54.51.51,0,0,1,.12-.52c.51-.4.33-1,.43-1.48a6.84,6.84,0,0,1,0-1.5l-.06-2.24a1.23,1.23,0,0,1-.65-.33c.12-.27.39-.31.61-.41Q60.47,50,67.3,46.93a1.43,1.43,0,0,1,1.32,0c4.53,2.1,9.09,4.17,13.63,6.26.18.08.44.1.52.37A1.92,1.92,0,0,1,82.05,53.93ZM90.18,69c0-.31,0-.63,0-.94V43.43c0-.94,0-.94-.91-.94H46.69c-1.2,0-1.08-.09-1.08,1V68.39c0,1.4-.14,1.22,1.18,1.22q21.1,0,42.21,0a5.42,5.42,0,0,1,.57,0C90,69.66,90.22,69.5,90.18,69Zm-14.47-8.3c0,1.67,0,1.68-1.54,2.42a14,14,0,0,1-6.28,1.64,16.23,16.23,0,0,1-7.45-2.25.61.61,0,0,1-.38-.58c0-1.47,0-2.93,0-4.4a1.35,1.35,0,0,1,.84.19c2.14.86,4.28,1.72,6.42,2.6a1.45,1.45,0,0,0,1.24,0c2-.85,4-1.66,6.07-2.47a2.22,2.22,0,0,1,1.07-.3Zm6.34-6.81c-4.45,1.8-8.92,3.6-13.37,5.43a1.75,1.75,0,0,1-1.5,0q-6.51-2.64-13-5.24c0,.67,0,1.35-.08,2a6.84,6.84,0,0,1,0,1.5c.06.54,0,1.11.46,1.54a.58.58,0,0,1,.09.44,5.54,5.54,0,0,0,.25,2.52c.17.59,0,.73-.59.93h-.21a1.16,1.16,0,0,1-.64,0,.69.69,0,0,1-.52-.92,5.21,5.21,0,0,0,.25-2.54.51.51,0,0,1,.12-.52c.51-.4.33-1,.43-1.48a6.84,6.84,0,0,1,0-1.5l-.06-2.24a1.23,1.23,0,0,1-.65-.33c.12-.27.39-.31.61-.41Q60.47,50,67.3,46.93a1.43,1.43,0,0,1,1.32,0c4.53,2.1,9.09,4.17,13.63,6.26.18.08.44.1.52.37A1.92,1.92,0,0,1,82.05,53.93ZM90.18,69c0-.31,0-.63,0-.94V43.43c0-.94,0-.94-.91-.94H46.69c-1.2,0-1.08-.09-1.08,1V68.39c0,1.4-.14,1.22,1.18,1.22q21.1,0,42.21,0a5.42,5.42,0,0,1,.57,0C90,69.66,90.22,69.5,90.18,69Zm-14.47-8.3c0,1.67,0,1.68-1.54,2.42a14,14,0,0,1-6.28,1.64,16.23,16.23,0,0,1-7.45-2.25.61.61,0,0,1-.38-.58c0-1.47,0-2.93,0-4.4a1.35,1.35,0,0,1,.84.19c2.14.86,4.28,1.72,6.42,2.6a1.45,1.45,0,0,0,1.24,0c2-.85,4-1.66,6.07-2.47a2.22,2.22,0,0,1,1.07-.3Zm6.34-6.81c-4.45,1.8-8.92,3.6-13.37,5.43a1.75,1.75,0,0,1-1.5,0q-6.51-2.64-13-5.24c0,.67,0,1.35-.08,2a6.84,6.84,0,0,1,0,1.5c.06.54,0,1.11.46,1.54a.58.58,0,0,1,.09.44,5.54,5.54,0,0,0,.25,2.52c.17.59,0,.73-.59.93h-.21a1.16,1.16,0,0,1-.64,0,.69.69,0,0,1-.52-.92,5.21,5.21,0,0,0,.25-2.54.51.51,0,0,1,.12-.52c.51-.4.33-1,.43-1.48a6.84,6.84,0,0,1,0-1.5l-.06-2.24a1.23,1.23,0,0,1-.65-.33c.12-.27.39-.31.61-.41Q60.47,50,67.3,46.93a1.43,1.43,0,0,1,1.32,0c4.53,2.1,9.09,4.17,13.63,6.26.18.08.44.1.52.37A1.92,1.92,0,0,1,82.05,53.93ZM90.18,69c0-.31,0-.63,0-.94V43.43c0-.94,0-.94-.91-.94H46.69c-1.2,0-1.08-.09-1.08,1V68.39c0,1.4-.14,1.22,1.18,1.22q21.1,0,42.21,0a5.42,5.42,0,0,1,.57,0C90,69.66,90.22,69.5,90.18,69Zm-14.47-8.3c0,1.67,0,1.68-1.54,2.42a14,14,0,0,1-6.28,1.64,16.23,16.23,0,0,1-7.45-2.25.61.61,0,0,1-.38-.58c0-1.47,0-2.93,0-4.4a1.35,1.35,0,0,1,.84.19c2.14.86,4.28,1.72,6.42,2.6a1.45,1.45,0,0,0,1.24,0c2-.85,4-1.66,6.07-2.47a2.22,2.22,0,0,1,1.07-.3Zm6.34-6.81c-4.45,1.8-8.92,3.6-13.37,5.43a1.75,1.75,0,0,1-1.5,0q-6.51-2.64-13-5.24c0,.67,0,1.35-.08,2a6.84,6.84,0,0,1,0,1.5c.06.54,0,1.11.46,1.54a.58.58,0,0,1,.09.44,5.54,5.54,0,0,0,.25,2.52c.17.59,0,.73-.59.93h-.21a1.16,1.16,0,0,1-.64,0,.69.69,0,0,1-.52-.92,5.21,5.21,0,0,0,.25-2.54.51.51,0,0,1,.12-.52c.51-.4.33-1,.43-1.48a6.84,6.84,0,0,1,0-1.5l-.06-2.24a1.23,1.23,0,0,1-.65-.33c.12-.27.39-.31.61-.41Q60.47,50,67.3,46.93a1.43,1.43,0,0,1,1.32,0c4.53,2.1,9.09,4.17,13.63,6.26.18.08.44.1.52.37A1.92,1.92,0,0,1,82.05,53.93Zm27-15.89a17.66,17.66,0,0,0-.43-3.9A17,17,0,0,0,92.13,21Q68,21,43.9,21A16.84,16.84,0,0,0,27,37.85c0,8,0,16.08,0,24.11V85.9a17.57,17.57,0,0,0,.21,3A16.91,16.91,0,0,0,43.75,103q24.25,0,48.51,0a15.52,15.52,0,0,0,3.72-.45A16.93,16.93,0,0,0,109.05,86Q109.08,62,109.05,38ZM42.17,36.83a6.94,6.94,0,0,1,1.35-.38,14.08,14.08,0,0,1,2-.19h44.1a8.47,8.47,0,0,1,3.89.92A4.09,4.09,0,0,1,96,41.1q0,15.67,0,31.34c0,.88,0,.89-.95.89H40.67c-.21,0-.43,0-.65,0-.52.06-.68-.2-.63-.67a1.31,1.31,0,0,0,0-.28c0-10.51,0-21,0-31.53A4.12,4.12,0,0,1,42.17,36.83Zm54.9,47.33c-9.72-.06-19.45,0-29.18,0h-29A4.1,4.1,0,0,1,37.41,84a2.88,2.88,0,0,1-2-2.68c-.07-1.53,0-3.06,0-4.6,0-.35.13-.52.49-.5.19,0,.38,0,.57,0H59.79c.19,0,.38,0,.57,0s.43.07.53.38a1.54,1.54,0,0,0,1.67,1.08h10.7a1.53,1.53,0,0,0,1.65-1.1c.07-.26.2-.37.45-.36s.44,0,.66,0H99.29c1.28,0,1.12-.12,1.13,1.17,0,1.13,0,2.26,0,3.38A3.17,3.17,0,0,1,97.07,84.16ZM46.79,69.61q21.1,0,42.21,0a5.42,5.42,0,0,1,.57,0c.43,0,.65-.12.61-.58s0-.63,0-.94V43.43c0-.94,0-.94-.91-.94H46.69c-1.2,0-1.08-.09-1.08,1V68.39C45.61,69.79,45.47,69.61,46.79,69.61Zm28.92-8.87c0,1.67,0,1.68-1.54,2.42a14,14,0,0,1-6.28,1.64,16.23,16.23,0,0,1-7.45-2.25.61.61,0,0,1-.38-.58c0-1.47,0-2.93,0-4.4a1.35,1.35,0,0,1,.84.19c2.14.86,4.28,1.72,6.42,2.6a1.45,1.45,0,0,0,1.24,0c2-.85,4-1.66,6.07-2.47a2.22,2.22,0,0,1,1.07-.3ZM52.92,62.16a5.21,5.21,0,0,0,.25-2.54.51.51,0,0,1,.12-.52c.51-.4.33-1,.43-1.48a6.84,6.84,0,0,1,0-1.5l-.06-2.24a1.23,1.23,0,0,1-.65-.33c.12-.27.39-.31.61-.41Q60.47,50,67.3,46.93a1.43,1.43,0,0,1,1.32,0c4.53,2.1,9.09,4.17,13.63,6.26.18.08.44.1.52.37a1.92,1.92,0,0,1-.72.38c-4.45,1.8-8.92,3.6-13.37,5.43a1.75,1.75,0,0,1-1.5,0q-6.51-2.64-13-5.24c0,.67,0,1.35-.08,2a6.84,6.84,0,0,1,0,1.5c.06.54,0,1.11.46,1.54a.58.58,0,0,1,.09.44,5.54,5.54,0,0,0,.25,2.52c.17.59,0,.73-.59.93h-.21a1.16,1.16,0,0,1-.64,0A.69.69,0,0,1,52.92,62.16ZM90.18,69c0-.31,0-.63,0-.94V43.43c0-.94,0-.94-.91-.94H46.69c-1.2,0-1.08-.09-1.08,1V68.39c0,1.4-.14,1.22,1.18,1.22q21.1,0,42.21,0a5.42,5.42,0,0,1,.57,0C90,69.66,90.22,69.5,90.18,69Zm-14.47-8.3c0,1.67,0,1.68-1.54,2.42a14,14,0,0,1-6.28,1.64,16.23,16.23,0,0,1-7.45-2.25.61.61,0,0,1-.38-.58c0-1.47,0-2.93,0-4.4a1.35,1.35,0,0,1,.84.19c2.14.86,4.28,1.72,6.42,2.6a1.45,1.45,0,0,0,1.24,0c2-.85,4-1.66,6.07-2.47a2.22,2.22,0,0,1,1.07-.3Zm6.34-6.81c-4.45,1.8-8.92,3.6-13.37,5.43a1.75,1.75,0,0,1-1.5,0q-6.51-2.64-13-5.24c0,.67,0,1.35-.08,2a6.84,6.84,0,0,1,0,1.5c.06.54,0,1.11.46,1.54a.58.58,0,0,1,.09.44,5.54,5.54,0,0,0,.25,2.52c.17.59,0,.73-.59.93h-.21a1.16,1.16,0,0,1-.64,0,.69.69,0,0,1-.52-.92,5.21,5.21,0,0,0,.25-2.54.51.51,0,0,1,.12-.52c.51-.4.33-1,.43-1.48a6.84,6.84,0,0,1,0-1.5l-.06-2.24a1.23,1.23,0,0,1-.65-.33c.12-.27.39-.31.61-.41Q60.47,50,67.3,46.93a1.43,1.43,0,0,1,1.32,0c4.53,2.1,9.09,4.17,13.63,6.26.18.08.44.1.52.37A1.92,1.92,0,0,1,82.05,53.93ZM90.18,69c0-.31,0-.63,0-.94V43.43c0-.94,0-.94-.91-.94H46.69c-1.2,0-1.08-.09-1.08,1V68.39c0,1.4-.14,1.22,1.18,1.22q21.1,0,42.21,0a5.42,5.42,0,0,1,.57,0C90,69.66,90.22,69.5,90.18,69Zm-14.47-8.3c0,1.67,0,1.68-1.54,2.42a14,14,0,0,1-6.28,1.64,16.23,16.23,0,0,1-7.45-2.25.61.61,0,0,1-.38-.58c0-1.47,0-2.93,0-4.4a1.35,1.35,0,0,1,.84.19c2.14.86,4.28,1.72,6.42,2.6a1.45,1.45,0,0,0,1.24,0c2-.85,4-1.66,6.07-2.47a2.22,2.22,0,0,1,1.07-.3Zm6.34-6.81c-4.45,1.8-8.92,3.6-13.37,5.43a1.75,1.75,0,0,1-1.5,0q-6.51-2.64-13-5.24c0,.67,0,1.35-.08,2a6.84,6.84,0,0,1,0,1.5c.06.54,0,1.11.46,1.54a.58.58,0,0,1,.09.44,5.54,5.54,0,0,0,.25,2.52c.17.59,0,.73-.59.93h-.21a1.16,1.16,0,0,1-.64,0,.69.69,0,0,1-.52-.92,5.21,5.21,0,0,0,.25-2.54.51.51,0,0,1,.12-.52c.51-.4.33-1,.43-1.48a6.84,6.84,0,0,1,0-1.5l-.06-2.24a1.23,1.23,0,0,1-.65-.33c.12-.27.39-.31.61-.41Q60.47,50,67.3,46.93a1.43,1.43,0,0,1,1.32,0c4.53,2.1,9.09,4.17,13.63,6.26.18.08.44.1.52.37A1.92,1.92,0,0,1,82.05,53.93ZM90.18,69c0-.31,0-.63,0-.94V43.43c0-.94,0-.94-.91-.94H46.69c-1.2,0-1.08-.09-1.08,1V68.39c0,1.4-.14,1.22,1.18,1.22q21.1,0,42.21,0a5.42,5.42,0,0,1,.57,0C90,69.66,90.22,69.5,90.18,69Zm-14.47-8.3c0,1.67,0,1.68-1.54,2.42a14,14,0,0,1-6.28,1.64,16.23,16.23,0,0,1-7.45-2.25.61.61,0,0,1-.38-.58c0-1.47,0-2.93,0-4.4a1.35,1.35,0,0,1,.84.19c2.14.86,4.28,1.72,6.42,2.6a1.45,1.45,0,0,0,1.24,0c2-.85,4-1.66,6.07-2.47a2.22,2.22,0,0,1,1.07-.3Zm6.34-6.81c-4.45,1.8-8.92,3.6-13.37,5.43a1.75,1.75,0,0,1-1.5,0q-6.51-2.64-13-5.24c0,.67,0,1.35-.08,2a6.84,6.84,0,0,1,0,1.5c.06.54,0,1.11.46,1.54a.58.58,0,0,1,.09.44,5.54,5.54,0,0,0,.25,2.52c.17.59,0,.73-.59.93h-.21a1.16,1.16,0,0,1-.64,0,.69.69,0,0,1-.52-.92,5.21,5.21,0,0,0,.25-2.54.51.51,0,0,1,.12-.52c.51-.4.33-1,.43-1.48a6.84,6.84,0,0,1,0-1.5l-.06-2.24a1.23,1.23,0,0,1-.65-.33c.12-.27.39-.31.61-.41Q60.47,50,67.3,46.93a1.43,1.43,0,0,1,1.32,0c4.53,2.1,9.09,4.17,13.63,6.26.18.08.44.1.52.37A1.92,1.92,0,0,1,82.05,53.93ZM90.18,69c0-.31,0-.63,0-.94V43.43c0-.94,0-.94-.91-.94H46.69c-1.2,0-1.08-.09-1.08,1V68.39c0,1.4-.14,1.22,1.18,1.22q21.1,0,42.21,0a5.42,5.42,0,0,1,.57,0C90,69.66,90.22,69.5,90.18,69Zm-14.47-8.3c0,1.67,0,1.68-1.54,2.42a14,14,0,0,1-6.28,1.64,16.23,16.23,0,0,1-7.45-2.25.61.61,0,0,1-.38-.58c0-1.47,0-2.93,0-4.4a1.35,1.35,0,0,1,.84.19c2.14.86,4.28,1.72,6.42,2.6a1.45,1.45,0,0,0,1.24,0c2-.85,4-1.66,6.07-2.47a2.22,2.22,0,0,1,1.07-.3Zm6.34-6.81c-4.45,1.8-8.92,3.6-13.37,5.43a1.75,1.75,0,0,1-1.5,0q-6.51-2.64-13-5.24c0,.67,0,1.35-.08,2a6.84,6.84,0,0,1,0,1.5c.06.54,0,1.11.46,1.54a.58.58,0,0,1,.09.44,5.54,5.54,0,0,0,.25,2.52c.17.59,0,.73-.59.93h-.21a1.16,1.16,0,0,1-.64,0,.69.69,0,0,1-.52-.92,5.21,5.21,0,0,0,.25-2.54.51.51,0,0,1,.12-.52c.51-.4.33-1,.43-1.48a6.84,6.84,0,0,1,0-1.5l-.06-2.24a1.23,1.23,0,0,1-.65-.33c.12-.27.39-.31.61-.41Q60.47,50,67.3,46.93a1.43,1.43,0,0,1,1.32,0c4.53,2.1,9.09,4.17,13.63,6.26.18.08.44.1.52.37A1.92,1.92,0,0,1,82.05,53.93ZM90.18,69c0-.31,0-.63,0-.94V43.43c0-.94,0-.94-.91-.94H46.69c-1.2,0-1.08-.09-1.08,1V68.39c0,1.4-.14,1.22,1.18,1.22q21.1,0,42.21,0a5.42,5.42,0,0,1,.57,0C90,69.66,90.22,69.5,90.18,69Zm-14.47-8.3c0,1.67,0,1.68-1.54,2.42a14,14,0,0,1-6.28,1.64,16.23,16.23,0,0,1-7.45-2.25.61.61,0,0,1-.38-.58c0-1.47,0-2.93,0-4.4a1.35,1.35,0,0,1,.84.19c2.14.86,4.28,1.72,6.42,2.6a1.45,1.45,0,0,0,1.24,0c2-.85,4-1.66,6.07-2.47a2.22,2.22,0,0,1,1.07-.3Zm6.34-6.81c-4.45,1.8-8.92,3.6-13.37,5.43a1.75,1.75,0,0,1-1.5,0q-6.51-2.64-13-5.24c0,.67,0,1.35-.08,2a6.84,6.84,0,0,1,0,1.5c.06.54,0,1.11.46,1.54a.58.58,0,0,1,.09.44,5.54,5.54,0,0,0,.25,2.52c.17.59,0,.73-.59.93h-.21a1.16,1.16,0,0,1-.64,0,.69.69,0,0,1-.52-.92,5.21,5.21,0,0,0,.25-2.54.51.51,0,0,1,.12-.52c.51-.4.33-1,.43-1.48a6.84,6.84,0,0,1,0-1.5l-.06-2.24a1.23,1.23,0,0,1-.65-.33c.12-.27.39-.31.61-.41Q60.47,50,67.3,46.93a1.43,1.43,0,0,1,1.32,0c4.53,2.1,9.09,4.17,13.63,6.26.18.08.44.1.52.37A1.92,1.92,0,0,1,82.05,53.93ZM90.18,69c0-.31,0-.63,0-.94V43.43c0-.94,0-.94-.91-.94H46.69c-1.2,0-1.08-.09-1.08,1V68.39c0,1.4-.14,1.22,1.18,1.22q21.1,0,42.21,0a5.42,5.42,0,0,1,.57,0C90,69.66,90.22,69.5,90.18,69Zm-14.47-8.3c0,1.67,0,1.68-1.54,2.42a14,14,0,0,1-6.28,1.64,16.23,16.23,0,0,1-7.45-2.25.61.61,0,0,1-.38-.58c0-1.47,0-2.93,0-4.4a1.35,1.35,0,0,1,.84.19c2.14.86,4.28,1.72,6.42,2.6a1.45,1.45,0,0,0,1.24,0c2-.85,4-1.66,6.07-2.47a2.22,2.22,0,0,1,1.07-.3Zm6.34-6.81c-4.45,1.8-8.92,3.6-13.37,5.43a1.75,1.75,0,0,1-1.5,0q-6.51-2.64-13-5.24c0,.67,0,1.35-.08,2a6.84,6.84,0,0,1,0,1.5c.06.54,0,1.11.46,1.54a.58.58,0,0,1,.09.44,5.54,5.54,0,0,0,.25,2.52c.17.59,0,.73-.59.93h-.21a1.16,1.16,0,0,1-.64,0,.69.69,0,0,1-.52-.92,5.21,5.21,0,0,0,.25-2.54.51.51,0,0,1,.12-.52c.51-.4.33-1,.43-1.48a6.84,6.84,0,0,1,0-1.5l-.06-2.24a1.23,1.23,0,0,1-.65-.33c.12-.27.39-.31.61-.41Q60.47,50,67.3,46.93a1.43,1.43,0,0,1,1.32,0c4.53,2.1,9.09,4.17,13.63,6.26.18.08.44.1.52.37A1.92,1.92,0,0,1,82.05,53.93Z"/><path class="cls-3" d="M167.11,64.76a7.54,7.54,0,0,0-2.3-.42l-5.82,0c-.69,0-.71,0-.71.75,0,2.07,0,4.13,0,6.2s0,4.25,0,6.38c0,.42.09.62.57.62,2,0,4,.07,6,0,4.07-.26,6.72-2.83,6.83-6.68A6.5,6.5,0,0,0,167.11,64.76Zm.86,6.86a3.64,3.64,0,0,1-3.81,3.46c-.57,0-1.13,0-1.69,0s-.61-.14-.6-.59c0-1.09,0-2.18,0-3.28s0-2.11,0-3.17c0-.45.17-.63.61-.61.78,0,1.55,0,2.33.07A3.54,3.54,0,0,1,168,71.62Z"/><path class="cls-3" d="M186.57,67.49,184,68.85c-.25.13-.46.16-.63-.12a.88.88,0,0,0-.12-.15,3.31,3.31,0,0,0-3.7-1.15,3.63,3.63,0,0,0-2.68,3,3.92,3.92,0,0,0,2.76,4.76,4.14,4.14,0,0,0,3.17-.44,1,1,0,0,0,.38-1.13c-.09-.23-.29-.19-.47-.19-.72,0-1.44,0-2.16,0-.35,0-.51-.12-.51-.49,0-.75,0-1.5,0-2.25,0-.32.14-.44.45-.44h5.82c.37,0,.49.16.49.51,0,1.56,0,3.12,0,4.69a1,1,0,0,1-.32.74c-3.29,3.35-9.27,3-11.88-.36a7.14,7.14,0,0,1-.95-7.36,6.76,6.76,0,0,1,5.54-4.24,7.78,7.78,0,0,1,3.71.21A6,6,0,0,1,186.57,67.49Z"/><path class="cls-3" d="M189.28,71.27q0-3,0-6.1c0-.84,0-.85.8-.85h8.72c.72,0,.72,0,.73.74q0,.8,0,1.59c0,.78,0,.79-.77.79-1.56,0-3.12,0-4.69,0-1.26,0-1.13-.1-1.14,1.18,0,.12,0,.25,0,.37-.06.51.2.63.66.63,1.69,0,3.38,0,5.07,0,.7,0,.7,0,.71.74,0,.56,0,1.13,0,1.69,0,.73,0,.74-.71.74h-5.26c-.29,0-.48.09-.46.42a.31.31,0,0,1,0,.1c-.14,1.77-.14,1.77,1.65,1.77,1.44,0,2.88,0,4.31,0,.48,0,.68.14.65.64,0,.65,0,1.31,0,2,0,.46-.16.59-.6.59-1.41,0-2.81,0-4.22,0h-4.32c-1.25,0-1.12.14-1.12-1.18C189.28,75.15,189.28,73.21,189.28,71.27Z"/><path class="cls-3" d="M145.17,71.26q0-3.09,0-6.19c0-.73,0-.75.71-.75h8.82c.68,0,.69,0,.71.66s0,1.25,0,1.87c0,.46-.18.6-.61.6-1.57,0-3.13,0-4.69,0-.25,0-.5,0-.75,0s-.55.12-.58.54c-.13,1.63-.14,1.63,1.53,1.63,1.41,0,2.82,0,4.22,0,.69,0,.7,0,.71.66s0,1.25,0,1.87-.15.66-.65.65c-1.43,0-2.87,0-4.31,0-1.74,0-1.48-.31-1.5,1.55,0,.72,0,.74.72.74,1.71,0,3.43,0,5.15,0,.72,0,.73,0,.74.72s0,1.25,0,1.87c0,.46-.16.6-.6.6-1.38,0-2.75,0-4.13,0H146c-.82,0-.83,0-.83-.81Q145.16,74.36,145.17,71.26Z"/><path class="cls-3" d="M132.06,67.39a4.23,4.23,0,0,0-4-3c-2.28-.07-4.56,0-6.85,0-.73,0-.74,0-.74.81,0,2,0,4.06,0,6.09s0,4.19,0,6.29c0,.73,0,.74.7.75s1.5,0,2.26,0c.47,0,.66-.14.65-.64,0-1.15,0-2.31,0-3.47,0-.43.12-.61.59-.6,1,0,2,0,3,0A4.57,4.57,0,0,0,132.06,67.39Zm-4.75,3h-1.49c-.37,0-.75,0-1.12,0s-.64-.09-.62-.56c0-.63,0-1.25,0-1.87,0-.41.18-.55.56-.54.75,0,1.49,0,2.24,0a2.53,2.53,0,0,1,.55.09A1.43,1.43,0,0,1,128.61,69,1.47,1.47,0,0,1,127.31,70.38Z"/><path class="cls-3" d="M140.85,55.28c.2-.31.52-.31.76-.44a3.71,3.71,0,0,0,2-2.5c.58-2.68-.65-5.31-4-5.54-2.08-.15-4.19,0-6.28,0-.35,0-.52.14-.52.5s0,.43,0,.65V59.16c0,.19,0,.37,0,.56,0,.4.14.57.54.55s1.07,0,1.6,0c.78,0,.78,0,.79-.76,0-1,0-1.94,0-2.91,0-1.19-.12-1,1.13-1.1a1.32,1.32,0,0,1,1.45.87c.56,1.15,1.22,2.25,1.84,3.37.15.28.29.54.68.53.93,0,1.86,0,2.95,0ZM139,52.91c-.93.05-1.87,0-2.81,0-.31,0-.45-.11-.45-.43,0-.91,0-1.81,0-2.72,0-.32.15-.44.46-.44h1.4c.47,0,.94,0,1.41,0a1.78,1.78,0,0,1,0,3.56Z"/><path class="cls-3" d="M175.38,59.56l-1.17-3.06c-1.15-3-2.28-5.94-3.44-8.91-.37-1-.25-.83-1.18-.84h-2c-.78,0-.79,0-1.07.74-1.54,4-3.08,8-4.61,12a1,1,0,0,0-.14.81c.88,0,1.75,0,2.63,0a.59.59,0,0,0,.67-.48c.14-.45.34-.87.48-1.32a.6.6,0,0,1,.69-.47c1.59,0,3.18,0,4.78,0a.63.63,0,0,1,.67.5c.16.47.34.94.51,1.41a.47.47,0,0,0,.47.37h2.76A.82.82,0,0,0,175.38,59.56Zm-8.78-4.2,2-5.4.2,0c.63,1.76,1.27,3.51,1.94,5.36Z"/><path class="cls-3" d="M187.34,38v-.81c0-1.81,0-3.62,0-5.43,0-.79,0-.81.74-.8.56,0,1.26-.23,1.64.1s.17,1.13.17,1.71c0,2.94,0,5.87,0,8.81,0,.22,0,.44,0,.66,0,.37-.13.54-.54.56-1.83.12-1.83.14-2.91-1.35l-3.93-5.37a1.91,1.91,0,0,0-.59-.66,1.18,1.18,0,0,0-.1.71v5.62c0,1.23-.06,1-1,1H180c-.7,0-.71,0-.71-.74,0-2.78,0-5.56,0-8.34,0-.75,0-1.5,0-2.25,0-.35.12-.53.48-.5h.1c2-.11,2-.11,3.13,1.49l3.78,5.13C186.9,37.72,187,38,187.34,38Z"/><path class="cls-3" d="M131.25,50.29a4.15,4.15,0,0,0-4.31-3.53c-1.9,0-3.81,0-5.72,0-.71,0-.73,0-.73.72,0,2,0,3.94,0,5.91v6.2c0,.66,0,.66.68.68h1.5c.66,0,.67,0,.68-.68,0-1.07,0-2.13,0-3.19,0-.9,0-.9.94-.9s1.69,0,2.53,0C129.92,55.38,131.69,53.29,131.25,50.29Zm-4.58,2.61c-.38,0-2,0-2.82,0a.41.41,0,0,1-.39-.4l0-2.8a.38.38,0,0,1,.38-.39c.76,0,2.37,0,2.73,0a1.78,1.78,0,0,1,.08,3.55Z"/><path class="cls-3" d="M156.52,56.84l2.69-7.42c.26-.74.52-1.47.79-2.2.09-.23.17-.47.51-.47h2.75c.15.42-.07.69-.17,1q-2.25,5.87-4.51,11.71c-.34.87-.17.83-1.2.83h-1.87c-1,0-.84.13-1.24-.89-1-2.56-2-5.12-3-7.69l-1.52-3.93c-.11-.29-.2-.58-.36-1h2.95c.43,0,.45.38.55.65.6,1.64,1.19,3.29,1.78,4.93.48,1.33,1,2.64,1.44,4C156.22,56.48,156.22,56.68,156.52,56.84Z"/><path class="cls-3" d="M188.34,49.84a23.51,23.51,0,0,1-2.1,1.1c-.27.15-.4,0-.53-.19a3.73,3.73,0,0,0-4.82-1.21,4.45,4.45,0,0,0-2.29,4.82,4.36,4.36,0,0,0,1.26,2.46,3.81,3.81,0,0,0,5.66-.23c.48-.57.49-.56,1.14-.25.37.17.73.35,1.1.54.68.34.69.35.22,1a5.93,5.93,0,0,1-4.84,2.63A7.06,7.06,0,0,1,177.06,58c-2.9-3.54-1.74-10.15,4.12-11.27A6.56,6.56,0,0,1,187,48.06,4.42,4.42,0,0,1,188.34,49.84Z"/><path class="cls-3" d="M160.53,31c-1.46-.08-2.93,0-4.4,0-.77,0-.79,0-.79.79,0,1.72,0,3.43,0,5.15s0,3.5,0,5.25c0,.38,0,.67.55.66,1.62,0,3.25.08,4.87,0a5.52,5.52,0,0,0,5.07-3.44C167.27,35.8,165.56,31.23,160.53,31Zm0,9.54c-.72.07-1.44,0-2.16,0-.37,0-.48-.16-.47-.5,0-1.06,0-2.13,0-3.19s0-1.93,0-2.9c0-.73,0-.74.71-.75q.79,0,1.59,0a3.38,3.38,0,0,1,3.51,3.38A3.55,3.55,0,0,1,160.52,40.51Z"/><path class="cls-3" d="M141.91,35.09c0-1.19,0-2.37,0-3.56,0-.45.15-.62.6-.59s.87,0,1.31,0c.65,0,.67,0,.67.7,0,1.69,0,3.38,0,5.07,0,.5,0,1,0,1.5a2.74,2.74,0,0,0,5.47-.1c0-.87,0-1.75,0-2.63,0-1.28,0-2.56,0-3.84,0-.68,0-.69.66-.7.44,0,.88,0,1.31,0s.67.14.65.64c0,1.15,0,2.31,0,3.47a29.15,29.15,0,0,1-.06,3.74,4.38,4.38,0,0,1-4.06,4.12,7.4,7.4,0,0,1-3.34-.2,4.28,4.28,0,0,1-3.2-4.05c-.06-1.19,0-2.38,0-3.57Z"/><path class="cls-3" d="M120.85,39.16a6.46,6.46,0,0,0,2.66,1.45,5.22,5.22,0,0,0,1.67.09,1.91,1.91,0,0,0,1.11-.47.9.9,0,0,0-.14-1.56,5.17,5.17,0,0,0-1.59-.55,18.82,18.82,0,0,1-2.34-.64,3.16,3.16,0,0,1-2.35-3,3.35,3.35,0,0,1,2.26-3.25,6.71,6.71,0,0,1,6.49.91c.29.2.33.4.11.68-.37.47-.72.95-1.08,1.43-.33,0-.5-.25-.73-.39A5.22,5.22,0,0,0,124,33a2.23,2.23,0,0,0-.91.23,1,1,0,0,0-.59.89c0,.39.27.61.59.77a8,8,0,0,0,1.78.55,13.46,13.46,0,0,1,2.41.75,3.09,3.09,0,0,1,2,2.92,3.39,3.39,0,0,1-1.85,3.23,7.58,7.58,0,0,1-7.45-.81c-.48-.42-.49-.43-.11-1S120.49,39.65,120.85,39.16Z"/><path class="cls-3" d="M168.54,36.78c0-1.72,0-3.44,0-5.16,0-.65,0-.67.69-.67,2.34,0,4.68,0,7,0,.5,0,.63.19.62.66,0,2,.25,1.57-1.55,1.6-1.21,0-2.43,0-3.65,0-.48,0-.64.16-.65.64,0,1.81-.06,1.81,1.74,1.81,1.12,0,2.25,0,3.37,0,.47,0,.68.11.67.63-.05,2,.22,1.59-1.53,1.63-1.22,0-2.44,0-3.65,0-.46,0-.62.17-.59.61s0,.75,0,1.12c0,1-.09.94.9.93h4.12c.81,0,.82,0,.81.82,0,1.68.22,1.4-1.35,1.41-2,0-3.93,0-5.9,0-1.14,0-1.08.14-1.08-1Z"/><path class="cls-3" d="M134.21,71.22V65.13c0-.8,0-.8.84-.81h2.06c.67,0,.68,0,.69.67s0,1.44,0,2.16c0,2.4,0,4.8,0,7.21,0,.71,0,.72.72.72,1.41,0,2.81,0,4.22,0,.65,0,.66,0,.67.69s0,1.25,0,1.87-.2.63-.66.63c-2.62,0-5.25,0-7.87,0-.68,0-.69,0-.69-.76Z"/><path class="cls-3" d="M194.59,52.11c1-1.59,1.93-3,2.78-4.51a1.44,1.44,0,0,1,1.56-.86c.67.06,1.36,0,2,0,.1.42-.18.63-.34.88q-2.1,3.27-4.23,6.53a2.29,2.29,0,0,0-.41,1.39c0,1.35,0,2.69,0,4,0,.66,0,.66-.67.68s-1.07,0-1.6,0-.6-.14-.59-.59c0-1.37,0-2.75,0-4.12a2.33,2.33,0,0,0-.42-1.4c-1.51-2.3-3-4.61-4.5-6.92-.06-.1-.11-.21-.25-.47,1.09,0,2.1,0,3.1,0,.28,0,.36.32.49.53q1.21,1.95,2.41,3.9C194.16,51.48,194.34,51.73,194.59,52.11Z"/><path class="cls-3" d="M196,30.94c1.35,0,2.69,0,4,0,.46,0,.68.09.67.62-.06,2,.26,1.59-1.61,1.64-.37,0-.75,0-1.12,0-.7,0-.71,0-.71.75q0,3.79,0,7.59c0,.25,0,.5,0,.75s-.15.51-.51.5-.68,0-1,0c-1.1,0-1,.11-1-1q0-3.52,0-7c0-1.57,0-1.57-1.57-1.57-.44,0-.87,0-1.31,0s-.58-.19-.6-.61c-.09-1.65-.11-1.65,1.52-1.65Z"/><path class="cls-3" d="M133.86,38c0-1.34,0-2.69,0-4,0-.71,0-.71-.74-.72h-2c-.69,0-.71,0-.71-.65,0-2-.25-1.57,1.55-1.59,2.34,0,4.69,0,7,0,.84,0,.85,0,.85.79,0,1.72.23,1.41-1.41,1.46-.65,0-1.46-.28-1.89.17s-.12,1.19-.12,1.81c0,2.25,0,4.5,0,6.75,0,.84,0,.86-.79.85-.56,0-1.25.23-1.64-.12s-.13-1.06-.14-1.61C133.85,40,133.86,39,133.86,38Z"/><path class="cls-4" d="M145.55,53.58c0-2,0-4,0-6,0-.82,0-.82.84-.83H148c.36,0,.5.16.49.51s0,.62,0,.93v11c0,.22,0,.44,0,.66s-.15.44-.45.44c-.66,0-1.32,0-2,0-.36,0-.51-.14-.5-.5,0-.62,0-1.25,0-1.87Z"/><path class="cls-4" d="M145.29,84.61v.89c0,2,0,3.94,0,5.91,0,.7,0,.73-.83.73-.31,0-.46-.13-.45-.45,0-.12,0-.25,0-.38q0-4.11,0-8.24c0-.28-.18-.65.24-.82a1.3,1.3,0,0,1,1.27.31c.1.12.18.25.28.38l4.5,6.11c.15.19.25.43.51.55.23-.19.12-.45.12-.68,0-2,0-4,0-6,0-.64.44-.91,1-.68a.31.31,0,0,1,.21.28,5.15,5.15,0,0,1,0,.56c0,2.72,0,5.43,0,8.15,0,.3.2.72-.27.88a1.09,1.09,0,0,1-1.23-.41c-1.56-2.11-3.1-4.23-4.65-6.34-.2-.27-.41-.53-.61-.79Z"/><path class="cls-4" d="M188.45,88.14a2.77,2.77,0,0,0,2.48-2.46,2.89,2.89,0,0,0-3-3.44c-1.13,0-2.26,0-3.38,0-.49,0-.67.15-.67.64,0,2.88,0,5.75,0,8.63v.19c0,.46.31.46.64.46s.63,0,.61-.48q0-1.12,0-2.25c0-1.35-.18-1.16,1.2-1.21a1.15,1.15,0,0,1,1.2.65c.48.84,1,1.64,1.55,2.46s.6.94,1.93.7Zm-3-1c-.28,0-.36-.17-.36-.43,0-.47,0-.93,0-1.51s-.29-1.27.17-1.68,1.14-.09,1.73-.11a3.58,3.58,0,0,1,1.38.12,1.85,1.85,0,0,1-.3,3.58C187.23,87.13,186.36,87.08,185.48,87.09Z"/><path class="cls-4" d="M139.38,87.05c.59,0,1.19,0,1.78,0,.39,0,.57.12.56.53,0,.88,0,1.75,0,2.63a.93.93,0,0,1-.42.79,5.14,5.14,0,0,1-5.43.94,4.7,4.7,0,0,1-3.1-4.31,4.91,4.91,0,0,1,4.81-5.54,4.46,4.46,0,0,1,3.65,1.37c.15.16.47.29.22.6a.79.79,0,0,1-1,.22c-.05,0-.08-.09-.13-.13a3.71,3.71,0,0,0-6.13,2.1,3.93,3.93,0,0,0,3.17,4.89,3.84,3.84,0,0,0,2.83-.74.83.83,0,0,0,.32-.82c0-1.7.19-1.39-1.35-1.42h-1.59c-.38,0-.46-.22-.45-.55s0-.56.44-.55c.62,0,1.25,0,1.87,0Z"/><path class="cls-3" d="M175.51,82.23c-2.41.56-3.74,2.62-3.65,5.21a4.76,4.76,0,0,0,2,4,4.91,4.91,0,0,0,5.16.39,4.85,4.85,0,0,0,2.67-4.44C181.63,83.5,178.73,81.5,175.51,82.23Zm1.93,8.88a3.41,3.41,0,0,1-3.74-1.69,4.48,4.48,0,0,1,0-4.48,3.52,3.52,0,0,1,6-.14,4.74,4.74,0,0,1,.67,2.27A3.81,3.81,0,0,1,177.44,91.11Z"/><path class="cls-5" d="M163.14,91.84l-3.67-9.21c-.06-.14-.1-.32-.27-.36a3,3,0,0,0-1.3,0c-.29.07-.31.43-.41.69q-1.73,4.25-3.44,8.5a.77.77,0,0,0-.11.61c1.26.11,1.26.11,1.7-1a3.63,3.63,0,0,0,.19-.52.78.78,0,0,1,.94-.67c.9,0,1.81,0,2.71,0,1.48,0,1.48,0,2,1.38.34.87.34.87,1.28.84a1.57,1.57,0,0,0,.32,0C163.13,92,163.16,91.89,163.14,91.84Zm-6.62-3.09c.65-1.69,1.29-3.33,2-5.18.73,1.83,1.37,3.46,2,5.18Z"/><path class="cls-4" d="M120.47,89.85a5,5,0,0,0,2.36,1.27,3.58,3.58,0,0,0,1.84-.13,1.55,1.55,0,0,0,1.13-1.36,1.37,1.37,0,0,0-1-1.46,15.57,15.57,0,0,0-1.5-.51c-.59-.2-1.2-.35-1.78-.59A2.24,2.24,0,0,1,120,85a2.49,2.49,0,0,1,1.38-2.38,5,5,0,0,1,5.2.58.42.42,0,0,1,0,.7c-.22.24-.37.6-.81.23a3.61,3.61,0,0,0-3.16-.78,1.73,1.73,0,0,0-.9.46,1.18,1.18,0,0,0,.19,2,6.59,6.59,0,0,0,1.57.59c.62.19,1.27.35,1.87.6a2.48,2.48,0,0,1,1.73,2.61,2.65,2.65,0,0,1-2,2.52,5.32,5.32,0,0,1-4.73-.73c-.73-.52-.73-.61-.13-1.3A1.35,1.35,0,0,1,120.47,89.85Z"/><path class="cls-4" d="M192.12,82.31a1.48,1.48,0,0,1,1.92.81c.73,1.23,1.58,2.39,2.43,3.66.63-.93,1.21-1.78,1.78-2.64a7.6,7.6,0,0,0,.72-1.09,1.37,1.37,0,0,1,1.85-.74,1.71,1.71,0,0,1-.43.82c-.94,1.4-1.89,2.8-2.86,4.18a2.17,2.17,0,0,0-.43,1.39c0,.93,0,1.87,0,2.81,0,.6,0,.63-.64.63s-.62,0-.62-.65q0-1.45,0-2.91a2,2,0,0,0-.38-1.21c-1-1.41-2-2.83-2.91-4.26C192.39,82.86,192.13,82.65,192.12,82.31Z"/><path class="cls-6" d="M166.34,87.76c0-1.12,0-2.24,0-3.37s.08-1-1.08-1q-.8,0-1.59,0c-.37,0-.48-.18-.47-.52s0-.62.48-.62q3.27,0,6.56,0c.47,0,.45.3.45.62s-.09.52-.47.51c-.63,0-1.25,0-1.87,0s-.73,0-.73.73c0,2.22,0,4.43,0,6.65,0,.25,0,.5,0,.75,0,.63-.07.65-.72.65-.39,0-.56-.13-.55-.54C166.35,90.32,166.34,89,166.34,87.76Z"/><path class="cls-7" d="M130.52,87.2c0,1.41,0,2.81,0,4.22,0,.38,0,.76-.55.73s-.72,0-.72-.67c0-2.88,0-5.75,0-8.63,0-.21-.06-.48.2-.57a1.19,1.19,0,0,1,.91,0c.23.1.15.38.15.6C130.52,84.32,130.52,85.76,130.52,87.2Z"/></g></g></svg>