<svg xmlns="http://www.w3.org/2000/svg" viewBox="0 0 228 72"><defs><style>.cls-1{fill:none;}.cls-2{fill:#334354;}</style></defs><title>san-bernardino</title><g id="Layer_2" data-name="Layer 2"><g id="Layer_1-2" data-name="Layer 1"><g id="Group_10966" data-name="Group 10966"><g id="Group_10963" data-name="Group 10963"><rect id="Rectangle_1551" data-name="Rectangle 1551" class="cls-1" width="228" height="72"/><g id="Group_11421" data-name="Group 11421"><path id="Path_13308" data-name="Path 13308" class="cls-2" d="M190,34.51H56.69l9.14-8.6,4.82.84,16-10.43,5.17,2.42,3.48-.84,8.33,5.58,5.27.32,4.12,2.64,4.11-1.59,5.48,2.85,5.59-.42,7.49,3.16,10.76-5.38,9.17,3.85,4.22,2.9,11.71-3.37,4,1.26,4.64-2.63a68.28,68.28,0,0,1,5.91,3.58C186.82,31.27,188.91,33.4,190,34.51Z"/><g id="Group_11421-2" data-name="Group 11421-2"><path id="Path_13309" data-name="Path 13309" class="cls-2" d="M85.43,63l-21.51-.1-.48,0c0-.63,0-1.22,0-1.8a6.9,6.9,0,0,0-.07-1.87,2.18,2.18,0,0,1,0-.57c0-.56.05-1.12.07-1.69V56.4c0-.8,0-1.6,0-2.4a2,2,0,0,0,0-.24c0-.5-.14-1-.14-1.49,0-1.28,0-2.57,0-3.85,0-.11,0-.28.06-.32.39-.24.38-.7.62-1.08l.39.31.33-.22c0-.35-.17-.71.11-1l.33.24c.16-.47.31-.91.45-1.35s-.15-.92-.16-1.5l.7.5A.89.89,0,0,0,66,43l.25-.18-.34-.28.62-.1c-.05-.13-.05-.25-.12-.32-.31-.3-.52-.74-1-.8a3.76,3.76,0,0,1-.73-.2c-.09,0-.15-.13-.3-.26l.71-.38c0-.12,0-.34-.1-.44s-.1-.38,0-.55c-.17-.3-.44-.26-.69-.25-.46,0-.94.12-1.28-.35,0,0-.11-.05-.17-.06l-.71-.13-.46.55L61,38.81c-.18.31-.71.38-.55.92l.18,0a.69.69,0,0,1,.13.11c-.44.28-1,.34-1.14,1l.37-.17c0,.12,0,.22,0,.27-.24.34-.5.68-.76,1-.07.1-.23.15-.27.26a.81.81,0,0,0-.07.53.38.38,0,0,0,.49.17l.05,0,.14,0a2.7,2.7,0,0,1,.23.73,3,3,0,0,1-.14,1.42.82.82,0,0,0,0,.38s0,0,.08.07l.17-.25c.37.06.63.19.66.6a1,1,0,0,0,.15.33l-.12.7c.44.19.44.19.68.14l-.1-.43.11,0c0,.2.34.29.22.57,0,0,0,.11,0,.16a1.76,1.76,0,0,0,.9,1s0,0,0,.08-.11.23-.08.32a4.58,4.58,0,0,1,.08,1.43c0,1.38,0,2.76,0,4.14v4a3.13,3.13,0,0,1,0,.81,5.3,5.3,0,0,0-.15,1.68,2.4,2.4,0,0,1-.22,1c-.13.35-.29.69-.45,1.06a.78.78,0,0,1-.22,0H57c-.32,0-.41-.1-.42-.45s0-1,0-1.45.08-1.05.1-1.58a6.2,6.2,0,0,0,0-1.49,8,8,0,0,1-.12-1.38c0-.9,0-1.8,0-2.7,0-.38.06-.77.08-1.15a4.24,4.24,0,0,0,0-.62,4.62,4.62,0,0,1,0-1.53,4.78,4.78,0,0,0,0-1c0-.18,0-.35-.06-.53a45.44,45.44,0,0,1-.07-4.67c0-.27,0-.54-.06-.81s-.05-.41-.05-.61a4,4,0,0,0,0-1.33c-.12-.38-.11-.41.25-.62a.54.54,0,0,0,.29-.45l0-.32.26-.13c.1-.27,0-.63.33-.81L58,40c.07-.18.12-.31.14-.38l.33.34.13-.08a3.78,3.78,0,0,0-.21-1.16l.41-.91c0,.3.08.48.1.69.33-.08.41-.34.48-.58s.12-.31.25-.3c0-.27.08-.5.11-.74a3.17,3.17,0,0,0-.05-1.83,1.55,1.55,0,0,1,0-.48.46.46,0,0,1,.6.16s.07.13.12.15a.73.73,0,0,0,.38.08.35.35,0,0,0,.19-.28,1,1,0,0,0-.08-.46c-.1-.26-.21-.5-.32-.78l.49-.12-.64-.4c.2-.4.46-.28.7-.14a.78.78,0,0,0-.36-1,1.06,1.06,0,0,0-.2-.12c-.25-.1-.27-.3-.2-.59l-1.26.15v-.47L58,30.68l.54-.79.63.25a2.29,2.29,0,0,1-.11-.58c0-.29-.13-.4-.38-.46v-.63l.39-.15a3.25,3.25,0,0,0-.86-.3c-.07,0-.2,0-.23,0-.31.35-.69.05-1,.16l-.1-.15.36-.06c-.32-.24-.46-.07-.63,0a.47.47,0,0,1-.4,0c-.07-.07,0-.26,0-.49-.18-.31-.57-.15-.9-.18s-.65-.09-.76.36c0,.09-.17.14-.24.22a.73.73,0,0,0-.08.25H54l-.86-.58-1,.52.38.16c-.06.26-.4.28-.35.56.5,0,.62.08.9.56-.25.15-.45-.26-.71-.07l.12.27c-.36,0-.72-.12-1,.21a1.38,1.38,0,0,0-.47,1l.68-.6c.06.5.06.5-.36.95l.37.1a.13.13,0,0,1,0,.06l-.42.05-.23.29c-.25.3-.25.3-.06.62-.79.07-1,.38-1,1.15l.51.3q0-.2.09-.45l.4-.1a2.21,2.21,0,0,0,.17.76c.3.41.17.85.17,1.28,0,.24,0,.49,0,.72a2.9,2.9,0,0,1-.11.6,1,1,0,0,0,0,.8l.4-.6.34.74.18-.43h.1c0,.16,0,.32.08.48s0,.57.18.72a.46.46,0,0,1,.1.6.73.73,0,0,0,.17,1l.13-.34c.24.14.41.37.79.36L53.24,39l.33-.29.76,2.16c.17.06.44.14.7.25a.27.27,0,0,1,.16.35c-.16.86.18,1.7,0,2.56a.7.7,0,0,0,0,.14,7.32,7.32,0,0,1,.11.8,26.15,26.15,0,0,0,.13,3.65,1,1,0,0,1,0,.24c0,.39-.09.77-.1,1.15,0,1.37,0,2.73,0,4.1,0,.51,0,1-.05,1.54-.08,1.13-.2,2.26-.28,3.4,0,.45,0,.9-.05,1.35a3,3,0,0,1-.15.59,2.87,2.87,0,0,0-.22.62,1.25,1.25,0,0,1-.24.61,1.14,1.14,0,0,0-.15.23c-.14.44-.14.44-.58.44H48.42c-.53,0-.58,0-.59-.58,0-1.08,0-2.15,0-3.23,0-.38.1-.76.12-1.14a9.33,9.33,0,0,0,0-1.83,9.12,9.12,0,0,1-.15-1.28V46c0-1.36,0-2.73,0-4.1a4.6,4.6,0,0,0-.06-.52,6.54,6.54,0,0,1-.13-.75q0-1.66,0-3.33c0-.52.07-1,.07-1.58a2.41,2.41,0,0,0-.16-.88.57.57,0,0,1,0-.54.61.61,0,0,0,.08-.26c0-.45,0-.9,0-1.35a1.52,1.52,0,0,0-.09-.51c-.17-.57-.12-.62.35-.86a.84.84,0,0,0,.54-.87,2.17,2.17,0,0,1,0-.36l.28,0a1.81,1.81,0,0,0,.24-.71,2.67,2.67,0,0,1,.35-1.13,2.4,2.4,0,0,1,0,.46c0,.14,0,.35.1.4.3.19.22.42.15.68a.41.41,0,0,0,0,.19c.09,0,.2,0,.2,0,.09-.29.16-.59.24-.9.18-.07.23,0,.27.2s.16.48.24.72a.31.31,0,0,0,.14-.23,3.57,3.57,0,0,0-.49-1.86.49.49,0,0,1,0-.44l.36.41.11-.06c0-.15,0-.3,0-.45s0-.26,0-.39.14-.31.42-.21l-.18.63.3-.09.08.37c.29-.15.32-.4.4-.64s-.06-.53.22-.71l.26.24c0-.45.06-.84.1-1.23.06-.6.13-1.2.17-1.8a1.49,1.49,0,0,0-.1-.51,2.29,2.29,0,0,1-.14-.68.89.89,0,0,0-.4-1,.27.27,0,0,1-.14-.34l0,0c.36,0,.35.72.87.45.14.27.22.61.61.65,0,.27,0,.55.34.67l.12-.65h.07c0,.18.09.36.15.63a1.39,1.39,0,0,0,.12-.28,2.2,2.2,0,0,0-.42-1.63c-.08-.14-.15-.28-.22-.42l.41,0,.43-.09c-.1-.12-.15-.21-.22-.23l-.38-.07c-.33-.08-.64-.48-.54-.72a4.57,4.57,0,0,1,.29-.47c0,.3.05.5.08.69l0,.13.08-.05.13-.4.67.22c-.06-.27-.44-.34-.32-.67l.39.13a2.56,2.56,0,0,0-1.37-1.16,1.9,1.9,0,0,1-.37-.2s0-.08,0-.14l.33-.11a1.2,1.2,0,0,0-.93,0,.59.59,0,0,1-.8-.22c.23-.27.56,0,.82-.16-.62-.55-1.4-.14-2.06-.38,0-.24-.1-.47,0-.71.06,0,.1,0,.11.06s.15.24.29.14a.47.47,0,0,0,.1-.3.54.54,0,0,0-.08-.21L50,14.57c.27,0,.28,0,.35.15a1,1,0,0,0,.59.57,3.07,3.07,0,0,1,.53.31.63.63,0,0,0,0-.52c-.05-.11-.1-.33,0-.37.28-.24.06-.37-.1-.48a1.38,1.38,0,0,0-.4-.15c.18-.37-.34-.68,0-1.07l.3,0,.36,0c-.07-.08-.09-.13-.12-.14l-.87-.25h0l-.27.07.27-.07h0a.62.62,0,0,0-.87,0,.71.71,0,0,0-.1.14c-.12.17-.22.32-.46.19l0-.22-.8.07.3-.5a.68.68,0,0,0-.59.07c-.46.25-.58.22-.93-.12a.59.59,0,0,0-.47-.19H45.21a1,1,0,0,0-.81.44l.27.3c.27-.12.54-.28.85-.1A.5.5,0,0,1,45,13h-.38c-.37,0-.46,0-.61-.39,0-.08-.07-.22-.13-.23-.37-.08-.68-.34-1.07-.34-.08,0-.19,0-.23,0-.27.27-.67.18-1,.34l-.22.1v.07l.92.07-.63.49c-.32.27-.34.3-.27.58a2.69,2.69,0,0,1,.29-.16.55.55,0,0,1,.62.1c.1.11.1.31.2.42s.34.06.4.27a1.08,1.08,0,0,0,.08.19c-.51,0-.9-.37-1.45-.33l.54.52c-.48.09-.89-.25-1.25,0a3.94,3.94,0,0,0-.87.86c-.31.43-.29.66-.1,1,.19-.62.45-.88.88-.86v.61l.61-.38c.16-.08.29,0,.31.16a1.33,1.33,0,0,1,0,.28c-.55.1-1.11.1-1.49.6.23.16.54-.13.74.2a2.47,2.47,0,0,0-.7.17c-.18.1-.29.34-.48.44s0,.43-.23.57l.44-.16c0,.37,0,.4-.36.38a1.29,1.29,0,0,0-1.12.61c-.05.06-.05.18-.11.21-.39.21-.32.54-.28.87.27.18.47.07.68-.16l.14.75.36-1.08h.1c0,.25.07.49.11.79.2-.29,0-.62.29-.9a3.39,3.39,0,0,0,0,.44,1.91,1.91,0,0,0,.36,1.11.74.74,0,0,1,.16.92.54.54,0,0,0,0,.6,3.94,3.94,0,0,0-.15.82A4.91,4.91,0,0,1,40,25.16a1.31,1.31,0,0,0,.05,1l.36-1,.26-.09.1-.48h.13l0,.65c0,.18,0,.36,0,.53a.25.25,0,0,0,.14.16.24.24,0,0,0,.18-.13c0-.12.07-.26.1-.39l.45.15A2.86,2.86,0,0,0,42,27.4c.07-.26.07-.55.39-.68a.8.8,0,0,1-.08.75,2.14,2.14,0,0,0-.26,1.38.59.59,0,0,0,.35.55c0-.29,0-.53.06-.84a2.32,2.32,0,0,0,1.09.94c.15-.26-.11-.36-.22-.51s-.32-.31-.3-.57a.42.42,0,0,1,.31-.37c.07,0,.22.1.29.19a1.84,1.84,0,0,1,.17.38,4.76,4.76,0,0,0,.27.91,2.1,2.1,0,0,1,.31,1.17.36.36,0,0,0,.28.41h.08a.51.51,0,0,1,.29.13.8.8,0,0,0,.54.25.31.31,0,0,1,.35.27s0,0,0,.05a1.14,1.14,0,0,1-.07.41,1.11,1.11,0,0,0,0,.84,2.1,2.1,0,0,1,.08.56,9,9,0,0,0,.18,2.74.17.17,0,0,1,0,.1c0,1.13,0,2.25,0,3.38a6.54,6.54,0,0,0,.14,2.2,1.48,1.48,0,0,1,0,.66c0,.25-.1.5-.11.75,0,.84,0,1.68,0,2.51-.06,2.15.13,4.3-.12,6.45-.14,1.19,0,2.4-.22,3.6s-.15,2.3-.23,3.45a2.59,2.59,0,0,1-.13.55c-.13.49-.49.9-.46,1.44a.46.46,0,0,1-.17.28,1.34,1.34,0,0,0-.41,1.12c0,.55.07.61.6.61H55c1.08,0,2.16,0,3.23,0h3.71c.64,0,1.28,0,1.93,0l7.32,0c6.19,0,47.87,0,54.06,0,.15,0,.12-.26,0-.26C123.76,63,86.9,63,85.43,63ZM54.35,28.33a.57.57,0,0,0,.57-.1h0a.57.57,0,0,1-.57.11Zm-.11-.08c0-.06,0-.11,0-.16v.17Zm.13-.14-.12,0ZM50.55,12.53Zm0,.14a.13.13,0,0,1-.11.05.15.15,0,0,0,.11,0Zm-.33,0,.06,0Z"/><path id="Path_13310" data-name="Path 13310" class="cls-2" d="M70.13,48.86v.56a6.06,6.06,0,0,0,.73.09c2,0,4,0,6,0H186.05a4.17,4.17,0,0,0,.49-.08l0-.57Z"/><path id="Path_13311" data-name="Path 13311" class="cls-2" d="M95.11,36.34c0,.13,0,.26,0,.38,0,2.41,0,4.82,0,7.23v2.5c-.1.32-.76.09-.59.66a4.27,4.27,0,0,0,.79.1,25.74,25.74,0,0,0,2.78-.09,13.18,13.18,0,0,0,1.52-.2,3.09,3.09,0,0,0,1.86-1.42,3.51,3.51,0,0,0,.38-2,3.14,3.14,0,0,0-1.69-2.79c-.35-.2-.73-.33-1.13-.51l.51-.26A2,2,0,0,0,100.86,38a2.7,2.7,0,0,0-1.35-2.28,4.59,4.59,0,0,0-2.29-.58c-.74-.05-1.48,0-2.22,0a.67.67,0,0,0-.62.31,2.88,2.88,0,0,0,.35.26A.64.64,0,0,1,95.11,36.34Zm1.53-.54a2.14,2.14,0,0,1,2.69,1.37.29.29,0,0,1,0,.09c0,.11.07.21.11.32a1.75,1.75,0,0,1-.94,2.13c-.58.16-1.23.5-1.92-.08a25.76,25.76,0,0,1,0-3.83Zm-.13,7.83c0-.77,0-1.54,0-2.31s.19-1,1-1a2.86,2.86,0,0,1,2.38,1.51,4.17,4.17,0,0,1,.37,2.94,2.06,2.06,0,0,1-1.67,1.74c-.3.05-.59.13-.89.16a1.26,1.26,0,0,1-1-.27,10.52,10.52,0,0,1-.14-2.8Z"/><path id="Path_13312" data-name="Path 13312" class="cls-2" d="M78.79,47.22a.86.86,0,0,0,.77-.22,3.25,3.25,0,0,0-.3-.26.68.68,0,0,1-.32-.89,8.48,8.48,0,0,0,.32-1.09.4.4,0,0,1,.41-.37h2.08c.42,0,.55.11.64.54s.17.71.25,1.06.09.42.12.55L82.2,47c.18.08.28.17.38.17.52,0,1,0,1.57,0a2.48,2.48,0,0,1,.9,0,2.19,2.19,0,0,0,1.36-.1.28.28,0,0,0-.19-.34h-.08a.33.33,0,0,1-.31-.31,4.58,4.58,0,0,1-.13-.74c0-1.38,0-2.77,0-4.15V39.2a2.5,2.5,0,0,1,.33.32,6.63,6.63,0,0,1,.31.59c.68,1.25,1.36,2.49,2,3.75A17.46,17.46,0,0,1,90,47.17c.12-.13.23-.19.25-.27a1.94,1.94,0,0,0,0-.48c0-2.49,0-5,0-7.47,0-.37,0-.67.45-.79a.19.19,0,0,0,.15-.24.09.09,0,0,0,0-.06,3.15,3.15,0,0,0-1.72.1,1.06,1.06,0,0,0,.29.24.49.49,0,0,1,.36.41,3.53,3.53,0,0,1,.11.65c0,1.46,0,2.93,0,4.39,0,.13,0,.27,0,.49a2.52,2.52,0,0,1-.3-.35q-1.08-2-2.15-4c-.28-.55-.56-1.1-.86-1.64-.07-.12-.12-.3-.33-.3-.43,0-.86,0-1.38,0,.08.19.1.37.16.39.38.1.34.39.34.66,0,1.3,0,2.6,0,3.9,0,.4.06.79.09,1.19v.19c0,.36-.07.73-.09,1.09s0,.71,0,1.06-.52.67-.75.61a.84.84,0,0,1-.6-.51c-.17-.44-.28-.9-.41-1.36s-.29-1.09-.45-1.64-.35-1.15-.51-1.73-.28-1.14-.44-1.7-.36-1.14-.52-1.72c-.11-.38-.13-.42-.45-.43s-.44.1-.52.44-.14.66-.23,1-.15.51-.23.77c-.17.56-.34,1.11-.5,1.68s-.28,1.14-.44,1.7-.35,1.23-.54,1.85c-.1.31-.21.62-.3.94a.84.84,0,0,1-.49.55,3.87,3.87,0,0,0-.43.27A2.11,2.11,0,0,0,78.79,47.22Zm1.9-7.68c.23,0,.26.2.31.36.2.68.39,1.37.58,2.05.13.47.28.93.39,1.41A4.21,4.21,0,0,1,82,44c-.84.06-1.64,0-2.52,0,.4-1.53.8-3,1.2-4.46Z"/><path id="Path_13313" data-name="Path 13313" class="cls-2" d="M69.86,45.21,71,47.13c.15.25.32.31.48.13s.56-.19.84-.14.76.21,1.15.29a1.61,1.61,0,0,0,.62,0,6.33,6.33,0,0,0,1.27-.36,3.06,3.06,0,0,0,1-.7,4,4,0,0,0,1-2.77,6.17,6.17,0,0,0-.15-.84,3.36,3.36,0,0,0-1.65-2.4,11,11,0,0,0-1.71-.79,6.39,6.39,0,0,1-2-1.13,1.76,1.76,0,0,1-.62-1.62,1.66,1.66,0,0,1,1.37-1.33,2.06,2.06,0,0,1,1.53.55c.4.38.78.78,1.18,1.16.13.14.24.37.53.22a.69.69,0,0,0-.09-.56c-.26-.42-.47-.86-.72-1.29-.12-.21-.28-.41-.39-.57a2.66,2.66,0,0,1-.67.18,2.38,2.38,0,0,1-.75-.15,2.31,2.31,0,0,0-1.8.23A2.55,2.55,0,0,0,70,37.69a2.37,2.37,0,0,0,.49,1.66,4.59,4.59,0,0,0,1.72,1.19,16.89,16.89,0,0,1,2.37,1.08A3.11,3.11,0,0,1,76,44.14a2.73,2.73,0,0,1-.41,1.65,2,2,0,0,1-1.86,1.11,2.93,2.93,0,0,1-2-.83c-.56-.52-1.07-1.09-1.62-1.62-.17-.17-.34-.4-.71-.25a2.34,2.34,0,0,0,.09.38A6.25,6.25,0,0,0,69.86,45.21Z"/><path id="Path_13314" data-name="Path 13314" class="cls-2" d="M129.27,38.2a.59.59,0,0,1,.36.61c0,2.46,0,4.91,0,7.37,0,.27-.06.47-.35.54s-.24.15-.17.39a4.31,4.31,0,0,0,2.28-.07c-.13-.13-.19-.26-.28-.28-.35-.07-.35-.33-.35-.59,0-.67,0-1.35,0-2,0-.16,0-.31,0-.5a9.89,9.89,0,0,1,1.09,0,.57.57,0,0,1,.41.26c.34.69.66,1.39,1,2.1.18.42.14.5-.2.8a1.12,1.12,0,0,0-.18.2,4.57,4.57,0,0,0,2.54,0,2.69,2.69,0,0,0-.37-.3,1.15,1.15,0,0,1-.52-.59c-.22-.46-.45-.91-.67-1.37l-.59-1.2a7.1,7.1,0,0,0,1-.71,2.49,2.49,0,0,0,.71-1.77,2.92,2.92,0,0,0-.47-1.67,3.76,3.76,0,0,0-2.71-1.56,8.39,8.39,0,0,0-.86-.1,3.7,3.7,0,0,0-1.95.19C129.11,38.05,129.17,38.16,129.27,38.2Zm1.5.54c0-.15,0-.31,0-.45a2.07,2.07,0,0,1,2.45,1.05,3.2,3.2,0,0,1,.39,2.34,1.82,1.82,0,0,1-1.7,1.58c-.26,0-.51,0-.77,0a.4.4,0,0,1-.4-.41,2.62,2.62,0,0,1,0-.28V38.74Z"/><path id="Path_13315" data-name="Path 13315" class="cls-2" d="M163.28,44.27q.32.69.69,1.35a3.41,3.41,0,0,0,2.61,1.82,3.08,3.08,0,0,0,3.52-2.58,3,3,0,0,0,0-.6c0-.24-.1-.33-.32-.25-.15.45-.28.89-.45,1.31a2.17,2.17,0,0,1-2.83,1.21l-.22-.1a2.71,2.71,0,0,1-1.2-1.3A5.17,5.17,0,0,1,164.6,43a13.44,13.44,0,0,1,.52-5.6A4.17,4.17,0,0,1,166,36a1.45,1.45,0,0,1,2.06-.1l0,0a3.74,3.74,0,0,1,.53.6c.24.34.43.7.66,1.05.1.15.19.4.47.26a8.44,8.44,0,0,0-.8-2.82.37.37,0,0,0-.16,0,.86.86,0,0,1-1,.07,1.58,1.58,0,0,0-.42-.09,2.5,2.5,0,0,0-2.12.75,7.12,7.12,0,0,0-2.19,4.43,18.63,18.63,0,0,0,0,3.08A3.26,3.26,0,0,0,163.28,44.27Z"/><path id="Path_13316" data-name="Path 13316" class="cls-2" d="M109.07,46.76c-.06,0-.08.15-.11.23.25.35.58.23.84.22a2.28,2.28,0,0,0,1.34-.2c-.06-.1-.1-.23-.18-.26a.65.65,0,0,1-.42-.72c0-.66,0-1.31,0-2a.39.39,0,0,1,.35-.42h.79a.55.55,0,0,1,.51.29q.42.85.75,1.74c.1.31.4.61.17.95l-.4.38a3.18,3.18,0,0,0,2.46,0,1.84,1.84,0,0,0-.25-.23,1.61,1.61,0,0,1-.61-.75c-.32-.7-.68-1.39-1-2.08-.18-.37-.18-.45.18-.64a2.19,2.19,0,0,0,1.28-2,2.82,2.82,0,0,0-.82-2.43,4.18,4.18,0,0,0-2.43-1.07l-.82-.09a3.15,3.15,0,0,0-1.77.16c0,.1.05.26.12.29.41.16.45.5.45.86l0,5c0,.63,0,1.25,0,1.88C109.53,46.28,109.53,46.65,109.07,46.76Zm1.47-6.13h0V38.85c0-.59.06-.61.63-.65a2.31,2.31,0,0,1,2.26,1.86,3.58,3.58,0,0,1,.17,1,2.18,2.18,0,0,1-1.15,2,2,2,0,0,1-.72.17,2.35,2.35,0,0,1-.53,0,.62.62,0,0,1-.67-.56.66.66,0,0,1,0-.14c0-.64,0-1.28,0-1.93Z"/><path id="Path_13317" data-name="Path 13317" class="cls-2" d="M135.78,47a1.71,1.71,0,0,0,1.19.23c.56,0,1.12-.1,1.68-.1a2.73,2.73,0,0,0,1.21-.35,4,4,0,0,0,2.07-3.22,5.61,5.61,0,0,0-.32-3.06,4.49,4.49,0,0,0-1.94-2.21,6.34,6.34,0,0,0-3.21-.58,1.26,1.26,0,0,0-.38.1,2.1,2.1,0,0,0-.3.15c.09.1.13.18.2.2.38.13.41.42.41.76,0,2.38,0,4.76,0,7.13,0,.19,0,.38,0,.53Zm1.74-3.12V42.43h0V38.87c0-.12,0-.23,0-.34a.3.3,0,0,1,.29-.31h0a1.76,1.76,0,0,1,1.26.32A3.4,3.4,0,0,1,140.21,40a8.41,8.41,0,0,1,.46,1.63,6.29,6.29,0,0,1,.12,1.62,5.47,5.47,0,0,1-.56,2.28,2,2,0,0,1-2.35,1.18.36.36,0,0,1-.34-.38h0c0-.32,0-.64,0-1v-1.5Z"/><path id="Path_13318" data-name="Path 13318" class="cls-2" d="M153.92,46.58a2.41,2.41,0,0,0,1.11.68,3,3,0,0,0,1.59.07,3.15,3.15,0,0,0,1.72-1.16,5.48,5.48,0,0,0,1-3,6.61,6.61,0,0,0-.34-2.5,5.65,5.65,0,0,0-1.56-2.5,2.23,2.23,0,0,0-2.65-.19,3.72,3.72,0,0,0-.63.56A6.92,6.92,0,0,0,152.55,43c0,.24.14.72.2,1.21A4.32,4.32,0,0,0,153.92,46.58Zm0-5.23a5.8,5.8,0,0,1,.79-2.6,1.39,1.39,0,0,1,1.05-.73,1.34,1.34,0,0,1,1.41.76,6.24,6.24,0,0,1,.63,1.77,14.51,14.51,0,0,1,.14,3.78,3.91,3.91,0,0,1-.63,1.93,1.27,1.27,0,0,1-1.18.65c-.37,0-.78.1-1.1-.2a2.6,2.6,0,0,1-.51-.54,4.69,4.69,0,0,1-.62-2.22c0-.4,0-.8,0-1.2h0C153.93,42.28,153.9,41.81,153.94,41.35Z"/><path id="Path_13319" data-name="Path 13319" class="cls-2" d="M153.54,53a2.75,2.75,0,0,0-.53-1.15,2.89,2.89,0,0,0-2.44-1.12c-.73,0-1.45,0-2.17,0h-1.16a.35.35,0,0,0-.38.3v0c0,.11,0,.22,0,.34v2.64h0v1.83c0,.37,0,.74,0,1.11s.13.47.47.46a27.84,27.84,0,0,0,4.08-.15,2.5,2.5,0,0,0,1.77-1.22,4,4,0,0,0,.48-1.52,2.51,2.51,0,0,0,0-1.09C153.59,53.35,153.57,53.19,153.54,53Zm-1,1.82a1.74,1.74,0,0,1-.88,1.39,2.47,2.47,0,0,1-.88.29c-.88,0-1.77,0-2.65,0l-.16,0V51.75l.3,0h2.55a1.74,1.74,0,0,1,1.57,1.11A3.51,3.51,0,0,1,152.54,54.86Z"/><path id="Path_13320" data-name="Path 13320" class="cls-2" d="M112.2,54.14a5.44,5.44,0,0,0-1.24-.46c-.67-.16-1.37-.26-2-.4a.82.82,0,0,1-.68-.65,1,1,0,0,1,.58-.9,2.87,2.87,0,0,1,1.36-.19,1.38,1.38,0,0,1,1.46.92.41.41,0,0,0,.49.32h0l.56-.09a4.48,4.48,0,0,0-.14-.73,2.15,2.15,0,0,0-2-1.36,5.23,5.23,0,0,0-1.25,0,3,3,0,0,0-1,.26,1.84,1.84,0,0,0-1.16,2A1.43,1.43,0,0,0,108,54a6.6,6.6,0,0,0,2.1.56c.37.09.76.11,1.12.23.55.2.74.51.64.91a1.26,1.26,0,0,1-.37.59,1.94,1.94,0,0,1-1.09.4,3.14,3.14,0,0,1-1.32-.16,1.28,1.28,0,0,1-.88-.77c-.08-.19-.15-.38-.23-.59h-.89a1.92,1.92,0,0,0,.72,1.87,3.73,3.73,0,0,0,2,.57,5.18,5.18,0,0,0,1.52-.17,1.86,1.86,0,0,0,1.56-1.75A1.48,1.48,0,0,0,112.2,54.14Z"/><path id="Path_13321" data-name="Path 13321" class="cls-2" d="M146.13,46.72a1.64,1.64,0,0,0-.33.26,1.93,1.93,0,0,0,1.85,0c-.1-.09-.18-.22-.29-.24-.33-.06-.4-.27-.4-.56,0-2.18,0-4.37,0-6.55a1.16,1.16,0,0,1,.08-.32c.07.11.11.16.14.2l1.53,2.77c.49.9,1,1.8,1.46,2.7a8,8,0,0,1,.9,2.08c.17,0,.31,0,.32-.17s0-.23,0-.34V38.89c0-.33,0-.6.43-.69a.23.23,0,0,0,.18-.32,2.92,2.92,0,0,0-1.68.07.75.75,0,0,0,.07.12s0,.07.05.08c.53.17.54.6.54,1,0,1.45,0,2.89,0,4.34,0,.13,0,.25,0,.48a1.94,1.94,0,0,1-.31-.27c-.35-.66-.67-1.33-1-2q-.94-1.8-1.92-3.6c-.07-.14-.22-.32-.35-.33a13.28,13.28,0,0,0-1.43,0c.08.18.11.34.18.38.41.16.44.5.44.86,0,1.64,0,3.28,0,4.92,0,.67,0,1.35,0,2A.68.68,0,0,1,146.13,46.72Z"/><path id="Path_13322" data-name="Path 13322" class="cls-2" d="M115.84,46.73c-.11,0-.2.17-.31.28a2.41,2.41,0,0,0,1.9,0c-.11-.1-.21-.24-.33-.27-.36-.09-.41-.34-.41-.65V39.63a2.34,2.34,0,0,1,.09-.38l1.66,3c.5.91,1,1.8,1.48,2.72a5.88,5.88,0,0,1,.84,1.9c0,.22.17.2.34.14,0-.11,0-.22,0-.33v-3c0-1.6,0-3.21,0-4.82,0-.32.07-.55.42-.66.11,0,.2-.15.29-.24l0-.1a8.43,8.43,0,0,0-1.74,0c.1.17.14.33.22.36.41.16.46.49.46.86v4.53c0,.12,0,.24,0,.49a2.35,2.35,0,0,1-.3-.33l-.62-1.17c-.77-1.47-1.54-2.95-2.33-4.41-.07-.14-.23-.32-.36-.34-.44,0-.89,0-1.43,0,.09.19.11.35.19.38.39.15.45.45.45.81,0,1.38,0,2.76,0,4.14V46A.66.66,0,0,1,115.84,46.73Z"/><path id="Path_13323" data-name="Path 13323" class="cls-2" d="M103,38.18a.75.75,0,0,1,.42.79v2.55c0,1.5,0,3,0,4.48,0,.35-.06.63-.44.76-.07,0-.11.17-.2.31a4.13,4.13,0,0,0,.61.13c.43,0,.86,0,1.3,0l2.93.09c.16,0,.32,0,.4-.19.22-.52.44-1.05.69-1.56.1-.22,0-.29-.19-.36l-.36.46a2.53,2.53,0,0,1-1.65,1,12.44,12.44,0,0,1-1.93,0,3.12,3.12,0,0,1-.13-.69c0-.44,0-.9,0-1.34,0-.26-.06-.51-.05-.77,0-.46.05-.93.07-1.39,0-.13,0-.26,0-.38.06-.34.14-.4.47-.42a2.22,2.22,0,0,1,1.71.57,4.29,4.29,0,0,0,.48.36l.09-.08a12.08,12.08,0,0,0-.62-1.54c0-.07-.17-.11-.26-.16l-.34.43h-1.44a7.43,7.43,0,0,1,0-3.08,6,6,0,0,0,.85,0,2,2,0,0,1,1.74.72,2.93,2.93,0,0,1,.4.47c.1.16.21.23.39.17a5.38,5.38,0,0,0-.84-1.93c-.06,0-.15,0-.19,0a1.18,1.18,0,0,1-.82.16h-3.43C102.85,38,102.88,38.15,103,38.18Z"/><path id="Path_13324" data-name="Path 13324" class="cls-2" d="M123.81,47l-.38-.29a.69.69,0,0,1-.2-.35,4.35,4.35,0,0,1,.45-1.94h2.47a.35.35,0,0,1,.39.28c.13.49.25,1,.4,1.46a.49.49,0,0,1-.22.66h0c-.07,0-.11.14-.21.25a4.06,4.06,0,0,0,1.73.14.62.62,0,0,0,.6-.25l-.28-.21a1.13,1.13,0,0,1-.47-.78c-.1-.51-.26-1-.4-1.51s-.36-1.15-.52-1.73-.3-1.1-.45-1.64-.36-1.32-.55-2c-.12-.44-.27-.87-.41-1.31l-.69,0c-.1.39-.2.76-.3,1.13-.16.56-.34,1.11-.5,1.67-.09.32-.15.65-.24,1-.18.64-.37,1.27-.55,1.91-.09.29-.16.58-.24.87s-.21.79-.34,1.18-.25,1-.84,1.21c-.07,0-.1.18-.14.27A2.23,2.23,0,0,0,123.81,47Zm.07-3.61c.15-.55.35-1.08.5-1.62s.28-1.17.43-1.75a3.06,3.06,0,0,1,.22-.49l.1,0,1.2,4.27c-.1.07-.23.2-.35.2-.7,0-1.4,0-2.15,0a2.76,2.76,0,0,1,0-.64Z"/><path id="Path_13325" data-name="Path 13325" class="cls-2" d="M70.31,50.8l-.09,0a2.2,2.2,0,0,0,0,.44c0,1.45,0,2.89,0,4.33a1.86,1.86,0,0,0,1.06,1.63,3.8,3.8,0,0,0,2.27.4c.18,0,.35-.09.52-.1A2.24,2.24,0,0,0,76,55.36c0-1.37,0-2.73,0-4.09,0-.15,0-.29,0-.47l-.29,0c-.6,0-.62,0-.63.61,0,1.22,0,2.44,0,3.66a1.63,1.63,0,0,1-.56,1.2,2.55,2.55,0,0,1-.91.36,2,2,0,0,1-1.52-.18A1.46,1.46,0,0,1,71.18,55c0-1.13,0-2.28,0-3.41C71.17,50.71,71.16,50.69,70.31,50.8Z"/><path id="Path_13326" data-name="Path 13326" class="cls-2" d="M186.73,37.86a3.71,3.71,0,0,0-2,.12,1.41,1.41,0,0,0,.35.23.35.35,0,0,1,.28.39,2.1,2.1,0,0,1-.08.56c-.36.91-.73,1.82-1.1,2.72-.14.34-.3.67-.47,1a1.76,1.76,0,0,1-.24-.3c-.28-.7-.55-1.41-.82-2.11s-.42-1.13-.65-1.68c-.14-.33-.15-.4.12-.6a.75.75,0,0,0,.33-.39c-.7-.05-1.4-.06-2.1,0a1.38,1.38,0,0,0-.39.09,1.44,1.44,0,0,0,.19.21,2.12,2.12,0,0,1,.75,1.12c.44,1,.87,2,1.29,3a9.26,9.26,0,0,1,.47,1.34,12.91,12.91,0,0,1,0,2.78c0,.15,0,.32-.25.35s-.21.16-.17.38a5.25,5.25,0,0,0,2.09,0l.07-.13c-.07-.09-.14-.24-.22-.25-.25,0-.28-.2-.28-.38,0-1,0-1.9.05-2.84a1,1,0,0,1,.09-.37c.22-.55.46-1.1.68-1.65.33-.8.65-1.62,1-2.42a1.36,1.36,0,0,1,.8-.87.23.23,0,0,0,.17-.28A.19.19,0,0,0,186.73,37.86Z"/><path id="Path_13327" data-name="Path 13327" class="cls-2" d="M174,39.32a1.82,1.82,0,0,1,1.78-1.11c.46,0,.5,0,.5.5q0,3.74,0,7.47a.53.53,0,0,1-.31.53,2.82,2.82,0,0,0-.36.33,3.68,3.68,0,0,0,2.32,0c0-.33-.31-.32-.48-.4-.11-.87-.06-8,.06-8.4a1.62,1.62,0,0,1,1.84.65c.15.23.27.47.43.69a1.28,1.28,0,0,0,.26.2l.09-.07a7.28,7.28,0,0,0-.61-2.14l-.45.1a3.16,3.16,0,0,1-.6.11h-3a1.89,1.89,0,0,1-.94-.13,1.24,1.24,0,0,0-.43,0l-.67,2.16c.17-.05.31,0,.38-.1A2.56,2.56,0,0,0,174,39.32Z"/><path id="Path_13328" data-name="Path 13328" class="cls-2" d="M103.52,53.31A2.33,2.33,0,0,0,101.41,52c-.9-.05-1.8,0-2.7,0-.42,0-.5.07-.5.5,0,.74,0,1.48,0,2.22h0V57c0,.36.1.47.44.47a21,21,0,0,0,3.36-.15,2.48,2.48,0,0,0,1.59-1.41,3.86,3.86,0,0,0,.16-1.51A3,3,0,0,0,103.52,53.31Zm-.78,2.32a1.54,1.54,0,0,1-1.43,1.08,19.41,19.41,0,0,1-2.16,0v-4a3,3,0,0,1,.4,0c.51,0,1,0,1.53,0a2.32,2.32,0,0,1,1,.26,1.1,1.1,0,0,1,.62.74,3.11,3.11,0,0,1,0,1.93Z"/><path id="Path_13329" data-name="Path 13329" class="cls-2" d="M81.72,56.32l-.26-.3c-.89-1.21-1.78-2.41-2.66-3.63a.92.92,0,0,0-.9-.47c-.5,0-.53,0-.53.57v4.63c0,.28.15.37.45.37s.44-.1.47-.36a1.93,1.93,0,0,0,0-.34V53.56c0-.14,0-.29,0-.51.55.75,1,1.42,1.53,2.09a20.89,20.89,0,0,1,1.26,1.71,1.11,1.11,0,0,0,1.38.6,41.91,41.91,0,0,0,0-5.49l-.18,0c-.44,0-.5.06-.52.49v.34c0,1.07,0,2.15,0,3.23A1.3,1.3,0,0,1,81.72,56.32Z"/><path id="Path_13330" data-name="Path 13330" class="cls-2" d="M171.87,56.18a1.7,1.7,0,0,0-.6-1.42c.59-.53.6-.59.61-1.4a1.17,1.17,0,0,0-.58-1.07,2,2,0,0,0-1.12-.36h-2.56c-.5,0-.54,0-.54.56v4.33a1.9,1.9,0,0,0,0,.34.35.35,0,0,0,.37.34h0c.32,0,.46-.11.48-.46s0-1,0-1.44c0-.16,0-.31,0-.5a9,9,0,0,1,2.48.1.55.55,0,0,1,.4.48c.07.44.13.89.17,1.33a.58.58,0,0,0,.62.52.73.73,0,0,0,.25-.08.27.27,0,0,0,.08-.25A1.78,1.78,0,0,1,171.87,56.18Zm-1-2.1a1.13,1.13,0,0,1-.78.31c-.68,0-1.37,0-2.08,0a6.06,6.06,0,0,1-.09-1.7c.83,0,1.57,0,2.3,0a.81.81,0,0,1,.85.8.8.8,0,0,1-.2.57Z"/><path id="Path_13331" data-name="Path 13331" class="cls-2" d="M129.62,51.91c-.43,0-.86,0-1.3,0a2,2,0,0,0-1.14.43,2.36,2.36,0,0,0-1,1.28,3.94,3.94,0,0,0-.07,1.93,2.58,2.58,0,0,0,2.27,2c.36,0,.73,0,1.1,0a2.52,2.52,0,0,0,2.3-1.55,3,3,0,0,0,.17-1.14c0-.19,0-.3,0-.42A2.51,2.51,0,0,0,129.62,51.91Zm1.24,3.93a1.58,1.58,0,0,1-1.49.92l-.33,0a1.8,1.8,0,0,1-1.75-.74,1.69,1.69,0,0,1-.37-1,2.51,2.51,0,0,1,.2-1.35,1.7,1.7,0,0,1,1.4-1c.28,0,.57,0,.86,0A1.86,1.86,0,0,1,131,53.92a2.35,2.35,0,0,1-.15,1.92Z"/><path id="Path_13332" data-name="Path 13332" class="cls-2" d="M160,54.43c-.66-.1-1.31-.25-2-.39a.52.52,0,0,1-.47-.62.76.76,0,0,1,.74-.72c.37,0,.74,0,1.11,0a.9.9,0,0,1,.86.63,1.81,1.81,0,0,1,.09.31h.69a.9.9,0,0,0-.09-.88,1.62,1.62,0,0,0-1.35-.83c-.47,0-.93,0-1.4,0a1.71,1.71,0,0,0-1.54,1.1,1.39,1.39,0,0,0,.45,1.54,7.13,7.13,0,0,0,1.35.45c.43.1.87.13,1.31.22a1.4,1.4,0,0,1,.43.2.64.64,0,0,1,.17.87l-.07.09a.94.94,0,0,1-.74.37h-1.11a1,1,0,0,1-.9-.51,4.91,4.91,0,0,1-.26-.63h-.85a2.16,2.16,0,0,0,0,.36,1.86,1.86,0,0,0,1.75,1.54,14.81,14.81,0,0,0,1.49,0,1.77,1.77,0,0,0,1.32-.64,1.4,1.4,0,0,0,.38-1.15A1.64,1.64,0,0,0,160,54.43Z"/><path id="Path_13333" data-name="Path 13333" class="cls-2" d="M137,52.1a4.78,4.78,0,0,0-2-.19,1.92,1.92,0,0,0-.91.23,2.46,2.46,0,0,0-1.37,1.73,4.89,4.89,0,0,0,0,1.43,2.49,2.49,0,0,0,1.2,1.88,2.75,2.75,0,0,0,1.7.35c.25,0,.49,0,.73,0a2.37,2.37,0,0,0,1.94-1.29,3.14,3.14,0,0,0,0-3A2.54,2.54,0,0,0,137,52.1Zm.16,4.14a1.8,1.8,0,0,1-1.63.52,1.78,1.78,0,0,1-1.57-.58,1.68,1.68,0,0,1-.48-1.1,2.68,2.68,0,0,1,.19-1.4,1.84,1.84,0,0,1,1.41-1,5.77,5.77,0,0,1,.72,0A1.69,1.69,0,0,1,137.57,54a2.09,2.09,0,0,1-.42,2.28Z"/><path id="Path_13334" data-name="Path 13334" class="cls-2" d="M97.05,56.73c-.21,0-.42,0-.63,0H94.16c-.19,0-.39,0-.4-.25a6.58,6.58,0,0,1,0-1.47H97l0-.74c-1.1,0-2.15,0-3.2,0V52.7H97.2a.59.59,0,0,0,0-.74H93v5.51l.43,0h3.23a2.41,2.41,0,0,0,.38,0c.25,0,.35-.15.36-.42S97.34,56.75,97.05,56.73Z"/><path id="Path_13335" data-name="Path 13335" class="cls-2" d="M124.64,51.93c-.32,0-.38.07-.39.42s0,.93,0,1.4-.06.42-.42.42h-2.31c-.38,0-.42,0-.43-.44s0-.9,0-1.35-.12-.45-.48-.43-.39.09-.4.46v2.26c0,.79,0,1.58,0,2.36,0,.38.2.53.55.48s.36-.21.36-.53c0-.48,0-1,0-1.45a4.26,4.26,0,0,1,.06-.5h3.08c0,.15,0,.24,0,.34V57c0,.33.13.45.42.46s.42-.09.46-.42c0-.1,0-.2,0-.29V52.65a1.93,1.93,0,0,0,0-.34C125.08,52,125,51.92,124.64,51.93Z"/><path id="Path_13336" data-name="Path 13336" class="cls-2" d="M180.36,55.26a.55.55,0,0,0-.63.22l-.12.26a1.64,1.64,0,0,1-1.37,1,6.91,6.91,0,0,1-.91,0,1.69,1.69,0,0,1-1.4-.92,2.83,2.83,0,0,1-.23-1.49,1.88,1.88,0,0,1,1.72-1.66,6.59,6.59,0,0,0,.77,0,1.55,1.55,0,0,1,1.39,1,.36.36,0,0,0,.4.3h0l.46,0c.21-.4-.06-.68-.21-.94a2.23,2.23,0,0,0-1.86-1.15,3.67,3.67,0,0,0-2,.21A2.35,2.35,0,0,0,174.94,54c0,.09-.06.18-.07.27a1.57,1.57,0,0,0-.06.61,4.75,4.75,0,0,0,.38,1.32,2.29,2.29,0,0,0,2,1.3c.37,0,.74,0,1.11,0a2.47,2.47,0,0,0,2.25-1.69A.46.46,0,0,0,180.36,55.26Z"/><path id="Path_13337" data-name="Path 13337" class="cls-2" d="M118.94,55.24a.53.53,0,0,0-.49.39,2.07,2.07,0,0,1-.15.34,2.33,2.33,0,0,1-2.66.69,2.22,2.22,0,0,1-1.21-1.92.63.63,0,0,1,.06-.27c0-.11.06-.22.08-.33a1.76,1.76,0,0,1,1.59-1.45h.91a1.58,1.58,0,0,1,.42.09,1.62,1.62,0,0,1,1,1.25,5.61,5.61,0,0,0,.58,0,.26.26,0,0,0,.26-.26.22.22,0,0,0,0-.08A2.45,2.45,0,0,0,117.56,52a9.91,9.91,0,0,0-1.44-.05,2.34,2.34,0,0,0-1.25.4,2.71,2.71,0,0,0-1.23,2.29,5.72,5.72,0,0,0,.15,1.09,2.48,2.48,0,0,0,2.11,1.85c.47,0,.93,0,1.4,0a2.39,2.39,0,0,0,2.07-1.78C119.46,55.41,119.29,55.22,118.94,55.24Z"/><path id="Path_13338" data-name="Path 13338" class="cls-2" d="M143.34,46.1c0,.18,0,.36,0,.47l-.62.46a4.31,4.31,0,0,0,2.44,0c-.12-.17-.16-.29-.23-.31-.41-.1-.44-.41-.44-.74V44.28c0-1.78,0-3.56,0-5.34a.73.73,0,0,1,.4-.75c.09,0,.13-.18.25-.35a9.73,9.73,0,0,0-2.35,0c.08.12.11.2.16.22.42.16.41.51.41.87C143.34,41.35,143.34,43.73,143.34,46.1Z"/><path id="Path_13339" data-name="Path 13339" class="cls-2" d="M171,38.19c.31.08.31.34.34.57s0,.45,0,.67v3.9c0,.92,0,1.83,0,2.74,0,.28,0,.55-.34.66s-.2.18-.13.39a4.39,4.39,0,0,0,2.16-.07c-.12-.15-.19-.29-.27-.31s-.24-.2-.26-.35a2.37,2.37,0,0,1,0-.53c0-.91-.06-1.82,0-2.74s0-1.86,0-2.79c0-.54,0-1.09,0-1.63,0-.22,0-.45.31-.53.06,0,.1-.19.16-.34h-2.22C170.93,38,171,38.17,171,38.19Z"/><path id="Path_13340" data-name="Path 13340" class="cls-2" d="M90.13,52.71l0-.75h-4a41.91,41.91,0,0,0,0,5.49c.65.08.7,0,.7-.59V55.42a3,3,0,0,1,.06-.42h2.91l-.1-.77H86.83V52.71Z"/><path id="Path_13341" data-name="Path 13341" class="cls-2" d="M166.45,52h-4.77v.74h1.9c0,.21.06.38.06.55v3.51a1.7,1.7,0,0,0,0,.39.38.38,0,0,0,.34.34c.39,0,.54-.06.54-.46V53.32c0-.19,0-.37,0-.59l.51,0h1.15c.32,0,.43-.15.36-.46A1.39,1.39,0,0,0,166.45,52Z"/><path id="Path_13342" data-name="Path 13342" class="cls-2" d="M185.19,51.93h-4c-.38,0-.48.11-.47.5l.06.26h1.86a6,6,0,0,1,.07.63c0,1.11,0,2.22,0,3.33a3.2,3.2,0,0,0,0,.53.34.34,0,0,0,.35.32c.35,0,.48-.09.48-.48,0-1.25,0-2.5,0-3.76,0-.17,0-.34,0-.57h2.09c0-.28,0-.49,0-.73Z"/><path id="Path_13343" data-name="Path 13343" class="cls-2" d="M143.35,56.73h-2.56c-.49,0-.54-.06-.55-.57V52.5c0-.17,0-.34,0-.53h-.72v5.52h3.91a.43.43,0,0,0,.29-.45A.3.3,0,0,0,143.35,56.73Z"/><path id="Path_13344" data-name="Path 13344" class="cls-2" d="M173.82,52h-.73a1.46,1.46,0,0,0-.05.2c0,1.65,0,3.3,0,5,0,.3.08.37.36.39s.5-.09.5-.52c0-1.47,0-2.94,0-4.41A6,6,0,0,0,173.82,52Z"/><path id="Path_13345" data-name="Path 13345" class="cls-2" d="M91.65,55.64c0-.62,0-1.25,0-1.87a16.1,16.1,0,0,0,0-1.84l-.74,0c0,.19,0,.33,0,.47V57c0,.5,0,.55.55.52l.18-.05A9,9,0,0,0,91.65,55.64Z"/><path id="Path_13346" data-name="Path 13346" class="cls-2" d="M83.92,57.46h.74c0-.62,0-1.22,0-1.82s0-1.25,0-1.88,0-1.2,0-1.8H83.9C83.91,53.82,83.88,55.62,83.92,57.46Z"/><path id="Path_13347" data-name="Path 13347" class="cls-2" d="M155.44,52h-.74c0,1.85,0,3.66,0,5.47.68.13.76.07.76-.51V52.45C155.47,52.29,155.45,52.14,155.44,52Z"/></g></g></g><path id="Path_12566" data-name="Path 12566" class="cls-1" d="M86.17,0H156.4"/></g></g></g></svg>