<svg xmlns="http://www.w3.org/2000/svg" viewBox="0 0 228 72"><defs><style>.cls-1{fill:none;}.cls-2{fill:#334354;}</style></defs><title>seattle</title><g id="Layer_2" data-name="Layer 2"><g id="Layer_1-2" data-name="Layer 1"><g id="Group_11452" data-name="Group 11452"><rect id="Rectangle_1560" data-name="Rectangle 1560" class="cls-1" width="228" height="72"/><g id="Group_11428" data-name="Group 11428"><path id="Path_13461" data-name="Path 13461" class="cls-2" d="M49.83,68c2.72-2.14,5.39-4.34,8.3-6.22.29-.18.58-.26.36-.76-1.2-2.8-1-5.73-.7-8.64a3,3,0,0,0-.43-2,11.29,11.29,0,0,0-4.12-4.17,28.54,28.54,0,0,1,.35,3.9,26.36,26.36,0,0,1-2.81,13,14.58,14.58,0,0,1-3.29,4.27,3.28,3.28,0,0,1-2,1c.49-1.61,1-3.12,1.42-4.66a17.39,17.39,0,0,0,.26-8.45c-.92-4-3.64-4.88-6.81-2.36-.5.4-1,.86-1.62,1.44.74-4.47,2-8.52,4.89-12-4.38-2.11-5.12-6.2-5.67-10.48,2.24,3.71,5.83,4.53,9.69,4.78h.24l-.11-.13a10.23,10.23,0,0,1-1-3.64,5.36,5.36,0,0,1,1.08-3.22,2.66,2.66,0,0,1,3.67-.85,2.41,2.41,0,0,1,.67.6c1.74,1.77,1.78,5.49,0,7.55-.52.61-.56.85.14,1.32,3.31,2.28,4.74,5.67,5.27,9.49a20.61,20.61,0,0,0,2.1,7.48c1.83,3.3,3.55,3.57,6.1.77,3.13-3.43,4.46-7.64,5-12.16.07-.57.11-1.15.18-1.72,0-.05.09-.1.23-.24a27,27,0,0,1-2,13.2A16.64,16.64,0,0,1,64,62.29c-.45.33-.36.7-.36,1.11A7.41,7.41,0,0,1,62.18,68c-.43-2.06-1.22-2.64-3.26-2.31A63,63,0,0,0,51,67.76c-.39.11-.76.42-1.21.19Z"/><path id="Path_13462" data-name="Path 13462" class="cls-2" d="M91.77,11.63c-.58-.45-.62-.73,0-1.2,1.13-.89,2.2-1.84,3.57-3-2,.2-3.72.31-5.39.54-.82.11-1.07-.22-1.17-1a16.76,16.76,0,0,0-.59-3.37c-.82,1.14-1.57,2.11-2.23,3.14a1,1,0,0,1-1.6.47c-1.15-.55-2.37-1-3.81-1.59a31.91,31.91,0,0,0,1.32,3c.56,1,.36,1.43-.68,1.84-1.5.59-2.93,1.35-4.4,2a23.72,23.72,0,0,0,4.41.79c1,.08,1.14.35.77,1.25-.75,1.88-1.4,3.8-2.17,6,1.61-1,2.57-2.31,4.06-3.16a1.69,1.69,0,0,1-.49,1.35c-.79,1.14-1.6,2.26-2.42,3.38-2.4,3.29-5,6.49-6.54,10.3a11.08,11.08,0,0,0-.7,7.54,5.89,5.89,0,0,0,3,3.89c.53.26.91.22,1.1-.33s1.2-.88.43-1.63c-1.6-1.58-1.87-3.56-1.71-5.65C76.87,31.73,78.72,27.78,81,24c1.54-2.57,3.46-4.9,4.73-7.86,1.28,2.07,2.47,4,3.82,6.17,0-2.46,0-4.61,0-6.75,0-.69.1-.94.89-.8,2,.35,4,.6,6,.9A52,52,0,0,0,91.77,11.63Zm-7.52,5.54a.35.35,0,0,1,0,.08s0,0,0,0l-.07.09c-.06.06-.13.1-.24,0s.1-.16.16-.25.14-.13.16-.12a.14.14,0,0,1,.07.18,0,0,0,0,1,0,0Z"/><path id="Path_13463" data-name="Path 13463" class="cls-2" d="M144.9,37.09a7.13,7.13,0,0,0-1.49-.86c-.49-.22-.72-.4-.2-.85a5.64,5.64,0,0,0,.76-.86c2.08-2.7.91-5.75-2.46-6.26-2.36-.36-4.76,0-7.14-.13-.08,0-.17.13-.26.21,2,.48,2,.48,2.06,2.58,0,4.11,0,8.22,0,12.33,0,1.17.1,2.44-1.65,2.7,2.67-.19,5.25.38,7.83,0a5.81,5.81,0,0,0,1.95-.68,4.73,4.73,0,0,0,.64-8.19ZM139,28.85a3.21,3.21,0,0,1,3.63,1.8,4.17,4.17,0,0,1-.57,4.73,6.11,6.11,0,0,1-3.56.38c-.3-.17-.26-.44-.26-.7V32.4c0-.88,0-1.77,0-2.65,0-.59.2-.81.77-.9Zm5.82,13.23A2.93,2.93,0,0,1,143,44.93a4.75,4.75,0,0,1-4.22-.15,1,1,0,0,1-.47-1c0-1.22,0-2.45,0-3.67h-.12c0-1,0-1.92,0-2.88,0-.45.09-.67.62-.72A5.24,5.24,0,0,1,144.75,41a5.76,5.76,0,0,1,0,1.1Z"/><path id="Path_13464" data-name="Path 13464" class="cls-2" d="M125.59,28.23h5.34c-1.78.09-1.6,1.38-1.63,2.55-.07,3,.15,5.92-.13,8.88a7.53,7.53,0,0,1-12,5.43A6.17,6.17,0,0,1,114.59,40c-.12-3-.1-6-.13-9,0-2.23,0-2.23-2-2.82h5.93c-1.87.17-1.64,1.58-1.65,2.81,0,2.53,0,5.07,0,7.61a13.74,13.74,0,0,0,.28,2.63,5.32,5.32,0,0,0,10.38,0,13.1,13.1,0,0,0,.29-2.86c0-2.46,0-4.93,0-7.39C127.61,28.83,127.58,28.83,125.59,28.23Z"/><path id="Path_13465" data-name="Path 13465" class="cls-2" d="M122.46,68.05c1.12-.25,1.22-1.09,1.25-2,.16-4.15,0-8.31.07-12.46a1.7,1.7,0,0,0-1.5-1.88h4.49c-1.17.27-1.23,1.17-1.23,2.11,0,1.31,0,2.62,0,3.93,0,.59.17.8.79.8,2.42,0,4.85,0,7.27,0,.64,0,.89-.17.86-.84,0-1.19,0-2.39,0-3.58s.11-2.38-1.62-2.44h4.7c-1.47.35-1.32,1.53-1.32,2.6,0,3.85.06,7.7.06,11.54,0,1.23.25,2.18,1.77,2.22H133.1c1.11-.21,1.23-1.06,1.24-2,0-2,0-4,.08-6,0-.6-.28-.68-.77-.68-2.47,0-4.93,0-7.39,0-.65,0-.77.27-.75.82,0,1.81,0,3.62.08,5.43s.1,1.86,1.8,2.41Z"/><path id="Path_13466" data-name="Path 13466" class="cls-2" d="M143.86,48h44.79c.33,0,.62,0,.6.48s-.32.36-.59.37-.46,0-.69,0H99.79c-.23,0-.47,0-.7,0s-.56.06-.6-.35.24-.5.59-.5h44.78Z"/><path id="Path_13467" data-name="Path 13467" class="cls-2" d="M148.84,51.59c-5.7-2.29-11.41,1.74-11.39,8,0,3.74,2,6.89,5,8A8.12,8.12,0,0,0,152.93,63a7.85,7.85,0,0,0,.47-1.85C154.19,56.76,152.41,53,148.84,51.59ZM151,63.53a5.46,5.46,0,0,1-9.24,2c-2.58-2.61-3.15-8.22-1.14-11.29a5.66,5.66,0,0,1,7.85-1.51,5.72,5.72,0,0,1,1.18,1.07,8.89,8.89,0,0,1,1.93,5.73,11.46,11.46,0,0,1-.58,4Z"/><path id="Path_13468" data-name="Path 13468" class="cls-2" d="M168,52.68a7.94,7.94,0,0,0-8.7-.89,8.14,8.14,0,0,0-4.54,7.12c0,4.3,1.87,7.43,4.66,8.61a8,8,0,0,0,10.14-3.27C171.87,60.37,171.2,55.08,168,52.68Zm.88,8c0,.06,0,.12,0,.18h0a.76.76,0,0,1,0,.15h0l0,.29s0,.07,0,.11,0,.18,0,.27,0,0,0,.06,0,.05,0,.07c0,.23-.09.46-.14.68a.83.83,0,0,1,0,.15s0,0,0,0a1.46,1.46,0,0,1-.05.2h0a.74.74,0,0,1,0,.14v0a2.81,2.81,0,0,1-.1.31,5.46,5.46,0,0,1-9.17,2.3c-2.74-2.62-3.34-8.43-1.19-11.55A5.68,5.68,0,0,1,166,52.82a6.35,6.35,0,0,1,1,.9l.2.24.09.12.15.2,0,0,.16.25h0a.41.41,0,0,1,0,.09,4.91,4.91,0,0,1,.28.5,1.09,1.09,0,0,1,.08.15v0a2.55,2.55,0,0,1,.13.29l0,0a2.44,2.44,0,0,1,.1.24.42.42,0,0,1,0,.1c.05.12.09.24.13.36a2.76,2.76,0,0,1,.08.27.06.06,0,0,1,0,0,.5.5,0,0,1,0,.13,7,7,0,0,1,.16.69c0,.13,0,.26.07.39l0,.15v.07c0,.1,0,.21.05.32s0,.29,0,.44,0,.27,0,.41h0v.15c0,.12,0,.25,0,.38v.26c0,.2,0,.4,0,.59Z"/><path id="Path_13469" data-name="Path 13469" class="cls-2" d="M189.68,41.83c.63,2.55-.42,4.16-2.87,4.4a19.46,19.46,0,0,1-6.76-.32c-4.75-1.22-7.61-5.14-7.15-9.79s4-8,9.2-8.31a32.59,32.59,0,0,1,7.11.6c.27,0,.59,0,.57.41-.06,1.35-.15,2.7-.23,4.14-.2-.12-.26-.14-.26-.16-.28-3-1.89-3.56-5-4a10.67,10.67,0,0,0-4,.23,6,6,0,0,0-4.73,4.53c-.87,3.34-.41,6.43,2.06,9s5.65,3.1,9.05,2.48a3.2,3.2,0,0,0,2.64-2.44C189.37,42.32,189.3,41.94,189.68,41.83Z"/><path id="Path_13470" data-name="Path 13470" class="cls-2" d="M134.92,18.15c-1.85-4.68-3.66-9.38-5.49-14.06-.15-.38-.18-.84-.67-1.06a2.93,2.93,0,0,0-.6,1.21l-5,13.74c-.55,1.47-.93,3.11-3.1,3.1,1.78.23,3.5,0,5.21.09-1.33-.56-1.44-.76-1-2.16a9.93,9.93,0,0,1,.4-1.2c.45-1.13.42-2.7,1.35-3.33s2.4-.06,3.6-.21a1.83,1.83,0,0,1,2.25,1.27,1.35,1.35,0,0,1,0,.29c.42,1.47,1.4,2.85,1.52,4.32s.74,1.08,1.47,1.1,1.7,0,2.54,0c.22,0,.57.16.63-.35C136.1,21,135.48,19.56,134.92,18.15Zm-4.66-4.76H126.7c-.53,0-.53-.21-.39-.63.67-2,1.32-4,2-6l.25,0c.73,2,1.46,4.07,2.18,6.11.16.44-.06.54-.44.53Z"/><path id="Path_13471" data-name="Path 13471" class="cls-2" d="M104.85,37.6c3.27-.81,4.54-2.73,3.76-5.53a4.42,4.42,0,0,0-5.18-3.17c-.47.09-.66.29-.65.76,0,4.8.08,9.61.07,14.41,0,1.57,1.15,1.54,2.17,1.87H99c1.61-.2,1.59-1.43,1.6-2.57,0-4.38,0-8.76,0-13.14,0-1.46-.86-1.77-2.11-1.79.15-.17.2-.28.25-.28,2.72.11,5.46-.28,8.16.14a4.11,4.11,0,0,1,3.82,3.84,5.38,5.38,0,0,1-3.6,5.36C106,37.93,105.57,38,104.85,37.6Z"/><path id="Path_13472" data-name="Path 13472" class="cls-2" d="M109.31,21.44c1.54-.24,1.55-1.38,1.56-2.45,0-4.42,0-8.84,0-13.27,0-1.4-.81-1.76-2.13-1.77a2.07,2.07,0,0,1,1.66-.29,64.1,64.1,0,0,0,7.84-.1c.4-.05.57,0,.51.46a20.91,20.91,0,0,1-.44,2.61c-.12-1.28-.74-1.95-2-2-1,0-2,0-3,0-.45,0-.42.35-.42.65v5.66c0,.32,0,.67.45.63,1.66-.11,3.39.37,5.14-.7-.35,1.22-.24,2.34-.48,3.42-.6-1.68-.66-1.73-2.6-1.77C113,12.45,113,12.45,113,15c0,1.35,0,2.7,0,4a1.46,1.46,0,0,0,1.29,1.6h.28c.34,0,.69,0,1,0,1.65,0,3.4.19,3.58-2.31a6.21,6.21,0,0,1-.06,2.78.73.73,0,0,1-.7.5C115.39,21.69,112.39,21.39,109.31,21.44Z"/><path id="Path_13473" data-name="Path 13473" class="cls-2" d="M144,25.07H100.11a2.81,2.81,0,0,1-.58,0c-.36-.09-1,.28-1-.38s.65-.38,1-.38h88.79c.36,0,1.1-.36,1.06.42,0,.58-.68.33-1.05.33Q166.15,25.08,144,25.07Z"/><path id="Path_13474" data-name="Path 13474" class="cls-2" d="M179.57,21.27c1.38,0,1.58-.94,1.59-2,0-4.58,0-9.16,0-13.74,0-1.32-.8-1.6-2-1.59a2,2,0,0,1,1.44-.34,62,62,0,0,0,8-.08c.34,0,.62-.1.54.43a23.17,23.17,0,0,1-.45,2.6c-.13-1.25-.75-1.9-1.95-1.92l-3,0c-.43,0-.45.31-.45.64v5.66c0,.31,0,.68.43.65,1.66-.12,3.39.39,5-.63a4.54,4.54,0,0,1-.46,2.46c-1.33-1.44-3.07-.74-4.63-.91-.42,0-.35.42-.35.71,0,1.89,0,3.78,0,5.66,0,1.32.44,1.68,1.77,1.75.58,0,1.16,0,1.73,0a2.44,2.44,0,0,0,2.6-1.37,3.14,3.14,0,0,1,.11,1.46c-.08.59-.35.91-1,.9h-8.85Z"/><path id="Path_13475" data-name="Path 13475" class="cls-2" d="M134.35,6a1.71,1.71,0,0,1,0-.32c.2-.82.17-1.84.66-2.41s1.47.09,2.24.08c3.85,0,7.69.13,11.53-.11.29,0,.69-.2.68.31a7.92,7.92,0,0,1-.27,2.74c-.18-1.65-1.38-1.79-2.6-1.85-.92,0-1.84,0-2.76-.06-.64,0-.77.23-.77.8,0,4.42,0,8.84.05,13.26,0,.34.08.68.09,1a1.24,1.24,0,0,0,1.11,1.36h.25c.23,0,.54-.13.73.32h-5.84c1.63-.21,1.5-1.45,1.51-2.54,0-4.45,0-8.91.09-13.37,0-.75-.26-.92-.94-.87s-1.46,0-2.19,0c-1.4,0-2.85-.11-3.31,1.87Z"/><path id="Path_13476" data-name="Path 13476" class="cls-2" d="M60.78,44.91a7.43,7.43,0,0,1-.89-9,33.81,33.81,0,0,1,7.57-7.2c2.71-2.09,5.47-4.1,8.2-6.16a17.86,17.86,0,0,0,2.88-2.82,3.19,3.19,0,0,1-1.23,2.15c-2.12,1.95-4.28,3.86-6.4,5.8a46.59,46.59,0,0,0-7,8.06,18.08,18.08,0,0,0-2.94,8.5C60.9,44.49,61,44.74,60.78,44.91Z"/><path id="Path_13477" data-name="Path 13477" class="cls-2" d="M161.41,21.31h-5.85c1.23-.22,1.54-1,1.54-2.11,0-4.65,0-9.3.07-13.94,0-.55-.17-.76-.73-.72s-1.31,0-2,0c-1.5.06-3.19-.35-3.79,1.89l-.25-.32c.17-.84.35-1.68.53-2.52.09-.37.3-.41.69-.36a88.52,88.52,0,0,0,13.23.12c.59,0,.76.07.72.63a23.94,23.94,0,0,1-.22,2.45c-.33-1.83-1.69-1.85-3-1.87-1,0-2.32-.39-2.9.1s-.22,2-.23,3c0,3.07,0,6.15,0,9.22,0,.54,0,1.08,0,1.61C159.32,20.7,159.35,20.73,161.41,21.31Z"/><path id="Path_13478" data-name="Path 13478" class="cls-2" d="M107.1,6.48c-.84-2.21-1.8-2.84-3.9-2.58a2.71,2.71,0,0,0-2.48,2.9,2.8,2.8,0,0,0,.34,1.13,7,7,0,0,0,2,2.1,25.61,25.61,0,0,1,3.38,3,5,5,0,0,1,.94,5.68,4.93,4.93,0,0,1-4.74,2.89,7.34,7.34,0,0,1-3.28-.46c-.32-.14-.68-.25-.68-.68a13.11,13.11,0,0,1,.16-3.13c.26-.05.29.07.3.17a3.44,3.44,0,0,0,3.57,3.31,3.35,3.35,0,0,0,1.13-.23A3.29,3.29,0,0,0,106,16.42a3.15,3.15,0,0,0-.55-1,12.1,12.1,0,0,0-2.65-2.55,15.5,15.5,0,0,1-2.42-2.3,4.68,4.68,0,0,1-.78-5.07c.79-1.74,2.34-2.34,4.14-2.45a12.71,12.71,0,0,1,1.38,0C107.48,3.21,108,4.1,107.1,6.48Z"/><path id="Path_13479" data-name="Path 13479" class="cls-2" d="M121,64.44a5.27,5.27,0,0,1-.21,3,1.12,1.12,0,0,1-1.1.72,22.65,22.65,0,0,1-6.21-.08,7.48,7.48,0,0,1-5.85-6,9.43,9.43,0,0,1,.72-6.52,7.29,7.29,0,0,1,5.87-4.14,21.71,21.71,0,0,1,6.53.46c.26,0,.48.12.47.4-.05,1.23-.13,2.46-.22,4-1.2-3.33-2.36-4.16-5.4-4.11s-5.14,1.34-5.92,4A9.72,9.72,0,0,0,110,63a7.31,7.31,0,0,0,8.34,4.26C119.73,67,120.23,66.46,121,64.44Z"/><path id="Path_13480" data-name="Path 13480" class="cls-2" d="M166.82,3.41h6.25c-2,.8-2,.8-2,3,0,4-.16,8,.13,12,.11,1.53.45,1.83,2,1.95.42,0,.84,0,1.27,0,2.43,0,2.7-.17,3.71-2.33a5.47,5.47,0,0,1-.43,3c-.13.27-.45.28-.72.28l-9.46-.07s-.09-.1-.23-.26c1.65-.06,1.61-1.23,1.62-2.34q0-6.12,0-12.23C169,4.21,169,4.21,166.82,3.41Z"/><path id="Path_13481" data-name="Path 13481" class="cls-2" d="M160.69,42.87a6.22,6.22,0,0,1-.24,2.57c-.18.71-.77.67-1.3.67L152.22,46c-.93,0-1.85,0-2.85-.1,1.78-.17,1.67-1.5,1.68-2.65q.06-6.23,0-12.46c0-2-.1-2-2-2.53h6.38c-.84.38-1.64.12-2,.8a4.21,4.21,0,0,0-.25,1.93c0,4-.17,8.08.13,12.11.12,1.65.5,2,2.17,2,.46,0,.92,0,1.38,0C159.41,45.13,159.57,45,160.69,42.87Z"/><path id="Path_13482" data-name="Path 13482" class="cls-2" d="M182.4,64.12c.16,1.23.45,2.34,1.7,2.89a3.25,3.25,0,0,0,3.72-.66,3.39,3.39,0,0,0,.1-4,15.16,15.16,0,0,0-2.68-2.69A8.64,8.64,0,0,1,183,56.93,4,4,0,0,1,186.3,51a3.64,3.64,0,0,1,.57,0c2.69,0,3.09.46,2.51,3.28a2.47,2.47,0,0,0-2.49-2.45h-.13A2.44,2.44,0,0,0,184.3,53a2.7,2.7,0,0,0,.12,2.95,10.34,10.34,0,0,0,2.18,2.2,13.66,13.66,0,0,1,2.3,2.26,5,5,0,0,1,0,6.28,5.57,5.57,0,0,1-6.18,1.06c-.28-.14-.59-.27-.59-.64A7.49,7.49,0,0,1,182.4,64.12Z"/><path id="Path_13483" data-name="Path 13483" class="cls-2" d="M170.17,45.8h-6c1.7-.34,1.57-1.68,1.58-2.9q0-6,0-12.1c0-2,0-2-1.84-2.74h5.61c-2,.34-1.59,1.89-1.6,3.19,0,3.84,0,7.69,0,11.53C168,45.15,168,45.15,170.17,45.8Z"/><path id="Path_13484" data-name="Path 13484" class="cls-2" d="M105.65,54.67a2.4,2.4,0,0,0-2.18-2.54,2.57,2.57,0,0,0-2.76,1,2.72,2.72,0,0,0,.07,3.15,8.91,8.91,0,0,0,1.85,1.88,15.23,15.23,0,0,1,2.63,2.57,4.86,4.86,0,0,1,.42,5.52,3.43,3.43,0,0,1-3.37,2c-.77,0-1.54,0-2.31,0-1.3,0-1.62-.38-1.59-1.67a5.61,5.61,0,0,1,.24-2.15c.31.22.2.46.23.67.22,1.72,1.34,2.6,3.24,2.52a2.77,2.77,0,0,0,2.72-2.74,3.61,3.61,0,0,0-1.1-2.81c-.93-.92-1.92-1.77-2.86-2.68a5.64,5.64,0,0,1-2-3.9,3.79,3.79,0,0,1,3.44-4.11h.17a9,9,0,0,1,1.27,0C106.1,51.43,106.55,52.18,105.65,54.67Z"/><path id="Path_13485" data-name="Path 13485" class="cls-2" d="M180.7,65.09a6.54,6.54,0,0,1-.18,2.33.76.76,0,0,1-.83.64c-2.71,0-5.42,0-8.21-.13,1.34-.35,1.33-1.37,1.34-2.35,0-3.85,0-7.69,0-11.53,0-1.89,0-1.89-1.63-2.54,1.64,0,3.27,0,5,0-2,.24-1.61,1.66-1.6,2.85,0,3.57,0,7.15.06,10.72,0,1.72.34,2,2.07,2q.4,0,.81,0C179.65,67.16,179.9,67,180.7,65.09Z"/><path id="Path_13486" data-name="Path 13486" class="cls-2" d="M60.74,53.77a4.41,4.41,0,0,1,1-2.61,1.78,1.78,0,0,1,2.46-.5,1.74,1.74,0,0,1,.66.81,4.64,4.64,0,0,1-.34,4.9A1.71,1.71,0,0,1,62.2,57a1.67,1.67,0,0,1-.65-.64A4.07,4.07,0,0,1,60.74,53.77Z"/><path id="Path_13487" data-name="Path 13487" class="cls-2" d="M49.81,68l0,.16s0,0,0-.06a.24.24,0,0,1,.06-.09Z"/><path id="Path_13488" data-name="Path 13488" class="cls-2" d="M47.82,36.53l.11.13h-.24Z"/><path id="Path_13489" data-name="Path 13489" class="cls-2" d="M84.2,17.26c-.09.11-.17.29-.32.09,0,0,.1-.16.15-.24Z"/><path id="Path_13490" data-name="Path 13490" class="cls-2" d="M84,17.1c.06,0,.14-.13.16-.12s.09.18,0,.28Z"/></g></g></g></g></svg>