<svg xmlns="http://www.w3.org/2000/svg" viewBox="0 0 228 72.01"><defs><style>.cls-1{fill:none;}.cls-2{fill:#334354;}</style></defs><title>sfusd</title><g id="Layer_2" data-name="Layer 2"><g id="Layer_1-2" data-name="Layer 1"><g id="Group_10974" data-name="Group 10974"><rect id="Rectangle_1555" data-name="Rectangle 1555" class="cls-1" width="228" height="72"/><path id="Path_12572" data-name="Path 12572" class="cls-1" d="M56.75,0H174.58"/><g id="Group_11430" data-name="Group 11430"><path id="Path_13491" data-name="Path 13491" class="cls-2" d="M103.46,30.26a14.23,14.23,0,0,1-3.1-4.13,14.38,14.38,0,0,1-1.19-3.43A14.68,14.68,0,0,1,98.91,20a1.28,1.28,0,0,0-1.28-1.29,1.3,1.3,0,0,0-1.34,1.26v0a15.27,15.27,0,0,1-.3,2.87,12.9,12.9,0,0,1-.39,1.48,13.72,13.72,0,0,1-.76,1.82,14.37,14.37,0,0,1-7.68,7,16.16,16.16,0,0,1-2.46.73,11,11,0,0,1-2.35.23c-.25,0-.36.09-.36.35,0,.64,0,1.29,0,1.93,0,.37,0,.37.38.37H96.31c.24,0,.29.08.29.29,0,.72,0,1.43,0,2.14,0,.21.07.3.29.24a6.83,6.83,0,0,1,1.35-.17c.24,0,.32-.11.31-.33,0-.61,0-1.22,0-1.82,0-.3.1-.35.36-.35q7.14,0,14.28,0h14.27c.29,0,.39.08.38.37,0,.6,0,1.19,0,1.79,0,.19,0,.32.26.34a9.81,9.81,0,0,1,1.43.18c.21,0,.31,0,.3-.27,0-.7,0-1.4,0-2.1,0-.23.07-.3.31-.3h14c.13,0,.19-.05.19-.18V34.34c0-.17-.08-.25-.26-.25a13.89,13.89,0,0,1-4.42-.82,14.82,14.82,0,0,1-3.09-1.53,14.65,14.65,0,0,1-2.93-2.57,13.42,13.42,0,0,1-2.07-3.1,13.51,13.51,0,0,1-1.38-5,7.24,7.24,0,0,0-.12-1.47,1.19,1.19,0,0,0-1.22-.82,1.22,1.22,0,0,0-1.16,1c-.09.72,0,1.45-.16,2.17a18.39,18.39,0,0,1-.4,1.85,14.84,14.84,0,0,1-1.36,3.14,14.37,14.37,0,0,1-3.8,4.27,14.63,14.63,0,0,1-3.48,1.94,17.09,17.09,0,0,1-2.44.72,12.75,12.75,0,0,1-2.14.24,14.22,14.22,0,0,1-3.45-.24,14.48,14.48,0,0,1-2.8-.89A14.19,14.19,0,0,1,103.46,30.26ZM96.6,25.88v7.86c0,.41,0,.41-.39.41H89.15l-.51,0c-.06,0-.13,0-.15-.06s.05-.1.09-.13l.7-.37a15.83,15.83,0,0,0,4.16-3.11,15.39,15.39,0,0,0,2.32-3.23,9.73,9.73,0,0,0,.74-1.69A.29.29,0,0,1,96.6,25.88Zm10,8.3H99c-.44,0-.44,0-.44-.44,0-2.69,0-5.38,0-8.07a.4.4,0,0,1,.07-.3,15.3,15.3,0,0,0,8.31,8.74.37.37,0,0,1-.32.07Zm23.28-8.45c.13,0,.1.13.13.21a14.74,14.74,0,0,0,2.93,4.54,16.56,16.56,0,0,0,4.25,3.19c.18.1.37.17.56.27s.17.08.13.18-.13.05-.2.05h-7.52c-.28,0-.36-.09-.36-.35,0-1.3,0-2.6,0-3.9h0V26C129.79,25.88,129.75,25.75,129.87,25.73Zm-10,8.2c.3-.17.6-.31.9-.48a16.76,16.76,0,0,0,2.55-1.72,14.81,14.81,0,0,0,2.73-3A13.41,13.41,0,0,0,127.57,26c0-.07,0-.2.14-.18s.09.14.09.23V30h0c0,1.27,0,2.54,0,3.81,0,.27-.06.39-.36.39h-6.38c-.37,0-.74,0-1.11,0-.08,0-.2.05-.23,0s.11-.14.19-.19Z"/><path id="Path_13492" data-name="Path 13492" class="cls-2" d="M85,46.09h24.61a7.59,7.59,0,0,1,2.68.36,2.28,2.28,0,0,1,.7.3,2,2,0,0,1,1,1.61c.12-.06.14-.11.14-.17,0-.88.66-1.25,1.28-1.62a4.13,4.13,0,0,1,1.24-.37,12.5,12.5,0,0,1,2-.1h24.5a.29.29,0,0,0,.31-.27.52.52,0,0,0,0-.11c-.09-.29-.17-.58-.27-.86s-.31-.8-.43-1.2c-.07-.23-.17-.34-.41-.34a8.59,8.59,0,0,1-1.51-.22c-.75-.15-1.5-.26-2.25-.4-1.37-.25-2.75-.45-4.13-.67l-1.73-.28c-1.16-.21-2.33-.35-3.5-.5a3.43,3.43,0,0,1-.56-.05,10.58,10.58,0,0,0-1.58-.24l-1.6-.23c-1-.14-1.93-.24-2.9-.29-.58,0-1.17,0-1.76,0a3.09,3.09,0,0,0-.43,0,15.77,15.77,0,0,0-2.53.6,6.35,6.35,0,0,0-2,1.21,6.55,6.55,0,0,0-1.63,2.2c0,.07,0,.18-.15.18s-.11-.11-.15-.19c-.13-.24-.25-.5-.4-.74a6.53,6.53,0,0,0-2.34-2.24,7.83,7.83,0,0,0-2.15-.79,11.53,11.53,0,0,0-2.33-.3,24.79,24.79,0,0,0-4.94.42c-.86.16-1.74.23-2.61.35-1.06.14-2.13.27-3.18.48a7.89,7.89,0,0,0-.85.08c-.62.2-1.28.24-1.92.38s-1.46.24-2.2.33c-1.07.13-2.12.35-3.18.53l-1.8.3-.4.06a.28.28,0,0,0-.25.22c-.25.74-.5,1.48-.76,2.22-.06.19,0,.3.2.3Z"/><path id="Path_13493" data-name="Path 13493" class="cls-2" d="M120.1,47.32a22.15,22.15,0,0,0-2.3.06A3.05,3.05,0,0,0,115,50c0,.22-.13.29-.33.29h-1.45c-.13,0-.28,0-.28-.18a2,2,0,0,0-.15-.6,3,3,0,0,0-1.51-1.86,4.22,4.22,0,0,0-2-.38H84.4c-.39,0-.78,0-1.16,0s-.39.2-.3.48.17.36.25.54c.18.42.39.84.55,1.27s.19.45.63.45H108.7c.19,0,.33,0,.37.27.12.54.27,1.08.38,1.62.07.32.19.44.52.44h8.17a.37.37,0,0,0,.38-.28c.12-.52.24-1,.34-1.55s.15-.49.58-.49h24.3a.46.46,0,0,0,.48-.31c.24-.58.48-1.17.73-1.74s.16-.71-.49-.71Z"/><path id="Path_13494" data-name="Path 13494" class="cls-2" d="M120,62.83c0-1.47,0-2.81,0-4.15,0-.24-.08-.3-.31-.3-1,0-2.1,0-3.15,0-.29,0-.36.09-.36.37,0,2.32,0,4.64,0,7A4.31,4.31,0,0,1,116,67a2,2,0,0,1-.88,1.24,2.82,2.82,0,0,1-2.18.26,1.9,1.9,0,0,1-1-.64,3.29,3.29,0,0,1-.64-2.12c0-2.36,0-4.72,0-7.08,0-.19,0-.27-.25-.27h-3.24c-.2,0-.3.06-.3.3,0,2.41,0,4.81,0,7.22a7.83,7.83,0,0,0,.54,3,4.75,4.75,0,0,0,2.74,2.66,7.64,7.64,0,0,0,2.72.48,8.45,8.45,0,0,0,3-.43,4.87,4.87,0,0,0,1.91-1.16,5.74,5.74,0,0,0,1.56-3.74C120,65.34,119.92,64,120,62.83Z"/><path id="Path_13495" data-name="Path 13495" class="cls-2" d="M90.5,64.92a5.8,5.8,0,0,0-1.78-1c-1-.37-2-.55-3-.83a2.41,2.41,0,0,1-1-.45.68.68,0,0,1-.2-.88,1.24,1.24,0,0,1,1-.54,6.5,6.5,0,0,1,3.64,1.16c.22.14.33.12.48-.09l1.55-2.19a.22.22,0,0,0,0-.32l-.06,0a7.58,7.58,0,0,0-.88-.6,8.5,8.5,0,0,0-3.78-1,6.69,6.69,0,0,0-3.83.74,4,4,0,0,0-1.9,2.46,4.77,4.77,0,0,0-.11,1.51,3.1,3.1,0,0,0,1,2.18,6.27,6.27,0,0,0,2.5,1.28c.84.26,1.71.43,2.56.66a2.38,2.38,0,0,1,.92.44.68.68,0,0,1,.15,1,.76.76,0,0,1-.21.19,2,2,0,0,1-1.07.3,6.93,6.93,0,0,1-1.92-.3,6.76,6.76,0,0,1-2.25-1.15c-.19-.15-.29-.14-.44,0-.57.7-1.15,1.39-1.73,2.07-.14.17-.13.28,0,.42a8.45,8.45,0,0,0,3.48,1.73,9.42,9.42,0,0,0,2.17.33,8.85,8.85,0,0,0,3-.44,4.35,4.35,0,0,0,1.77-1.12,4.09,4.09,0,0,0,1-3.41A3.17,3.17,0,0,0,90.5,64.92Z"/><path id="Path_13496" data-name="Path 13496" class="cls-2" d="M132.24,65.16a6.63,6.63,0,0,0-3.1-1.54c-.68-.18-1.38-.31-2.06-.51a2.42,2.42,0,0,1-1-.45.72.72,0,0,1-.2-.77c.18-.48.6-.56,1-.63a3.79,3.79,0,0,1,1.6.19,7,7,0,0,1,2.14,1c.2.13.3.11.44-.08.49-.73,1-1.45,1.51-2.16.15-.21.13-.33-.07-.45a11.75,11.75,0,0,0-1.62-.91,9.14,9.14,0,0,0-3.3-.68,6.87,6.87,0,0,0-2.7.39,4.48,4.48,0,0,0-1.77,1.13,3.73,3.73,0,0,0-1,2.3,3.51,3.51,0,0,0,.85,2.91,5.28,5.28,0,0,0,2.15,1.26,25.4,25.4,0,0,0,2.56.68,4.18,4.18,0,0,1,1.29.48.76.76,0,0,1,.28,1,.92.92,0,0,1-.23.25,1.43,1.43,0,0,1-.66.24,5.26,5.26,0,0,1-2.05-.17,7.12,7.12,0,0,1-2.61-1.3c-.12-.1-.18-.1-.29,0-.58.72-1.18,1.42-1.78,2.13-.15.17-.13.28,0,.42a8.84,8.84,0,0,0,3.51,1.74,9.1,9.1,0,0,0,2.26.29,7.24,7.24,0,0,0,3.57-.73,4,4,0,0,0,1.84-2,4.77,4.77,0,0,0,.28-2A3,3,0,0,0,132.24,65.16Z"/><path id="Path_13497" data-name="Path 13497" class="cls-2" d="M104.86,58.62c0-.18,0-.24-.24-.24H94.42c-.21,0-.3.06-.3.29,0,2.12,0,4.24,0,6.37v6.36c0,.25,0,.36.34.36,1,0,2.06,0,3.09,0,.27,0,.34-.08.34-.34,0-1.36,0-2.72,0-4.09,0-.25.05-.36.34-.36,1.87,0,3.74,0,5.6,0,.38,0,.39,0,.4-.38,0-.81,0-1.63,0-2.44,0-.26-.08-.34-.34-.34-1.88,0-3.75,0-5.63,0-.35,0-.36,0-.36-.37s0-1,0-1.48c0-.24.06-.33.32-.32h6.33c.26,0,.33-.08.33-.32C104.85,60.44,104.85,59.53,104.86,58.62Z"/><path id="Path_13498" data-name="Path 13498" class="cls-2" d="M123.75,11.21c-.26.6-.51,1.21-.77,1.82s-.43,1.07-.68,1.6c-.15.32-.23.67-.41,1a6.24,6.24,0,0,1-.36.84c0,.1,0,.18.06.21s.12,0,.17-.09a12.19,12.19,0,0,0,.76-1c.77-.92,1.46-1.91,2.21-2.86.42-.54.81-1.11,1.23-1.64.73-.93,1.41-1.89,2.16-2.79.44-.54.76-1.17,1.25-1.67s.58-.85,1-1.21c.12-.11.11-.24,0-.36a1.73,1.73,0,0,0-.28-.19c-.77-.4-1.52-.83-2.24-1.3-.5-.33-.8-.29-1,.19-.3.84-.67,1.64-1,2.45-.5,1.17-1,2.36-1.47,3.54Z"/><path id="Path_13499" data-name="Path 13499" class="cls-2" d="M91.89,8.92c.73.63,1.48,1.26,2.16,1.95.94,1,2,1.8,3,2.72,1.14,1.09,2.32,2.14,3.48,3.2.54.48,1.08,1,1.6,1.48a.33.33,0,0,0,.27.15c0-.05,0-.1,0-.14-.12-.28-.35-.5-.48-.76-.31-.66-.78-1.21-1.14-1.84-.2-.34-.43-.68-.66-1-.42-.61-.8-1.26-1.2-1.9s-.86-1.23-1.23-1.89-.71-1.12-1.07-1.68c-.59-.92-1.15-1.87-1.79-2.77-.24-.33-.23-.36-.54-.09-.79.66-1.6,1.3-2.35,2C91.63,8.57,91.63,8.7,91.89,8.92Z"/><path id="Path_13500" data-name="Path 13500" class="cls-2" d="M119.16,13.88c-.1.46-.17.93-.3,1.36,0,.1,0,.18.06.23s.07,0,.09-.05a2.9,2.9,0,0,0,.34-.52c.17-.54.53-1,.74-1.51s.56-1,.82-1.54.61-1.14.89-1.73.71-1.36,1.06-2c.23-.43.41-.89.66-1.31.37-.62.69-1.26,1-1.9s.65-1.24.94-1.88c.15-.34.13-.44-.22-.58-.5-.19-1-.36-1.52-.54l-1.49-.52c-.17-.06-.23,0-.29.16a10.7,10.7,0,0,0-.26,1.12c-.17.65-.27,1.31-.43,2-.12.47-.26.94-.34,1.41s-.28,1.2-.4,1.81c-.25,1.28-.57,2.55-.86,3.82C119.49,12.37,119.31,13.13,119.16,13.88Z"/><path id="Path_13501" data-name="Path 13501" class="cls-2" d="M116.07,14.74s.06,0,.07-.07c.19-.46.36-.94.51-1.42.29-1.14.72-2.23,1-3.37.13-.44.24-.88.4-1.31s.27-.92.42-1.37.37-1.12.55-1.68.43-1.42.66-2.12.46-1.57.71-2.34c0-.15,0-.23-.14-.25L118.07.4c-.3-.06-.62-.06-.92-.14s-.52-.05-.52.35c0,1-.13,2-.16,3.06,0,1.31-.13,2.62-.17,3.93s-.12,2.34-.17,3.51-.07,2.2-.13,3.24v.29S116,14.73,116.07,14.74Z"/><path id="Path_13502" data-name="Path 13502" class="cls-2" d="M111.61,3.15l.27,2.21c.08.63.14,1.25.25,1.87s.2,1.49.3,2.24.21,1.36.26,2,.14,1.3.25,1.93c0,.26,0,.54.13.78.05.06.05.2.15.18s.07-.15.07-.22a8.07,8.07,0,0,1,.21-1.7c.13-.85.18-1.7.3-2.55.07-.5.13-1,.22-1.51s.16-1,.21-1.52.15-1.24.23-1.85.16-1.22.23-1.82.19-1.16.23-1.74c.06-.41.11-.82.13-1.23,0-.19-.07-.27-.25-.25s-.43,0-.65,0a23,23,0,0,1-2.35,0h-.23c-.33,0-.37.09-.32.43C111.38,1.34,111.49,2.24,111.61,3.15Z"/><path id="Path_13503" data-name="Path 13503" class="cls-2" d="M106.66,3.42c.23.83.52,1.65.78,2.47s.4,1.4.65,2.09.49,1.56.73,2.34c.2.62.4,1.23.58,1.86s.44,1.28.6,1.94a1,1,0,0,0,.11.26.07.07,0,0,0,.1,0h0s.05,0,0-.07v0a2.14,2.14,0,0,1,0-.62c0-.58-.11-1.16-.12-1.75,0-1.33-.1-2.66-.17-4,0-1.15-.15-2.3-.17-3.44s-.15-2.36-.13-3.54a4.36,4.36,0,0,0,0-.51c0-.16-.09-.2-.25-.2a6.18,6.18,0,0,0-1.05.15l-2.16.41c-.24,0-.25.12-.2.31C106.15,1.91,106.45,2.65,106.66,3.42Z"/><path id="Path_13504" data-name="Path 13504" class="cls-2" d="M127.83,12.25c-.36.56-.67,1.15-1,1.7-.49.71-.94,1.45-1.41,2.16s-.83,1.25-1.2,1.9c0,.06-.12.12,0,.19s.11,0,.16-.07c.51-.35.83-.91,1.35-1.23a6.05,6.05,0,0,0,.78-.74,11.1,11.1,0,0,0,1-.91,7.53,7.53,0,0,1,.57-.56c.84-.78,1.7-1.55,2.53-2.34.65-.61,1.34-1.18,2-1.81s1.26-1.17,1.89-1.75a.3.3,0,0,0,.12-.24.25.25,0,0,0,0-.07c-.19-.18-.37-.36-.56-.52l-1.85-1.53c-.29-.25-.43-.23-.59.12a1,1,0,0,1-.07.15c-.66.92-1.2,1.92-1.84,2.85S128.41,11.34,127.83,12.25Z"/><path id="Path_13505" data-name="Path 13505" class="cls-2" d="M101.23,3.57c.24.48.46,1,.74,1.45s.63,1.23,1,1.85.7,1.35,1,2l1.48,2.85c.35.67.68,1.33,1,2a10.21,10.21,0,0,0,.88,1.54.67.67,0,0,0,0-.2c-.17-.69-.32-1.39-.48-2.08s-.29-1.32-.44-2-.32-1.31-.47-2-.24-1.22-.38-1.82c-.17-.79-.39-1.57-.54-2.36s-.33-1.27-.43-1.92c-.07-.42-.18-.83-.26-1.25s-.13-.37-.4-.27-.52.16-.77.26c-.72.27-1.44.56-2.17.8-.22.07-.26.2-.15.4S101.12,3.34,101.23,3.57Z"/><path id="Path_13506" data-name="Path 13506" class="cls-2" d="M98.79,8.93c.74,1,1.45,2,2.21,2.89.93,1.15,1.74,2.37,2.68,3.5.23.28.4.61.66.88,0,0,.06.1.13.07s0-.06,0-.08a1,1,0,0,0,0-.12c-.22-.53-.44-1.06-.67-1.58-.39-1-.79-1.89-1.18-2.84-.25-.61-.5-1.23-.74-1.85-.32-.82-.7-1.62-1.05-2.43-.19-.46-.33-.94-.54-1.38-.37-.79-.7-1.59-1-2.4-.08-.23-.18-.24-.34-.14-.93.55-1.89,1-2.8,1.63-.17.1-.17.21-.06.35Z"/><path id="Path_13507" data-name="Path 13507" class="cls-2" d="M137.7,21c-.75.36-1.48.77-2.22,1.16l-2.71,1.39c-.11.06-.2.12-.15.26s.15.47.23.7a.22.22,0,0,0,.23.17c.34-.06.68-.12,1-.2.78-.2,1.56-.37,2.34-.54a7.51,7.51,0,0,0,.94-.21,5.59,5.59,0,0,1,1.14-.28c.64-.13,1.26-.29,1.9-.4.82-.14,1.62-.39,2.43-.56.27-.05.27-.15.2-.36-.19-.6-.46-1.17-.64-1.78-.12-.41-.3-.8-.45-1.21a.26.26,0,0,0-.3-.2.24.24,0,0,0-.1.05c-.67.35-1.34.71-2,1.05S138.32,20.67,137.7,21Z"/><path id="Path_13508" data-name="Path 13508" class="cls-2" d="M83.38,22.44l1.65.37c.58.13,1.15.28,1.73.4l1.81.39c.88.17,1.75.39,2.62.6.62.14,1.25.24,1.86.44.13,0,.34.09.41-.07a1.76,1.76,0,0,0,.27-.7.29.29,0,0,0-.14-.31c-.77-.39-1.53-.8-2.3-1.2l-3.05-1.58c-1.16-.6-2.33-1.19-3.49-1.8-.21-.11-.32-.06-.39.14-.14.38-.29.75-.42,1.13-.22.66-.5,1.3-.69,2C83.22,22.36,83.25,22.41,83.38,22.44Z"/><path id="Path_13509" data-name="Path 13509" class="cls-2" d="M85.58,17.53l2.47,1,3,1.26c.56.23,1.11.5,1.69.7a14.26,14.26,0,0,0,1.41.56c.15,0,.18,0,.21-.13a2.77,2.77,0,0,0,0-.76c.14-.39-.1-.69-.42-.94-.08-.06-.18-.1-.27-.16-1.13-.87-2.26-1.74-3.41-2.6s-2-1.55-3-2.27a.24.24,0,0,0-.35,0l0,0a1.71,1.71,0,0,0-.28.45l-1.29,2.22C85.15,17.27,85.19,17.36,85.58,17.53Z"/><path id="Path_13510" data-name="Path 13510" class="cls-2" d="M130.49,15.55a12.67,12.67,0,0,0-1,1.08c-.13.19-.08.3.1.33a2.81,2.81,0,0,1,1,.44c.06,0,.1.09.17.08a.47.47,0,0,0,.28-.14c.46-.37,1-.64,1.48-1,.77-.52,1.6-1,2.37-1.48,1-.65,1.94-1.27,2.93-1.89.47-.3.48-.36.15-.82l-.11-.13c-.56-.67-1.14-1.33-1.69-2-.24-.29-.35-.32-.61,0-.72.78-1.42,1.57-2.14,2.36C132.45,13.43,131.45,14.48,130.49,15.55Z"/><path id="Path_13511" data-name="Path 13511" class="cls-2" d="M82.57,27.78c.5,0,1,.06,1.5.06.87,0,1.73.05,2.6.11,1.31.1,2.64.05,4,.18h.14c.18,0,.41.08.53,0a5.21,5.21,0,0,0,.76-1c.06-.1,0-.2-.13-.24-.62-.2-1.22-.43-1.84-.6-1.14-.3-2.24-.71-3.38-1-.51-.14-1-.35-1.54-.51l-2.1-.65c-.25-.08-.35,0-.42.23s0,.44-.09.64c-.2.76-.23,1.55-.42,2.3C82.07,27.6,82.22,27.78,82.57,27.78Z"/><path id="Path_13512" data-name="Path 13512" class="cls-2" d="M138.5,25.61c-1.31.36-2.58.83-3.88,1.2-.36.1-.37.15-.17.44a1,1,0,0,0,.14.22c.32.28.46.85.91.7.64-.06,1.11-.13,1.59-.14,1.28,0,2.55-.11,3.82-.16,1,0,1.92-.06,2.88-.13.25,0,.39-.08.34-.35-.08-.55-.17-1.11-.26-1.67s-.17-.86-.24-1.3-.08-.38-.43-.28c-.63.18-1.26.37-1.88.57C140.38,25,139.45,25.34,138.5,25.61Z"/><path id="Path_13513" data-name="Path 13513" class="cls-2" d="M135.72,16.76c-.6.47-1.2.94-1.81,1.4s-1,.7-1.44,1.07c-.2.17-.5.27-.49.52s.08.71.09,1,.1.27.3.19l1.27-.53c.8-.34,1.62-.65,2.42-1,1-.43,2-.82,2.94-1.23l1.87-.78c.16-.06.26-.12.15-.3q-.84-1.41-1.65-2.82c-.08-.14-.18-.16-.3-.07-.34.24-.67.49-1,.74Z"/><path id="Path_13514" data-name="Path 13514" class="cls-2" d="M88.31,12.81c.42.23.78.56,1.2.79s.92.6,1.38.89c.88.53,1.72,1.11,2.6,1.63.58.35,1.12.77,1.69,1.14.16.1.37.28.6.07a2.51,2.51,0,0,1,.84-.44c.19-.07.19-.17.09-.3s-.27-.32-.41-.47c-.44-.47-.88-.93-1.31-1.4-.76-.82-1.5-1.64-2.25-2.47S91.3,10.78,90.66,10a.37.37,0,0,0-.21-.16.72.72,0,0,0-.33.29c-.59.79-1.3,1.48-1.87,2.3C88.13,12.59,88.11,12.7,88.31,12.81Z"/><path id="Path_13515" data-name="Path 13515" class="cls-2" d="M142.06,29.66l-1.73.23c-.78.12-1.57.19-2.35.31-.08,0-.17,0-.18.11s.07.09.12.13a8.65,8.65,0,0,0,2.2,1.08,11.19,11.19,0,0,0,2.42.63c.52.07,1,.12,1.55.14.23,0,.33-.1.32-.33V30.85h0v-.74c0-.67,0-.66-.67-.66A16.06,16.06,0,0,0,142.06,29.66Z"/><path id="Path_13516" data-name="Path 13516" class="cls-2" d="M82,31.56c0,.68,0,.68.77.67a11.66,11.66,0,0,0,2.62-.43,12.75,12.75,0,0,0,3-1.3c.07,0,.14-.09.13-.17s-.13-.11-.2-.12L86.45,30l-2.07-.26c-.69-.07-1.38-.2-2.07-.25-.26,0-.36.06-.35.33C82,30.37,82,31,82,31.56Z"/><path id="Path_13517" data-name="Path 13517" class="cls-2" d="M148.09,64.43a5.42,5.42,0,0,0-.18-1.14,9.49,9.49,0,0,0-.4-1.17A6.15,6.15,0,0,0,144.35,59c-.17-.06-.33-.25-.55-.15l-.12,0h0c-.12-.14-.24-.27-.44-.15l.15.1-.15-.1-.13,0a.68.68,0,0,1-.4-.06.68.68,0,0,0,.4.06.55.55,0,0,0-.68-.15h-.31a17.75,17.75,0,0,0-3.26-.12c-1,0-2.06,0-3.1,0a1,1,0,0,0-.3,0,1,1,0,0,1,.3,0c1,0,2.07,0,3.1,0a17.75,17.75,0,0,1,3.26.12h.19a.39.39,0,0,0-.37-.2h-6.36c-.26,0-.37.08-.37.38,0,3.84,0,7.69,0,11.53,0,.34,0,.68,0,1s0,.64.56.63,1.12-.06,1.7,0a39.24,39.24,0,0,0,4.47-.1l.11,0c.56-.19,1.15-.23,1.7-.45a7.36,7.36,0,0,0,2.16-1.24,7.56,7.56,0,0,0,1-1.15,6.28,6.28,0,0,0,1-2.41A6.5,6.5,0,0,0,148.09,64.43Zm-.22-.66c0,.17,0,.33,0,.5,0-.17,0-.34,0-.5a5.51,5.51,0,0,0-1.77-3.42,6.33,6.33,0,0,0-1.65-1.12,6.33,6.33,0,0,1,1.65,1.12,5.51,5.51,0,0,1,1.77,3.42Zm-4-4.77a.15.15,0,0,1-.11-.08.15.15,0,0,0,.11.08Zm-4.87,8V62.1c0-.39,0-.39.38-.39s1,0,1.5,0a3.34,3.34,0,0,1,2.47,1.11,3.65,3.65,0,0,1-.07,4.51,3.3,3.3,0,0,1-1.53.89,12,12,0,0,1-2.54.16c-.21,0-.22-.12-.22-.28,0-.38,0-.76,0-1.15Zm-3.67,4.6a.21.21,0,0,0,.06.1.21.21,0,0,1-.06-.1Zm2.77.14c.63,0,1.26,0,1.89,0q-.94,0-1.89,0Zm5.23-.46a9.26,9.26,0,0,1-1.56.35,9.26,9.26,0,0,0,1.56-.35,8.34,8.34,0,0,0,.9-.35,8.34,8.34,0,0,1-.9.35ZM146.72,69a8.84,8.84,0,0,0,.55-.89,6.26,6.26,0,0,0,.4-1,6.26,6.26,0,0,1-.4,1,8.84,8.84,0,0,1-.55.89Z"/></g></g></g></g></svg>