<svg width="515" height="351" viewBox="0 0 515 351" fill="none" xmlns="http://www.w3.org/2000/svg">
<path d="M308.207 321.586C308.356 321.635 308.481 321.738 308.557 321.875C308.633 322.012 308.654 322.174 308.616 322.326C308.578 322.478 308.484 322.61 308.352 322.695C308.22 322.781 308.061 322.813 307.907 322.786C263.081 314.573 237.323 298.87 234.473 297.102C228.746 293.559 198.649 275.963 204.141 252.183C204.985 248.576 207.216 245.446 210.35 243.471C211.945 242.674 213.705 242.263 215.488 242.271C217.21 242.243 218.918 242.586 220.495 243.277C222.06 243.932 223.332 245.137 224.069 246.665C223.09 245.973 221.559 244.436 219.778 244.101C214.594 243.124 212.717 244.567 211.466 245.371C210.902 245.744 210.408 246.213 210.006 246.757C209.604 247.343 209.27 247.974 209.012 248.636C207.987 251.431 207.724 254.449 208.249 257.38C209.904 268.125 217.908 277.299 226.425 283.78C255.124 304.626 296.4 317.378 308.207 321.586Z" fill="#F2EFEB"/>
<path opacity="0.62" d="M458.113 347.192C458.115 347.226 458.111 347.259 458.103 347.292C457.616 343.565 456.862 339.877 455.846 336.258C456.011 336.549 456.166 336.84 456.312 337.14C457.73 340.291 458.349 343.744 458.113 347.192Z" fill="#F2EFEB"/>
<path d="M455.846 336.259C453.521 332.219 449.433 329.274 445.146 327.153C445.138 327.075 445.138 326.998 445.125 326.92C446.393 326.433 447.791 326.403 449.08 326.834L449.088 326.841C450.644 327.37 452 328.365 452.972 329.69C454.306 331.645 455.268 333.829 455.811 336.132C455.819 336.175 455.831 336.218 455.846 336.259Z" fill="#F2EFEB"/>
<path d="M1.25009 16.2991C2.39159 21.4262 5.48705 25.9064 9.879 28.7874C14.2568 31.6173 19.2312 33.3941 24.4112 33.9783C25.4392 34.1193 26.6382 34.1783 27.3492 33.4163C28.4032 32.2873 27.5184 30.4911 26.7154 29.1761C23.5284 23.9671 21.9804 17.8931 18.8614 12.6351C16.6114 8.84406 11.4174 2.88719 6.3414 3.79619C1.2654 4.70519 0.485091 12.2421 1.25009 16.2991Z" fill="#FFA200"/>
<path d="M111.204 140.92C107.187 139.085 103.349 136.884 99.7362 134.344C98.6622 133.644 97.436 132.424 98.036 131.28C98.4102 130.747 98.969 130.373 99.6039 130.23C103.339 128.799 107.295 128.03 111.294 127.958C115.324 127.907 119.238 129.303 122.326 131.893C124.339 133.704 129.711 140.679 126.932 143.325C124.254 145.903 114.061 142.125 111.204 140.92Z" fill="#FFA200"/>
<path d="M107.99 21.7805C109.694 24.5805 111.26 27.4657 112.69 30.4357C113.683 32.4277 115.823 36.5835 112.926 36.7355C108.004 36.9691 103.132 35.6601 98.9892 32.9914C93.2302 29.3004 90.5092 23.2305 91.2422 16.1325C91.5862 15.1802 92.0455 14.2738 92.6094 13.4328C93.0393 12.7185 93.697 12.1694 94.4765 11.8737C100.228 9.45371 105.196 17.6115 107.99 21.7805Z" fill="#CD964D"/>
<path d="M365.643 302.504C364.675 301.61 363.898 300.108 364.65 299.023C364.887 298.726 365.196 298.496 365.548 298.355C365.901 298.214 366.283 298.166 366.659 298.217C367.41 298.328 368.13 298.592 368.775 298.993C369.916 299.701 371.082 300.38 372.229 301.084C372.841 301.456 373.449 301.822 374.081 302.157C374.376 302.31 375.19 302.596 375.247 303.013C375.251 303.074 375.236 303.134 375.206 303.186C374.645 304.368 372.724 304.746 371.544 304.747C369.368 304.752 367.267 303.953 365.643 302.504Z" fill="#CD964D"/>
<path d="M364.413 298.28C364.773 298.65 365.08 299.063 365.415 299.457C366.799 301.026 368.612 302.156 370.629 302.709C372.646 303.262 374.782 303.215 376.772 302.573C376.891 302.533 377.009 302.488 377.127 302.447" stroke="#904E4C" stroke-width="0.4" stroke-miterlimit="10"/>
<path d="M263.085 299.337C262.844 299.212 257.45 296.025 258.865 291.206C260.792 288.297 271.363 295.292 276.818 298.12C275.75 302.024 267.071 301.375 263.085 299.337Z" fill="#FFA200"/>
<path d="M258.089 290.977C261.165 293.654 264.767 295.659 268.663 296.864C272.559 298.069 276.664 298.447 280.714 297.973" stroke="#E36500" stroke-width="0.45" stroke-miterlimit="10.005"/>
<path d="M170.971 226.426C169.228 224.073 168.15 220.2 170.248 217.497C170.803 216.795 171.532 216.251 172.363 215.919C173.194 215.587 174.098 215.48 174.983 215.606C176.574 215.948 178.053 216.685 179.284 217.748C181.563 219.719 183.934 221.614 186.237 223.556C188.349 225.332 191.103 226.796 192.865 228.927C192.983 229.044 193.054 229.202 193.064 229.368C193.047 229.501 192.987 229.624 192.893 229.72C192.212 230.42 191.351 230.921 190.406 231.168C188.549 231.923 186.581 232.369 184.58 232.492C179.261 232.574 174.285 230.894 170.971 226.426Z" fill="#FFA200"/>
<path d="M169.836 215.66C172.89 220.377 177.127 224.212 182.125 226.781C187.122 229.35 192.706 230.564 198.32 230.302" stroke="#E36500" stroke-width="0.5" stroke-miterlimit="10"/>
<path d="M130.149 147.519C127.595 143.243 124.835 138.938 120.829 135.986C114.062 131.001 105.036 130.717 96.6369 130.634" stroke="#E36500" stroke-width="0.599876" stroke-miterlimit="10" stroke-linecap="round"/>
<path d="M119.653 39.5717C109.005 31.902 99.7563 22.4579 92.3105 11.6523" stroke="#904E4C" stroke-width="0.6" stroke-miterlimit="10" stroke-linecap="round"/>
<path d="M31.942 36.6218C18.4884 29.0409 8.26038 16.815 3.17383 2.23438" stroke="#E36500" stroke-width="0.599876" stroke-miterlimit="10" stroke-linecap="round"/>
<path d="M514.297 343.241C510.525 343.879 508.013 344.661 504.776 345.058C501.591 345.438 498.369 345.36 495.207 344.826C492.304 344.315 489.565 343.119 487.217 341.337C486.21 340.554 485.364 339.584 484.725 338.481C484.566 338.224 484.468 337.951 484.339 337.688L484.092 336.94C484.092 336.879 484.151 336.827 484.232 336.824C484.247 336.822 484.262 336.822 484.277 336.824L484.194 336.805C486.949 337.505 488.539 339.679 487.861 341.81C487.544 342.959 486.892 343.989 485.989 344.768C485.502 345.202 484.965 345.576 484.389 345.883C483.735 346.22 483.063 346.521 482.375 346.783C480.947 347.339 479.471 347.764 477.967 348.053C476.467 348.353 474.799 348.461 473.167 348.652C469.897 348.961 466.612 349.08 463.328 349.009C460.023 348.915 456.733 348.684 453.456 348.318C450.179 347.937 446.915 347.441 443.664 346.881C440.421 346.293 437.282 345.703 434.052 345.035L424.28 342.914C424.201 343.66 436.79 346.587 443.272 348.014C449.833 349.51 456.513 350.427 463.235 350.754C466.646 350.904 470.064 350.826 473.465 350.521C475.183 350.379 476.887 350.172 478.578 349.9C480.278 349.592 481.944 349.122 483.554 348.495C484.34 348.187 485.107 347.837 485.854 347.445C486.599 347.043 487.294 346.552 487.923 345.984C489.075 344.972 489.901 343.64 490.296 342.158C490.487 341.44 490.524 340.691 490.407 339.958C490.235 339.194 489.893 338.48 489.407 337.867C488.249 336.487 486.662 335.534 484.9 335.161L484.85 335.148H484.816C484.061 335.003 483.279 335.153 482.631 335.566C482.364 335.725 482.148 335.959 482.012 336.238C481.875 336.517 481.822 336.83 481.861 337.139C481.878 337.246 481.908 337.351 481.95 337.452L482.04 337.698L482.226 338.192C482.392 338.507 482.526 338.834 482.726 339.137C483.534 340.402 484.575 341.503 485.793 342.381C488.484 344.295 491.602 345.521 494.876 345.951C498.184 346.506 501.558 346.54 504.876 346.051C508.106 345.478 514.126 344.308 514.297 343.241Z" fill="#FBFAF9"/>
<path d="M366.126 248.059C366.478 247.674 345.336 218.687 342.75 215.838C329.426 201.174 286.999 159.473 272.713 148.346C253.327 133.246 234.201 117.517 214.139 103.311C194.576 89.4582 164.879 72.2011 144.23 61.9191C124.281 52.3411 104.636 45.3082 86.8893 42.5192C84.6453 42.1012 82.5413 42.0022 80.3703 41.7332C78.2033 41.5332 76.0883 41.2332 73.8963 41.1102C69.8798 40.8931 65.8606 41.4851 62.0773 42.8511C58.7671 44.0322 55.7729 45.9589 53.3263 48.4822C50.7496 51.1719 49.0121 54.554 48.3263 58.2152C47.9304 60.4806 47.8611 62.7911 48.1203 65.0762C48.5418 68.0089 49.3732 70.8678 50.5903 73.5692C53.2779 79.5728 56.7345 85.2016 60.8733 90.3141C64.9773 95.5778 69.6377 100.383 74.7733 104.646C79.7453 108.677 85.1933 111.878 89.4623 112.446C84.2052 110.297 79.4509 107.081 75.4993 103.001C71.1674 98.8322 67.2949 94.2108 63.9483 89.2161C60.9264 84.8844 58.4803 80.1783 56.6713 75.2161C56.0147 73.3813 55.659 71.4525 55.6183 69.5042C55.6653 67.8826 55.9862 66.2807 56.5673 64.7662C58.7533 59.0532 63.9793 55.7431 70.3323 54.4841C73.7318 53.8354 77.2108 53.7139 80.6473 54.1241C82.5773 54.3861 84.7603 54.8552 86.7953 55.2072C88.8883 55.6292 90.8953 55.8731 93.0363 56.4261C111.694 61.2108 129.732 68.1456 146.79 77.0911C156.122 82.0551 165.49 87.0911 174.948 93.0651C184.384 98.8601 193.864 105.06 203.31 111.754C212.773 118.354 222.21 125.366 231.61 132.675C236.31 136.291 241.085 140.132 245.82 143.861L260.02 155.293C278.915 170.659 297.649 186.581 316.291 202.863C328.691 213.691 366.126 248.059 366.126 248.059Z" fill="#F2EFEB"/>
</svg>
